<svg width="16" height="16" viewBox="0 0 16 16" fill="none" xmlns="http://www.w3.org/2000/svg">
<path fill-rule="evenodd" clip-rule="evenodd" d="M7.99987 0C3.58186 0 0 3.58186 0 7.99987C0 12.4179 3.58186 16 7.99987 16C12.4179 16 16 12.4179 16 7.99987C16 3.58186 12.4179 0 7.99987 0ZM11.4584 9.5215H8.06663C8.05517 9.5215 8.0445 9.51864 8.03303 9.51817C8.02183 9.51864 8.01117 9.5215 7.9997 9.5215C7.69396 9.5215 7.44629 9.27363 7.44629 8.96816V3.32013C7.44629 3.01439 7.69396 2.76672 7.9997 2.76672C8.30517 2.76672 8.55284 3.01439 8.55284 3.32013V8.41502H11.4581C11.7636 8.41502 12.0112 8.66262 12.0112 8.96816C12.0112 9.27363 11.7638 9.5215 11.4584 9.5215Z" fill="#F38212"/>
</svg>
