<svg width="15" height="11" viewBox="0 0 15 11" fill="none" xmlns="http://www.w3.org/2000/svg">
<mask id="mask0" mask-type="alpha" maskUnits="userSpaceOnUse" x="0" y="0" width="15" height="11">
<path fill-rule="evenodd" clip-rule="evenodd" d="M0 0H15V11H0V0Z" fill="white"/>
</mask>
<g mask="url(#mask0)">
<path fill-rule="evenodd" clip-rule="evenodd" d="M14.9998 9.16669C14.9998 9.48814 14.9073 9.7862 14.7589 10.0485L10.0229 4.86716L14.7077 0.859375C14.89 1.14218 14.9998 1.4744 14.9998 1.8333V9.16669ZM7.50005 5.80793L14.0186 0.230922C13.7512 0.0876923 13.4499 0 13.1249 0H1.87501C1.54956 0 1.24831 0.0876923 0.981934 0.230922L7.50005 5.80793ZM9.31735 5.47046L7.80861 6.76235C7.72017 6.83744 7.61031 6.87508 7.50004 6.87508C7.38974 6.87508 7.27988 6.83744 7.19147 6.76221L5.68229 5.47046L0.88623 10.7181C1.17378 10.8945 1.51065 11.0001 1.875 11.0001H13.1249C13.4894 11.0001 13.8263 10.8945 14.1137 10.7181L9.31735 5.47046ZM0.292125 0.859375C0.109863 1.14218 0 1.4744 0 1.8333V9.16669C0 9.48814 0.0919918 9.7862 0.240746 10.0485L4.97631 4.86615L0.292125 0.859375Z" fill="#F38212"/>
</g>
</svg>
