<svg width="15" height="15" viewBox="0 0 15 15" fill="none" xmlns="http://www.w3.org/2000/svg">
<mask id="mask0" mask-type="alpha" maskUnits="userSpaceOnUse" x="0" y="0" width="15" height="15">
<path fill-rule="evenodd" clip-rule="evenodd" d="M0 0H15V15H0V0Z" fill="white"/>
</mask>
<g mask="url(#mask0)">
<path fill-rule="evenodd" clip-rule="evenodd" d="M14.9929 11.838C15.0245 12.0815 14.9504 12.2935 14.7705 12.4735L12.6586 14.5709C12.5633 14.6768 12.4389 14.7669 12.2854 14.841C12.1319 14.9152 11.981 14.9629 11.8329 14.984C11.8223 14.984 11.7904 14.9867 11.7375 14.992C11.6847 14.9973 11.6159 15 11.5311 15C11.3301 15 11.0045 14.9655 10.5546 14.8967C10.1046 14.8279 9.55406 14.6583 8.90312 14.3882C8.25205 14.118 7.51367 13.7128 6.68789 13.1727C5.86223 12.6325 4.98348 11.8908 4.05192 10.9481C3.31088 10.2171 2.69692 9.51795 2.20993 8.85062C1.72291 8.18325 1.33131 7.56622 1.03483 6.99944C0.738391 6.43274 0.516027 5.91892 0.367936 5.45807C0.219683 4.99737 0.119106 4.60006 0.0661425 4.26639C0.0131787 3.9327 -0.00796793 3.67053 0.00267025 3.47986C0.0131787 3.28918 0.0184978 3.18322 0.0184978 3.16203C0.0396768 3.01371 0.0872891 2.86286 0.161432 2.70919C0.235542 2.55555 0.32548 2.43118 0.431408 2.33583L2.54338 0.222477C2.6916 0.0741589 2.861 0 3.05154 0C3.18913 0 3.31088 0.0396596 3.41668 0.119141C3.52258 0.198655 3.61255 0.296636 3.68666 0.413148L5.38575 3.63872C5.48101 3.8082 5.5075 3.99368 5.46518 4.1949C5.42285 4.39621 5.33291 4.56569 5.1952 4.70336L4.41716 5.48192C4.39601 5.50321 4.37739 5.53758 4.36156 5.58522C4.3457 5.6329 4.33773 5.67272 4.33773 5.7044C4.38005 5.92691 4.47531 6.18109 4.62356 6.46708C4.75064 6.7214 4.9465 7.03124 5.21116 7.39675C5.47582 7.76212 5.85159 8.18325 6.33861 8.65995C6.81496 9.14725 7.23838 9.52593 7.60896 9.79609C7.97939 10.0661 8.28903 10.2648 8.53786 10.392C8.78656 10.519 8.97723 10.5958 9.1095 10.6223L9.30789 10.662C9.32907 10.662 9.36352 10.654 9.41116 10.6382C9.45881 10.6223 9.49325 10.6038 9.51443 10.5825L10.4195 9.66095C10.6102 9.49147 10.8324 9.40663 11.0864 9.40663C11.2665 9.40663 11.4094 9.43847 11.5152 9.50198H11.5311L14.5958 11.3135C14.8182 11.4513 14.9504 11.626 14.9929 11.838Z" fill="#F38212"/>
</g>
</svg>
