<svg width="15" height="22" viewBox="0 0 15 22" fill="none" xmlns="http://www.w3.org/2000/svg">
<mask id="mask0" mask-type="alpha" maskUnits="userSpaceOnUse" x="0" y="0" width="15" height="22">
<path fill-rule="evenodd" clip-rule="evenodd" d="M0 0H15V22H0V0Z" fill="white"/>
</mask>
<g mask="url(#mask0)">
<path fill-rule="evenodd" clip-rule="evenodd" d="M14.6456 5.47617C14.5676 5.18253 14.4103 4.86964 14.2936 4.59525C12.9007 1.21275 9.85666 0 7.39839 0C4.1085 0 0.484456 2.22964 0 6.82489V7.76294C0 7.80236 0.0130035 8.15436 0.0317528 8.33097C0.303617 10.52 2.01403 12.8477 3.2911 15.0379C4.66493 17.3843 6.09078 19.6927 7.50333 22C8.37517 20.4936 9.24338 18.9683 10.094 17.5013C10.3266 17.0717 10.596 16.6421 10.8277 16.2314C10.9822 15.9567 11.2789 15.6836 11.4135 15.4293C12.7873 12.8871 15 10.3256 15 7.80236V6.76622C15 6.49306 14.6643 5.53453 14.6456 5.47617ZM7.45854 10.1884C6.49114 10.1884 5.43272 9.70012 4.91046 8.35017C4.83244 8.13537 4.83849 7.70454 4.83849 7.66512V7.05859C4.83849 5.33862 6.2843 4.55579 7.54231 4.55579C9.09003 4.55579 10.2879 5.80795 10.2879 7.3727C10.2879 8.93745 9.00717 10.1884 7.45854 10.1884Z" fill="#F38212"/>
</g>
</svg>
