<?xml version="1.0" encoding="utf-8"?>
<!-- Generator: Adobe Illustrator 22.0.0, SVG Export Plug-In . SVG Version: 6.00 Build 0)  -->
<svg version="1.1" id="Layer_1" xmlns="http://www.w3.org/2000/svg" xmlns:xlink="http://www.w3.org/1999/xlink" x="0px" y="0px"
	 viewBox="0 0 1245 637" style="enable-background:new 0 0 1245 637;" xml:space="preserve">
<style type="text/css">
	.st0{opacity:0.12;}
	.st1{fill:#16D2FF;}
	.st2{opacity:0.11;fill:#A0EA56;}
</style>
<g class="st0">
	<path id="object-b_1_" class="st1" d="M609.5,268.4L298.5,583c-34.2,34.6-89.9,34.9-124.4,0.7c-11.1-11-19.1-24.7-23.1-39.8
		L50.5,169.1c-12.6-46.9,15.3-95.2,62.2-107.8c15.1-4,31-4,46,0.1l426.6,116.9c28.8,7.9,45.7,37.6,37.8,66.4
		C620.7,253.7,616,261.8,609.5,268.4z"/>
</g>
<path class="st2" d="M1159.4,283.8l-146.6-29.6c-47.6-9.6-78.4-56.1-68.8-103.7c2.7-13.4,8.5-26,16.9-36.7l44.9-57.5
	c29.9-38.3,85.2-45.1,123.5-15.2c10.8,8.4,19.4,19.2,25.3,31.6l64.2,135.1c12.8,26.9,1.4,59.1-25.6,72
	C1182.8,284.7,1170.9,286.2,1159.4,283.8z"/>
</svg>
