<?xml version="1.0" encoding="utf-8"?>
<!-- Generator: Adobe Illustrator 22.0.0, SVG Export Plug-In . SVG Version: 6.00 Build 0)  -->
<svg version="1.1" xmlns="http://www.w3.org/2000/svg" xmlns:xlink="http://www.w3.org/1999/xlink" x="0px" y="0px"
	 viewBox="0 0 1440 697" style="enable-background:new 0 0 1440 697;" xml:space="preserve">
<style type="text/css">
	.st0{fill:url(#SVGID_1_);}
	.st1{opacity:0.14;fill:#FFFFFF;}
</style>
<g id="Layer_10">
	<g id="Layer_7">
		<g id="Layer_8">
			<linearGradient id="SVGID_1_" gradientUnits="userSpaceOnUse" x1="209.7263" y1="828.2737" x2="1286.0192" y2="-248.0191">
				<stop  offset="0" style="stop-color:#64AFFF"/>
				<stop  offset="1" style="stop-color:#3D89FF"/>
			</linearGradient>
			<path class="st0" d="M1440,0v605.3c0,20.5,0,30.7,0,30.7s-79.2,37.3-215.6,53.5l-8.1,0.9h0c-15.1,1.7-30.8,3.1-47.1,4.2l-7.6,0.5
				c-35.1,2.1-73.1,2.5-113.8,0.8l-5.4-0.2h0c-20.4-1-41.4-2.6-63-4.8h0c-6-0.6-12.1-1.3-18.2-2c-23.2-2.8-47.1-6.3-71.6-10.7
				c0,0,0,0,0,0c-4.1-0.7-8.2-1.5-12.3-2.3c-22-4.2-44.6-9-67.6-14.7c-9.8-2.4-19.6-4.9-29.5-7.6c-19.4-5.2-39.1-11.1-59.2-17.5
				c-6.4-2-12.8-4-19.1-6c-13.9-4.2-27.8-8.2-41.4-11.9C265.6,511.8,0,635.1,0,618V0H1440z"/>
		</g>
	</g>
</g>
<g id="Layer_104">
	<path class="st1" d="M1148.7,25.7c-1-9.1-1.9-18.1-2.8-27.1c-13.5,14.6-26.2,29.8-38,45.6c0.9,8.5,1.9,17.1,2.8,25.6
		C1122.5,54.5,1135.2,39.8,1148.7,25.7L1148.7,25.7z"/>
</g>
<g id="Layer_103">
	<path class="st1" d="M1102.6,50c-6.1,8.6-12,17.4-17.6,26.3l-2.9,33.1c7.3-11.6,15-22.9,23.1-34C1104.3,66.9,1103.4,58.4,1102.6,50
		L1102.6,50z"/>
</g>
<g id="Layer_102">
	<path class="st1" d="M1173.5,0c-6.9,6.3-13.6,12.7-20,19.3c-0.7-6.5-1.4-12.9-2.1-19.3H1173.5z"/>
</g>
<g id="Layer_101">
	<path class="st1" d="M1283.6,0c-11,6.7-21.7,13.6-31.8,20.9c-1.1-7-2.1-13.9-3.1-20.9H1283.6z"/>
</g>
<g id="Layer_100">
	<path class="st1" d="M1078.3,198.3c1.1,6.5,2.3,13,3.5,19.6c10.4-19.3,21.6-38.1,33.8-56.3c-1.1-7.5-2.2-14.9-3.3-22.4
		C1100,158.3,1088.7,178.1,1078.3,198.3L1078.3,198.3z"/>
</g>
<g id="Layer_99">
	<path class="st1" d="M1074,210.1c-0.3,0.6-0.6,1.2-0.9,1.7l-2.8,32.1c2.4-4.6,4.8-9.2,7.2-13.8
		C1076.3,223.5,1075.1,216.8,1074,210.1L1074,210.1z"/>
</g>
<g id="Layer_98">
	<path class="st1" d="M1118.3,131.7c1.2,7.5,2.4,14.9,3.6,22.4c11.3-16.2,23.5-31.8,36.6-46.9c-1.2-8.2-2.3-16.3-3.4-24.5
		C1141.9,98.4,1129.7,114.8,1118.3,131.7L1118.3,131.7z"/>
</g>
<g id="Layer_97">
	<path class="st1" d="M1161.4,75.3c1.1,8.1,2.2,16.2,3.5,24.3c11.6-13.3,23.8-26.2,36.9-38.4c-1.2-8.6-2.3-17.3-3.3-25.9
		C1185.2,48.1,1173,61.5,1161.4,75.3L1161.4,75.3z"/>
</g>
<g id="Layer_96">
	<path class="st1" d="M1204.4,30.5c1.2,8.6,2.4,17.2,3.8,25.8c12.2-10.9,25.2-21.3,38.9-31.2c-1.3-9-2.5-18-3.6-27
		C1229.7,8.4,1216.7,19.2,1204.4,30.5L1204.4,30.5z"/>
</g>
<g id="Layer_95">
	<path class="st1" d="M1058.4,388.4c-0.3,0.9-0.7,1.8-1,2.7l-2.7,31.1c2.6-7.1,5.2-14.2,7.9-21.2
		C1061.2,396.8,1059.8,392.6,1058.4,388.4L1058.4,388.4z"/>
</g>
<g id="Layer_94">
	<path class="st1" d="M1069.6,379.4c8.1-21.5,16.9-42.7,26.5-63.6c-1.4-5.2-2.7-10.5-4-15.7c-9.7,22-18.4,44.4-26.6,66.9
		C1066.9,371.1,1068.3,375.3,1069.6,379.4L1069.6,379.4z"/>
</g>
<g id="Layer_93">
	<path class="st1" d="M1440,0v6.5c-10.1,2.9-19.9,5.9-29.4,9.2c-1.9-5.2-3.6-10.4-5.3-15.7H1440z"/>
</g>
<g id="Layer_92">
	<path class="st1" d="M1134,215.8c1.4,6.4,2.9,12.7,4.4,19.1c10.3-16.8,21.4-33.2,33.3-49c-1.5-7.2-2.9-14.5-4.2-21.7
		C1155.5,180.8,1144.3,198,1134,215.8L1134,215.8z"/>
</g>
<g id="Layer_91">
	<path class="st1" d="M1097.7,287.1c1.4,5.3,2.8,10.6,4.3,15.8c9.3-19.4,19.4-38.4,30.5-56.9c-1.4-6.3-2.8-12.7-4.1-19
		C1117.1,246.5,1107,266.6,1097.7,287.1L1097.7,287.1z"/>
</g>
<g id="Layer_90">
	<path class="st1" d="M1305.4,35.8c1.9,8.5,3.9,17,6.1,25.5c13-7.7,26.5-14.9,40.8-21.7c-2.3-8.8-4.3-17.6-6.3-26.4
		C1331.8,20.2,1318.3,27.7,1305.4,35.8L1305.4,35.8z"/>
</g>
<g id="Layer_89">
	<path class="st1" d="M1260.5,67c1.7,8.2,3.6,16.3,5.6,24.4c12.6-9.4,25.8-18.2,39.8-26.6c-2-8.5-3.9-17-5.6-25.6
		C1286.3,48,1273,57.2,1260.5,67L1260.5,67z"/>
</g>
<g id="Layer_88">
	<path class="st1" d="M1403.4,17.2c-15,5.3-29.3,11-43.1,17.2c-2.6-8.7-5.1-17.4-7.3-26.2c6-2.8,12.1-5.6,18.4-8.2h26.9
		C1399.8,5.8,1401.6,11.5,1403.4,17.2z"/>
</g>
<g id="Layer_87">
	<path class="st1" d="M1215.7,108.2c1.6,7.8,3.2,15.7,5,23.4c11.9-11.6,24.6-22.8,38-33.4c-1.7-8.3-3.4-16.6-4.9-25
		C1240.4,84.4,1227.7,96,1215.7,108.2L1215.7,108.2z"/>
</g>
<g id="Layer_86">
	<path class="st1" d="M1174.4,155.5c1.5,7.2,3.1,14.5,4.7,21.7c11.3-14.1,23.2-27.8,36.1-40.9c-1.6-7.9-3.1-15.7-4.5-23.6
		C1197.8,126.4,1185.7,140.7,1174.4,155.5L1174.4,155.5z"/>
</g>
<g id="Layer_85">
	<path class="st1" d="M1372.1,75.8c3.1,8,6.3,15.9,9.8,23.7c14-6.4,28.6-12.2,43.9-17.6c-3.9-8.1-7.4-16.3-10.8-24.6
		C1400.1,63,1385.8,69.2,1372.1,75.8L1372.1,75.8z"/>
</g>
<g id="Layer_84">
	<path class="st1" d="M1324.5,104c2.6,7.9,5.5,15.7,8.4,23.4c13.2-8.1,27.1-15.7,41.7-22.8c-3.2-8.1-6.1-16.3-8.9-24.6
		C1351.3,87.5,1337.6,95.5,1324.5,104L1324.5,104z"/>
</g>
<g id="Layer_83">
	<path class="st1" d="M1440,47.7v28.8c-0.8,0.3-1.7,0.5-2.5,0.8c-4.4-8.1-8.4-16.3-12.2-24.6C1430.2,51,1435.1,49.3,1440,47.7z"/>
</g>
<g id="Layer_82">
	<path class="st1" d="M1118.5,393.5c-1.5-4.1-3-8.2-4.4-12.3c-7.9,20.5-15.2,41.2-22.1,62c1.4,3.3,2.8,6.5,4.2,9.7
		C1103.1,433,1110.5,413.1,1118.5,393.5L1118.5,393.5z"/>
</g>
<g id="Layer_81">
	<path class="st1" d="M1191.9,231c1.9,6.1,3.9,12.1,6,18.1c10.6-14,21.9-27.5,34.1-40.5c-2.1-6.7-4.1-13.5-6-20.3
		C1213.8,202,1202.5,216.3,1191.9,231L1191.9,231z"/>
</g>
<g id="Layer_80">
	<path class="st1" d="M1121.2,362c1.6,4.1,3.2,8.2,4.9,12.3c8.3-18.4,17.2-36.5,26.9-54.1c-1.7-5.1-3.4-10.1-5-15.2
		C1138.3,323.6,1129.4,342.6,1121.2,362L1121.2,362z"/>
</g>
<g id="Layer_79">
	<path class="st1" d="M1155.3,293.4c1.7,5.2,3.4,10.4,5.2,15.6c9.2-16.7,19.1-32.9,29.9-48.7c-1.8-6.1-3.5-12.2-5.2-18.4
		C1174.4,258.6,1164.5,275.8,1155.3,293.4L1155.3,293.4z"/>
</g>
<g id="Layer_78">
	<path class="st1" d="M1087.4,473.3c-1.3-3.1-2.5-6.3-3.7-9.4c-6.3,20.5-12.2,41-17.9,61.5c1.2,2.5,2.4,5,3.6,7.5
		C1075.1,513.1,1081.1,493.2,1087.4,473.3L1087.4,473.3z"/>
</g>
<g id="Layer_77">
	<path class="st1" d="M1234.6,179.5c2,6.7,4.1,13.4,6.4,20.1c11.3-11.7,23.2-23,36-33.7c-2.3-7.3-4.4-14.6-6.4-22
		C1257.7,155.3,1245.8,167.2,1234.6,179.5L1234.6,179.5z"/>
</g>
<g id="Layer_76">
	<path class="st1" d="M1277.2,139.3c2.2,7.4,4.7,14.7,7.2,22c12.2-9.8,25-19.2,38.5-28.1c-2.6-7.7-5-15.5-7.3-23.4
		C1302.1,119.1,1289.3,129,1277.2,139.3L1277.2,139.3z"/>
</g>
<g id="Layer_75">
	<path class="st1" d="M1128.4,511c6.1-17.9,12.6-35.8,19.6-53.4c-1.6-3.2-3.2-6.4-4.8-9.5c-6.9,18.4-13.3,36.9-19.3,55.6
		C1125.4,506.1,1126.9,508.5,1128.4,511L1128.4,511z"/>
</g>
<g id="Layer_74">
	<path class="st1" d="M1150.5,429.4c1.7,3.3,3.4,6.5,5.2,9.7c7.2-17.1,15-33.9,23.5-50.4c-1.9-4.1-3.7-8.1-5.5-12.2
		C1165.3,393.8,1157.6,411.5,1150.5,429.4L1150.5,429.4z"/>
</g>
<g id="Layer_73">
	<path class="st1" d="M1292.3,210.2c-12.2,11.1-23.7,22.7-34.4,34.7c2.5,5.8,5.1,11.5,7.9,17.1c10.8-11.5,22.4-22.5,34.7-33
		C1297.6,222.8,1294.9,216.5,1292.3,210.2L1292.3,210.2z"/>
</g>
<g id="Layer_72">
	<path class="st1" d="M1350.7,194.6c-3.4-6.7-6.7-13.5-9.8-20.3c-13.5,9.1-26.2,18.7-38.1,28.8c2.9,6.4,6.1,12.6,9.3,18.9
		C1324.3,212.3,1337.1,203.2,1350.7,194.6L1350.7,194.6z"/>
</g>
<g id="Layer_71">
	<path class="st1" d="M1181.7,359.1c2,4.2,4,8.4,6.1,12.6c8.6-15.8,17.9-31.3,28-46.3c-2.2-5-4.3-10-6.4-15.1
		C1199.4,326.1,1190.2,342.4,1181.7,359.1L1181.7,359.1z"/>
</g>
<g id="Layer_70">
	<path class="st1" d="M1440,120.7v27.1c-8.5,3.1-16.7,6.4-24.8,9.8c-4.7-6.9-9.1-14-13.2-21.1C1414.1,130.9,1426.8,125.6,1440,120.7
		z"/>
</g>
<g id="Layer_69">
	<path class="st1" d="M1351.1,167.5c3.4,7,7,13.8,10.7,20.6c13.2-8.1,27-15.7,41.7-22.7c-4.1-7.2-8-14.4-11.7-21.8
		C1377.5,151,1363.9,159,1351.1,167.5L1351.1,167.5z"/>
</g>
<g id="Layer_68">
	<path class="st1" d="M1249.2,256.6c-11.1,13.3-21.4,27.1-31.1,41.3c2.2,5,4.5,9.9,6.9,14.8c9.7-13.5,20.2-26.5,31.4-39
		C1254,268,1251.5,262.3,1249.2,256.6L1249.2,256.6z"/>
</g>
<g id="Layer_67">
	<path class="st1" d="M1322.4,271c-11.9,10.9-23.1,22.3-33.6,34.2c3,5,6.2,10,9.4,14.9c10.7-11.3,22.1-22.2,34.3-32.5
		C1329,282.1,1325.7,276.6,1322.4,271L1322.4,271z"/>
</g>
<g id="Layer_66">
</g>
<g id="Layer_65">
	<path class="st1" d="M1441.9,219.4c-5.4-6.4-10.6-13-15.5-19.6c-14.8,7.2-28.8,15.1-42.1,23.5c4.3,6.1,8.8,12.2,13.6,18.2
		C1411.8,233.5,1426.4,226.2,1441.9,219.4L1441.9,219.4z"/>
</g>
<g id="Layer_64">
	<path class="st1" d="M1238.6,373.1c-8.9,14.8-17.2,30-24.9,45.5c2.1,3.4,4.4,6.8,6.6,10.1c7.9-14.7,16.3-29.1,25.4-43.1
		C1243.2,381.4,1240.9,377.3,1238.6,373.1L1238.6,373.1z"/>
</g>
<g id="Layer_63">
	<path class="st1" d="M1209.3,444.9c-2-3.2-4-6.4-6-9.7c-7.3,15.8-14.1,31.9-20.5,48.2c1.8,2.6,3.6,5.1,5.4,7.7
		C1194.8,475.5,1201.8,460.1,1209.3,444.9L1209.3,444.9z"/>
</g>
<g id="Layer_62">
	<path class="st1" d="M1277.1,316.2c-10.4,12.8-19.9,26.2-28.9,39.9c2.5,4.2,5.1,8.4,7.8,12.5c9.2-13,19-25.6,29.6-37.7
		C1282.7,326.1,1279.9,321.2,1277.1,316.2L1277.1,316.2z"/>
</g>
<g id="Layer_61">
	<path class="st1" d="M1383,250.2c-4.2-6-8.2-12-12-18.1c-13.1,9-25.4,18.5-37,28.5c3.5,5.5,7.2,11,10.9,16.4
		C1356.8,267.5,1369.5,258.6,1383,250.2L1383,250.2z"/>
</g>
<g id="Layer_60">
	<path class="st1" d="M1163.2,563.2c5.6-16.3,11.6-32.5,18-48.6c-1.8-2.5-3.6-5-5.3-7.6c-6.2,16.6-12,33.4-17.5,50.2
		C1159.9,559.3,1161.6,561.3,1163.2,563.2L1163.2,563.2z"/>
</g>
<g id="Layer_59">
	<path class="st1" d="M1293.8,419.1c9.1-12.4,18.9-24.4,29.4-35.9c-3.4-4.1-6.7-8.3-9.9-12.5c-10.2,12.2-19.6,24.8-28.5,37.8
		C1287.7,412,1290.8,415.5,1293.8,419.1L1293.8,419.1z"/>
</g>
<g id="Layer_58">
	<path class="st1" d="M1274.3,425.4c-8.5,13.4-16.4,27.2-23.7,41.3c2.4,2.8,4.9,5.6,7.3,8.4c7.6-13.5,15.7-26.7,24.5-39.5
		C1279.7,432.3,1277,428.8,1274.3,425.4L1274.3,425.4z"/>
</g>
<g id="Layer_57">
	<path class="st1" d="M1240.4,486.7c-7,14.6-13.5,29.5-19.6,44.5c2,2.2,4,4.4,6,6.5c6.3-14.6,13-28.9,20.3-43
		C1244.9,492,1242.6,489.4,1240.4,486.7L1240.4,486.7z"/>
</g>
<g id="Layer_56">
	<path class="st1" d="M1373.3,338c-4.2-4.7-8.3-9.6-12.3-14.4c-11.9,10.3-23,21.2-33.5,32.5c3.6,4.3,7.2,8.5,11,12.7
		C1349.4,358,1360.9,347.7,1373.3,338L1373.3,338z"/>
</g>
<g id="Layer_55">
	<path class="st1" d="M1440,271.2v15.2c-3.5-3.2-6.8-6.4-10.2-9.7C1433.2,274.8,1436.6,273,1440,271.2z"/>
</g>
<g id="Layer_54">
	<path class="st1" d="M1428.6,302.1c-5.4-5.3-10.7-10.7-15.7-16.2c-14,8.5-27.1,17.7-39.5,27.3c4.4,4.9,9,9.8,13.7,14.6
		C1400.2,318.7,1414,310.1,1428.6,302.1L1428.6,302.1z"/>
</g>
<g id="Layer_53">
	<path class="st1" d="M1440,347v24.2c-0.2,0.1-0.4,0.2-0.6,0.4c-5.8-4.3-11.3-8.7-16.7-13.1C1428.3,354.5,1434.1,350.7,1440,347z"/>
</g>
<g id="Layer_52">
	<path class="st1" d="M1420.5,384c-5.1-4.1-10.1-8.2-15-12.4c-12.3,9.3-23.9,19.1-34.7,29.4c4.2,3.7,8.6,7.3,13,10.9
		C1395.2,402.1,1407.4,392.8,1420.5,384L1420.5,384z"/>
</g>
<g id="Layer_51">
	<path class="st1" d="M1314.4,469.1c-8.7,12.5-16.7,25.4-24.2,38.6c2.7,2.4,5.6,4.8,8.5,7.2c7.8-12.6,16.2-25,25.2-36.9
		C1320.7,475,1317.5,472,1314.4,469.1L1314.4,469.1z"/>
</g>
<g id="Layer_50">
	<path class="st1" d="M1367.3,429.2c-4-3.5-7.9-7.1-11.6-10.7c-10.2,11.1-19.7,22.6-28.6,34.5c3.3,3.1,6.8,6.1,10.3,9.1
		C1346.7,450.6,1356.6,439.7,1367.3,429.2L1367.3,429.2z"/>
</g>
<g id="Layer_49">
	<path class="st1" d="M1260.6,570.7c2.1,1.9,4.2,3.8,6.3,5.6c6.2-13.6,12.7-27,19.8-40.2c-2.4-2.3-4.9-4.6-7.2-6.9
		C1272.7,542.8,1266.4,556.7,1260.6,570.7L1260.6,570.7z"/>
</g>
<g id="Layer_48">
	<path class="st1" d="M1440,428.8v22.1c-0.5,0.3-0.9,0.6-1.4,1c-5.5-3.2-10.9-6.5-16.2-9.9C1428.1,437.4,1433.9,433,1440,428.8z"/>
</g>
<g id="Layer_47">
	<path class="st1" d="M1358.2,508c-8.6,11.7-16.6,23.9-24.1,36.3c3,2.2,6,4.4,9,6.6c7.9-12,16.4-23.6,25.6-34.8
		C1365.1,513.4,1361.7,510.7,1358.2,508L1358.2,508z"/>
</g>
<g id="Layer_46">
	<path class="st1" d="M1303.7,605.4c2.4,1.7,4.8,3.3,7.2,4.9c6.4-12.6,13.3-24.9,20.7-37c-2.8-2-5.6-4.1-8.4-6.1
		C1316.3,579.7,1309.8,592.4,1303.7,605.4L1303.7,605.4z"/>
</g>
<g id="Layer_45">
	<path class="st1" d="M1417.2,467.4c-4.7-3.2-9.4-6.4-13.9-9.6c-10.8,10.3-20.8,21.1-30.2,32.4c3.9,2.8,7.9,5.5,11.9,8.2
		C1395,487.5,1405.7,477.2,1417.2,467.4L1417.2,467.4z"/>
</g>
<g id="Layer_44">
	<path class="st1" d="M1348.5,633c2.5,1.5,5.2,2.9,7.7,4.4c6.5-11.8,13.5-23.4,21-34.7c-3.1-1.8-6.1-3.6-9.1-5.4
		C1361.1,608.9,1354.6,620.8,1348.5,633L1348.5,633z"/>
</g>
<g id="Layer_43">
	<path class="st1" d="M1382.5,577.4c3.5,2,7,4,10.5,5.9c8.7-11.3,17.9-22.2,27.9-32.6c-4.2-2.4-8.4-4.8-12.5-7.2
		C1399.1,554.4,1390.5,565.7,1382.5,577.4L1382.5,577.4z"/>
</g>
<g id="Layer_42">
	<path class="st1" d="M1440,512.9V530c-4-2-7.9-4-11.7-6.1C1432.1,520.2,1436,516.5,1440,512.9z"/>
</g>
<g id="Layer_41">
	<path class="st1" d="M1440,605.3c-0.2-0.1-0.5-0.2-0.7-0.3c0.2-0.3,0.5-0.6,0.7-0.8V605.3z"/>
</g>
<g id="Layer_40">
	<path class="st1" d="M1216.3,690.4L1216.3,690.4c2.1-5.8,4.2-11.7,6.2-17.6c1.4,3.2,2.8,6.5,4.2,9.7c-0.8,2.3-1.5,4.6-2.3,6.9
		L1216.3,690.4z"/>
</g>
<g id="Layer_39">
	<path class="st1" d="M1231.4,651.5c1.3,3.1,2.5,6.3,3.7,9.4c6.3-20.5,12.2-41,17.9-61.5c-1.2-2.5-2.4-5-3.6-7.5
		C1243.7,611.7,1237.8,631.6,1231.4,651.5L1231.4,651.5z"/>
</g>
<g id="Layer_38">
	<path class="st1" d="M1190.5,612.8c-6.1,17.9-12.6,35.8-19.6,53.4c1.6,3.2,3.2,6.4,4.8,9.5c6.9-18.4,13.3-36.9,19.3-55.6
		C1193.6,617.7,1192,615.3,1190.5,612.8L1190.5,612.8z"/>
</g>
<g id="Layer_37">
	<path class="st1" d="M1161.6,695c1.2-2.7,2.4-5.4,3.5-8.2c1.4,2.5,2.8,5.1,4.1,7.7L1161.6,695z"/>
</g>
<g id="Layer_36">
	<path class="st1" d="M1214.9,536.6c-1.6,5.6-3.3,11.2-5,16.8c0.3,0.4,0.6,0.8,1,1.2c-3.9,10.4-7.5,20.9-11,31.4
		c-0.4,1.2-0.7,2.4-1.1,3.6c1.4,2.4,2.8,4.8,4.2,7.2c5.6-18.1,10.9-36.2,16-54.2C1217.5,540.6,1216.3,538.6,1214.9,536.6
		L1214.9,536.6z"/>
</g>
<g id="Layer_35">
	<path class="st1" d="M1210.7,554.3c-3.5,11.1-7.1,22.1-10.8,33.2c3.8-10.7,7.7-21.4,11.8-32C1211.3,555.2,1211,554.7,1210.7,554.3
		L1210.7,554.3z"/>
</g>
<g id="Layer_34">
</g>
<g id="Layer_33">
	<path class="st1" d="M1135,640.3c-1.8-2.6-3.6-5.1-5.4-7.7c-6.5,15.6-13.5,31.1-21,46.2c2,3.2,4,6.4,6,9.7
		C1121.9,672.6,1128.7,656.5,1135,640.3L1135,640.3z"/>
</g>
<g id="Layer_32">
	<path class="st1" d="M1157.7,561.8c-5.6,16.3-11.6,32.5-18,48.6c1.8,2.5,3.6,5,5.3,7.5c6.2-16.6,12-33.4,17.5-50.2
		C1160.9,565.7,1159.2,563.7,1157.7,561.8L1157.7,561.8z"/>
</g>
<g id="Layer_31">
	<path class="st1" d="M1042.4,695.5L1042.4,695.5c-1.6-2.1-3.3-4.2-5-6.3c8.8-12.8,16.9-26,24.5-39.5c2.5,2.8,4.9,5.6,7.3,8.4
		c-6.7,12.8-13.8,25.4-21.4,37.6L1042.4,695.5z"/>
</g>
<g id="Layer_30">
	<path class="st1" d="M1079.5,637.2c7-14.6,13.5-29.5,19.6-44.5c-2-2.2-4-4.4-6-6.5c-6.3,14.6-13,28.9-20.3,43
		C1075,631.9,1077.3,634.5,1079.5,637.2L1079.5,637.2z"/>
</g>
<g id="Layer_29">
	<path class="st1" d="M1109,569.5c5.7-15,11.1-30.1,16.1-45.2c-1.7-1.7-3.2-3.4-4.9-5c-1.2,3.3-2.4,6.5-3.6,9.8
		c-3.8,12.2-7.5,24.3-11.2,36.4C1106.6,566.9,1107.8,568.2,1109,569.5L1109,569.5z"/>
</g>
<g id="Layer_28">
	<path class="st1" d="M1104.4,567.1c3.6-12.4,7.3-24.8,11.2-37.2c-4.2,11.7-8.5,23.4-13.1,34.9
		C1103.1,565.6,1103.8,566.4,1104.4,567.1L1104.4,567.1z"/>
</g>
<g id="Layer_27">
	<path class="st1" d="M1005.5,654.8c8.7-12.5,16.7-25.4,24.2-38.6c-2.7-2.4-5.6-4.8-8.5-7.2c-7.8,12.6-16.2,25-25.2,36.9
		C999.3,648.9,1002.4,651.9,1005.5,654.8L1005.5,654.8z"/>
</g>
<g id="Layer_26">
	<path class="st1" d="M992.6,674c-4.2,5.7-8.6,11.3-13.2,16.8h0c-6-0.6-12.1-1.3-18.2-2c7.4-7.7,14.4-15.7,21.1-23.9
		C985.8,667.9,989.2,670.9,992.6,674z"/>
</g>
<g id="Layer_25">
	<path class="st1" d="M1059.3,554.2c-2.1-1.9-4.2-3.8-6.3-5.6c-6.2,13.6-12.7,27-19.8,40.1c2.4,2.3,4.9,4.6,7.2,6.9
		C1047.1,582.1,1053.4,568.2,1059.3,554.2L1059.3,554.2z"/>
</g>
<g id="Layer_24">
	<path class="st1" d="M889.6,678.1c-4.1-0.7-8.2-1.5-12.3-2.3c1.3-0.9,2.7-1.8,4-2.7C884,674.7,886.8,676.4,889.6,678.1z"/>
</g>
<g id="Layer_23">
	<path class="st1" d="M960.7,615.8c8.6-11.7,16.6-23.9,24.1-36.3c-3-2.2-6-4.4-9-6.6c-7.9,12-16.5,23.6-25.6,34.8
		C953.8,610.4,957.2,613.1,960.7,615.8L960.7,615.8z"/>
</g>
<g id="Layer_22">
	<path class="st1" d="M1018,520.7c-2.4-1.7-4.8-3.3-7.2-4.9c-6.4,12.6-13.3,24.9-20.7,37c2.8,2,5.6,4.1,8.4,6.1
		C1005.4,546.4,1012,533.6,1018,520.7L1018,520.7z"/>
</g>
<g id="Layer_21">
	<path class="st1" d="M901.7,657.4c4.7,3.2,9.4,6.4,13.9,9.6c10.8-10.3,20.8-21.1,30.2-32.4c-3.9-2.8-7.9-5.5-11.9-8.2
		C923.9,637.3,913.2,647.6,901.7,657.4L901.7,657.4z"/>
</g>
<g id="Layer_20">
	<path class="st1" d="M970.4,490.8c-2.5-1.5-5.2-2.9-7.7-4.4c-6.5,11.8-13.5,23.4-21,34.7c3.1,1.8,6.1,3.6,9.1,5.5
		C957.8,514.9,964.3,503,970.4,490.8L970.4,490.8z"/>
</g>
<g id="Layer_19">
	<path class="st1" d="M834.3,647.2c-7.9,4.9-16.1,9.5-24.6,13.9c-9.8-2.4-19.6-4.9-29.5-7.6c11.6-4.8,22.7-9.9,33.2-15.4
		C820.5,641,827.5,644.1,834.3,647.2z"/>
</g>
<g id="Layer_18">
	<path class="st1" d="M936.3,548.4c-3.5-2-7-4-10.5-5.9c-8.7,11.3-17.9,22.2-27.9,32.6c4.2,2.4,8.4,4.8,12.5,7.2
		C919.6,571.4,928.2,560.1,936.3,548.4L936.3,548.4z"/>
</g>
<g id="Layer_17">
</g>
<g id="Layer_16">
	<path class="st1" d="M857,631.8c12.3-9.4,23.8-19.3,34.4-29.8c-4.8-2.6-9.6-5.1-14.6-7.6c-11.6,10.1-24.1,19.6-37.5,28.4
		C845.5,625.8,851.3,628.8,857,631.8L857,631.8z"/>
</g>
<g id="Layer_15">
</g>
<g id="Layer_14">
	<path class="st1" d="M758,589.6c8.7,2.8,17.1,5.7,25.4,8.7c15.6-8.1,30.1-17.1,43.4-26.8c-6.3-2.5-12.8-4.9-19.4-7.2
		C792.3,573.6,775.8,582.1,758,589.6L758,589.6z"/>
</g>
<g id="Layer_13">
	<path class="st1" d="M748.9,614c-14.7,6.1-30.4,11.4-47,16.1c-13.9-4.2-27.8-8.2-41.4-11.9c19.9-3.6,38.7-8.2,56.2-13.7
		C727.7,607.5,738.4,610.7,748.9,614z"/>
</g>
<g id="Layer_12">
	<path class="st1" d="M881.4,522c-4.3-1.9-8.6-3.8-13-5.6c-10.3,10.5-21.4,20.5-33.3,29.9c5.4,2.2,10.8,4.4,16,6.7
		C862,543.2,872,532.8,881.4,522L881.4,522z"/>
</g>
<g id="Layer_11">
	<path class="st1" d="M620.3,557.7c18.2,2.9,35.7,6.2,52.6,9.8c24.5-6.5,46.8-14.7,67.1-24.4c-9.7-2.6-19.7-5.1-29.9-7.5
		C683.3,545.4,653.5,552.9,620.3,557.7L620.3,557.7z"/>
</g>
<g id="Layer_9">
	<path class="st1" d="M815.3,496.6c-5.7-1.9-11.5-3.7-17.4-5.5c-13.7,9.7-28.6,18.6-44.7,26.6c7.8,2.1,15.5,4.3,23,6.6
		C790.4,515.9,803.4,506.6,815.3,496.6L815.3,496.6z"/>
</g>
<g id="Layer_5">
	<path class="st1" d="M729.1,472.4c-9.1-2-18.3-4-27.8-5.8c-24.9,10.1-52.9,18-84.2,23.3c16.8,2.3,33.1,4.9,48.9,7.8
		C689.2,490.8,710.1,482.3,729.1,472.4L729.1,472.4z"/>
</g>
</svg>
