<svg xmlns="http://www.w3.org/2000/svg" xmlns:xlink="http://www.w3.org/1999/xlink" width="1440" height="713" viewBox="0 0 1440 713">
  <defs>
    <linearGradient id="footer-b" x1="0%" y1="0%" y2="100%">
      <stop offset="0%" stop-color="#46B8FF"/>
      <stop offset="100%" stop-color="#2A92EA"/>
    </linearGradient>
    <path id="footer-a" d="M4,0 L1447,0 C1447,365.503025 1447,551.384943 1447,557.645757 C1447,567.036977 1276,591.188359 1138,689.719752 C974.566229,806.410746 722.362069,440.836193 4,550.308313 C-0.171383905,550.943995 -0.171383905,367.507891 4,0 Z"/>
    <rect id="footer-d" width="1448" height="713"/>
    <polygon id="footer-f" points=".267 .132 137.199 .132 137.199 31.288 .267 31.288"/>
  </defs>
  <g fill="none" fill-rule="evenodd" transform="rotate(180 722 356.5)">
    <mask id="footer-c" fill="#fff">
      <use xlink:href="#footer-a"/>
    </mask>
    <use fill="url(#footer-b)" xlink:href="#footer-a"/>
    <g mask="url(#footer-c)">
      <g transform="translate(-1)">
        <mask id="footer-e" fill="#fff">
          <use xlink:href="#footer-d"/>
        </mask>
        <use fill="#152845" xlink:href="#footer-d"/>
        <g mask="url(#footer-e)" opacity=".06">
          <g transform="matrix(-1 0 0 1 1003.005 -165)">
            <path fill="#FFF" d="M462.420159 147.356246C460.798441 139.09636 459.20648 130.874864 457.629397 122.682899 446.265472 137.209314 435.758528 152.187556 426.123443 167.611721 427.664818 175.36367 429.227023 183.133338 430.836838 190.920725 440.522509 175.963154 451.053258 161.436739 462.420159 147.356246M422.378615 173.498301C417.372988 181.979756 412.53596 190.549928 407.975085 199.253178L407.975085 230.121178C413.890561 218.824401 420.172302 207.70506 426.849377 196.792729 425.334899 189.003275 423.843676 181.237481 422.378615 173.498301M411.604757 311.872865C413.1565 317.78398 414.75258 323.683447 416.401862 329.574179 424.332012 311.022596 433.080892 292.829175 442.819932 275.107478 441.173606 268.343183 439.574571 261.575976 438.028738 254.802945 428.245362 273.383646 419.499438 292.450631 411.604757 311.872865M408.665181 323.766704C408.428481 324.312631 408.208451 324.86741 407.975085 325.413336L407.975085 354.98188C409.868682 350.564304 411.792283 346.158532 413.782559 341.776368 412.028982 335.780032 410.322078 329.777795 408.665181 323.766704M442.819932 247.595654C444.503323 254.361494 446.250756 261.121481 448.046983 267.869762 457.302583 252.116944 467.357184 236.744558 478.390713 221.860881 476.609735 214.451233 474.871451 207.041585 473.206357 199.631937 462.124034 215.153569 452.051135 231.178543 442.819932 247.595654M478.390713 191.864604C480.065634 199.298193 481.786999 206.731783 483.58674 214.150623 493.215356 200.855707 503.508714 187.914772 514.687429 175.47236 512.908008 167.552047 511.189545 159.634685 509.532042 151.720272 498.312687 164.640558 488.004815 178.065266 478.390713 191.864604M514.687429 147.076916C516.480468 154.921032 518.338816 162.762208 520.274347 170.594564 530.77431 159.539887 541.96002 148.86448 553.887882 138.609504 551.961256 130.397878 550.091034 122.183313 548.30987 113.971687 536.35529 124.591233 525.172548 135.64297 514.687429 147.076916M408.686836 489.279728C408.453024 490.117281 408.208897 490.951864 407.975085 491.789416L407.975085 520.494904C409.849018 513.797452 411.784843 507.10891 413.782559 500.429278 412.063354 496.719692 410.337273 493.013075 408.686836 489.279728M418.498629 479.842582C424.248029 459.433619 430.583183 439.174332 437.738392 419.214401 436.053223 414.512768 434.386077 409.805265 432.78802 405.071348 425.695893 426.067282 419.450855 447.350831 413.782559 468.751775 415.308523 472.467298 416.90658 476.153473 418.498629 479.842582M464.597961 323.962717C466.422387 329.725746 468.306338 335.467882 470.249813 341.189128 478.440383 324.846123 487.416678 308.879162 497.265006 293.359873 495.300697 286.817896 493.407818 280.255028 491.583392 273.677237 481.69935 290.002335 472.743889 306.793012 464.597961 323.962717M437.012458 392.93307C438.720716 397.724902 440.480465 402.495939 442.282618 407.249151 449.400363 388.491787 457.275316 370.034471 466.04983 351.981177 464.184072 346.223849 462.375862 340.448696 460.625199 334.655719 451.847656 353.695304 444.06054 373.177532 437.012458 392.93307M608.332956 143.95122C610.761271 151.668859 613.313661 159.342058 616.00785 166.964892 627.354759 158.832486 639.298407 151.04967 651.889015 143.651995 649.09143 135.753637 646.465186 127.787138 643.965971 119.779162 631.449217 127.461249 619.582377 135.528477 608.332956 143.95122M569.132503 176.146735C571.368441 183.527431 573.73538 190.869916 576.197591 198.180068 586.957486 188.559591 598.405133 179.324168 610.510759 170.46792 608.009842 162.802108 605.601222 155.103962 603.341465 147.364666 591.25668 156.570695 579.832852 166.15884 569.132503 176.146735M531.383918 218.285806C533.486682 225.402605 535.646603 232.501431 537.935878 239.558324 548.097733 227.843762 558.94246 216.503612 570.584371 205.612754 568.28908 198.082606 566.102085 190.522505 564.005338 182.935447 552.354401 194.287579 541.50065 206.089004 531.383918 218.285806M497.265006 264.845375C499.229179 271.444121 501.26832 278.018752 503.388427 284.566251 512.675516 270.533741 522.679304 256.87503 533.561721 243.698638 531.444613 236.533165 529.393477 229.349605 527.444297 222.1359 516.534891 235.918207 506.510113 250.182834 497.265006 264.845375M672.94111 175.077584C676.4106 182.135385 680.019582 189.125884 683.874901 196.002265 696.27781 189.055657 709.327723 182.492371 723.030578 176.315333 718.813173 169.201936 714.848041 161.959791 711.084728 154.624009 697.720216 161.058546 685.017548 167.885183 672.94111 175.077584M631.562854 205.51564C634.632324 212.584553 637.898556 219.565369 641.27679 226.491506 652.861468 217.949271 665.093943 209.789796 678.02265 202.040421 674.43252 194.789242 671.042178 187.446929 667.815298 180.03171 655.053082 188.124354 642.965907 196.621023 631.562854 205.51564M720.12684 150.187511C724.295924 157.596151 728.690846 164.894394 733.365094 172.046433 747.159027 166.067006 761.609672 160.490385 776.749717 155.334472 771.415785 148.006392 766.408724 140.502271 761.704762 132.84598 747.18577 138.225673 733.350236 144.020108 720.12684 150.187511M464.597961 489.341893C462.907751 485.699455 461.202995 482.062983 459.579695 478.390713 453.9476 497.885663 448.882787 517.55662 444.271801 537.290222 445.793281 540.174938 447.335125 543.044738 448.906061 545.902605 453.639231 526.917775 458.8175 508.028407 464.597961 489.341893M519.043035 333.055628C521.322666 338.459986 523.681641 343.834876 526.116909 349.174405 534.869225 335.480812 544.305126 322.126096 554.613817 309.222234 552.114463 303.216737 549.703608 297.178826 547.390409 291.09966 537.115287 304.66949 527.697697 318.678387 519.043035 333.055628M464.597961 460.093763C466.406654 463.793668 468.26382 467.469913 470.151283 471.13137 476.337799 453.424469 483.14236 435.939384 490.731597 418.791461 488.716889 414.239778 486.750656 409.667393 484.845015 405.071348 477.352727 423.124284 470.654203 441.499594 464.597961 460.093763M490.731597 393.993691C492.685577 398.68329 494.718066 403.336722 496.782539 407.975085 503.961672 391.847808 511.838655 376.049044 520.494904 360.651127 518.334476 355.16285 516.240926 349.644434 514.220068 344.092865 505.604527 360.340697 497.811868 377.001431 490.731597 393.993691M442.093998 565.139435C440.652428 562.368583 439.23918 559.585978 437.842924 556.791619 433.639998 576.15526 429.793923 595.513025 426.123443 614.756194 427.454558 616.974638 428.763017 619.201897 430.125286 621.399773 433.829752 602.679628 437.783449 583.888963 442.093998 565.139435M554.613817 282.491204C557.004043 288.542938 559.473357 294.568013 562.056911 300.536806 571.459639 288.827308 581.524366 277.476233 592.362401 266.569485 589.693901 260.037878 587.166002 253.444064 584.717192 246.817667 573.90259 258.27538 563.940385 270.210005 554.613817 282.491204M590.910532 241.592993C593.558458 248.231393 596.353491 254.806484 599.242673 261.336353 609.604889 251.270224 620.555534 241.538729 632.288788 232.274514 629.284863 225.328613 626.428045 218.316389 623.703624 211.246886 612.05275 220.942205 601.155064 231.080687 590.910532 241.592993M483.229812 597.443941C487.499428 580.333088 492.133633 563.278746 497.265006 546.373116 495.466163 543.574348 493.721556 540.748812 491.982976 537.917327 487.023352 555.510008 482.533777 573.22166 478.390713 590.960079 479.963571 593.140203 481.617784 595.278688 483.229812 597.443941M497.265006 519.887365C499.092874 522.768451 500.953277 525.631734 502.843257 528.480181 508.170103 512.057102 514.017507 495.820953 520.494904 479.848878 518.406757 476.246779 516.401425 472.600173 514.404967 468.953567 508.09616 485.705998 502.426219 502.713602 497.265006 519.887365M802.516155 185.11325C786.599326 190.387731 771.523497 196.173022 757.14949 202.375717 762.639686 208.890737 768.458582 215.227703 774.555838 221.409966 789.945561 215.402838 806.146672 209.880249 823.209513 204.883066 815.901097 198.522749 809.019105 191.92308 802.516155 185.11325M610.213819 305.618347C599.92675 316.860335 590.31434 328.476565 581.473386 340.502399 584.251217 345.618019 587.111181 350.686491 590.079676 355.707814 599.108361 344.230083 608.779437 333.100072 619.221971 322.403239 616.095077 316.866229 613.108982 311.267335 610.213819 305.618347M662.778029 286.635086C659.05869 280.703922 655.523207 274.677954 652.108287 268.595696 640.422809 278.099779 629.454676 288.006778 619.221971 298.322619 622.456048 303.969371 625.837814 309.539095 629.328085 315.055493 639.792872 305.201821 650.881568 295.685888 662.778029 286.635086M519.768969 452.080815C521.958127 455.796186 524.198758 459.484612 526.484808 463.146093 533.264232 447.928342 540.655288 432.977044 548.806342 418.396984 546.341647 413.984046 543.934483 409.544163 541.603015 405.071348 533.609411 420.41484 526.363693 436.108614 519.768969 452.080815M870.985971 166.964892C851.913052 171.068977 833.877367 175.817122 816.676104 181.079361 823.936735 187.768354 831.672523 194.188748 839.845803 200.357871 859.356213 195.196718 879.840116 190.636303 901.610419 186.881687 890.696294 180.660577 880.5007 174.00913 870.985971 166.964892M761.505096 227.673996C755.9816 221.36995 750.69474 214.939998 745.7194 208.343148 731.64407 214.808237 718.251688 221.677393 705.608154 228.979897 710.056306 235.283944 714.729112 241.470869 719.626572 247.543601 732.857202 240.489979 746.788753 233.852137 761.505096 227.673996M661.326161 262.033423C664.981563 268.18386 668.822384 274.23189 672.804476 280.210646 684.271019 271.680754 696.37034 263.530371 709.237826 255.84383 704.899611 249.545807 700.720327 243.160436 696.776496 236.654587 684.268075 244.699551 672.439524 253.154143 661.326161 262.033423M574.158024 352.078143C564.956982 365.246671 556.54291 378.826164 548.806342 392.731496 551.25305 397.125897 553.794431 401.470396 556.38019 405.797282 564.279477 392.590593 572.885854 379.739096 582.19932 367.260404 579.430132 362.243683 576.746741 357.182929 574.158024 352.078143" opacity=".6"/>
            <g transform="translate(895.803 150.994)">
              <mask id="footer-g" fill="#fff">
                <use xlink:href="#footer-f"/>
              </mask>
              <path fill="#FFF" d="M0.267347901,11.1778718 C12.0122747,18.4179805 24.6285043,25.1419859 38.207288,31.2883074 C68.9619233,27.0597789 101.983123,24.2534671 137.200242,22.8517773 L137.200242,17.1013305 C117.266246,12.3889552 98.8952969,6.70302129 81.9873121,0.131500997 C53.0606465,2.74720653 25.8412636,6.44790203 0.267347901,11.1778718" mask="url(#footer-g)" opacity=".6"/>
            </g>
            <path fill="#FFF" d="M643.317726 359.337486C633.126328 370.369862 623.615556 381.773779 614.866365 393.585193 618.09559 397.950802 621.426759 402.259482 624.847878 406.523216 633.902901 395.242147 643.581581 384.29966 654.066818 373.800625 650.363853 369.042501 646.780823 364.221455 643.317726 359.337486M746.260476 278.843967C751.913987 284.535236 757.862854 290.058321 764.029508 295.455266 778.779356 288.172243 794.310851 281.366746 810.86863 275.18894 803.565307 269.56074 796.608056 263.731319 789.984945 257.706682 774.554885 264.232871 760.007907 271.296653 746.260476 278.843967M749.164213 302.103296C743.638827 296.622455 738.324356 291.027741 733.259419 285.292186 720.093553 293.158347 707.809966 301.548919 696.171008 310.320064 700.665583 315.630097 705.353249 320.832252 710.207271 325.944507 722.413621 317.532959 735.392337 309.579895 749.164213 302.103296M573.920777 460.96829C566.868166 475.392779 560.464676 490.130516 554.613817 505.112226 556.850652 508.09411 559.178131 511.024791 561.496837 513.961495 567.566995 499.67857 574.216098 485.660702 581.473386 471.950058 578.879827 468.332641 576.400302 464.651971 573.920777 460.96829M552.436014 529.711902C550.340795 526.892361 548.237013 524.07872 546.213157 521.220838 540.781003 536.47467 535.871226 551.943802 531.383918 567.548602 533.19083 569.795976 535.080524 571.993212 536.938817 574.214043 541.63165 559.196156 546.778352 544.34343 552.436014 529.711902M605.114514 405.071348C596.533268 417.764539 588.705899 430.857562 581.473386 444.243 584.159075 447.916089 586.900715 451.556355 589.715977 455.160815 597.19291 442.413916 605.341266 430.010156 614.14043 417.955503 611.042465 413.712504 608.044624 409.406845 605.114514 405.071348M807.238958 251.641896C814.68833 257.776056 822.530391 263.668281 830.768072 269.321631 849.760747 262.816909 870.016474 257.126809 891.447339 252.205393 880.604429 246.420356 870.33004 240.283133 860.691572 233.750849 841.880589 239.073451 824.004441 245.002425 807.238958 251.641896M884.187995 227.848543C895.967264 234.411215 908.495265 240.510567 921.848641 246.091733 955.470848 239.986284 991.940596 235.731064 1031.55266 233.56078L1031.55266 231.923923C1007.18054 227.04688 984.863012 220.834746 964.432053 213.424689 935.85642 217.042845 909.155565 221.886358 884.187995 227.848543M696.896942 335.88546C692.550833 330.731267 688.391027 325.469881 684.368038 320.137033 673.038461 329.47175 662.500674 339.267993 652.614949 349.43941 656.271154 354.266069 660.075819 359.009356 663.985279 363.693092 674.220323 353.998087 685.223869 344.740787 696.896942 335.88546M519.555283 642.451869C523.39265 626.902359 527.54755 611.406366 532.109853 596.026325 530.291522 593.841069 528.464205 591.664732 526.693804 589.458664 522.338198 605.359004 518.37202 621.354484 514.687429 637.367803 516.269107 639.086277 517.943649 640.751234 519.555283 642.451869M628.396972 498.716874C635.842964 486.503014 643.866279 474.588232 652.614949 463.069199 649.148048 459.510474 645.761084 455.909454 642.459978 452.257078 634.063623 464.341036 626.318608 476.775428 619.221971 489.539108 622.206289 492.641665 625.294229 495.683801 628.396972 498.716874M610.908224 505.976217C604.164557 519.053237 597.987534 532.401405 592.362401 545.991249 594.797204 548.408008 597.299887 550.789399 599.808472 553.161948 605.731685 540.117348 612.168419 527.302635 619.221971 514.79149 616.385794 511.888433 613.635204 508.93822 610.908224 505.976217M584.137377 565.502831C578.932464 579.472889 574.192432 593.625793 569.858437 607.911408 571.820946 609.757567 573.812877 611.59193 575.81952 613.414496 580.412436 599.550607 585.405505 585.831226 590.910532 572.330081 588.64791 570.059247 586.338211 567.812005 584.137377 565.502831M695.445074 417.395256C691.168537 413.354188 687.007743 409.250213 682.977531 405.071348 672.845612 415.567938 663.491245 426.501887 654.792752 437.786321 658.416382 441.449943 662.120142 445.065635 665.927772 448.627407 675.059558 437.819273 684.867991 427.388586 695.445074 417.395256M883.462061 317.642364C872.905723 312.739602 862.857098 307.515645 853.307383 301.988675 835.120663 308.233788 818.160674 315.254616 802.157418 322.872381 809.582365 327.959982 817.297854 332.868804 825.371384 337.559456 843.470061 330.120469 862.795468 323.454167 883.462061 317.642364M803.609287 346.36588C796.517044 341.677952 789.79496 336.768782 783.256474 331.751982 768.832126 339.298111 755.305042 347.385385 742.630804 355.977927 748.209838 360.60606 754.002083 365.111613 759.986811 369.500566 773.617539 361.239887 788.112958 353.499424 803.609287 346.36588M743.356738 379.497522C737.894735 375.06011 732.625649 370.514907 727.528382 365.870895 715.311218 374.859498 703.904915 384.315198 693.267271 394.205057 697.764682 398.384967 702.37061 402.501999 707.142328 406.523216 718.385856 397.040569 730.482446 388.042983 743.356738 379.497522M955.791857 278.032843C927.814205 282.527281 901.796901 288.288142 877.654587 295.245909 889.357811 300.828443 901.788071 305.957604 914.827629 310.699887 948.274242 303.273635 984.879196 297.87245 1025.01925 294.78649 1000.01156 290.443176 977.014252 284.800192 955.791857 278.032843M799.253681 416.887096C792.49617 413.079532 785.956643 409.136949 779.629208 405.071348 766.40876 413.568605 754.089705 422.608942 742.630804 432.153354 747.986146 435.801894 753.494667 439.35742 759.159311 442.819932 771.593249 433.617571 784.934473 424.955289 799.253681 416.887096M876.928652 384.575395C866.830995 380.514153 857.07258 376.243473 847.783207 371.678369 830.464087 378.838662 814.307244 386.727429 799.253681 395.296105 806.525292 399.436266 814.026999 403.430732 821.811901 407.249151 838.886176 398.87777 857.208278 391.283427 876.928652 384.575395M742.630804 456.038501C737.578773 452.678211 732.662487 449.238959 727.873091 445.723669 717.282122 455.348311 707.443646 465.397009 698.348811 475.849293 702.536212 478.928828 706.800339 481.958645 711.182503 484.924122 720.89999 474.869575 731.358166 465.221537 742.630804 456.038501M651.712226 542.998867C644.659317 555.253472 638.19622 567.787739 632.288788 580.560018 635.048487 582.597989 637.947878 584.555632 640.78208 586.554926 647.062025 574.25867 653.872801 562.200425 661.326161 550.45457 658.054257 548.006029 654.875481 545.506911 651.712226 542.998867M697.622877 501.787268C693.644369 498.867071 689.710631 495.923419 685.899263 492.9094 677.291599 503.860139 669.343538 515.156846 662.052095 526.778996 665.406816 529.332703 668.89286 531.807247 672.36995 534.287656 680.129979 523.111158 688.519765 512.257172 697.622877 501.787268M951.003628 342.640997C923.828357 347.977885 898.637995 354.582172 875.476784 362.456861 886.98808 367.084968 899.047955 371.3737 911.677053 375.308041 943.267495 366.949818 977.993091 360.57979 1016.30804 356.522313 992.990514 352.882297 971.271532 348.221154 951.003628 342.640997M609.784824 641.422004C611.850821 642.981145 613.908039 644.546248 616.015004 646.08154 620.539127 633.077767 625.434895 620.22305 630.83692 607.59192 628.422688 605.678022 626.037721 603.749219 623.682017 601.799547 618.622373 614.836113 614.013387 628.060492 609.784824 641.422004M802.157418 490.24729C795.677213 487.358523 789.3572 484.379116 783.206446 481.294451 770.971432 490.288224 759.640141 499.784899 749.164213 509.746468 754.314525 512.430565 759.588759 515.038642 764.965757 517.591166 776.423993 507.951222 788.804085 498.822952 802.157418 490.24729M695.20628 575.665912C688.172774 587.155461 681.753586 598.960657 675.844847 611.006346 678.78883 612.789 681.717973 614.580672 684.739117 616.318233 691.104885 604.648314 698.067167 593.276006 705.608154 582.210325 702.055788 580.081963 698.651808 577.86041 695.20628 575.665912M876.202718 451.19907C866.571835 447.904016 857.371299 444.341466 848.384453 440.642129 832.043115 448.636588 816.906749 457.375777 802.883352 466.783705 809.899503 470.060521 817.150118 473.188391 824.569905 476.212911 840.454185 467.05728 857.647315 458.704134 876.202718 451.19907M652.614949 669.723295C654.959391 671.050718 657.328351 672.366288 659.715698 673.667044 664.631365 661.575053 669.985274 649.660841 675.844847 637.971817 673.056033 636.342168 670.337706 634.676964 667.616315 633.014723 662.167402 645.065232 657.172054 657.3113 652.614949 669.723295M746.260476 533.407509C741.61038 530.83827 736.981084 528.256997 732.51521 525.576444 723.313072 536.036918 714.868617 546.918579 707.060023 558.137189 710.890037 560.402572 714.841876 562.592743 718.802628 564.776897 727.247082 553.92833 736.354138 543.440779 746.260476 533.407509M948.790425 405.071348C922.748235 411.204837 898.842238 418.697334 876.928652 427.432094 887.97641 431.158885 899.517134 434.574361 911.456928 437.738392 940.973367 428.524687 973.591393 421.271663 1009.77463 416.311589 988.2161 413.357097 967.925199 409.579418 948.790425 405.071348M696.171008 691.343923C698.606561 692.49759 701.145632 693.592095 703.624317 694.719139 708.656451 683.333331 714.131412 672.154591 720.12684 661.239124 717.182323 659.834016 714.246433 658.417076 711.365176 656.970555 705.841331 668.211415 700.791945 679.683009 696.171008 691.343923M878.380521 517.268857C869.519363 514.845476 860.821148 512.321 852.442896 509.605889 837.434328 517.808991 823.604878 526.693759 810.86863 536.199536 817.395253 538.556484 824.08482 540.818113 830.910667 542.998867 845.457068 533.683726 861.191474 525.047361 878.380521 517.268857M723.030578 637.852415C726.381918 639.418634 729.812563 640.936755 733.243207 642.451869 740.333598 631.401156 748.029051 620.669099 756.423556 610.324838 752.317356 608.485057 748.255215 606.61822 744.26944 604.703284 736.553427 615.414299 729.518843 626.492067 723.030578 637.852415M950.813372 469.679502C925.726934 476.532037 902.860719 484.770646 882.010193 494.242652 892.63406 497.164485 903.601781 499.870772 914.937068 502.346546 942.803972 492.377589 973.7863 484.336563 1008.32276 478.555765 988.148086 476.238656 969.049431 473.233001 950.813372 469.679502M790.939824 554.613817C780.308061 564.303118 770.513304 574.468354 761.505096 585.07061 766.120504 587.070133 770.830892 589.006796 775.597674 590.910532 785.517091 580.619578 796.282419 570.801565 807.964892 561.519352 802.156305 559.298326 796.516899 556.975528 790.939824 554.613817M884.91393 584.517792C876.636088 582.64762 868.541264 580.665885 860.63546 578.569649 846.786051 587.356811 834.112762 596.819232 822.483579 606.865897 828.562197 608.633312 834.763828 610.327329 841.061469 611.962627 854.400826 602.080373 868.99431 592.911543 884.91393 584.517792M1009.77463 541.004385C991.21883 539.261341 973.438635 537.016421 956.40173 534.287656 932.85443 541.767718 911.519371 550.64522 892.173273 560.742853 902.085761 562.972746 912.195089 565.07642 922.651089 566.9547 948.478203 556.28006 977.390116 547.528778 1009.77463 541.004385M778.201586 658.588784C782.29157 660.010405 786.405127 661.419927 790.598245 662.778029 799.220215 652.118894 808.602426 641.886245 818.853907 632.1557 813.714907 630.537472 808.561173 628.922268 803.581293 627.207248 794.372935 637.246315 785.933659 647.723967 778.201586 658.588784M1014.13024 603.036728C997.044129 601.805612 980.558921 600.183327 964.662889 598.169875 942.488173 606.214586 922.511876 615.654158 904.514156 626.309685 913.735789 627.962292 923.186058 629.460252 932.829788 630.83692 956.780825 619.577963 983.756887 610.211167 1014.13024 603.036728M839.906002 674.345293C845.370062 675.603413 850.843074 676.858594 856.459328 678.02265 868.375215 667.878317 881.44897 658.380682 895.802945 649.632628 888.387222 648.277503 881.046104 646.875345 873.895975 645.355606 861.5056 654.42113 850.219378 664.112774 839.906002 674.345293M921.210646 688.003512C929.737812 689.126212 938.388179 690.169559 947.235077 691.089468 969.387525 679.888918 994.455694 670.442955 1022.84145 663.060174 1007.15111 662.30485 991.97997 661.220357 977.216561 659.874292 956.460375 667.985947 937.883647 677.43191 921.210646 688.003512M625.040613 797.075878C625.277723 796.241295 625.518269 795.403742 625.755379 794.566189L625.755379 765.860702C623.879118 772.558154 621.944439 779.246696 619.947905 785.926328 621.666093 789.635914 623.391153 793.342531 625.040613 797.075878M615.231835 802.883352C609.479431 823.291515 603.147282 843.550006 595.992072 863.509153 597.674238 868.210602 599.344387 872.917921 600.942444 877.654587 608.031568 856.659477 614.279609 835.373828 619.947905 813.973724 618.421941 810.258347 616.823884 806.575252 615.231835 802.883352M596.718007 891.970667C595.009926 887.181806 593.250361 882.407799 591.448396 877.654587 584.331393 896.41195 576.457262 914.869266 567.680634 932.919589 569.549226 938.679888 571.354219 944.455041 573.107728 950.248018 581.884355 931.205462 589.667631 911.723234 596.718007 891.970667M567.680634 795.561844C569.370603 799.204282 571.075115 802.837771 572.698182 806.513024 578.329471 787.018074 583.393559 767.347118 588.006795 747.613515 586.485533 744.728799 584.941 741.859 583.37029 739.001133 578.640705 757.985962 573.460268 776.87533 567.680634 795.561844M568.406569 823.355642C566.600696 819.655571 564.740285 815.982119 562.852603 812.320498 556.6684 830.028193 549.86002 847.51406 542.272933 864.659794 544.284844 869.21168 546.251306 873.78427 548.157167 878.380521 555.650324 860.329734 562.349625 841.953602 568.406569 823.355642M541.546999 891.63598C539.593019 886.946381 537.56053 882.292949 535.496057 877.654587 528.316924 893.784877 520.437033 909.583641 511.783692 924.978545 513.94412 930.469836 516.03767 935.988252 518.058527 941.536806 526.674069 925.288974 534.466728 908.628241 541.546999 891.63598M589.458664 718.312434C590.900234 721.083286 592.313482 723.868829 593.709737 726.660249 597.909832 707.296608 601.755906 687.935906 605.429219 668.695675 604.098103 666.477231 602.789645 664.249971 601.427375 662.052095 597.722909 680.77224 593.769212 699.559967 589.458664 718.312434M549.048784 686.007928C544.779168 703.121755 540.144963 720.173123 535.01359 737.078752 536.812433 739.87752 538.55704 742.703057 540.29562 745.534541 545.255244 727.94186 549.744818 710.233183 553.887882 692.494764 552.315025 690.308691 550.660812 688.173181 549.048784 686.007928M513.961495 805.052435C516.049642 808.657322 518.054973 812.300779 520.054389 815.95017 526.360239 799.198574 532.033137 782.188851 537.191393 765.018911 535.363525 762.135002 533.503122 759.271861 531.613141 756.423556 526.286296 772.848783 520.438892 789.084124 513.961495 805.052435M565.080047 613.414496C564.041979 618.711238 562.952579 624.022661 561.874586 629.331147 562.20825 629.6688 562.507693 630.021133 562.838505 630.358785 560.180596 640.306325 557.725167 650.303779 555.352442 660.312977 555.098628 661.45806 554.86763 662.606079 554.613817 663.757034 556.053993 665.847544 557.531243 667.923374 558.937197 670.037373 562.544767 652.843514 565.904227 635.673144 569.132503 618.623155 567.780734 616.887914 566.457483 615.135056 565.080047 613.414496" opacity=".6"/>
            <path fill="#FFF" d="M562.29722 630.110985C560.068276 640.507168 557.766351 650.912227 555.339751 661.326161 557.86974 651.243579 560.487913 641.169873 563.325028 631.143503 562.972289 630.806234 562.649959 630.448255 562.29722 630.110985M513.235561 831.371054C511.046403 827.658677 508.805772 823.967257 506.516694 820.305776 499.73727 835.523527 492.349242 850.474824 484.198188 865.054885 486.662883 869.467823 489.070047 873.904712 491.398487 878.380521 499.392092 863.037028 506.640837 847.343255 513.235561 831.371054M459.574686 931.373726C468.774913 918.205198 477.185282 904.62864 484.924122 890.720373 482.477631 886.325971 479.936475 881.981473 477.350945 877.654587 469.452358 890.861276 460.846744 903.709837 451.531144 916.191464 454.300087 921.208186 456.98324 926.26894 459.574686 931.373726M388.96087 924.840317C399.149269 913.807941 408.66304 902.404024 417.412231 890.59261 414.180008 886.227001 410.851837 881.918321 407.430717 877.654587 398.375695 888.935656 388.697015 899.881139 378.211778 910.377178 381.914743 915.135302 385.494775 919.956348 388.96087 924.840317M459.085855 825.387316C466.137698 810.963647 472.54049 796.226747 478.390713 781.245889 476.154121 778.264174 473.826896 775.33366 471.508442 772.394111 465.438945 786.676224 458.790566 800.696307 451.531144 814.406172 454.127345 818.023384 456.6066 821.703844 459.085855 825.387316M499.442809 715.905845C497.635897 713.658595 495.743349 711.458533 493.88791 709.237826 489.195077 724.254877 484.048375 739.106777 478.390713 753.73749 480.485932 756.556874 482.589714 759.370359 484.61357 762.231031 490.045724 746.975098 494.955501 731.509776 499.442809 715.905845M426.440278 877.654587C435.020751 864.958412 442.847415 851.868372 450.079275 838.482934 447.393829 834.809846 444.652435 831.169579 441.837428 827.565119 434.361168 840.312019 426.213547 852.718762 417.412231 864.770431 420.512862 869.01343 423.510433 873.319089 426.440278 877.654587M514.174344 641.725934C510.339314 657.275444 506.180702 672.771437 501.620612 688.154451 503.436259 690.333761 505.266887 692.513071 507.037592 694.719139 511.393947 678.815826 515.357811 662.820346 519.043035 646.81 517.461085 645.091526 515.786255 643.426569 514.174344 641.725934M403.156503 785.460929C395.711171 797.674789 387.688567 809.589571 378.937712 821.108604 382.407266 824.667329 385.79097 828.268349 389.094743 831.920725 397.490354 819.836767 405.231723 807.402375 412.330691 794.638694 409.346637 791.536138 406.258971 788.494002 403.156503 785.460929M422.096306 777.475651C428.839973 764.399448 435.014044 751.052114 440.642129 737.463118 438.207326 735.046511 435.704643 732.668216 433.196058 730.289921 427.272845 743.336653 420.836111 756.150566 413.782559 768.660929 416.618736 771.563805 419.369326 774.513834 422.096306 777.475651M448.141218 717.223103C453.346132 703.255995 458.086163 689.100141 462.420159 674.814526 460.45765 672.965418 458.468661 671.134004 456.462018 669.311438 451.866159 683.175327 446.873091 696.891759 441.368063 710.395853 443.630686 712.666688 445.943327 714.91393 448.141218 717.223103M338.285391 866.782547C342.559271 870.823615 346.720369 874.930586 350.753844 879.106455 360.886503 868.609864 370.241552 857.678911 378.937712 846.391481 375.316786 842.72786 371.612756 839.112168 367.801879 835.550396 358.672395 846.35853 348.863245 856.789217 338.285391 866.782547M469.558636 652.614949C473.53904 638.349836 477.184283 624.005748 480.568516 609.638261 478.943135 608.243047 477.388939 606.806883 475.733898 605.429219 474.941969 608.547244 474.081822 611.650645 473.2632 614.76282 470.748012 626.28723 468.372227 637.779465 466.04983 649.245375 467.22141 650.368567 468.392989 651.488833 469.558636 652.614949" opacity=".6"/>
            <path fill="#FFF" d="M465.879866 651.16308C468.269713 639.33532 470.720681 627.477387 473.309173 615.592299 470.344785 626.849792 467.252041 638.083147 463.872027 649.232018 464.553531 649.868665 465.210586 650.520399 465.879866 651.16308M290.373726 904.680281C295.83573 909.114699 301.104815 913.662896 306.202082 918.306908 318.42226 909.318305 329.828564 899.862605 340.463194 889.972746 335.968797 885.789842 331.359854 881.675804 326.591151 877.654587 315.344608 887.137234 303.248018 896.13482 290.373726 904.680281M233.750849 865.838839C240.508009 869.646402 247.047196 873.588985 253.374301 877.654587 266.594062 869.154329 278.912476 860.116992 290.373726 850.57258 285.015717 846.92404 279.507483 843.371515 273.843133 839.906002 261.412787 849.108364 248.069312 857.770645 233.750849 865.838839M156.075878 900.326407C166.173536 904.387304 175.93195 908.660653 185.221323 913.225368 202.537493 906.065686 218.697286 898.174557 233.750849 889.609647 226.479238 885.466804 218.977531 881.475714 211.192629 877.654587 194.118354 886.025253 175.796252 893.618948 156.075878 900.326407M290.373726 825.962269C295.422806 829.322308 300.342043 832.761303 305.131439 836.276331 315.722408 826.649483 325.560884 816.604458 334.655719 806.152954 330.468318 803.073649 326.204191 800.044058 321.822027 797.075878 312.101589 807.1326 301.646364 816.776993 290.373726 825.962269M381.29438 739.727067C388.346535 727.472463 394.808941 714.938195 400.715742 702.165916 397.956338 700.127945 395.057256 698.167327 392.223358 696.171008 385.944084 708.467264 379.134037 720.525509 371.678369 732.271364 374.953027 734.719905 378.131464 737.219023 381.29438 739.727067M335.381653 783.116469C339.360161 786.036666 343.293899 788.980319 347.105267 791.994337 355.712931 781.043598 363.658007 769.746891 370.952435 758.124741 367.597714 755.571035 364.108686 753.099422 360.631596 750.616082 352.874551 761.792579 344.484765 772.646565 335.381653 783.116469M422.493771 642.752818C420.427775 641.196658 418.370557 639.628574 416.263592 638.096263 411.739469 651.097055 406.840775 663.954753 401.441676 676.582902 403.855907 678.496799 406.240875 680.428584 408.596579 682.378256 413.656222 669.338708 418.265209 656.117311 422.493771 642.752818M230.847112 793.930513C237.326947 796.81928 243.649622 799.801611 249.800026 802.883352 262.034342 793.889579 273.361964 784.392903 283.840317 774.428411 278.690299 771.747238 273.413343 769.13916 268.036652 766.586636 256.57907 776.223657 244.199683 785.351927 230.847112 793.930513M337.072315 707.060023C344.10879 695.57348 350.52501 683.768284 356.433749 671.719588 353.489766 669.936935 350.560622 668.145262 347.542447 666.407701 341.17371 678.07762 334.211429 689.452935 326.670442 700.518615 330.225775 702.643971 333.626787 704.868531 337.072315 707.060023M156.801812 832.252798C166.432695 835.547853 175.636199 839.110403 184.623045 842.80974 200.961415 834.815281 216.097781 826.076091 230.121178 816.668164 223.105027 813.391348 215.854412 810.263478 208.434625 807.238958 192.553313 816.394589 175.357215 824.747734 156.801812 832.252798M381.84145 614.454508C379.497007 613.127085 377.128048 611.811515 374.740701 610.510759 369.825034 622.60275 364.46806 634.516962 358.611552 646.205986 361.397301 647.835635 364.118692 649.497876 366.840084 651.16308 372.288997 639.112571 377.284344 626.866503 381.84145 614.454508M285.292186 750.770294C289.942281 753.339533 294.574549 755.923815 299.040423 758.601359 308.242561 748.140885 316.684044 737.262233 324.492639 726.040614 320.662624 723.77824 316.710786 721.588069 312.753005 719.400906 304.305579 730.249473 295.201495 740.737024 285.292186 750.770294M82.0392363 878.380521C108.078492 872.244038 131.984489 864.754535 153.898075 856.016782 142.850318 852.289991 131.309593 848.877507 119.369799 845.713477 89.8562948 854.924188 57.235334 862.180205 21.0520951 867.14028 42.6135613 870.094772 62.9015277 873.872451 82.0392363 878.380521M335.381653 591.382011C332.946101 590.228344 330.40703 589.133839 327.928344 588.006795 322.896211 599.392603 317.421249 610.571343 311.425821 621.483852 314.370338 622.891918 317.306229 624.308858 320.187485 625.755379 325.71133 614.514519 330.760717 603.042925 335.381653 591.382011M154.624009 765.457077C163.485167 767.883347 172.183382 770.404934 180.561634 773.120045 195.570202 764.916944 209.399652 756.032176 222.1359 746.526398 215.606314 744.169451 208.91971 741.907821 202.093863 739.727067 187.547462 749.042209 171.813056 757.678573 154.624009 765.457077M308.522084 647.051322C305.171038 645.485103 301.740695 643.969989 298.307415 642.451869 291.220585 653.502581 283.525809 664.237645 275.129105 674.578899 279.237881 676.421687 283.299665 678.288523 287.285089 680.200453 295.000424 669.492445 302.034389 658.411671 308.522084 647.051322M81.4652238 813.772367C106.551662 806.922198 129.417877 798.679839 150.268403 789.206965 139.644535 786.284865 128.673851 783.57833 117.341527 781.105323 89.4716598 791.075193 58.4922954 799.113963 23.9558324 804.89529 44.1305099 807.215605 63.2262008 810.218542 81.4652238 813.772367M242.066586 730.289921C252.69767 720.603613 262.488833 710.43239 271.499434 699.830134 266.88432 697.833605 262.174234 695.896942 257.407757 693.993205 247.486005 704.284159 236.721365 714.102172 225.039638 723.384385 230.847854 725.605411 236.489867 727.92821 242.066586 730.289921M0 765.860702L0 766.585176 0 766.586636C2.1797747 766.415742 4.38321045 766.252152 6.53340883 766.072494 4.38616809 765.992159 2.16794417 765.935194 0 765.860702M147.364666 699.660011C155.642508 701.533118 163.737332 703.511918 171.646136 705.608154 185.492545 696.820992 198.165834 687.358571 209.795017 677.311906 203.716399 675.544491 197.514768 673.85341 191.217127 672.215176 177.87777 682.100366 163.284285 691.269196 147.364666 699.660011M23.2298981 742.449872C41.7886376 744.19007 59.5688326 746.438202 76.6027999 749.164213 100.1501 741.683463 121.488097 732.808149 140.831257 722.709588 130.918769 720.479489 120.812379 718.375621 110.353441 716.497169 84.526327 727.172791 55.6173517 735.924878 23.2298981 742.449872M255.528879 627.043556C251.438895 625.619031 247.325337 624.209629 243.135166 622.851642 234.510249 633.509871 225.130985 643.744675 214.876557 653.471368 220.015558 655.092483 225.169291 656.704525 230.152118 658.422424 239.360476 648.384211 247.796805 637.904425 255.528879 627.043556M17.4224236 681.141526C34.5085327 682.372529 50.9937409 683.994662 66.8897728 686.007928 89.0644882 677.963964 109.037854 668.525268 127.038505 657.867698 117.816872 656.218276 108.363672 654.720455 98.7228738 653.340883 74.7718362 664.601827 47.7957746 673.967754 17.4224236 681.141526M193.098528 609.106576C187.634468 607.848455 182.161456 606.593274 176.545202 605.429219 164.626331 615.576491 151.55556 625.071186 137.201586 633.81924 144.614324 635.174366 151.958426 636.576524 159.108555 638.096263 171.49893 629.030739 182.785152 619.339095 193.098528 609.106576M111.06795 593.270554C102.540783 592.147854 93.8904171 591.104507 85.0435182 590.184598 62.8910712 601.388086 37.8199689 610.834049 9.43714609 618.216831 25.1245516 618.969216 40.2956925 620.056648 55.062035 621.399773 75.8182208 613.288119 94.3920151 603.842156 111.06795 593.270554" opacity=".6"/>
          </g>
        </g>
      </g>
    </g>
  </g>
</svg>
