<svg xmlns="http://www.w3.org/2000/svg" xmlns:xlink="http://www.w3.org/1999/xlink" width="98" height="63" viewBox="0 0 98 63">
  <defs>
    <polygon id="logo-a" points=".031 .038 85.516 .038 85.516 40.208 .031 40.208"/>
    <polygon id="logo-c" points="0 .011 36.186 .011 36.186 18.53 0 18.53"/>
  </defs>
  <g fill="none" fill-rule="evenodd">
    <g transform="translate(12.19 .002)">
      <mask id="logo-b" fill="#fff">
        <use xlink:href="#logo-a"/>
      </mask>
      <path fill="#FFF" d="M29.4867954,0.0382917688 C22.4286426,0.213028695 16.8844431,7.67750573 14.3803817,12.5376305 C12.3277105,16.521673 0.0308634176,40.2079136 0.0308634176,40.2079136 L38.1391178,40.2079136 C45.4709573,40.2079136 50.7715003,32.9970083 52.0075406,31.0060232 C53.2435808,29.0130876 56.8148379,22.148324 56.8148379,22.148324 L32.7138207,22.0798515 L34.8417913,18.1299436 C34.8417913,18.1299436 55.0590162,18.2748939 65.0633148,18.3072812 C75.0223037,18.3395466 79.7482061,11.2311672 81.0723056,8.75908667 C82.3983151,6.28700616 85.515825,0.0382917688 85.515825,0.0382917688 L29.4867954,0.0382917688 Z" mask="url(#logo-b)"/>
    </g>
    <g transform="translate(0 43.768)">
      <mask id="logo-d" fill="#fff">
        <use xlink:href="#logo-c"/>
      </mask>
      <path fill="#FFF" d="M0,18.4832291 C0,18.4832291 5.90480774,18.5890466 17.4396392,18.4832291 C29.8308849,18.3695282 36.1857418,0.0109352807 36.1857418,0.0109352807 L10.7117799,0.0109352807 L0,18.4832291 Z" mask="url(#logo-d)"/>
    </g>
  </g>
</svg>
