<svg xmlns="http://www.w3.org/2000/svg" xmlns:xlink="http://www.w3.org/1999/xlink" width="72" height="46" viewBox="0 0 72 46">
  <defs>
    <polygon id="logo_main-a" points=".023 .028 62.44 .028 62.44 29.358 .023 29.358"/>
    <polygon id="logo_main-c" points="0 .008 26.421 .008 26.421 13.53 0 13.53"/>
  </defs>
  <g fill="none" fill-rule="evenodd">
    <g transform="translate(8.901 .002)">
      <mask id="logo_main-b" fill="#fff">
        <use xlink:href="#logo_main-a"/>
      </mask>
      <path fill="#16D2FF" d="M21.5300411,0.0279590692 C16.3764692,0.155544761 12.3283236,5.60579783 10.4999613,9.15446034 C9.00118542,12.0634438 0.0225351938,29.3581591 0.0225351938,29.3581591 L27.8476098,29.3581591 C33.2010164,29.3581591 37.0712542,24.0930536 37.9737598,22.6393185 C38.8762654,21.1841592 41.4838499,16.1717921 41.4838499,16.1717921 L23.8862817,16.1217963 L25.4400381,13.2377366 C25.4400381,13.2377366 40.2018214,13.3435734 47.5065473,13.3672212 C54.77819,13.3907801 58.2288489,8.20053476 59.1956517,6.3955236 C60.1638491,4.59051244 62.4401262,0.0279590692 62.4401262,0.0279590692 L21.5300411,0.0279590692 Z" mask="url(#logo_main-b)"/>
    </g>
    <g transform="translate(0 31.958)">
      <mask id="logo_main-d" fill="#fff">
        <use xlink:href="#logo_main-c"/>
      </mask>
      <path fill="#16D2FF" d="M0,13.4956911 C0,13.4956911 4.31144692,13.5729546 12.7337048,13.4956911 C21.781281,13.4126714 26.4213353,0.00798449064 26.4213353,0.00798449064 L7.82129964,0.00798449064 L0,13.4956911 Z" mask="url(#logo_main-d)"/>
    </g>
  </g>
</svg>
