<svg xmlns="http://www.w3.org/2000/svg" xmlns:xlink="http://www.w3.org/1999/xlink" width="105" height="21" viewBox="0 0 105 21">
  <defs>
    <polygon id="logo_word_mark-a" points=".004 .015 3.862 .015 3.862 15.646 .004 15.646"/>
    <polygon id="logo_word_mark-c" points=".023 .01 11.589 .01 11.589 15.678 .023 15.678"/>
  </defs>
  <g fill="none" fill-rule="evenodd">
    <g transform="translate(101 1)">
      <mask id="logo_word_mark-b" fill="#fff">
        <use xlink:href="#logo_word_mark-a"/>
      </mask>
      <path fill="#FFF" d="M2.18819952,11.6020094 C2.24976512,11.0289606 3.86155712,0.01495024 3.86155712,0.01495024 L1.93245792,0.01495024 C1.93245792,0.01495024 0.15653472,10.7416654 0.00972192,13.3100694 C-0.14181408,15.8784734 2.97592432,15.6401158 2.97592432,15.6401158 C2.97592432,15.6401158 3.17482352,15.2517638 3.65317872,13.9730886 C1.62148112,13.5010638 2.12820832,12.1718766 2.18819952,11.6020094" mask="url(#logo_word_mark-b)"/>
    </g>
    <polygon fill="#FFF" points="11.345 3.818 12 1 2.23 1 0 16 3.155 16 4.167 9.863 9.899 9.863 10.332 6.987 4.631 7.079 4.955 3.757"/>
    <path fill="#FFF" d="M17,1 L13.7472887,1 C13.7472887,1 12.2116783,10.9979483 12,14.0152013 C12,17.0309005 15.9751686,16.9999937 15.9751686,16.9999937 C15.9751686,16.9999937 16.4876008,15.6149271 16.6992461,14.2590784 C14.9217365,13.9225483 15.2527113,12.0790467 15.3736278,11.3702493 C15.4946105,10.6614181 17,1 17,1"/>
    <polygon fill="#FFF" points="40.587 12.776 39.635 5 37.303 5 34.112 12.744 33.376 5 30 5 32.025 17 34.48 17 37.733 10.141 38.685 17 41.292 17 47 5 43.595 5"/>
    <path fill="#FFF" d="M59.0758028,8.2235321 C58.763341,11.1902408 57.7467327,15.0275269 52.7755493,15.1577243 C50.6064366,15.214534 49.3790737,15.1713708 49.3790737,15.1713708 L51.0229531,2.92600645 L54.5589618,2.92600645 C56.9187588,2.92600645 59.4941047,4.49359827 59.0758028,8.2235321 M52.8105979,1.00266297 C49.5756435,1.06109008 49.2237356,1.0602477 49.2237356,1.0602477 L47,16.9826447 C47,16.9826447 49.1677239,17.0236852 50.884511,16.9795448 C54.1886368,16.8946671 60.4891879,17.5322436 60.9807282,7.90885463 C61.0929168,5.7130535 60.9843653,0.870207983 52.8105979,1.00266297"/>
    <polygon fill="#FFF" points="62 16 64.129 16 66 5 63.829 5"/>
    <g transform="translate(66 5)">
      <mask id="logo_word_mark-d" fill="#fff">
        <use xlink:href="#logo_word_mark-c"/>
      </mask>
      <path fill="#FFF" d="M8.28413343,8.6729432 C8.1589344,9.0028784 5.91538017,9.5711712 5.41626115,9.5711712 C3.04754212,9.3911976 2.9223431,7.1811664 2.98490838,6.07456 C3.32918859,1.6560064 6.2893344,1.831224 7.22493871,1.7144232 L9.28237148,1.8628104 C9.28237148,1.8628104 9.09460717,3.8944752 8.28413343,8.6729432 M7.59889294,0.009512 C1.76926623,0.009512 0.708394435,4.6711464 0.61615513,6.3729088 C0.240592278,10.794644 4.29450115,11.0345432 5.07362379,11.0945344 C5.85278066,11.1529512 6.94490087,10.9429984 7.94149607,10.6746288 C8.00409558,11.602836 7.49511944,12.9989352 6.52323548,13.4245808 C3.97236522,14.541716 1.86746087,13.8294968 1.36406358,13.6929504 C0.951057391,13.5809384 0.744982122,13.5020216 0.744982122,13.5020216 L0.0231539478,15.0183656 C1.6881504,15.7030984 4.04547214,15.706444 4.79197732,15.6630496 C9.20389106,15.4067504 9.93632932,11.8712384 10.0615283,11.0945344 C10.1850503,10.3162888 11.5885252,0.6662336 11.5885252,0.6662336 C11.4320435,0.3394472 8.72065294,0.0710776 7.59889294,0.009512" mask="url(#logo_word_mark-d)"/>
    </g>
    <path fill="#FFF" d="M86.1554273 6.12534514L90.4520368 6.14239167 91 4.51316142 86.4046657 4.51316142 86.9158873 1 84.6771525 1.36254434C84.6771525 1.36254434 83.3107693 9.46585415 83.0249283 12.3079612 82.7408237 15.150036 84.9447617 16.0620255 86.5983402 15.9967662 88.6317321 15.9164867 89.7288392 15.3528254 89.7288392 15.3528254L89.7288392 13.7135281C89.7288392 13.7135281 86.4017138 14.644333 85.6875107 13.8791367 85.0431443 13.1886557 85.1425688 12.3079612 85.2713031 11.807951 85.3983011 11.3095169 86.1554273 6.12534514 86.1554273 6.12534514M96.108481 15.340581C96.108481 15.340581 95.5396971 15.3380438 94.3138372 15.340516 92.9907745 15.3431507 91.3902539 15.0624661 91.5841575 13.5065839 91.7706878 12.0097402 93.2421903 11.222431 95.0447095 11.1597494 96.0492745 11.1247818 96.6798378 11.391024 96.6798378 11.391024L96.108481 15.340581zM96.5442308 5.0299341C94.1239811 4.89630883 93.1780891 5.24523733 92.2432729 5.38455501L92.241861 6.98734265C92.241861 6.98734265 95.7391856 5.91847059 96.7824373 7.28042047 97.2595092 7.90317018 97.1437318 9.0298446 97.0017868 9.9503887 96.5442308 9.91909671 90.8259567 8.64646888 90.0282536 13.7405583 89.8577565 14.8292399 90.3898305 17 93.5406701 17L97.878432 17C97.878432 17 98.4303356 13.4446505 98.6583449 11.2529098 98.8878603 9.05960777 99.9648097 5.26459153 96.5442308 5.0299341zM65.8842079.0233303854C65.083162-.121201662 64.2595866.420760875 64.0494928 1.23448805 63.8393601 2.051414 64.3177424 2.83057491 65.1168784 2.9766737 65.9179242 3.12120574 66.7395897 2.57924321 66.9497614 1.7623499 67.1617262.948622725 66.6833438.169429176 65.8842079.0233303854"/>
    <polygon fill="#FFF" points="77 16 79.129 16 81 5 78.829 5"/>
    <path fill="#FFF" d="M80.8835114.0233303854C80.0827616-.121201662 79.2594907.420760875 79.0494745 1.23448805 78.8394195 2.051414 79.317625 2.83057491 80.1164655 2.9766737 80.9172542 3.12120574 81.7386159 2.57924321 81.9505413 1.7623499 82.1605574.948622725 81.6823519.169429176 80.8835114.0233303854M26.5250655 11.1169552C25.9128776 12.9339001 24.5022761 14.0570636 23.3771826 13.619541 22.2505349 13.1869028 21.8352939 11.3634793 22.4490043 9.54487229 23.0611605 7.72792735 24.4702394 6.60479779 25.5968554 7.04228647 26.7219806 7.47651891 27.1372216 9.30001024 26.5250655 11.1169552M27.3250016 4.52335164C24.7190478 3.11455534 21.342213 4.64746166 19.7819903 7.95158996 18.2217993 11.2508 19.069061 15.0675478 21.6750148 16.476378 24.2809369 17.8868363 27.6578034 16.3490457 29.2179944 13.0498017 30.7782171 9.74892966 29.9309236 5.93221577 27.3250016 4.52335164"/>
  </g>
</svg>
