<?xml version="1.0" encoding="utf-8"?>
<!-- Generator: Adobe Illustrator 22.0.0, SVG Export Plug-In . SVG Version: 6.00 Build 0)  -->
<svg version="1.1" id="Layer_1" xmlns="http://www.w3.org/2000/svg" xmlns:xlink="http://www.w3.org/1999/xlink" x="0px" y="0px"
	 viewBox="0 0 1471 713" style="enable-background:new 0 0 1471 713;" xml:space="preserve">
<style type="text/css">
	.st0{fill:url(#SVGID_1_);}
	.st1{filter:url(#Adobe_OpacityMaskFilter);}
	.st2{fill:#FFFFFF;}
	.st3{opacity:0.289;mask:url(#object_bg-c_1_);}
	.st4{opacity:0.6;}
</style>
<linearGradient id="SVGID_1_" gradientUnits="userSpaceOnUse" x1="35.4599" y1="755.9226" x2="35.4599" y2="756.9442" gradientTransform="matrix(872 0 0 -698 -30487 528347)">
	<stop  offset="0" style="stop-color:#64AFFF"/>
	<stop  offset="1" style="stop-color:#3D89FF"/>
</linearGradient>
<rect x="-2" class="st0" width="872" height="713"/>
<defs>
	<filter id="Adobe_OpacityMaskFilter" filterUnits="userSpaceOnUse" x="-5" y="0" width="652" height="713">
		<feColorMatrix  type="matrix" values="1 0 0 0 0  0 1 0 0 0  0 0 1 0 0  0 0 0 1 0"/>
	</filter>
</defs>
<mask maskUnits="userSpaceOnUse" x="-5" y="0" width="652" height="713" id="object_bg-c_1_">
	<g class="st1">
		<rect id="object_bg-b_2_" x="-416" class="st2" width="1440" height="713"/>
	</g>
</mask>
<g class="st3">
	<g transform="translate(367 -72)" class="st4">
		<path class="st2" d="M-209,158.8c1.7-9,3.5-17.9,5.1-26.8c12.2,15.8,23.5,32,33.9,48.7c-1.7,8.4-3.3,16.8-5.1,25.3
			C-185.5,189.8-196.8,174-209,158.8L-209,158.8z M-165.3,187c5.3,9.1,10.4,18.4,15.3,27.7V248c-6.3-12.2-12.9-24.1-20-35.9
			C-168.4,203.7-166.8,195.3-165.3,187L-165.3,187z M-249,112.8c1.8-9.3,3.6-18.6,5.3-27.8c12.7,13,24.6,26.4,35.7,40.3
			c-1.7,8.9-3.5,17.8-5.3,26.7C-224.4,138.5-236.3,125.4-249,112.8L-249,112.8z M-311.3,145c-11.9-10.1-24.4-19.9-37.7-29.2
			c2.2-9.3,4.3-18.5,6.4-27.8c13.3,9.6,25.8,19.7,37.6,30.1C-307,127.1-309.1,136.1-311.3,145L-311.3,145z M-154,336.8
			c-1.7,6.4-3.4,12.8-5.2,19.2c-8.6-20.1-18.2-39.8-28.8-59c1.8-7.3,3.5-14.7,5.2-22C-172.1,295.1-162.6,315.8-154,336.8L-154,336.8
			z M-150.7,349c0.2,0.6,0.5,1.2,0.7,1.8V383c-2-4.8-3.9-9.6-6-14.4C-154.2,362.1-152.4,355.5-150.7,349L-150.7,349z M-188,267
			c-1.8,7.3-3.7,14.7-5.6,22c-9.9-17.1-20.6-33.8-32.4-49.9c1.9-8,3.8-16.1,5.5-24.1C-208.6,231.8-197.9,249.2-188,267L-188,267z
			 M-226,207.1c-1.8,8-3.6,16-5.6,23.9c-10.3-14.3-21.4-28.2-33.4-41.5c1.9-8.5,3.8-17,5.5-25.5C-247.4,177.9-236.3,192.3-226,207.1
			L-226,207.1z M-265,158.7c-1.9,8.5-3.9,16.9-6,25.3c-11.2-11.9-23.2-23.4-36-34.5c2.1-8.8,4.1-17.7,6-26.5
			C-288.2,134.4-276.2,146.3-265,158.7L-265,158.7z M-150.7,528c0.2,0.9,0.5,1.8,0.7,2.7V562c-1.9-7.3-3.9-14.6-6-21.9
			C-154.2,536.1-152.4,532.1-150.7,528L-150.7,528z M-161.1,518c-6.2-22.1-13.1-44.1-20.9-65.7c1.8-5.1,3.6-10.2,5.4-15.3
			c7.7,22.7,14.5,45.8,20.6,69C-157.7,510-159.4,514-161.1,518L-161.1,518z M-211,349.4c-2,6.2-4,12.4-6.1,18.6
			c-8.8-17.7-18.4-34.9-28.9-51.7c2.1-7.1,4.1-14.2,6.1-21.3C-229.3,312.7-219.7,330.8-211,349.4L-211,349.4z M-181,423.6
			c-1.8,5.1-3.7,10.3-5.6,15.4c-7.6-20.2-16-40-25.4-59.4c2-6.2,3.9-12.4,5.8-18.6C-196.8,381.5-188.5,402.4-181,423.6L-181,423.6z
			 M-324,190.2c-2.4,8-5,15.9-7.7,23.8c-11.7-10.4-24.2-20.4-37.3-30c2.7-8.3,5.3-16.6,7.8-25C-348.1,169-335.6,179.3-324,190.2
			L-324,190.2z M-283,235.1c-2.3,7.7-4.6,15.3-7,22.9c-10.9-12.6-22.5-24.8-35-36.6c2.5-8.1,4.8-16.3,7-24.4
			C-305.5,209.2-293.8,221.9-283,235.1L-283,235.1z M-246,285.8c-2.1,7.1-4.3,14.1-6.6,21.2c-10-15.1-20.7-29.7-32.4-43.9
			c2.3-7.7,4.5-15.4,6.6-23.1C-266.7,254.8-255.9,270.1-246,285.8L-246,285.8z M-211,527.8c1.8-3.9,3.7-7.9,5.4-11.8
			c6.1,21.1,11.6,42.3,16.6,63.7c-1.6,3.1-3.3,6.2-5,9.3C-199.1,568.5-204.7,548-211,527.8L-211,527.8z M-270,359.5
			c-2.4,5.9-5,11.7-7.6,17.5c-9.4-14.9-19.4-29.3-30.4-43.3c2.7-6.5,5.2-13.1,7.7-19.7C-289.3,328.7-279.2,343.9-270,359.5
			L-270,359.5z M-211,496.1c-1.9,4-3.9,7.9-5.9,11.9c-6.6-19-13.9-37.8-22.1-56.3c2.2-4.9,4.3-9.8,6.3-14.7
			C-224.7,456.4-217.5,476.2-211,496.1L-211,496.1z M-239,424.9c-2.1,5.1-4.3,10.1-6.5,15.1c-7.7-17.4-16.2-34.5-25.5-51.1
			c2.3-5.9,4.6-11.9,6.7-17.9C-255,388.5-246.6,406.5-239,424.9L-239,424.9z M-187,610c1.5-3,3-6,4.5-9c4.5,21,8.6,42,12.5,62.8
			c-1.4,2.4-2.8,4.8-4.3,7.2C-178.2,650.7-182.4,630.4-187,610L-187,610z M-308,304.5c-2.6,6.5-5.3,13-8.1,19.5
			c-10.2-12.6-21.1-24.9-32.9-36.7c2.9-7.1,5.6-14.2,8.3-21.3C-329,278.4-318.1,291.3-308,304.5L-308,304.5z M-231.1,644
			c-4.5-18.4-9.4-36.7-14.9-54.9c1.9-3,3.8-6,5.6-9.1c5.3,18.9,10,38,14.4,57C-227.7,639.4-229.4,641.7-231.1,644L-231.1,644z
			 M-246,560.8c-2,3.1-4,6.2-6,9.2c-5.7-17.7-12-35.1-19-52.3c2.2-3.9,4.4-7.8,6.6-11.7C-257.7,524-251.6,542.3-246,560.8
			L-246,560.8z M-271,488c-2.3,4-4.7,8-7.2,12c-7.2-16.5-15.1-32.7-23.8-48.5c2.6-4.8,5.2-9.6,7.7-14.5
			C-285.8,453.6-278,470.7-271,488L-271,488z M-329.3,380c9.9,14.2,19,28.9,27.3,43.9c-2.6,4.7-5.4,9.4-8.2,14.1
			c-8.5-14.3-17.8-28.1-27.8-41.6C-335,391-332.1,385.5-329.3,380L-329.3,380z M-328.8,497c7.6,15.5,14.5,31.4,20.8,47.5
			c-2.4,3.2-4.9,6.4-7.4,9.5c-6.6-15.4-13.7-30.4-21.6-45.2C-334.2,504.9-331.5,501-328.8,497L-328.8,497z M-306,571.1
			c2.3-3,4.6-6.1,6.8-9.1c5.9,16.4,11.3,33,16.2,49.8c-2,2.4-4,4.8-6.1,7.2C-294.2,602.8-299.8,586.9-306,571.1L-306,571.1z
			 M-362.3,437c9.2,13.7,17.6,27.8,25.3,42.2c-2.9,4-5.8,7.9-8.8,11.8c-8-13.7-16.7-27.1-26.2-40.1
			C-368.7,446.3-365.5,441.7-362.3,437L-362.3,437z M-270.3,693c-4.2-16.7-8.7-33.4-13.7-49.9c2-2.4,4-4.7,5.9-7.1
			c4.8,17.1,9.1,34.3,13.1,51.5C-266.7,689.4-268.6,691.2-270.3,693L-270.3,693z M-340.6,610c5.7,15.2,10.9,30.5,15.6,46
			c-2.1,2-4.3,4-6.5,6c-5-15-10.5-29.9-16.5-44.6C-345.5,614.9-343,612.5-340.6,610L-340.6,610z M-346,775c-1.5,3-3,6-4.5,9
			c-4.5-21-8.6-42-12.5-62.8c1.4-2.4,2.8-4.8,4.3-7.2C-354.8,734.3-350.6,754.6-346,775L-346,775z M-319.5,662
			c1.1,5.7,2.3,11.4,3.5,17.1c-0.4,0.4-0.7,0.7-1.1,1.1c2.9,10.7,5.6,21.5,8.2,32.3c0.3,1.2,0.5,2.5,0.8,3.7
			c-1.6,2.3-3.2,4.5-4.8,6.8c-4-18.5-7.7-37-11.2-55.4C-322.5,665.7-321.1,663.9-319.5,662L-319.5,662z M-369,164.5
			c1-3.1,2-6.2,3-9.3c-1-0.8-2-1.5-3-2.2V164.5z M-368.2,72c7.3,4.5,14.3,9.1,21.2,13.8c-2.2,9.1-4.5,18.2-7,27.2
			c-4.9-3.2-9.9-6.4-15-9.6L-368.2,72z M-297.3,72c0.9,0.7,1.7,1.3,2.6,2c0.1-0.7,0.3-1.3,0.4-2H-297.3z M-258.5,72
			c3.2,3.1,6.4,6.2,9.5,9.3c-1.8,9.2-3.6,18.4-5.4,27.7c-11.5-11.2-23.7-22-36.6-32.4c0.3-1.5,0.6-3.1,0.9-4.6H-258.5z M-369,270
			c4.4,4,8.7,8,12.9,12c3.1-7,6.2-14.1,9.1-21.3c-7-7.2-14.4-14.2-22-21V270z M-369,357.5c8,8.6,15.5,17.4,22.6,26.5
			c3.2-5.4,6.3-10.9,9.4-16.4c-9.6-13-20-25.5-31.2-37.6c-0.3,0.5-0.5,1-0.8,1.5V357.5z M-369,546c7.3,14.1,13.9,28.5,20,43.2
			c-2.6,2.6-5.3,5.2-8,7.8c-3.8-8.3-7.8-16.6-12-24.8V546z M-289.9,785c-4.3-14.9-8.3-29.9-12-45c-1.7,2.3-3.5,4.6-5.1,7
			c2.9,12.7,6,25.4,9.3,38H-289.9z"/>
		<path class="st2" d="M-316.8,680c2.5,11.3,5.1,22.7,7.8,34c-2.9-11-5.8-22-9-32.9C-317.6,680.8-317.2,680.4-316.8,680L-316.8,680z
			 M-264.7,692c4.2,16.7,8.7,33.4,13.7,49.9c-2,2.3-4,4.7-5.9,7.1c-4.8-17.1-9.1-34.3-13.1-51.5C-268.3,695.6-266.4,693.8-264.7,692
			L-264.7,692z M-193.4,774c-5.7-15.2-10.9-30.5-15.6-46c2.1-2,4.3-4,6.5-6c5,15,10.5,29.9,16.5,44.6
			C-188.5,769.1-191,771.5-193.4,774L-193.4,774z M-216.9,704c-4.4-15.4-8.4-30.9-12.1-46.5c1.8-1.5,3.5-3.1,5.3-4.5
			c0.9,3.4,1.8,6.7,2.7,10.1c2.8,12.5,5.4,24.9,7.9,37.3C-214.3,701.6-215.6,702.8-216.9,704L-216.9,704z M-212.1,702
			c-2.5-12.6-5.1-25.3-7.9-38c3.1,12,6.4,24,10,35.9C-210.7,700.6-211.4,701.3-212.1,702L-212.1,702z M-166,693
			c2.3-1.7,4.5-3.4,6.8-5c4.9,14.1,10.3,28,16.2,41.7c-2.6,2.1-5.2,4.2-7.8,6.3C-156.3,721.9-161.4,707.5-166,693L-166,693z
			 M-73.2,763c-7.6-12.4-14.5-25.2-20.8-38.3c3.2-1.9,6.3-3.9,9.6-5.7c6.8,12.6,14.3,24.9,22.4,36.9
			C-65.8,758.2-69.5,760.6-73.2,763L-73.2,763z M-122,663.3c2.5-1.4,5.1-2.9,7.6-4.3c5.3,13.1,11.1,26,17.4,38.6
			c-3,1.8-5.9,3.6-8.9,5.4C-111.7,690-117.1,676.7-122,663.3L-122,663.3z M-72,637.7c2.6-1.3,5.4-2.4,8.1-3.7
			c5.5,12.4,11.4,24.5,17.9,36.4c-3.2,1.5-6.4,3.1-9.5,4.6C-61.5,662.8-67,650.3-72,637.7L-72,637.7z M-43,698c3.6-1.7,7.3-3.3,11-5
			c7.6,12,15.9,23.7,25,34.9c-4.4,2-8.8,4-13.1,6.1C-28.4,722.4-36,710.3-43,698L-43,698z M131,754.6c-8.9,2-17.6,4.2-26.1,6.4
			c-14.9-9.5-28.5-19.7-40.9-30.5c6.5-1.9,13.2-3.7,19.9-5.5C98.3,735.7,113.9,745.5,131,754.6L131,754.6z M14,676.5
			c4.4-1.5,8.9-3,13.4-4.5c9.3,11.4,19.5,22.3,30.6,32.7c-5.6,1.7-11.1,3.5-16.5,5.3C31.5,699.3,22.4,688.1,14,676.5L14,676.5z
			 M271,734.8c-18.4,1.3-36.1,3.1-53.3,5.2c-23.9-8.6-45.4-18.7-64.7-30.1c9.9-1.8,20.1-3.4,30.5-4.9
			C209.3,717.1,238.3,727.1,271,734.8L271,734.8z M82,656.9c5.9-1.3,11.7-2.7,17.8-3.9c12.8,10.9,26.8,21,42.2,30.4
			c-8,1.5-15.8,3-23.5,4.6C105.2,678.3,93.1,667.9,82,656.9L82,656.9z M170,640.4c9.2-1.2,18.6-2.4,28.2-3.4
			c24,12.2,51.1,22.5,81.8,30.5c-17,0.8-33.4,2-49.4,3.5C208.2,662.2,188,651.9,170,640.4L170,640.4z M148.7,785
			c-3.6-1.7-7.2-3.5-10.7-5.3c10.7-2.4,21.6-4.6,32.9-6.7c10.5,4.3,21.4,8.3,32.9,12H148.7z M-58.7,785c-0.5-0.6-0.9-1.3-1.3-1.9
			c4.1-2.4,8.3-4.8,12.6-7.1c2.4,3,4.8,6,7.2,9H-58.7z M-128.4,785c-4.8-9-9.3-18.2-13.6-27.5c2.9-2.2,6-4.3,9.1-6.5
			c5.8,11.5,12.1,22.9,18.9,34H-128.4z M-236.3,785c-2.3-6.6-4.5-13.3-6.6-20c-2,2.4-4.1,4.8-6.1,7.2c1.2,4.3,2.5,8.6,3.8,12.8
			H-236.3z M25.4,785C15.2,775.5,5.8,765.6-3,755.3c5-2.1,10-4.2,15.2-6.3c10.7,11.1,22.3,21.6,34.8,31.6c-3.8,1.4-7.5,2.9-11.1,4.4
			H25.4z"/>
	</g>
</g>
</svg>
