<svg width="16" height="16" viewBox="0 0 16 16" fill="none" xmlns="http://www.w3.org/2000/svg">
<path fill-rule="evenodd" clip-rule="evenodd" d="M7.99987 0C3.58186 0 0 3.58186 0 7.99987C0 12.4179 3.58186 16 7.99987 16C12.4179 16 16 12.4179 16 7.99987C16 3.58186 12.4179 0 7.99987 0ZM11.4585 9.52138H8.06682C8.05535 9.52138 8.04468 9.51851 8.03322 9.51805C8.02202 9.51851 8.01135 9.52138 7.99988 9.52138C7.69414 9.52138 7.44647 9.27351 7.44647 8.96804V3.32001C7.44647 3.01427 7.69414 2.7666 7.99988 2.7666C8.30535 2.7666 8.55302 3.01427 8.55302 3.32001V8.4149H11.4583C11.7637 8.4149 12.0114 8.6625 12.0114 8.96804C12.0114 9.27351 11.764 9.52138 11.4585 9.52138Z" fill="#666F75"/>
</svg>
