<?xml version="1.0" encoding="utf-8"?>
<!-- Generator: Adobe Illustrator 15.0.0, SVG Export Plug-In . SVG Version: 6.00 Build 0)  -->
<!DOCTYPE svg PUBLIC "-//W3C//DTD SVG 1.1//EN" "http://www.w3.org/Graphics/SVG/1.1/DTD/svg11.dtd">
<svg version="1.1" id="Layer_1" xmlns="http://www.w3.org/2000/svg" xmlns:xlink="http://www.w3.org/1999/xlink" x="0px" y="0px"
	 width="100px" height="100px" viewBox="-9 -1 100 100" enable-background="new -9 -1 100 100" xml:space="preserve">
<defs>
	<filter id="Adobe_OpacityMaskFilter" filterUnits="userSpaceOnUse" x="0" y="67" width="81.955" height="30.82">
		<feColorMatrix  type="matrix" values="1 0 0 0 0  0 1 0 0 0  0 0 1 0 0  0 0 0 1 0"/>
	</filter>
</defs>
<mask maskUnits="userSpaceOnUse" x="0" y="67" width="81.955" height="30.82" id="mask0">
	<path fill="#FFFFFF" filter="url(#Adobe_OpacityMaskFilter)" d="M0,67h81.955v30.807H0V67z"/>
</mask>
<g mask="url(#mask0)">
	<path fill="#65D0E5" d="M51.211,67H30.655C13.764,67,0,80.838,0,97.82h81.955C81.865,80.928,68.103,67,51.211,67z"/>
</g>
<path fill="#65D0E5" d="M44.203,52.529c1.627,0,3.162,0.538,4.337,1.524h7.497C59.742,50.197,62,45.085,62,39.345
	C62,27.507,52.334,18,40.5,18S19,27.507,19,39.345C19,47.327,23.426,54.322,30.021,58c0.723-3.139,3.523-5.471,6.775-5.471H44.203z"
	/>
<path fill="#65D0E5" d="M37.306,63h7.299c1.068,0,2.047-0.627,2.581-1.523h17.179c0.623,0,1.158-0.18,1.691-0.358
	c0.713-0.269,1.246-0.628,1.781-1.165c0.444-0.537,0.801-1.165,1.067-1.972c0.179-0.717,0.356-1.613,0.356-2.599v-7.438
	c0.089-0.089,0.178-0.179,0.267-0.269c1.513-1.523,2.581-3.585,2.849-5.825c0.089-0.09,0.178-0.09,0.178-0.179
	C72.822,41.402,73,40.955,73,40.596v-7.438c0-1.882-0.178-3.764-0.445-5.556c-0.533-1.882-0.979-3.674-1.602-5.466
	s-1.425-3.495-2.404-5.108c-0.89-1.613-1.957-3.136-3.204-4.57c-0.089-0.179-0.267-0.269-0.444-0.358
	c0.178-0.807-0.09-1.792-0.713-2.419C57.779,3.226,49.412,0,40.956,0C32.5,0,24.132,3.226,17.634,9.679
	c-0.623,0.627-0.89,1.613-0.712,2.419c-0.178,0.09-0.267,0.179-0.445,0.358c-1.246,1.434-2.314,2.958-3.205,4.57
	c-0.89,1.613-1.691,3.316-2.403,5.108c-0.623,1.792-1.157,3.584-1.424,5.466C9.089,29.394,9,31.276,9,33.158v7.438
	c0,0.448,0.178,0.806,0.445,1.075c0.089,0.089,0.178,0.089,0.178,0.179c0.267,2.24,1.335,4.302,2.849,5.825
	c1.157,1.165,2.67,2.061,4.361,2.599c-0.089-0.358-0.089-0.717-0.089-0.985V31.903c0-0.358,0-0.717,0.089-1.075
	c-1.691,0.448-3.115,1.344-4.361,2.599c-0.089,0.09-0.267,0.269-0.356,0.358v-0.717c0-1.703,0.178-3.405,0.445-5.019
	c0.267-1.703,0.712-3.316,1.335-4.839c0.534-1.613,1.247-3.136,2.137-4.57c0.801-1.434,1.78-2.868,2.848-4.123
	c0.089-0.089,0.178-0.269,0.178-0.358c0.801,0.09,1.602-0.179,2.136-0.717c5.43-5.467,12.551-8.155,19.583-8.155
	c7.032,0,14.242,2.688,19.583,8.155c0.623,0.627,1.424,0.807,2.136,0.717c0.09,0.09,0.09,0.269,0.178,0.358
	c1.068,1.255,2.048,2.688,2.85,4.123c0.801,1.434,1.513,2.958,2.136,4.57c0.534,1.613,0.979,3.226,1.335,4.929
	c0.268,1.613,0.445,3.315,0.445,5.018v0.717c-0.089-0.179-0.268-0.269-0.355-0.358c-1.158-1.165-2.671-2.062-4.362-2.599
	c0.089,0.358,0.089,0.717,0.089,1.076v17.296c0,0.358,0,0.717-0.089,0.985c0.445-0.089,0.89-0.269,1.335-0.448v5.646
	c0,0.627-0.089,1.254-0.178,1.702s-0.268,0.718-0.445,0.985c-0.178,0.18-0.445,0.359-0.712,0.449
	c-0.356,0.089-0.712,0.179-1.157,0.179H47.098c-0.534-0.896-1.424-1.523-2.582-1.523h-7.299c-1.602,0-2.848,1.345-2.848,2.868
	C34.458,61.746,35.704,63,37.306,63z"/>
</svg>
