<svg width="35" height="35" viewBox="0 0 35 35" fill="none" xmlns="http://www.w3.org/2000/svg">
<path fill-rule="evenodd" clip-rule="evenodd" d="M0 1.21658H1.3743V8.65165H2.67373V1.21658H4.07196V0H0V1.21658Z" transform="translate(9.09955 17.7383)" fill="#666F75"/>
<path fill-rule="evenodd" clip-rule="evenodd" d="M2.37601 2.12525C1.94671 2.12525 1.54532 2.36051 1.16785 2.82437V0H0V8.65165H1.16785V8.02652C1.55905 8.50766 1.96044 8.73981 2.37601 8.73981C2.83987 8.73981 3.1531 8.49392 3.30861 8.01456C3.38658 7.7412 3.42646 7.3119 3.42646 6.71646V4.14994C3.42646 3.53943 3.38658 3.11367 3.30861 2.85405C3.1531 2.37114 2.83987 2.12525 2.37601 2.12525ZM2.25816 6.80819C2.25816 7.3899 2.08848 7.67698 1.75133 7.67698C1.55905 7.67698 1.36367 7.58528 1.16785 7.3899V3.46148C1.36367 3.2692 1.55905 3.17749 1.75133 3.17749C2.08715 3.17749 2.25816 3.47521 2.25816 4.05692V6.80819Z" transform="translate(17.7113 17.7383)" fill="#666F75"/>
<path fill-rule="evenodd" clip-rule="evenodd" d="M2.19127 4.92525C1.93165 5.29209 1.68753 5.47196 1.45228 5.47196C1.29633 5.47196 1.20816 5.38025 1.17848 5.19861C1.16829 5.16051 1.16829 5.01873 1.16829 4.74538V0H0V5.09671C0 5.55171 0.0398734 5.85962 0.104114 6.05544C0.221519 6.38063 0.481139 6.53481 0.856835 6.53481C1.28614 6.53481 1.72741 6.27519 2.19127 5.74222V6.44665H3.36089V0H2.19127V4.92525Z" transform="translate(13.3412 19.9434)" fill="#666F75"/>
<path fill-rule="evenodd" clip-rule="evenodd" d="M0.563987 4.54778C0.943228 4.54778 1.12665 4.24696 1.12665 3.64266V0.903354C1.12665 0.301266 0.943228 0 0.563987 0C0.183418 0 0 0.301266 0 0.903354V3.64266C0 4.24696 0.183418 4.54778 0.563987 4.54778Z" transform="translate(15.972 9.44019)" fill="#666F75"/>
<path fill-rule="evenodd" clip-rule="evenodd" d="M17.3237 0C7.75494 0 0 7.75494 0 17.3237C0 26.8902 7.75494 34.6451 17.3237 34.6451C26.8902 34.6451 34.6451 26.8902 34.6451 17.3237C34.6451 7.75494 26.8902 0 17.3237 0ZM19.2496 8.10278H20.4263V12.8982C20.4263 13.1751 20.4263 13.3191 20.4405 13.3568C20.4662 13.5406 20.5596 13.6337 20.7174 13.6337C20.9544 13.6337 21.2016 13.4503 21.463 13.0816V8.10278H22.6432V14.6168H21.463V13.9057C20.9925 14.4453 20.5459 14.7067 20.1148 14.7067C19.7343 14.7067 19.4729 14.5512 19.3537 14.2225C19.2894 14.0249 19.2496 13.7134 19.2496 13.2531V8.10278ZM14.7917 10.2262C14.7917 9.53061 14.9091 9.02156 15.1603 8.69105C15.4873 8.24624 15.9476 8.02295 16.5359 8.02295C17.1261 8.02295 17.5864 8.24624 17.912 8.69105C18.1592 9.01978 18.2788 9.53061 18.2788 10.2262V12.5069C18.2788 13.1994 18.1592 13.7133 17.912 14.039C17.5864 14.4833 17.1261 14.7066 16.5359 14.7066C15.9476 14.7066 15.4873 14.4833 15.1603 14.039C14.9091 13.7133 14.7917 13.1994 14.7917 12.5069V10.2262ZM11.635 5.87549L12.5641 9.30726L13.4573 5.87549H14.7811L13.2065 11.0759V14.6166H11.8978V11.0759C11.7786 10.4494 11.5172 9.53055 11.0968 8.31042C10.8216 7.49878 10.5341 6.68536 10.2572 5.87549H11.635ZM26.6478 26.6031C26.4108 27.6309 25.5717 28.389 24.5594 28.5033C22.1621 28.77 19.7378 28.7713 17.3219 28.77C14.9073 28.7713 12.4812 28.77 10.0844 28.5033C9.07207 28.389 8.23252 27.6309 7.99549 26.6031C7.65967 25.1406 7.65967 23.5417 7.65967 22.0358C7.65967 20.5286 7.66321 18.931 8.00081 17.4672C8.23606 16.4389 9.07695 15.6813 10.088 15.567C12.4848 15.3003 14.9109 15.2985 17.325 15.3003C19.7413 15.2985 22.1656 15.3003 24.5625 15.567C25.5752 15.6813 26.4161 16.4389 26.6531 17.4672C26.989 18.931 26.9854 20.5286 26.9854 22.0358C26.9854 23.5417 26.9854 25.1406 26.6478 26.6031Z" transform="translate(0 0.354492)" fill="#666F75"/>
<path fill-rule="evenodd" clip-rule="evenodd" d="M1.75797 0C1.1612 0 0.697342 0.219747 0.359747 0.661013C0.112532 0.988418 0 1.49171 0 2.18063V4.43924C0 5.12285 0.126266 5.63146 0.373481 5.95354C0.711076 6.39481 1.17671 6.61456 1.78766 6.61456C2.39861 6.61456 2.8762 6.38418 3.19962 5.91544C3.34184 5.70943 3.43354 5.47418 3.47297 5.21633C3.48361 5.09848 3.49734 4.84063 3.49734 4.46316V4.29392H2.3069C2.3069 4.76089 2.29139 5.02051 2.28076 5.08475C2.21342 5.3962 2.04728 5.55171 1.75797 5.55171C1.35835 5.55171 1.1612 5.25443 1.1612 4.65899V3.51506H3.49734V2.18063C3.49734 1.49171 3.38127 0.988418 3.13582 0.661013C2.81019 0.219747 2.345 0 1.75797 0ZM2.33081 2.54218H1.16296V1.94718C1.16296 1.34997 1.35834 1.05225 1.74777 1.05225C2.13543 1.05225 2.33081 1.34997 2.33081 1.94718V2.54218Z" transform="translate(22.0482 19.8635)" fill="#666F75"/>
</svg>
