<?xml version="1.0" encoding="utf-8"?>
<!-- Generator: Adobe Illustrator 15.0.0, SVG Export Plug-In . SVG Version: 6.00 Build 0)  -->
<!DOCTYPE svg PUBLIC "-//W3C//DTD SVG 1.1//EN" "http://www.w3.org/Graphics/SVG/1.1/DTD/svg11.dtd">
<svg version="1.1" id="Layer_1" xmlns="http://www.w3.org/2000/svg" xmlns:xlink="http://www.w3.org/1999/xlink" x="0px" y="0px"
	 width="100px" height="100px" viewBox="-3.5 -15 100 100" enable-background="new -3.5 -15 100 100" xml:space="preserve">
<defs>
	<filter id="Adobe_OpacityMaskFilter" filterUnits="userSpaceOnUse" x="0" y="0" width="93" height="70">
		<feColorMatrix  type="matrix" values="1 0 0 0 0  0 1 0 0 0  0 0 1 0 0  0 0 0 1 0"/>
	</filter>
</defs>
<mask maskUnits="userSpaceOnUse" x="0" y="0" width="93" height="70" id="mask0">
	<path fill="#FFFFFF" filter="url(#Adobe_OpacityMaskFilter)" d="M0,0h93v70H0V0z"/>
</mask>
<g mask="url(#mask0)">
	<path fill="#4EC9E0" d="M93,58.334c0,2.045-0.574,3.941-1.494,5.611L62.143,30.973L91.188,5.469C92.318,7.269,93,9.383,93,11.667
		V58.334z M46.5,36.959L86.915,1.47C85.258,0.558,83.39,0,81.375,0h-69.75C9.607,0,7.739,0.558,6.088,1.47L46.5,36.959z
		 M57.768,34.812l-9.354,8.222c-0.548,0.478-1.229,0.717-1.913,0.717c-0.684,0-1.365-0.239-1.914-0.719l-9.357-8.22L5.494,68.205
		C7.277,69.328,9.366,70,11.625,70h69.75c2.26,0,4.349-0.672,6.13-1.795L57.768,34.812z M1.811,5.469C0.681,7.269,0,9.383,0,11.667
		v46.667c0,2.045,0.57,3.941,1.493,5.611l29.36-32.979L1.811,5.469z"/>
</g>
</svg>
