<svg width="36" height="35" viewBox="0 0 36 35" fill="none" xmlns="http://www.w3.org/2000/svg">
<path fill-rule="evenodd" clip-rule="evenodd" d="M17.4932 0C7.83884 0 0 7.83884 0 17.4932C0 27.1612 7.83884 35 17.4932 35C27.1612 35 35 27.1612 35 17.4932C35 7.8279 27.1612 0 17.4932 0ZM26.2096 13.5751L26.2206 14.1301C26.2206 19.8227 21.8842 26.3901 13.9579 26.3901C11.5245 26.3901 9.26058 25.6765 7.3576 24.4461C7.68844 24.4899 8.03294 24.5118 8.38292 24.5118C10.4035 24.5118 12.26 23.8173 13.7337 22.6635C11.8444 22.6306 10.264 21.3811 9.70898 19.6723C9.9742 19.727 10.2421 19.7488 10.521 19.7488C10.9147 19.7488 11.3003 19.6942 11.653 19.5985C9.68711 19.202 8.20246 17.4631 8.20246 15.3797V15.325C8.77937 15.6476 9.44104 15.839 10.1465 15.8609C8.99263 15.0926 8.23527 13.7665 8.23527 12.2818C8.23527 11.4917 8.44853 10.7453 8.82312 10.1137C10.9366 12.7193 14.1192 14.4282 17.6982 14.6114C17.6216 14.2997 17.5916 13.9688 17.5916 13.6271C17.5916 11.2565 19.5137 9.32349 21.8951 9.32349C23.1337 9.32349 24.2547 9.84844 25.0449 10.6796C26.0183 10.4882 26.9451 10.1355 27.7791 9.64338C27.4592 10.6496 26.7756 11.4917 25.8788 12.0248C26.7537 11.9182 27.5877 11.6831 28.356 11.3413C27.7791 12.208 27.0436 12.9654 26.2096 13.5751Z" transform="translate(0.5)" fill="#666F75"/>
</svg>
