<svg width="15" height="11" viewBox="0 0 15 11" fill="none" xmlns="http://www.w3.org/2000/svg">
<mask id="mask0" mask-type="alpha" maskUnits="userSpaceOnUse" x="0" y="0" width="15" height="11">
<path fill-rule="evenodd" clip-rule="evenodd" d="M0 0H15V11H0V0Z" fill="white"/>
</mask>
<g mask="url(#mask0)">
<path fill-rule="evenodd" clip-rule="evenodd" d="M15 9.16669C15 9.48814 14.9074 9.7862 14.7591 10.0485L10.0231 4.86716L14.7079 0.859375C14.8901 1.14218 15 1.4744 15 1.8333V9.16669ZM7.49999 5.80793L14.0185 0.230922C13.7511 0.0876923 13.4499 0 13.1249 0H1.87495C1.5495 0 1.24825 0.0876923 0.981873 0.230922L7.49999 5.80793ZM9.31732 5.47046L7.80858 6.76235C7.72014 6.83744 7.61028 6.87508 7.50001 6.87508C7.38971 6.87508 7.27985 6.83744 7.19144 6.76221L5.68226 5.47046L0.8862 10.7181C1.17375 10.8945 1.51062 11.0001 1.87496 11.0001H13.1249C13.4894 11.0001 13.8263 10.8945 14.1136 10.7181L9.31732 5.47046ZM0.292125 0.859375C0.109863 1.14218 0 1.4744 0 1.8333V9.16669C0 9.48814 0.0919918 9.7862 0.240746 10.0485L4.97631 4.86615L0.292125 0.859375Z" fill="#666F75"/>
</g>
</svg>
