<svg width="70" height="63" viewBox="0 0 70 63" fill="none" xmlns="http://www.w3.org/2000/svg">
<mask id="mask0" mask-type="alpha" maskUnits="userSpaceOnUse" x="0" y="0" width="70" height="63">
<path fill-rule="evenodd" clip-rule="evenodd" d="M0 0H69.6765V62.9945H0V0Z" fill="white"/>
</mask>
<g mask="url(#mask0)">
<path fill-rule="evenodd" clip-rule="evenodd" d="M1.36103 2.73913C2.11232 2.73913 2.72206 2.12557 2.72206 1.36957C2.72206 0.613565 2.11232 0 1.36103 0C0.609741 0 0 0.613565 0 1.36957C0 2.12557 0.609741 2.73913 1.36103 2.73913Z" transform="translate(52.944 25.3478)" fill="#4EC9E0"/>
<path fill-rule="evenodd" clip-rule="evenodd" d="M65.6016 52.0435H61.7297C61.6194 51.0971 61.3692 50.1736 60.9908 49.3044H66.9626V50.6739C66.9626 51.4291 66.3521 52.0435 65.6016 52.0435ZM52.269 60.002C48.5694 60.002 45.5818 57.0891 45.4672 53.3684C45.4648 53.297 45.4638 53.2255 45.4638 53.1542C45.4638 51.5719 46.0137 50.0271 47.0117 48.8049C48.3099 47.217 50.226 46.3064 52.269 46.3064C54.0901 46.3064 55.8094 47.0317 57.0811 48.3137C57.1893 48.6919 57.4547 49.0018 57.8018 49.1692C58.6243 50.3275 59.0741 51.7252 59.0741 53.1542C59.0741 53.2255 59.073 53.297 59.0707 53.3706C58.9561 57.0892 55.9685 60.002 52.269 60.002ZM23.818 60.2609C23.9008 60.1854 23.9838 60.1102 24.0642 60.0315C25.5276 58.6011 26.4788 56.7716 26.8161 54.7826H42.8799C43.2173 56.7723 44.1684 58.6014 45.6315 60.0315C45.7119 60.1101 45.795 60.1854 45.8777 60.2609H23.818ZM10.6249 53.3685C10.6224 53.2972 10.6215 53.2257 10.6215 53.1543C10.6215 51.5721 11.1713 50.0272 12.1694 48.805C13.4675 47.2171 15.3837 46.3065 17.4266 46.3065C19.4698 46.3065 21.3854 47.217 22.6822 48.8045C22.6923 48.8171 22.7028 48.8294 22.7134 48.8414C23.6929 50.0584 24.2318 51.5881 24.2318 53.1543C24.2318 53.2257 24.2307 53.2972 24.2284 53.3707C24.1138 57.0892 21.1262 60.0022 17.4266 60.0022C13.7271 60.0022 10.7395 57.0892 10.6249 53.3685ZM2.72206 50.6739V49.3044H8.70487C8.32637 50.1736 8.07635 51.0971 7.96597 52.0435H4.08309C3.33262 52.0435 2.72206 51.4291 2.72206 50.6739ZM42.8083 52.0435H26.8874C26.777 51.0971 26.5269 50.1736 26.1485 49.3044H43.5472C43.1687 50.1736 42.9186 51.0971 42.8083 52.0435ZM4.08309 13.6956H50.1267C50.5573 13.6956 50.9586 13.8989 51.2147 14.2429L52.2747 16.4348H43.4168C42.6653 16.4348 42.0558 17.0481 42.0558 17.8043V28.7602C42.0553 29.5212 42.6747 30.1304 43.4168 30.1304H59.3603L65.1616 33.7643C66.2897 34.5278 66.9626 35.8 66.9626 37.1714V38.3478H59.7492C58.9976 38.3478 58.3881 38.9611 58.3881 39.7174C58.3881 40.4737 58.9976 41.087 59.7492 41.087H66.9626V46.5652H59.1869C57.3908 44.6534 54.9061 43.5672 52.269 43.5672C49.632 43.5672 47.1477 44.6532 45.3511 46.5652H24.3447C22.5497 44.653 20.0646 43.5672 17.4266 43.5672C14.7896 43.5672 12.3053 44.6532 10.5088 46.5652H2.72206V41.087H9.93551C10.6871 41.087 11.2965 40.4737 11.2965 39.7174C11.2965 38.9611 10.6871 38.3478 9.93551 38.3478H2.72206V15.0652C2.72206 14.31 3.33262 13.6956 4.08309 13.6956ZM36.6117 9.58694C36.6117 8.83176 37.2222 8.21738 37.9727 8.21738H43.4168C44.1673 8.21738 44.7779 8.83176 44.7779 9.58694V10.9565H36.6117V9.58694ZM39.3337 4.1087C39.3337 3.35352 39.9443 2.73914 40.6948 2.73914C41.4462 2.73914 42.0558 3.35256 42.0558 4.1087V5.47827H39.3337V4.1087ZM49.8233 22.3142C49.2917 21.7795 48.4302 21.7795 47.8984 22.3142L44.7779 25.4543V19.1739H53.5992L57.5732 27.3913H46.7026L49.8233 24.251C50.3549 23.7162 50.3549 22.849 49.8233 22.3142ZM66.6539 31.4734C66.6424 31.4656 66.6307 31.4582 66.6188 31.4508L60.8012 27.8068C53.1871 12.0616 53.6032 12.9062 53.5242 12.7874C52.7655 11.6409 51.4953 10.9565 50.1267 10.9565H47.4999V9.58696C47.4999 7.80159 46.362 6.27918 44.7779 5.71383V4.1087C44.7779 1.83837 42.9507 0 40.6948 0C38.4434 0 36.6117 1.84316 36.6117 4.1087V5.71383C35.0276 6.27918 33.8896 7.80145 33.8896 9.58696V10.9565H4.08309C1.83167 10.9565 0 12.7997 0 15.0652V50.6739C0 52.9394 1.83167 54.7826 4.08309 54.7826H8.03742C8.37482 56.7723 9.32591 58.6014 10.789 60.0315C10.8694 60.1101 10.9525 60.1854 11.0352 60.2609H1.36103C0.609469 60.2609 0 60.8742 0 61.6304C0 62.3867 0.609469 63 1.36103 63H68.3237C69.0752 63 69.6847 62.3867 69.6847 61.6304C69.6847 60.8742 69.0752 60.2609 68.3237 60.2609H58.6604C58.7431 60.1854 58.8261 60.1102 58.9066 60.0315C60.3699 58.6011 61.3212 56.7716 61.6584 54.7826H65.6016C67.853 54.7826 69.6847 52.9394 69.6847 50.6739V37.1714C69.6847 34.875 68.5518 32.7448 66.6539 31.4734Z" fill="#4EC9E0"/>
</g>
<path fill-rule="evenodd" clip-rule="evenodd" d="M1.35338 3H34.6466C35.394 3 36 2.3283 36 1.5C36 0.6717 35.394 0 34.6466 0H1.35338C0.606045 0 0 0.6717 0 1.5C0 2.3283 0.606045 3 1.35338 3Z" transform="translate(14 38)" fill="#4EC9E0"/>
<path fill-rule="evenodd" clip-rule="evenodd" d="M4.00001 2.66666C4.73521 2.66666 5.33334 3.26479 5.33334 3.99999C5.33334 4.73519 4.73521 5.33332 4.00001 5.33332C3.26481 5.33332 2.66667 4.73519 2.66667 3.99999C2.66667 3.26479 3.26481 2.66666 4.00001 2.66666ZM4 8C6.2056 8 8 6.2056 8 4C8 1.7944 6.2056 0 4 0C1.7944 0 0 1.7944 0 4C0 6.2056 1.7944 8 4 8Z" transform="translate(13 49)" fill="#4EC9E0"/>
<path fill-rule="evenodd" clip-rule="evenodd" d="M4.00001 5.33332C3.26481 5.33332 2.66667 4.73519 2.66667 3.99999C2.66667 3.26479 3.26481 2.66666 4.00001 2.66666C4.73521 2.66666 5.33334 3.26479 5.33334 3.99999C5.33334 4.73519 4.73521 5.33332 4.00001 5.33332ZM4 0C1.7944 0 0 1.7944 0 4C0 6.2056 1.7944 8 4 8C6.2056 8 8 6.2056 8 4C8 1.7944 6.2056 0 4 0Z" transform="translate(48 36)" fill="#4EC9E0"/>
<path fill-rule="evenodd" clip-rule="evenodd" d="M2.7972 8.14287H6.993C7.76531 8.14287 8.3916 7.53514 8.3916 6.78572V2.71429H11.1888V6.78572C11.1888 7.53514 11.8151 8.14287 12.5874 8.14287H17.2028V10.8572H12.5874C11.8151 10.8572 11.1888 11.4649 11.1888 12.2143V16.2857H8.3916V12.2143C8.3916 11.4649 7.76531 10.8572 6.993 10.8572H2.7972V8.14287ZM1.3986 13.5714H5.59441V17.6429C5.59441 18.3923 6.2207 19 6.99301 19H12.5874C13.3597 19 13.986 18.3923 13.986 17.6429V13.5714H18.6014C19.3737 13.5714 20 12.9637 20 12.2143V6.78571C20 6.0363 19.3737 5.42857 18.6014 5.42857H13.986V1.35714C13.986 0.607729 13.3597 0 12.5874 0H6.99301C6.2207 0 5.59441 0.607729 5.59441 1.35714V5.42857H1.3986C0.626294 5.42857 0 6.0363 0 6.78571V12.2143C0 12.9637 0.626294 13.5714 1.3986 13.5714Z" transform="translate(14 16)" fill="#4EC9E0"/>
</svg>
