<svg width="63" height="63" viewBox="0 0 63 63" fill="none" xmlns="http://www.w3.org/2000/svg">
<mask id="mask0" mask-type="alpha" maskUnits="userSpaceOnUse" x="0" y="0" width="42" height="52">
<path fill-rule="evenodd" clip-rule="evenodd" d="M0 0H40.9218V51.8765H0V0Z" transform="translate(0.507507 0.12326)" fill="white"/>
</mask>
<g mask="url(#mask0)">
<path fill-rule="evenodd" clip-rule="evenodd" d="M37.0844 17.3616L29.7775 29.8255L16.1711 22.0629L19.6681 16.0779C20.0132 15.4871 19.8085 14.7317 19.2106 14.3907C18.6127 14.0495 17.8482 14.252 17.5031 14.8427L14.0061 20.8278L12.3822 19.9014L19.6698 7.42883C21.457 4.37022 24.8055 2.47031 28.4087 2.47031C30.1597 2.47031 31.887 2.92756 33.4035 3.79279C35.7228 5.11588 37.3838 7.26369 38.0805 9.84023C38.7752 12.4098 38.4215 15.081 37.0844 17.3616ZM20.7338 45.2519C18.8539 47.8542 15.7871 49.4062 12.5184 49.4062C10.7677 49.4062 9.04082 48.9489 7.52457 48.0839C2.72357 45.3451 1.0727 39.2574 3.84445 34.5134L11.1323 22.0405L13.8381 23.584C13.8383 23.5842 13.8384 23.5844 13.8387 23.5844C13.8388 23.5845 13.8391 23.5845 13.8392 23.5847L28.5244 31.9628L20.7338 45.2519ZM40.4957 9.20252C39.6264 5.98778 37.5516 3.30676 34.6534 1.65338C32.7573 0.571753 30.5979 0 28.4087 0C23.9152 0 19.7371 2.37323 17.5049 6.19356L9.59444 19.7321C9.59357 19.7333 9.59269 19.7344 9.59207 19.7357C9.59132 19.7369 9.59082 19.7383 9.59007 19.7395L1.67932 33.2784C-1.78168 39.2019 0.279819 46.8035 6.27457 50.2234C8.17032 51.3049 10.3294 51.8765 12.5184 51.8765C16.6167 51.8765 20.4633 49.916 22.8079 46.6324C22.8294 46.6023 22.8496 46.5712 22.8682 46.5395L39.2478 18.6001C40.9199 15.7476 41.3631 12.4103 40.4957 9.20252Z" transform="translate(0.500061 0.12326)" fill="#4EC9E0"/>
</g>
<path fill-rule="evenodd" clip-rule="evenodd" d="M27.7792 18.3298C24.917 19.1202 21.0888 19.5556 17 19.5556C12.911 19.5556 9.08303 19.1203 6.22083 18.3298C3.18603 17.4917 2.52914 16.6062 2.52914 16.4319V8.69348C3.33877 9.10965 4.34059 9.48364 5.53512 9.81352C8.62265 10.6663 12.6943 11.1358 17.0001 11.1358C21.3059 11.1358 25.3777 10.6663 28.4653 9.81352C29.6596 9.48364 30.6612 9.10977 31.471 8.6936V11.7438C29.6567 12.6115 27.3936 13.3143 24.8699 13.7887C24.1843 13.9175 23.7367 14.559 23.87 15.2217C23.9875 15.8056 24.5166 16.2108 25.1099 16.2108C25.19 16.2108 25.2711 16.2034 25.3526 16.1881C27.6048 15.7649 29.6818 15.166 31.4711 14.4309V16.4319C31.4708 16.6062 30.814 17.4916 27.7792 18.3298ZM6.2298 3.67275C9.09783 2.88076 12.9228 2.44455 17.0001 2.44455C21.0776 2.44455 24.9025 2.88076 27.7706 3.67275C30.8193 4.51474 31.4674 5.41906 31.4711 5.56658C31.4711 5.56707 31.471 5.56755 31.471 5.56804V5.57012C31.4658 5.71923 30.8156 6.6222 27.7706 7.46321C24.9025 8.25521 21.0776 8.69141 17.0001 8.69141C12.9228 8.69141 9.09783 8.25521 6.2298 7.46321C3.1725 6.6189 2.52914 5.71165 2.52914 5.56804C2.52914 5.42443 3.1725 4.51706 6.2298 3.67275ZM34 5.56792C34 3.76503 32.1377 2.33651 28.4651 1.32231C25.3776 0.469575 21.3058 0 17 0C12.6942 0 8.62253 0.469575 5.535 1.32231C1.86658 2.33541 0.00467846 3.76173 0.000379334 5.56169C0.000379334 5.56389 0 5.56585 0 5.56792V16.432C0 18.2381 1.85924 19.6675 5.52589 20.6801C8.6076 21.5313 12.6825 22 16.9997 22C21.317 22 25.3919 21.5313 28.4736 20.6801C32.1404 19.6675 33.9995 18.2381 33.9995 16.432V5.5755C33.9997 5.57306 34 5.57049 34 5.56792Z" transform="translate(28.5 41)" fill="#4EC9E0"/>
<path fill-rule="evenodd" clip-rule="evenodd" d="M2.25588 0.198386C1.5443 -0.209979 0.634559 0.0322888 0.22365 0.739718L0.199549 0.781279C-0.211211 1.48871 0.0324782 2.39315 0.744056 2.80166C0.978372 2.93611 1.23411 3 1.48658 3C2.00073 3 2.50076 2.73481 2.77628 2.26033L2.80038 2.21877C3.21129 1.51134 2.96746 0.606899 2.25588 0.198386Z" transform="translate(19.5 11)" fill="#4EC9E0"/>
<path fill-rule="evenodd" clip-rule="evenodd" d="M1.37327 0.00750686L1.33998 0.0108024C0.52658 0.0886968 -0.0703807 0.819706 0.00669894 1.64329C0.0791923 2.41879 0.723643 3 1.47772 3C1.52432 3 1.57167 2.99775 1.61901 2.99326L1.66768 2.98847C2.48064 2.90623 3.07391 2.17207 2.99254 1.34894C2.91146 0.525954 2.18801 -0.0745819 1.37327 0.00750686Z" transform="translate(48.5 55)" fill="#4EC9E0"/>
</svg>
