<svg width="67" height="63" viewBox="0 0 67 63" fill="none" xmlns="http://www.w3.org/2000/svg">
<path fill-rule="evenodd" clip-rule="evenodd" d="M1 0C0.448 0 0 0.448 0 1C0 1.552 0.448 2 1 2C1.552 2 2 1.552 2 1C2 0.448 1.552 0 1 0Z" transform="translate(51 9)" fill="#4EC9E0"/>
<path fill-rule="evenodd" clip-rule="evenodd" d="M1 0C0.448 0 0 0.448 0 1C0 1.552 0.448 2 1 2C1.552 2 2 1.552 2 1C2 0.448 1.552 0 1 0Z" transform="translate(14 9)" fill="#4EC9E0"/>
<mask id="mask0" mask-type="alpha" maskUnits="userSpaceOnUse" x="0" y="0" width="68" height="63">
<path fill-rule="evenodd" clip-rule="evenodd" d="M0 0H66.9921V62.9921H0V0Z" transform="translate(0.00787354)" fill="white"/>
</mask>
<g mask="url(#mask0)">
<path fill-rule="evenodd" clip-rule="evenodd" d="M23.5547 15.75H17.0117C16.2891 15.75 15.7031 16.3377 15.7031 17.0625V23.625H10.4688V17.0625C10.4688 16.3377 9.88276 15.75 9.16016 15.75H2.61719V10.5H9.16016C9.88276 10.5 10.4688 9.91226 10.4688 9.1875V2.625H15.7031V9.1875C15.7031 9.91226 16.2891 10.5 17.0117 10.5H23.5547V15.75ZM24.8633 7.875H18.3203V1.3125C18.3203 0.587738 17.7343 0 17.0117 0H9.16016C8.43755 0 7.85156 0.587738 7.85156 1.3125V7.875H1.30859C0.585988 7.875 0 8.46274 0 9.1875V17.0625C0 17.7873 0.585988 18.375 1.30859 18.375H7.85156V24.9375C7.85156 25.6623 8.43755 26.25 9.16016 26.25H17.0117C17.7343 26.25 18.3203 25.6623 18.3203 24.9375V18.375H24.8633C25.5859 18.375 26.1719 17.7873 26.1719 17.0625V9.1875C26.1719 8.46274 25.5859 7.875 24.8633 7.875Z" transform="translate(20.4141 26.25)" fill="#4EC9E0"/>
<path fill-rule="evenodd" clip-rule="evenodd" d="M64.3828 56.4375C64.3828 58.6086 62.6217 60.375 60.457 60.375H58.3633V18.375H60.457C62.6217 18.375 64.3828 20.1414 64.3828 22.3125V56.4375ZM2.61719 56.4375V22.3125C2.61719 20.1414 4.37829 18.375 6.54297 18.375H8.63672V60.375H6.54297C4.37829 60.375 2.61719 58.6086 2.61719 56.4375ZM19.1055 7.875C19.1055 4.98015 21.4536 2.625 24.3398 2.625H42.6602C45.5464 2.625 47.8945 4.98015 47.8945 7.875V15.75H45.2773V9.1875C45.2773 7.01636 43.5162 5.25 41.3516 5.25H25.6484C23.4838 5.25 21.7227 7.01636 21.7227 9.1875V15.75H19.1055V7.875ZM42.6602 15.75H24.3398V9.1875C24.3398 8.46379 24.9269 7.875 25.6484 7.875H41.3516C42.0731 7.875 42.6602 8.46379 42.6602 9.1875V15.75ZM51.8203 34.125C51.0977 34.125 50.5117 34.7127 50.5117 35.4375V60.375H16.4883V35.4375C16.4883 34.7127 15.9023 34.125 15.1797 34.125C14.4571 34.125 13.8711 34.7127 13.8711 35.4375V60.375H11.2539V18.375H13.8711V24.9375C13.8711 25.6623 14.4571 26.25 15.1797 26.25C15.9023 26.25 16.4883 25.6623 16.4883 24.9375V18.375H50.5117V24.9375C50.5117 25.6623 51.0977 26.25 51.8203 26.25C52.5429 26.25 53.1289 25.6623 53.1289 24.9375V18.375H55.7461V60.375H53.1289V35.4375C53.1289 34.7127 52.5429 34.125 51.8203 34.125ZM60.457 15.75H50.5117V7.875C50.5117 3.53272 46.9895 0 42.6602 0H24.3398C20.0105 0 16.4883 3.53272 16.4883 7.875V15.75H6.54297C2.93518 15.75 0 18.6939 0 22.3125V56.4375C0 60.0561 2.93518 63 6.54297 63H60.457C64.0648 63 67 60.0561 67 56.4375V22.3125C67 18.6939 64.0648 15.75 60.457 15.75Z" fill="#4EC9E0"/>
</g>
</svg>
