<?xml version="1.0" encoding="utf-8"?>
<!-- Generator: Adobe Illustrator 15.0.0, SVG Export Plug-In . SVG Version: 6.00 Build 0)  -->
<!DOCTYPE svg PUBLIC "-//W3C//DTD SVG 1.1//EN" "http://www.w3.org/Graphics/SVG/1.1/DTD/svg11.dtd">
<svg version="1.1" id="Layer_1" xmlns="http://www.w3.org/2000/svg" xmlns:xlink="http://www.w3.org/1999/xlink" x="0px" y="0px"
	 width="100px" height="100px" viewBox="-10.5 -10.5 100 100" enable-background="new -10.5 -10.5 100 100" xml:space="preserve">
<defs>
	<filter id="Adobe_OpacityMaskFilter" filterUnits="userSpaceOnUse" x="0" y="0" width="79" height="79">
		<feColorMatrix  type="matrix" values="1 0 0 0 0  0 1 0 0 0  0 0 1 0 0  0 0 0 1 0"/>
	</filter>
</defs>
<mask maskUnits="userSpaceOnUse" x="0" y="0" width="79" height="79" id="mask0">
	<path fill="#FFFFFF" filter="url(#Adobe_OpacityMaskFilter)" d="M0,0h79v79H0V0z"/>
</mask>
<g mask="url(#mask0)">
	<path fill="#4EC9E0" d="M78.963,62.347c0.166,1.282-0.225,2.399-1.172,3.347L66.668,76.74c-0.502,0.558-1.156,1.032-1.965,1.422
		c-0.809,0.391-1.604,0.643-2.383,0.754c-0.057,0-0.225,0.014-0.503,0.042S61.177,79,60.73,79c-1.059,0-2.773-0.182-5.143-0.544
		c-2.371-0.362-5.27-1.255-8.698-2.679c-3.429-1.422-7.318-3.557-11.667-6.401c-4.348-2.845-8.977-6.751-13.882-11.716
		c-3.903-3.85-7.137-7.532-9.701-11.047c-2.565-3.515-4.627-6.765-6.189-9.75s-2.732-5.691-3.512-8.118
		c-0.781-2.426-1.311-4.519-1.59-6.276c-0.279-1.757-0.39-3.138-0.334-4.143c0.055-1.004,0.083-1.562,0.083-1.674
		c0.111-0.781,0.362-1.576,0.752-2.385c0.391-0.81,0.864-1.464,1.422-1.967l11.123-11.13C14.176,0.391,15.068,0,16.071,0
		c0.725,0,1.366,0.209,1.923,0.627c0.558,0.419,1.031,0.935,1.422,1.548l8.948,16.988c0.502,0.893,0.642,1.869,0.418,2.929
		c-0.223,1.06-0.696,1.953-1.422,2.678l-4.098,4.101c-0.111,0.112-0.209,0.293-0.293,0.544s-0.125,0.461-0.125,0.627
		c0.223,1.172,0.725,2.511,1.505,4.017c0.669,1.339,1.701,2.971,3.095,4.896c1.394,1.925,3.373,4.143,5.938,6.653
		c2.509,2.566,4.739,4.561,6.691,5.983c1.951,1.423,3.582,2.469,4.893,3.138c1.309,0.67,2.313,1.074,3.01,1.213l1.045,0.21
		c0.111,0,0.293-0.042,0.544-0.126s0.433-0.181,0.544-0.293l4.767-4.854c1.005-0.893,2.175-1.34,3.513-1.34
		c0.948,0,1.701,0.168,2.258,0.503h0.084l16.141,9.54C78.043,60.311,78.738,61.23,78.963,62.347z"/>
</g>
</svg>
