<?xml version="1.0" encoding="UTF-8" standalone="no"?>
<!-- Generator: Adobe Illustrator 19.0.0, SVG Export Plug-In . SVG Version: 6.00 Build 0)  -->

<svg
   xmlns:dc="http://purl.org/dc/elements/1.1/"
   xmlns:cc="http://creativecommons.org/ns#"
   xmlns:rdf="http://www.w3.org/1999/02/22-rdf-syntax-ns#"
   xmlns:svg="http://www.w3.org/2000/svg"
   xmlns="http://www.w3.org/2000/svg"
   xmlns:sodipodi="http://sodipodi.sourceforge.net/DTD/sodipodi-0.dtd"
   xmlns:inkscape="http://www.inkscape.org/namespaces/inkscape"
   version="1.1"
   id="Layer_1"
   x="0px"
   y="0px"
   viewBox="0 0 187.5 187.5"
   xml:space="preserve"
   inkscape:version="0.92.0 unknown"
   sodipodi:docname="achievement.svg"
   width="200"
   height="200"><metadata
     id="metadata49"><rdf:RDF><cc:Work
         rdf:about=""><dc:format>image/svg+xml</dc:format><dc:type
           rdf:resource="http://purl.org/dc/dcmitype/StillImage" /><dc:title></dc:title></cc:Work></rdf:RDF></metadata><defs
     id="defs47" /><sodipodi:namedview
     pagecolor="#ffffff"
     bordercolor="#666666"
     borderopacity="1"
     objecttolerance="10"
     gridtolerance="10"
     guidetolerance="10"
     inkscape:pageopacity="0"
     inkscape:pageshadow="2"
     inkscape:window-width="1315"
     inkscape:window-height="744"
     id="namedview45"
     showgrid="false"
     inkscape:showpageshadow="false"
     fit-margin-top="0"
     fit-margin-left="0"
     fit-margin-right="0"
     fit-margin-bottom="0"
     inkscape:zoom="0.47011952"
     inkscape:cx="-104.18401"
     inkscape:cy="153.70218"
     inkscape:window-x="51"
     inkscape:window-y="24"
     inkscape:window-maximized="1"
     inkscape:current-layer="Layer_1" /><g
     id="g3"
     transform="matrix(0.37350598,0,0,0.37350598,-9.8e-7,1.8577299e-4)"><g
       id="g5"><g
         id="g7"><path
           d="m 492,58.458 h -89.722 c -2.205,-7.839 -4.907,-15.553 -8.105,-23.122 -1.564,-3.702 -5.193,-6.107 -9.211,-6.107 H 116.083 c -4.019,0 -7.647,2.405 -9.211,6.107 -3.198,7.569 -5.901,15.283 -8.105,23.122 H 10 c -5.523,0 -10,4.478 -10,10 0,40.449 13.161,78.557 37.058,107.303 23.517,28.288 54.671,44.294 88.058,45.347 0.905,1.334 1.821,2.662 2.762,3.978 21.895,30.639 51.617,54.018 86.281,67.946 v 23.333 h -12.447 c -5.523,0 -10,4.478 -10,10 0,5.522 4.477,10 10,10 h 12.447 v 17.826 h -12.447 c -5.523,0 -10,4.478 -10,10 0,5.522 4.477,10 10,10 h 12.447 v 23.558 h -26.107 c -29.848,0 -54.131,24.283 -54.131,54.131 v 10.89 c 0,5.522 4.477,10 10,10 h 213.204 c 5.523,0 10,-4.478 10,-10 v -10.89 c 0,-29.848 -24.283,-54.131 -54.131,-54.131 h -26.107 v -23.558 h 13.402 c 5.523,0 10,-4.478 10,-10 0,-5.522 -4.477,-10 -10,-10 h -13.402 v -17.826 h 13.402 c 5.523,0 10,-4.478 10,-10 0,-5.522 -4.477,-10 -10,-10 h -13.402 v -23.333 c 34.664,-13.929 64.386,-37.308 86.281,-67.946 23.792,-33.293 36.368,-72.591 36.368,-113.644 0,-11.151 -0.935,-22.163 -2.771,-32.984 h 74.922 c -2.949,46.85 -26.431,89.208 -61.505,109.752 -4.766,2.792 -6.366,8.918 -3.575,13.683 1.861,3.178 5.204,4.948 8.638,4.948 1.717,0 3.457,-0.443 5.045,-1.373 21.317,-12.486 39.293,-31.729 51.984,-55.649 C 495.179,125.496 502,97.362 502,68.458 c 0,-5.521 -4.477,-10 -10,-10 z m -471.695,20 H 94.28 c -1.837,10.822 -2.771,21.833 -2.771,32.984 0,31.035 7.192,61.064 20.979,88.257 C 62.861,190.626 24.1,140.404 20.305,78.458 Z m 292.688,339.291 c 18.82,0 34.131,15.311 34.131,34.131 v 0.89 H 153.92 v -0.89 c 0,-18.82 15.311,-34.131 34.131,-34.131 z m -46.107,-43.558 v 23.558 h -32.728 v -23.558 z m -32.728,-20 v -17.826 h 32.728 v 17.826 z m 39.334,-77.453 c -3.964,1.431 -6.605,5.192 -6.605,9.406 v 30.221 h -32.728 v -30.221 c 0,-4.214 -2.642,-7.976 -6.605,-9.406 -69.409,-25.05 -116.043,-91.478 -116.043,-165.296 0,-13.205 1.447,-26.189 4.307,-38.847 0.519,-1.139 0.827,-2.391 0.883,-3.711 1.657,-6.652 3.703,-13.21 6.148,-19.656 H 378.2 c 7.526,19.845 11.337,40.74 11.337,62.214 -0.002,73.819 -46.636,140.246 -116.045,165.296 z"
           id="path9"
           inkscape:connector-curvature="0" /><path
           d="m 208.456,226.11 c -21.505,-11.884 -39.218,-32.593 -49.875,-58.313 -2.113,-5.102 -7.965,-7.525 -13.066,-5.41 -5.103,2.114 -7.525,7.964 -5.411,13.066 12.384,29.889 33.223,54.096 58.678,68.163 1.534,0.847 3.192,1.249 4.828,1.249 3.521,0 6.938,-1.864 8.761,-5.165 2.672,-4.834 0.919,-10.917 -3.915,-13.59 z"
           id="path11"
           inkscape:connector-curvature="0" /><path
           d="m 141.488,148.237 c 5.445,-0.925 9.109,-6.089 8.184,-11.533 -1.428,-8.402 -2.151,-17.053 -2.151,-25.712 0,-5.522 -4.477,-10 -10,-10 -5.523,0 -10,4.478 -10,10 0,9.778 0.819,19.556 2.434,29.062 0.829,4.878 5.06,8.327 9.847,8.327 0.555,0.001 1.119,-0.046 1.686,-0.144 z"
           id="path13"
           inkscape:connector-curvature="0" /></g></g></g><g
     id="g15"
     transform="translate(228.71006,-217.20216)" /><g
     id="g17"
     transform="translate(228.71006,-217.20216)" /><g
     id="g19"
     transform="translate(228.71006,-217.20216)" /><g
     id="g21"
     transform="translate(228.71006,-217.20216)" /><g
     id="g23"
     transform="translate(228.71006,-217.20216)" /><g
     id="g25"
     transform="translate(228.71006,-217.20216)" /><g
     id="g27"
     transform="translate(228.71006,-217.20216)" /><g
     id="g29"
     transform="translate(228.71006,-217.20216)" /><g
     id="g31"
     transform="translate(228.71006,-217.20216)" /><g
     id="g33"
     transform="translate(228.71006,-217.20216)" /><g
     id="g35"
     transform="translate(228.71006,-217.20216)" /><g
     id="g37"
     transform="translate(228.71006,-217.20216)" /><g
     id="g39"
     transform="translate(228.71006,-217.20216)" /><g
     id="g41"
     transform="translate(228.71006,-217.20216)" /><g
     id="g43"
     transform="translate(228.71006,-217.20216)" /></svg>