<?xml version="1.0" encoding="UTF-8" standalone="no"?>
<!-- Generator: Adobe Illustrator 19.0.0, SVG Export Plug-In . SVG Version: 6.00 Build 0)  -->

<svg
   xmlns:dc="http://purl.org/dc/elements/1.1/"
   xmlns:cc="http://creativecommons.org/ns#"
   xmlns:rdf="http://www.w3.org/1999/02/22-rdf-syntax-ns#"
   xmlns:svg="http://www.w3.org/2000/svg"
   xmlns="http://www.w3.org/2000/svg"
   xmlns:sodipodi="http://sodipodi.sourceforge.net/DTD/sodipodi-0.dtd"
   xmlns:inkscape="http://www.inkscape.org/namespaces/inkscape"
   version="1.1"
   id="Layer_1"
   x="0px"
   y="0px"
   viewBox="0 0 200 200"
   xml:space="preserve"
   sodipodi:docname="certification.svg"
   width="200"
   height="200"
   inkscape:version="0.92.1 r15371"><metadata
     id="metadata3832"><rdf:RDF><cc:Work
         rdf:about=""><dc:format>image/svg+xml</dc:format><dc:type
           rdf:resource="http://purl.org/dc/dcmitype/StillImage" /><dc:title></dc:title></cc:Work></rdf:RDF></metadata><defs
     id="defs3830" /><sodipodi:namedview
     pagecolor="#ffffff"
     bordercolor="#666666"
     borderopacity="1"
     objecttolerance="10"
     gridtolerance="10"
     guidetolerance="10"
     inkscape:pageopacity="0"
     inkscape:pageshadow="2"
     inkscape:window-width="1366"
     inkscape:window-height="706"
     id="namedview3828"
     showgrid="false"
     fit-margin-top="0"
     fit-margin-left="0"
     fit-margin-right="0"
     fit-margin-bottom="0"
     inkscape:zoom="1.84375"
     inkscape:cx="101.72569"
     inkscape:cy="87.883439"
     inkscape:window-x="-8"
     inkscape:window-y="-8"
     inkscape:window-maximized="1"
     inkscape:current-layer="Layer_1" /><g
     transform="matrix(0.390625,0,0,0.390625,0.390625,0.39063264)"
     id="g3795"><g
       id="g3793"><g
         id="g3791"><path
           d="M 511,24.583 H -1 v 392.533 h 324.267 v 59.733 c 0,3.413 1.707,6.827 5.12,7.68 3.413,1.707 6.827,0.853 9.387,-1.707 L 383,437.596 l 45.227,45.227 c 1.707,1.707 3.413,2.56 5.973,2.56 0.853,0 2.56,0 3.413,-0.853 3.413,-0.853 5.12,-4.267 5.12,-7.68 V 417.117 H 511 Z m -85.333,431.786 -36.693,-36.693 c -1.707,-1.707 -3.413,-2.56 -5.973,-2.56 -2.56,0 -4.267,0.853 -5.973,2.56 l -36.693,36.693 v -39.253 -53.76 c 25.6,15.36 59.733,15.36 85.333,0 v 53.76 39.253 z M 397.229,355.87 c -0.39,0.082 -0.779,0.162 -1.17,0.237 -0.566,0.111 -1.136,0.21 -1.707,0.307 -0.575,0.096 -1.15,0.191 -1.726,0.272 -0.451,0.064 -0.905,0.119 -1.359,0.174 -0.618,0.076 -1.237,0.151 -1.856,0.21 -0.53,0.05 -1.064,0.085 -1.597,0.122 -0.526,0.038 -1.052,0.082 -1.577,0.108 -1.073,0.051 -2.151,0.083 -3.237,0.083 -1.08,0 -2.152,-0.032 -3.219,-0.082 -0.602,-0.029 -1.203,-0.078 -1.804,-0.124 -0.424,-0.031 -0.849,-0.058 -1.27,-0.097 -0.833,-0.079 -1.664,-0.175 -2.494,-0.285 -0.147,-0.019 -0.294,-0.036 -0.44,-0.056 -1.968,-0.274 -3.926,-0.632 -5.868,-1.079 -0.992,-0.228 -1.981,-0.479 -2.964,-0.751 -1.967,-0.545 -3.913,-1.178 -5.833,-1.898 -1.92,-0.72 -3.813,-1.527 -5.673,-2.418 -0.643,-0.308 -1.275,-0.64 -1.91,-0.968 -0.324,-0.17 -0.656,-0.327 -0.977,-0.502 -0.028,-0.015 -0.056,-0.032 -0.084,-0.048 -21.239,-11.607 -35.729,-34.171 -35.729,-59.957 0,-37.547 30.72,-68.267 68.267,-68.267 37.547,0 68.267,30.72 68.267,68.267 -0.002,32.668 -23.264,60.159 -54.04,66.752 z m 96.704,44.179 h -51.2 v -50.158 c 15.773,-15.507 25.6,-37.045 25.6,-60.775 0,-46.933 -38.4,-85.333 -85.333,-85.333 -46.933,0 -85.333,38.4 -85.333,85.333 0,23.73 9.827,45.269 25.6,60.775 v 50.158 h -307.2 v -358.4 h 477.867 v 358.4 z"
           id="path3781"
           inkscape:connector-curvature="0" /><path
           d="M 386.067,115.516 H 95.933 c -5.12,0 -8.533,3.413 -8.533,8.533 0,5.12 3.413,8.533 8.533,8.533 h 290.133 c 5.12,0 8.533,-3.413 8.533,-8.533 0,-5.12 -3.412,-8.533 -8.532,-8.533 z"
           id="path3783"
           inkscape:connector-curvature="0" /><path
           d="M 283.667,180.22735 H 95.933 c -5.12,0 -8.533,3.413 -8.533,8.533 0,5.12 3.413,8.533 8.533,8.533 h 187.733 c 5.12,0 8.533,-3.413 8.533,-8.533 0,-5.12 -3.412,-8.533 -8.532,-8.533 z"
           id="path3785"
           inkscape:connector-curvature="0" /><path
           d="m 95.933,262.00467 h 162.133 c 5.12,0 8.533,-3.413 8.533,-8.533 0,-5.12 -3.413,-8.533 -8.533,-8.533 H 95.933 c -5.12,0 -8.533,3.413 -8.533,8.533 0,5.12 3.413,8.533 8.533,8.533 z"
           id="path3787"
           inkscape:connector-curvature="0" /><path
           d="m 95.933,326.716 h 162.133 c 5.12,0 8.533,-3.413 8.533,-8.533 0,-5.12 -3.413,-8.533 -8.533,-8.533 H 95.933 c -5.12,0 -8.533,3.413 -8.533,8.533 0,5.12 3.413,8.533 8.533,8.533 z"
           id="path3789"
           inkscape:connector-curvature="0" /></g></g></g><g
     id="g3797"
     transform="translate(0,-286.41695)" /><g
     id="g3799"
     transform="translate(0,-286.41695)" /><g
     id="g3801"
     transform="translate(0,-286.41695)" /><g
     id="g3803"
     transform="translate(0,-286.41695)" /><g
     id="g3805"
     transform="translate(0,-286.41695)" /><g
     id="g3807"
     transform="translate(0,-286.41695)" /><g
     id="g3809"
     transform="translate(0,-286.41695)" /><g
     id="g3811"
     transform="translate(0,-286.41695)" /><g
     id="g3813"
     transform="translate(0,-286.41695)" /><g
     id="g3815"
     transform="translate(0,-286.41695)" /><g
     id="g3817"
     transform="translate(0,-286.41695)" /><g
     id="g3819"
     transform="translate(0,-286.41695)" /><g
     id="g3821"
     transform="translate(0,-286.41695)" /><g
     id="g3823"
     transform="translate(0,-286.41695)" /><g
     id="g3825"
     transform="translate(0,-286.41695)" /></svg>