<?xml version="1.0" encoding="UTF-8" standalone="no"?>
<!-- Generator: Adobe Illustrator 19.0.0, SVG Export Plug-In . SVG Version: 6.00 Build 0)  -->

<svg
   xmlns:dc="http://purl.org/dc/elements/1.1/"
   xmlns:cc="http://creativecommons.org/ns#"
   xmlns:rdf="http://www.w3.org/1999/02/22-rdf-syntax-ns#"
   xmlns:svg="http://www.w3.org/2000/svg"
   xmlns="http://www.w3.org/2000/svg"
   xmlns:sodipodi="http://sodipodi.sourceforge.net/DTD/sodipodi-0.dtd"
   xmlns:inkscape="http://www.inkscape.org/namespaces/inkscape"
   version="1.1"
   id="Capa_1"
   x="0px"
   y="0px"
   viewBox="0 0 187.5 187.50001"
   xml:space="preserve"
   inkscape:version="0.92.0 unknown"
   sodipodi:docname="certification.svg"
   width="200"
   height="200"><metadata
     id="metadata61"><rdf:RDF><cc:Work
         rdf:about=""><dc:format>image/svg+xml</dc:format><dc:type
           rdf:resource="http://purl.org/dc/dcmitype/StillImage" /><dc:title></dc:title></cc:Work></rdf:RDF></metadata><defs
     id="defs59" /><sodipodi:namedview
     pagecolor="#ffffff"
     bordercolor="#666666"
     borderopacity="1"
     objecttolerance="10"
     gridtolerance="10"
     guidetolerance="10"
     inkscape:pageopacity="0"
     inkscape:pageshadow="2"
     inkscape:window-width="1315"
     inkscape:window-height="744"
     id="namedview57"
     showgrid="false"
     fit-margin-top="0"
     fit-margin-left="0"
     fit-margin-right="0"
     fit-margin-bottom="0"
     inkscape:showpageshadow="false"
     inkscape:zoom="0.69532167"
     inkscape:cx="9.9812365"
     inkscape:cy="255.97184"
     inkscape:window-x="51"
     inkscape:window-y="24"
     inkscape:window-maximized="1"
     inkscape:current-layer="Capa_1" /><g
     id="g4200"
     transform="scale(3.1250001)"><path
       d="M 38.914,0 H 6.5 v 60 h 47 V 14.586 Z M 39.5,3.414 50.086,14 H 39.5 Z M 8.5,58 V 2 h 29 v 14 h 14 v 42 z"
       id="path5"
       inkscape:connector-curvature="0" /><path
       d="m 16.5,17 h 9 c 0.553,0 1,-0.447 1,-1 0,-0.553 -0.447,-1 -1,-1 h -9 c -0.553,0 -1,0.447 -1,1 0,0.553 0.447,1 1,1 z"
       id="path7"
       inkscape:connector-curvature="0" /><path
       d="m 16.5,25 h 5 c 0.553,0 1,-0.447 1,-1 0,-0.553 -0.447,-1 -1,-1 h -5 c -0.553,0 -1,0.447 -1,1 0,0.553 0.447,1 1,1 z"
       id="path9"
       inkscape:connector-curvature="0" /><path
       d="m 31.5,25 h 7 c 0.553,0 1,-0.447 1,-1 0,-0.553 -0.447,-1 -1,-1 h -7 c -0.553,0 -1,0.447 -1,1 0,0.553 0.447,1 1,1 z"
       id="path11"
       inkscape:connector-curvature="0" /><path
       d="m 25.79,23.3 c -0.19,0.18 -0.29,0.439 -0.29,0.7 0,0.26 0.1,0.52 0.29,0.71 0.189,0.18 0.45,0.29 0.71,0.29 0.26,0 0.52,-0.101 0.71,-0.3 0.18,-0.181 0.29,-0.44 0.29,-0.7 0,-0.261 -0.11,-0.521 -0.29,-0.71 -0.38,-0.37 -1.05,-0.37 -1.42,0.01 z"
       id="path13"
       inkscape:connector-curvature="0" /><path
       d="m 43.5,25 c 0.26,0 0.52,-0.11 0.71,-0.29 0.18,-0.19 0.29,-0.45 0.29,-0.71 0,-0.261 -0.11,-0.521 -0.29,-0.71 -0.38,-0.37 -1.04,-0.37 -1.42,0 -0.181,0.189 -0.29,0.449 -0.29,0.71 0,0.26 0.109,0.52 0.29,0.71 0.189,0.18 0.45,0.29 0.71,0.29 z"
       id="path15"
       inkscape:connector-curvature="0" /><path
       d="m 28.5,31 h -7 c -0.553,0 -1,0.447 -1,1 0,0.553 0.447,1 1,1 h 7 c 0.553,0 1,-0.447 1,-1 0,-0.553 -0.447,-1 -1,-1 z"
       id="path17"
       inkscape:connector-curvature="0" /><path
       d="m 16.5,33 c 0.26,0 0.52,-0.11 0.71,-0.29 0.189,-0.19 0.29,-0.45 0.29,-0.71 0,-0.261 -0.101,-0.521 -0.29,-0.71 -0.38,-0.37 -1.04,-0.37 -1.42,0 -0.19,0.189 -0.29,0.439 -0.29,0.71 0,0.26 0.109,0.52 0.29,0.71 0.189,0.18 0.45,0.29 0.71,0.29 z"
       id="path19"
       inkscape:connector-curvature="0" /><path
       d="m 19.645,40.166 c -2.19,1.14 -2.927,3.321 -3.196,5.582 -0.414,-0.347 -0.828,-0.693 -1.242,-1.04 -0.98,-0.821 -2.402,0.586 -1.414,1.415 0.935,0.783 1.871,1.567 2.806,2.351 0.658,0.551 1.677,0.203 1.707,-0.707 0.073,-2.166 0.175,-4.742 2.348,-5.873 1.142,-0.595 0.132,-2.322 -1.009,-1.728 z"
       id="path21"
       inkscape:connector-curvature="0" /><path
       d="m 26.295,44.155 c -1.385,0.321 -2.961,2.083 -3.936,0.106 -0.569,-1.154 -2.295,-0.142 -1.727,1.009 0.517,1.049 1.5,1.784 2.669,1.932 0.594,0.075 1.131,-0.009 1.688,-0.226 0.409,-0.159 1.937,-1.308 2.267,-0.717 0.628,1.124 2.356,0.116 1.727,-1.009 -0.537,-0.962 -1.624,-1.342 -2.688,-1.095 z"
       id="path23"
       inkscape:connector-curvature="0" /><path
       d="m 46.745,34.513 c -0.233,-0.083 -0.336,-0.259 -0.377,-0.357 -0.04,-0.098 -0.093,-0.296 0.014,-0.52 0.485,-1.022 0.282,-2.199 -0.518,-3 -0.801,-0.799 -1.979,-1.003 -2.999,-0.518 -0.226,0.107 -0.424,0.054 -0.521,0.014 C 42.245,30.091 42.07,29.988 41.987,29.755 41.608,28.688 40.632,28 39.5,28 c -1.132,0 -2.108,0.688 -2.487,1.755 -0.083,0.233 -0.259,0.336 -0.357,0.377 -0.097,0.04 -0.296,0.094 -0.52,-0.014 -1.021,-0.483 -2.198,-0.282 -3,0.518 -0.8,0.801 -1.003,1.978 -0.518,2.999 0.106,0.225 0.054,0.423 0.014,0.521 -0.041,0.099 -0.144,0.274 -0.377,0.357 C 31.188,34.892 30.5,35.868 30.5,37 c 0,1.132 0.688,2.108 1.755,2.487 0.233,0.083 0.336,0.259 0.377,0.357 0.04,0.098 0.093,0.296 -0.014,0.52 -0.485,1.022 -0.282,2.199 0.518,3 0.387,0.386 0.862,0.63 1.364,0.728 v 12.322 l 5,-5 5,5 V 44.091 c 0.502,-0.097 0.978,-0.34 1.364,-0.727 0.8,-0.801 1.003,-1.978 0.518,-2.999 -0.106,-0.225 -0.054,-0.423 -0.014,-0.521 0.041,-0.099 0.144,-0.274 0.377,-0.357 C 47.812,39.108 48.5,38.132 48.5,37 c 0,-1.132 -0.688,-2.108 -1.755,-2.487 z m -7.245,14.073 -3,3 v -7.758 c 0.009,10e-4 0.018,0.002 0.026,0.004 0.05,0.01 0.098,0.022 0.13,0.036 0.049,0.021 0.118,0.057 0.184,0.116 0.067,0.06 0.132,0.144 0.173,0.261 0.379,1.067 1.355,1.755 2.487,1.755 1.132,0 2.108,-0.688 2.487,-1.755 0.041,-0.117 0.106,-0.201 0.173,-0.261 0.067,-0.06 0.135,-0.096 0.184,-0.116 0.032,-0.013 0.079,-0.026 0.129,-0.036 0.008,-10e-4 0.017,-0.003 0.026,-0.004 v 7.757 z m 6.575,-10.983 c -0.702,0.249 -1.269,0.787 -1.554,1.476 -0.286,0.689 -0.267,1.471 0.054,2.146 0.175,0.367 -0.029,0.63 -0.126,0.726 -0.079,0.081 -0.281,0.224 -0.561,0.17 l -0.22,-0.069 c -0.091,-0.041 -0.187,-0.063 -0.281,-0.092 -0.07,-0.022 -0.138,-0.052 -0.209,-0.069 -0.098,-0.022 -0.199,-0.028 -0.299,-0.039 -0.081,-0.009 -0.16,-0.026 -0.241,-0.028 -0.097,-0.002 -0.193,0.014 -0.289,0.022 -0.083,0.008 -0.167,0.006 -0.25,0.022 -0.177,0.033 -0.351,0.084 -0.52,0.154 0,0 -10e-4,0 -0.002,0.001 v 0 c -0.044,0.018 -0.081,0.047 -0.124,0.067 -0.124,0.06 -0.249,0.119 -0.362,0.197 -0.135,0.093 -0.258,0.203 -0.373,0.319 -0.013,0.013 -0.03,0.023 -0.043,0.037 -0.252,0.265 -0.449,0.583 -0.574,0.934 C 39.967,43.959 39.636,44 39.5,44 39.364,44 39.033,43.959 38.897,43.575 38.772,43.223 38.575,42.906 38.323,42.641 38.313,42.63 38.3,42.623 38.289,42.612 38.171,42.492 38.045,42.381 37.906,42.285 37.798,42.21 37.677,42.154 37.558,42.096 37.511,42.073 37.469,42.041 37.42,42.021 v 0 c -0.001,0 -0.001,-10e-4 -0.001,-10e-4 C 37.398,42.011 37.376,42.009 37.355,42.001 37.209,41.945 37.061,41.898 36.91,41.869 36.788,41.845 36.667,41.84 36.545,41.833 36.5,41.831 36.455,41.82 36.41,41.82 c -0.003,0 -0.005,10e-4 -0.008,10e-4 -0.374,-10e-4 -0.737,0.072 -1.047,0.223 l -0.227,0.071 c -0.287,0.065 -0.496,-0.083 -0.578,-0.166 -0.097,-0.096 -0.301,-0.358 -0.126,-0.727 0.32,-0.674 0.34,-1.455 0.054,-2.145 C 34.193,38.389 33.626,37.85 32.924,37.601 32.541,37.467 32.5,37.136 32.5,37 c 0,-0.136 0.041,-0.467 0.425,-0.603 0.702,-0.249 1.269,-0.787 1.554,-1.476 0.286,-0.689 0.267,-1.471 -0.054,-2.146 -0.175,-0.367 0.029,-0.63 0.126,-0.726 0.096,-0.097 0.357,-0.299 0.727,-0.126 0.673,0.32 1.455,0.342 2.145,0.054 0.688,-0.285 1.227,-0.852 1.476,-1.554 C 39.033,30.041 39.364,30 39.5,30 c 0.136,0 0.467,0.041 0.603,0.425 0.25,0.702 0.787,1.269 1.476,1.554 0.688,0.288 1.471,0.267 2.146,-0.054 0.366,-0.177 0.631,0.029 0.726,0.126 0.097,0.096 0.301,0.358 0.126,0.727 -0.32,0.674 -0.34,1.455 -0.054,2.145 0.285,0.688 0.852,1.227 1.554,1.476 0.382,0.134 0.423,0.465 0.423,0.601 0,0.136 -0.041,0.467 -0.425,0.603 z"
       id="path25"
       inkscape:connector-curvature="0" /><g
       id="g27" /><g
       id="g29" /><g
       id="g31" /><g
       id="g33" /><g
       id="g35" /><g
       id="g37" /><g
       id="g39" /><g
       id="g41" /><g
       id="g43" /><g
       id="g45" /><g
       id="g47" /><g
       id="g49" /><g
       id="g51" /><g
       id="g53" /><g
       id="g55" /></g></svg>