<?xml version="1.0" encoding="UTF-8" standalone="no"?>
<svg
   xmlns:dc="http://purl.org/dc/elements/1.1/"
   xmlns:cc="http://creativecommons.org/ns#"
   xmlns:rdf="http://www.w3.org/1999/02/22-rdf-syntax-ns#"
   xmlns:svg="http://www.w3.org/2000/svg"
   xmlns="http://www.w3.org/2000/svg"
   xmlns:sodipodi="http://sodipodi.sourceforge.net/DTD/sodipodi-0.dtd"
   xmlns:inkscape="http://www.inkscape.org/namespaces/inkscape"
   version="1.1"
   viewBox="0 0 200 200"
   enable-background="new 0 0 501.164 501.164"
   id="svg8"
   sodipodi:docname="education.svg"
   width="200"
   height="200"
   inkscape:version="0.92.0 unknown">
  <metadata
     id="metadata14">
    <rdf:RDF>
      <cc:Work
         rdf:about="">
        <dc:format>image/svg+xml</dc:format>
        <dc:type
           rdf:resource="http://purl.org/dc/dcmitype/StillImage" />
        <dc:title></dc:title>
      </cc:Work>
    </rdf:RDF>
  </metadata>
  <defs
     id="defs12" />
  <sodipodi:namedview
     pagecolor="#ffffff"
     bordercolor="#666666"
     borderopacity="1"
     objecttolerance="10"
     gridtolerance="10"
     guidetolerance="10"
     inkscape:pageopacity="0"
     inkscape:pageshadow="2"
     inkscape:window-width="1315"
     inkscape:window-height="744"
     id="namedview10"
     showgrid="false"
     inkscape:zoom="0.47090373"
     inkscape:cx="-86.004839"
     inkscape:cy="250.582"
     inkscape:window-x="51"
     inkscape:window-y="24"
     inkscape:window-maximized="1"
     inkscape:current-layer="svg8" />
  <g
     id="g6"
     transform="matrix(0.39907176,0,0,0.39907176,-2.4890119e-7,-3.2393622e-4)">
    <path
       d="M 482.079,138.808 278.715,51.65 c -17.879,-7.662 -38.397,-7.656 -56.298,0.015 L 19.097,138.803 C 7.318,143.85 0,154.946 0,167.76 c 0,12.807 7.313,23.897 19.085,28.942 l 24.034,10.301 c -0.025,0.248 -0.038,0.5 -0.038,0.754 v 113.734 c -9.29,3.138 -16,11.93 -16,22.266 0,5.992 2.258,11.465 5.963,15.621 -4.098,4.017 -6.819,9.463 -7.381,15.634 l -5.758,63.342 c -0.393,4.327 1.062,8.647 3.991,11.855 2.929,3.208 7.101,5.048 11.445,5.048 H 65.82 c 4.344,0 8.516,-1.84 11.445,-5.048 2.93,-3.208 4.384,-7.529 3.991,-11.855 l -5.758,-63.342 c -0.561,-6.17 -3.283,-11.616 -7.381,-15.634 3.705,-4.155 5.963,-9.628 5.963,-15.621 0,-10.335 -6.71,-19.127 -16,-22.266 V 213.415 l 41.038,17.588 c -0.025,0.248 -0.038,0.499 -0.038,0.753 v 57.263 c 0,23.899 16.364,46.008 46.079,62.256 28.282,15.464 65.722,23.981 105.421,23.981 39.699,0 77.139,-8.517 105.421,-23.981 29.714,-16.248 46.079,-38.357 46.079,-62.256 v -57.263 c 0,-0.254 -0.013,-0.505 -0.038,-0.752 l 80.024,-34.296 c 11.779,-5.048 19.097,-16.145 19.097,-28.958 10e-4,-12.807 -7.312,-23.897 -19.084,-28.942 z M 66.189,440.094 c -0.148,0.163 -0.309,0.163 -0.369,0.163 H 35.341 c -0.061,0 -0.221,0 -0.369,-0.163 -0.149,-0.163 -0.134,-0.322 -0.129,-0.382 l 5.758,-63.342 c 0.473,-5.195 4.763,-9.113 9.98,-9.113 5.216,0 9.506,3.918 9.979,9.113 l 5.758,63.341 c 0.006,0.061 0.02,0.22 -0.129,0.383 z M 50.581,352.257 c -4.687,0 -8.5,-3.813 -8.5,-8.5 0,-4.687 3.813,-8.5 8.5,-8.5 4.687,0 8.5,3.813 8.5,8.5 0,4.687 -3.813,8.5 -8.5,8.5 z m 336.5,-95.237 c 0,19.394 -15.962,38.329 -43.793,51.95 -3.721,1.821 -5.26,6.313 -3.439,10.033 1.301,2.66 3.968,4.205 6.742,4.205 1.107,0 2.23,-0.246 3.292,-0.766 15.437,-7.555 27.805,-16.759 36.623,-26.993 -2.812,15.816 -15.945,30.771 -37.699,42.666 -26.114,14.279 -60.997,22.142 -98.225,22.142 -37.228,0 -72.111,-7.863 -98.225,-22.142 -21.675,-11.852 -34.795,-26.742 -37.671,-42.495 7.581,8.739 17.81,16.731 30.474,23.656 28.282,15.464 65.722,23.981 105.421,23.981 11.106,0 22.183,-0.676 32.923,-2.008 4.111,-0.51 7.03,-4.255 6.52,-8.366 -0.51,-4.111 -4.25,-7.031 -8.366,-6.52 -10.13,1.257 -20.586,1.894 -31.077,1.894 -37.228,0 -72.111,-7.863 -98.225,-22.142 -24.682,-13.496 -38.275,-30.931 -38.275,-49.095 v -19.604 l 108.368,46.445 c 8.934,3.829 18.526,5.743 28.123,5.743 9.608,0 19.22,-1.919 28.175,-5.757 l 108.334,-46.429 z m 89.077,-74.099 -203.321,87.137 c -14.144,6.062 -30.356,6.067 -44.479,0.015 L 72.968,203.476 215.347,178.714 c 6.404,7.579 19.455,12.542 35.234,12.542 22.519,0 39.5,-10.103 39.5,-23.5 0,-13.397 -16.981,-23.5 -39.5,-23.5 -20.452,0 -36.334,8.334 -39.077,19.9 l -162.208,28.21 c -0.476,0.083 -0.931,0.212 -1.367,0.377 l -22.934,-9.83 C 18.736,180.233 15,174.567 15,167.76 c 0,-6.814 3.741,-12.486 10.006,-15.171 l 203.32,-87.138 c 7.079,-3.033 14.674,-4.55 22.267,-4.55 7.58,0 15.158,1.512 22.213,4.535 l 203.364,87.158 c 6.258,2.682 9.994,8.348 9.994,15.155 0,6.816 -3.741,12.487 -10.006,15.172 z M 226.081,167.757 c 0,-2.185 8.424,-8.5 24.5,-8.5 16.076,0 24.5,6.315 24.5,8.5 0,2.185 -8.424,8.5 -24.5,8.5 -16.076,0 -24.5,-6.316 -24.5,-8.5 z"
       id="path2"
       inkscape:connector-curvature="0" />
    <path
       d="m 306.574,337.083 c 0.559,0 1.127,-0.063 1.695,-0.194 5.66,-1.308 11.236,-2.826 16.573,-4.515 3.949,-1.249 6.138,-5.463 4.889,-9.412 -1.249,-3.949 -5.462,-6.14 -9.413,-4.89 -4.96,1.569 -10.15,2.982 -15.425,4.201 -4.036,0.932 -6.552,4.959 -5.62,8.995 0.802,3.469 3.888,5.815 7.301,5.815 z"
       id="path4"
       inkscape:connector-curvature="0" />
  </g>
</svg>
