<?xml version="1.0" encoding="UTF-8" standalone="no"?>
<!-- Generator: Adobe Illustrator 19.0.0, SVG Export Plug-In . SVG Version: 6.00 Build 0)  -->

<svg
   xmlns:dc="http://purl.org/dc/elements/1.1/"
   xmlns:cc="http://creativecommons.org/ns#"
   xmlns:rdf="http://www.w3.org/1999/02/22-rdf-syntax-ns#"
   xmlns:svg="http://www.w3.org/2000/svg"
   xmlns="http://www.w3.org/2000/svg"
   xmlns:sodipodi="http://sodipodi.sourceforge.net/DTD/sodipodi-0.dtd"
   xmlns:inkscape="http://www.inkscape.org/namespaces/inkscape"
   version="1.1"
   id="Capa_1"
   x="0px"
   y="0px"
   viewBox="0 0 187.5 187.5"
   xml:space="preserve"
   inkscape:version="0.92.0 unknown"
   sodipodi:docname="employment.svg"
   width="200"
   height="200"><metadata
     id="metadata39"><rdf:RDF><cc:Work
         rdf:about=""><dc:format>image/svg+xml</dc:format><dc:type
           rdf:resource="http://purl.org/dc/dcmitype/StillImage" /><dc:title></dc:title></cc:Work></rdf:RDF></metadata><defs
     id="defs37" /><sodipodi:namedview
     pagecolor="#ffffff"
     bordercolor="#666666"
     borderopacity="1"
     objecttolerance="10"
     gridtolerance="10"
     guidetolerance="10"
     inkscape:pageopacity="0"
     inkscape:pageshadow="2"
     inkscape:window-width="1315"
     inkscape:window-height="744"
     id="namedview35"
     showgrid="false"
     fit-margin-top="0"
     fit-margin-left="0"
     fit-margin-right="0"
     fit-margin-bottom="0"
     inkscape:showpageshadow="false"
     inkscape:zoom="1.3906433"
     inkscape:cx="59.395397"
     inkscape:cy="55.845475"
     inkscape:window-x="51"
     inkscape:window-y="24"
     inkscape:window-maximized="1"
     inkscape:current-layer="Capa_1" /><path
     d="M 178.09375,42.18753 H 171.875 v -9.37508 h -31.25 v 9.37508 h -12.5 V 24.08129 c 0,-5.52504 -4.49375,-10.01879 -10.01875,-10.01879 h -48.7125 c -5.524997,0 -10.018747,4.49375 -10.018747,10.01879 V 42.18753 H 46.875 v -9.37508 h -31.25 v 9.37508 H 9.4062531 C 4.2218781,42.18753 0,46.40942 0,51.59376 v 112.43751 c 0,5.18434 4.2218781,9.40623 9.4062531,9.40623 H 178.09375 c 5.18437,0 9.40625,-4.22189 9.40625,-9.40623 V 51.59376 c 0,-5.18434 -4.22188,-9.40623 -9.40625,-9.40623 z M 146.875,39.06254 h 18.75 v 3.12499 h -18.75 z M 65.625,24.08129 c 0,-2.07819 1.690628,-3.76881 3.76875,-3.76881 h 48.7125 c 2.07812,0 3.76875,1.69062 3.76875,3.76881 v 18.10624 h -56.25 z m -6.249997,24.35623 h 68.749997 12.5 15.625 v 118.75 h -125 v -118.75 H 46.875 Z M 21.875,39.06254 h 18.750003 v 3.12499 H 21.875 Z M 6.2500031,164.03127 V 51.59376 c 0,-1.7406 1.415625,-3.15624 3.15625,-3.15624 H 15.625 25.000003 v 118.75 H 9.4062531 c -1.740625,0 -3.15625,-1.41565 -3.15625,-3.15625 z m 174.9999969,0 c 0,1.7406 -1.41562,3.15625 -3.15625,3.15625 H 162.5 v -118.75 h 9.375 6.21875 c 1.74063,0 3.15625,1.41564 3.15625,3.15624 z"
     id="path3"
     inkscape:connector-curvature="0"
     style="stroke-width:0.3125" /><g
     id="g5"
     transform="translate(348.09973,-53.22376)" /><g
     id="g7"
     transform="translate(348.09973,-53.22376)" /><g
     id="g9"
     transform="translate(348.09973,-53.22376)" /><g
     id="g11"
     transform="translate(348.09973,-53.22376)" /><g
     id="g13"
     transform="translate(348.09973,-53.22376)" /><g
     id="g15"
     transform="translate(348.09973,-53.22376)" /><g
     id="g17"
     transform="translate(348.09973,-53.22376)" /><g
     id="g19"
     transform="translate(348.09973,-53.22376)" /><g
     id="g21"
     transform="translate(348.09973,-53.22376)" /><g
     id="g23"
     transform="translate(348.09973,-53.22376)" /><g
     id="g25"
     transform="translate(348.09973,-53.22376)" /><g
     id="g27"
     transform="translate(348.09973,-53.22376)" /><g
     id="g29"
     transform="translate(348.09973,-53.22376)" /><g
     id="g31"
     transform="translate(348.09973,-53.22376)" /><g
     id="g33"
     transform="translate(348.09973,-53.22376)" /></svg>