<?xml version="1.0" encoding="UTF-8" standalone="no"?>
<!-- Generator: Adobe Illustrator 19.0.0, SVG Export Plug-In . SVG Version: 6.00 Build 0)  -->

<svg
   xmlns:dc="http://purl.org/dc/elements/1.1/"
   xmlns:cc="http://creativecommons.org/ns#"
   xmlns:rdf="http://www.w3.org/1999/02/22-rdf-syntax-ns#"
   xmlns:svg="http://www.w3.org/2000/svg"
   xmlns="http://www.w3.org/2000/svg"
   xmlns:sodipodi="http://sodipodi.sourceforge.net/DTD/sodipodi-0.dtd"
   xmlns:inkscape="http://www.inkscape.org/namespaces/inkscape"
   version="1.1"
   id="Capa_1"
   x="0px"
   y="0px"
   viewBox="0 0 600 510"
   xml:space="preserve"
   inkscape:version="0.91 r13725"
   sodipodi:docname="suitcase.svg"
   width="600"
   height="510"><metadata
     id="metadata39"><rdf:RDF><cc:Work
         rdf:about=""><dc:format>image/svg+xml</dc:format><dc:type
           rdf:resource="http://purl.org/dc/dcmitype/StillImage" /><dc:title></dc:title></cc:Work></rdf:RDF></metadata><defs
     id="defs37" /><sodipodi:namedview
     pagecolor="#ffffff"
     bordercolor="#666666"
     borderopacity="1"
     objecttolerance="10"
     gridtolerance="10"
     guidetolerance="10"
     inkscape:pageopacity="0"
     inkscape:pageshadow="2"
     inkscape:window-width="1315"
     inkscape:window-height="744"
     id="namedview35"
     showgrid="false"
     fit-margin-top="0"
     fit-margin-left="0"
     fit-margin-right="0"
     fit-margin-bottom="0"
     inkscape:showpageshadow="false"
     inkscape:zoom="0.69532167"
     inkscape:cx="113.37011"
     inkscape:cy="406.03228"
     inkscape:window-x="51"
     inkscape:window-y="24"
     inkscape:window-maximized="1"
     inkscape:current-layer="Capa_1" /><path
     d="m 569.90001,90.00009 -19.90001,0 0,-30.00025 -100,0 0,30.00025 -40,0 0,-57.93997 C 410,14.37999 395.62,0 377.94,0 L 222.06,0 c -17.67999,0 -32.05999,14.37999 -32.05999,32.06012 l 0,57.93997 -40.00001,0 0,-30.00025 -100,0 0,30.00025 -19.89999,0 C 13.51001,90.00009 0,103.51012 0,120.10002 l 0,359.80003 c 0,16.5899 13.51001,30.09994 30.10001,30.09994 l 539.8,0 C 586.48999,509.99999 600,496.48995 600,479.90005 l 0,-359.80003 c 0,-16.5899 -13.51001,-30.09993 -30.09999,-30.09993 z m -99.9,-9.99997 60,0 0,9.99997 -60,0 0,-9.99997 z M 210,32.06012 c 0,-6.6502 5.41001,-12.0602 12.06,-12.0602 l 155.88,0 c 6.65,0 12.06,5.41 12.06,12.0602 l 0,57.93997 -180,0 0,-57.93997 z m -19.99999,77.93992 219.99999,0 40,0 50,0 0,380.00001 -400,0 0,-380.00001 50,0 40.00001,0 z M 70,80.00012 l 60.00001,0 0,9.99997 -60.00001,0 0,-9.99997 z m -49.99999,399.89993 0,-359.80003 c 0,-5.56993 4.53,-10.09998 10.1,-10.09998 l 19.89999,0 30.00001,0 0,380.00001 -49.9,0 c -5.57,0 -10.1,-4.53008 -10.1,-10.1 z m 559.99998,0 c 0,5.56992 -4.52998,10.1 -10.09998,10.1 l -49.9,0 0,-380.00001 29.99999,0 19.90001,0 c 5.57,0 10.09998,4.53005 10.09998,10.09998 l 0,359.80003 z"
     id="path3"
     inkscape:connector-curvature="0" /><g
     id="g5"
     transform="translate(348.09973,269.27624)" /><g
     id="g7"
     transform="translate(348.09973,269.27624)" /><g
     id="g9"
     transform="translate(348.09973,269.27624)" /><g
     id="g11"
     transform="translate(348.09973,269.27624)" /><g
     id="g13"
     transform="translate(348.09973,269.27624)" /><g
     id="g15"
     transform="translate(348.09973,269.27624)" /><g
     id="g17"
     transform="translate(348.09973,269.27624)" /><g
     id="g19"
     transform="translate(348.09973,269.27624)" /><g
     id="g21"
     transform="translate(348.09973,269.27624)" /><g
     id="g23"
     transform="translate(348.09973,269.27624)" /><g
     id="g25"
     transform="translate(348.09973,269.27624)" /><g
     id="g27"
     transform="translate(348.09973,269.27624)" /><g
     id="g29"
     transform="translate(348.09973,269.27624)" /><g
     id="g31"
     transform="translate(348.09973,269.27624)" /><g
     id="g33"
     transform="translate(348.09973,269.27624)" /></svg>