<?xml version="1.0" encoding="UTF-8" standalone="no"?>
<!-- Generator: Adobe Illustrator 18.0.0, SVG Export Plug-In . SVG Version: 6.00 Build 0)  -->

<svg
   xmlns:dc="http://purl.org/dc/elements/1.1/"
   xmlns:cc="http://creativecommons.org/ns#"
   xmlns:rdf="http://www.w3.org/1999/02/22-rdf-syntax-ns#"
   xmlns:svg="http://www.w3.org/2000/svg"
   xmlns="http://www.w3.org/2000/svg"
   xmlns:sodipodi="http://sodipodi.sourceforge.net/DTD/sodipodi-0.dtd"
   xmlns:inkscape="http://www.inkscape.org/namespaces/inkscape"
   version="1.1"
   id="Capa_1"
   x="0px"
   y="0px"
   viewBox="0 0 239.12961 239.12961"
   xml:space="preserve"
   inkscape:version="0.91 r13725"
   sodipodi:docname="facebook.svg"
   width="239.12961"
   height="239.12961"><metadata
     id="metadata43"><rdf:RDF><cc:Work
         rdf:about=""><dc:format>image/svg+xml</dc:format><dc:type
           rdf:resource="http://purl.org/dc/dcmitype/StillImage" /><dc:title></dc:title></cc:Work></rdf:RDF></metadata><defs
     id="defs41" /><sodipodi:namedview
     pagecolor="#ffffff"
     bordercolor="#666666"
     borderopacity="1"
     objecttolerance="10"
     gridtolerance="10"
     guidetolerance="10"
     inkscape:pageopacity="0"
     inkscape:pageshadow="2"
     inkscape:window-width="1315"
     inkscape:window-height="744"
     id="namedview39"
     showgrid="false"
     fit-margin-top="0"
     fit-margin-left="0"
     fit-margin-right="0"
     fit-margin-bottom="0"
     inkscape:showpageshadow="false"
     inkscape:zoom="2.1034618"
     inkscape:cx="71.112775"
     inkscape:cy="123.36404"
     inkscape:window-x="51"
     inkscape:window-y="24"
     inkscape:window-maximized="1"
     inkscape:current-layer="Capa_1" /><g
     id="g3"
     transform="scale(2.1313559,2.1313559)"><circle
       style="fill:#3b5998"
       cx="56.098"
       cy="56.098"
       r="56.098"
       id="circle5" /><path
       style="fill:#ffffff"
       d="m 70.201,58.294 -10.01,0 0,36.672 -15.166,0 0,-36.672 -7.213,0 0,-12.888 7.213,0 0,-8.34 c 0,-5.964 2.833,-15.303 15.301,-15.303 l 11.234,0.047 0,12.51 -8.151,0 c -1.337,0 -3.217,0.668 -3.217,3.513 l 0,7.585 11.334,0 -1.325,12.876 z"
       id="path7"
       inkscape:connector-curvature="0" /></g><g
     id="g9"
     transform="translate(78.917525,48.016084)" /><g
     id="g11"
     transform="translate(78.917525,48.016084)" /><g
     id="g13"
     transform="translate(78.917525,48.016084)" /><g
     id="g15"
     transform="translate(78.917525,48.016084)" /><g
     id="g17"
     transform="translate(78.917525,48.016084)" /><g
     id="g19"
     transform="translate(78.917525,48.016084)" /><g
     id="g21"
     transform="translate(78.917525,48.016084)" /><g
     id="g23"
     transform="translate(78.917525,48.016084)" /><g
     id="g25"
     transform="translate(78.917525,48.016084)" /><g
     id="g27"
     transform="translate(78.917525,48.016084)" /><g
     id="g29"
     transform="translate(78.917525,48.016084)" /><g
     id="g31"
     transform="translate(78.917525,48.016084)" /><g
     id="g33"
     transform="translate(78.917525,48.016084)" /><g
     id="g35"
     transform="translate(78.917525,48.016084)" /><g
     id="g37"
     transform="translate(78.917525,48.016084)" /></svg>