<?xml version="1.0" encoding="UTF-8" standalone="no"?>
<!-- Generator: Adobe Illustrator 19.0.0, SVG Export Plug-In . SVG Version: 6.00 Build 0)  -->

<svg
   xmlns:dc="http://purl.org/dc/elements/1.1/"
   xmlns:cc="http://creativecommons.org/ns#"
   xmlns:rdf="http://www.w3.org/1999/02/22-rdf-syntax-ns#"
   xmlns:svg="http://www.w3.org/2000/svg"
   xmlns="http://www.w3.org/2000/svg"
   xmlns:sodipodi="http://sodipodi.sourceforge.net/DTD/sodipodi-0.dtd"
   xmlns:inkscape="http://www.inkscape.org/namespaces/inkscape"
   version="1.1"
   id="Capa_1"
   x="0px"
   y="0px"
   viewBox="0 0 49.999999 49.999999"
   xml:space="preserve"
   sodipodi:docname="github.svg"
   width="50"
   height="50"
   inkscape:version="0.92.0 unknown"><metadata
     id="metadata49"><rdf:RDF><cc:Work
         rdf:about=""><dc:format>image/svg+xml</dc:format><dc:type
           rdf:resource="http://purl.org/dc/dcmitype/StillImage" /><dc:title /></cc:Work></rdf:RDF></metadata><defs
     id="defs47" /><sodipodi:namedview
     pagecolor="#ffffff"
     bordercolor="#666666"
     borderopacity="1"
     objecttolerance="10"
     gridtolerance="10"
     guidetolerance="10"
     inkscape:pageopacity="0"
     inkscape:pageshadow="2"
     inkscape:window-width="1315"
     inkscape:window-height="744"
     id="namedview45"
     showgrid="false"
     fit-margin-top="0"
     fit-margin-left="0"
     fit-margin-right="0"
     fit-margin-bottom="0"
     inkscape:zoom="8.5646887"
     inkscape:cx="11.737268"
     inkscape:cy="21.632035"
     inkscape:window-x="51"
     inkscape:window-y="24"
     inkscape:window-maximized="1"
     inkscape:current-layer="Capa_1" /><g
     id="g14"
     transform="translate(59.546822,5.398262)" /><g
     id="g16"
     transform="translate(59.546822,5.398262)" /><g
     id="g18"
     transform="translate(59.546822,5.398262)" /><g
     id="g20"
     transform="translate(59.546822,5.398262)" /><g
     id="g22"
     transform="translate(59.546822,5.398262)" /><g
     id="g24"
     transform="translate(59.546822,5.398262)" /><g
     id="g26"
     transform="translate(59.546822,5.398262)" /><g
     id="g28"
     transform="translate(59.546822,5.398262)" /><g
     id="g30"
     transform="translate(59.546822,5.398262)" /><g
     id="g32"
     transform="translate(59.546822,5.398262)" /><g
     id="g34"
     transform="translate(59.546822,5.398262)" /><g
     id="g36"
     transform="translate(59.546822,5.398262)" /><g
     id="g38"
     transform="translate(59.546822,5.398262)" /><g
     id="g40"
     transform="translate(59.546822,5.398262)" /><g
     id="g42"
     transform="translate(59.546822,5.398262)" /><circle
     style="fill:#ffffff;fill-opacity:0;stroke:#000000;stroke-width:1;stroke-miterlimit:4;stroke-dasharray:none;stroke-opacity:1"
     id="path4526"
     cx="25"
     cy="25"
     r="23.877323" /><g
     id="g12"
     style="fill:#000000;fill-opacity:1"
     transform="matrix(0.53974526,0,0,0.53974526,10.127516,10.127049)"><g
       id="g10"
       style="fill:#000000;fill-opacity:1"><path
         d="m 18.549,29.909 c -2.757,0 -5,2.691 -5,6 0,3.309 2.243,6 5,6 2.757,0 5,-2.691 5,-6 0,-3.309 -2.243,-6 -5,-6 z m 0,10 c -1.654,0 -3,-1.794 -3,-4 0,-2.206 1.346,-4 3,-4 1.654,0 3,1.794 3,4 0,2.206 -1.345,4 -3,4 z"
         id="path2"
         style="fill:#000000;fill-opacity:1"
         inkscape:connector-curvature="0" /><path
         d="m 37.549,29.909 c -2.757,0 -5,2.691 -5,6 0,3.309 2.243,6 5,6 2.757,0 5,-2.691 5,-6 0,-3.309 -2.243,-6 -5,-6 z m 0,10 c -1.654,0 -3,-1.794 -3,-4 0,-2.206 1.346,-4 3,-4 1.654,0 3,1.794 3,4 0,2.206 -1.345,4 -3,4 z"
         id="path4"
         style="fill:#000000;fill-opacity:1"
         inkscape:connector-curvature="0" /><path
         d="m 39.075,24.909 c -0.049,0 -0.1,0 -0.149,0.001 -0.926,0.016 -1.853,0.054 -2.78,0.091 -0.844,0.034 -1.688,0.068 -2.531,0.085 l -1.465,0.031 c -2.543,0.053 -5.178,0.107 -7.751,0.097 -1.174,-0.005 -2.349,-0.049 -3.522,-0.093 -1.598,-0.06 -3.248,-0.124 -4.886,-0.083 -2.273,0.055 -4.185,0.781 -5.685,2.159 v 0 c -2.491,2.289 -3.521,5.325 -3.148,9.282 0.542,5.743 2.86,8.68 8.002,10.135 4.323,1.223 8.665,1.333 12.322,1.281 l 1.218,0.006 c 0.411,0.003 0.822,0.007 1.233,0.007 0.507,0 1.014,-0.005 1.521,-0.021 3.595,-0.115 6.746,-0.652 9.632,-1.644 3.169,-1.088 5.279,-3.166 6.269,-6.175 0.756,-2.3 0.978,-4.479 0.679,-6.662 -0.487,-3.55 -3.584,-8.497 -8.959,-8.497 z m 6.381,14.535 c -0.795,2.417 -2.437,4.022 -5.019,4.908 -2.695,0.925 -5.654,1.428 -9.046,1.536 -0.891,0.028 -1.782,0.02 -2.673,0.014 L 27.469,45.895 C 23.944,45.945 19.781,45.843 15.706,44.689 11.389,43.468 9.612,41.191 9.15,36.292 8.84,33 9.661,30.507 11.659,28.67 c 1.133,-1.04 2.606,-1.589 4.38,-1.633 1.576,-0.036 3.196,0.023 4.762,0.082 1.196,0.045 2.393,0.09 3.589,0.095 2.608,0.012 5.247,-0.044 7.802,-0.098 l 1.463,-0.03 c 0.857,-0.018 1.714,-0.053 2.571,-0.087 0.911,-0.037 1.822,-0.074 2.733,-0.089 0.036,-0.001 0.072,-0.001 0.108,-0.001 4.13,0 6.607,4.022 6.984,6.771 0.259,1.874 0.063,3.76 -0.595,5.764 z"
         id="path6"
         style="fill:#000000;fill-opacity:1"
         inkscape:connector-curvature="0" /><path
         d="m 51.866,18.56 c -0.595,-0.819 -0.867,-1.301 -0.782,-2.176 0.177,-1.843 -0.075,-3.698 -0.319,-5.491 L 50.749,10.775 C 50.423,8.371 49.795,6.077 48.882,3.956 L 48.557,3.202 47.08,3.516 C 45.029,3.947 42.907,4.393 40.973,5.51 39.689,6.252 38.411,7.043 37.176,7.807 36.349,8.319 35.522,8.831 34.69,9.33 c -0.045,0.027 -0.135,0.049 -0.16,0.049 0,0 0,0 0,0 C 30.057,8.598 25.412,8.59 20.72,9.356 20.662,9.366 20.473,9.334 20.323,9.245 19.807,8.936 19.304,8.604 18.802,8.273 18.219,7.888 17.635,7.504 17.035,7.153 14.173,5.473 11.011,3.852 7.282,3.376 L 6.552,3.282 6.163,4.125 C 6.09,4.279 6.028,4.412 5.977,4.55 c -1.07,2.884 -1.715,5.908 -1.924,9.085 -0.073,1.101 -0.148,2.24 0.014,3.377 0.054,0.377 0.009,0.453 -0.138,0.637 -1.347,1.679 -2.31,3.435 -2.945,5.368 -1.067,3.246 -1.26,6.845 -0.609,11.324 0.54,3.747 1.459,6.481 2.977,8.863 3.193,5.008 8.122,7.829 14.651,8.385 3.263,0.278 6.574,0.32 9.82,0.32 0.698,0 1.393,-0.002 2.084,-0.004 0.911,-0.003 1.823,-0.005 2.732,-0.003 4.18,0.002 7.514,-0.542 10.545,-1.729 5.396,-2.111 8.984,-6.043 10.663,-11.688 0.936,-3.145 1.355,-6.489 1.245,-9.941 -0.122,-3.846 -1.208,-7.205 -3.226,-9.984 z m 0.065,19.355 c -1.516,5.093 -4.615,8.494 -9.475,10.396 -2.79,1.093 -5.87,1.61 -9.812,1.591 -0.913,-0.002 -1.827,0 -2.741,0.003 C 26.042,49.916 22.05,49.927 18.174,49.596 12.216,49.089 7.919,46.646 5.039,42.129 3.68,39.998 2.852,37.508 2.354,34.054 1.74,29.834 1.904,26.623 2.884,23.641 3.443,21.94 4.295,20.389 5.489,18.899 6.012,18.247 6.173,17.618 6.046,16.729 5.913,15.798 5.982,14.765 6.054,13.668 6.238,10.861 6.815,8.103 7.768,5.471 c 3.065,0.542 5.773,1.949 8.253,3.405 0.57,0.334 1.124,0.7 1.677,1.064 0.527,0.348 1.055,0.695 1.597,1.019 0.54,0.322 1.192,0.46 1.747,0.368 4.468,-0.729 8.89,-0.723 13.146,0.021 0.49,0.083 1.075,-0.033 1.528,-0.304 0.841,-0.505 1.675,-1.021 2.51,-1.538 1.242,-0.769 2.483,-1.537 3.746,-2.266 1.619,-0.935 3.446,-1.332 5.381,-1.74 0.675,1.74 1.149,3.601 1.413,5.541 l 0.016,0.118 c 0.228,1.681 0.464,3.419 0.309,5.03 -0.154,1.594 0.459,2.586 1.155,3.544 1.803,2.483 2.734,5.386 2.846,8.872 0.105,3.24 -0.286,6.372 -1.161,9.31 z"
         id="path8"
         style="fill:#000000;fill-opacity:1"
         inkscape:connector-curvature="0" /></g></g></svg>