<?xml version="1.0" encoding="UTF-8" standalone="no"?>
<!-- Generator: Adobe Illustrator 18.0.0, SVG Export Plug-In . SVG Version: 6.00 Build 0)  -->

<svg
   xmlns:dc="http://purl.org/dc/elements/1.1/"
   xmlns:cc="http://creativecommons.org/ns#"
   xmlns:rdf="http://www.w3.org/1999/02/22-rdf-syntax-ns#"
   xmlns:svg="http://www.w3.org/2000/svg"
   xmlns="http://www.w3.org/2000/svg"
   xmlns:sodipodi="http://sodipodi.sourceforge.net/DTD/sodipodi-0.dtd"
   xmlns:inkscape="http://www.inkscape.org/namespaces/inkscape"
   version="1.1"
   id="Capa_1"
   x="0px"
   y="0px"
   viewBox="0 0 267.17862 267.17862"
   xml:space="preserve"
   inkscape:version="0.91 r13725"
   sodipodi:docname="google-plus.svg"
   width="267.17862"
   height="267.17862"><metadata
     id="metadata54"><rdf:RDF><cc:Work
         rdf:about=""><dc:format>image/svg+xml</dc:format><dc:type
           rdf:resource="http://purl.org/dc/dcmitype/StillImage" /><dc:title></dc:title></cc:Work></rdf:RDF></metadata><defs
     id="defs52" /><sodipodi:namedview
     pagecolor="#ffffff"
     bordercolor="#666666"
     borderopacity="1"
     objecttolerance="10"
     gridtolerance="10"
     guidetolerance="10"
     inkscape:pageopacity="0"
     inkscape:pageshadow="2"
     inkscape:window-width="1315"
     inkscape:window-height="744"
     id="namedview50"
     showgrid="false"
     fit-margin-top="0"
     fit-margin-left="0"
     fit-margin-right="0"
     fit-margin-bottom="0"
     inkscape:zoom="2.1034618"
     inkscape:cx="74.876567"
     inkscape:cy="117.42448"
     inkscape:window-x="51"
     inkscape:window-y="24"
     inkscape:window-maximized="1"
     inkscape:current-layer="Capa_1" /><g
     id="g3"
     transform="matrix(2.381356,0,0,2.381356,0,0.00238005)"><g
       id="g5"><circle
         id="XMLID_30_"
         style="fill:#dc4e41"
         cx="56.098"
         cy="56.097"
         r="56.098" /></g><g
       id="g8"><path
         style="fill:#dc4e41"
         d="m 19.531,58.608 c -0.199,9.652 6.449,18.863 15.594,21.867 8.614,2.894 19.205,0.729 24.937,-6.648 4.185,-5.169 5.136,-12.06 4.683,-18.498 -7.377,-0.066 -14.754,-0.044 -22.12,-0.033 -0.012,2.628 0,5.246 0.011,7.874 4.417,0.122 8.835,0.066 13.252,0.155 -1.115,3.821 -3.655,7.377 -7.51,8.757 -7.443,3.28 -16.94,-1.005 -19.282,-8.813 -2.827,-7.477 1.801,-16.5 9.442,-18.675 4.738,-1.667 9.619,0.21 13.673,2.673 2.054,-1.922 3.976,-3.976 5.864,-6.052 C 53.469,37.361 47.55,34.998 41.465,35.517 29.526,35.659 19.078,46.681 19.531,58.608 Z"
         id="path10"
         inkscape:connector-curvature="0" /><path
         style="fill:#dc4e41"
         d="m 79.102,48.668 c -0.022,2.198 -0.045,4.407 -0.056,6.604 -2.209,0.022 -4.406,0.033 -6.604,0.044 0,2.198 0,4.384 0,6.582 2.198,0.011 4.407,0.022 6.604,0.045 0.022,2.198 0.022,4.395 0.044,6.604 2.187,0 4.385,-0.011 6.582,0 0.012,-2.209 0.022,-4.406 0.045,-6.615 2.197,-0.011 4.406,-0.022 6.604,-0.033 0,-2.198 0,-4.384 0,-6.582 -2.197,-0.011 -4.406,-0.022 -6.604,-0.044 -0.012,-2.198 -0.033,-4.407 -0.045,-6.604 -2.197,-10e-4 -4.384,-10e-4 -6.57,-10e-4 z"
         id="path12"
         inkscape:connector-curvature="0" /><g
         id="g14"><path
           style="fill:#ffffff"
           d="m 19.531,58.608 c -0.453,-11.927 9.994,-22.949 21.933,-23.092 6.085,-0.519 12.005,1.844 16.61,5.698 -1.889,2.077 -3.811,4.13 -5.864,6.052 -4.054,-2.463 -8.935,-4.34 -13.673,-2.673 -7.642,2.176 -12.27,11.199 -9.442,18.675 2.342,7.808 11.839,12.093 19.282,8.813 3.854,-1.38 6.395,-4.936 7.51,-8.757 -4.417,-0.088 -8.835,-0.033 -13.252,-0.155 -0.011,-2.628 -0.022,-5.246 -0.011,-7.874 7.366,-0.011 14.743,-0.033 22.12,0.033 0.453,6.439 -0.497,13.33 -4.683,18.498 -5.732,7.377 -16.322,9.542 -24.937,6.648 C 25.981,77.471 19.332,68.26 19.531,58.608 Z"
           id="path16"
           inkscape:connector-curvature="0" /><path
           style="fill:#ffffff"
           d="m 79.102,48.668 c 2.187,0 4.373,0 6.57,0 0.012,2.198 0.033,4.407 0.045,6.604 2.197,0.022 4.406,0.033 6.604,0.044 0,2.198 0,4.384 0,6.582 -2.197,0.011 -4.406,0.022 -6.604,0.033 -0.022,2.209 -0.033,4.406 -0.045,6.615 -2.197,-0.011 -4.396,0 -6.582,0 -0.021,-2.209 -0.021,-4.406 -0.044,-6.604 -2.197,-0.023 -4.406,-0.033 -6.604,-0.045 0,-2.198 0,-4.384 0,-6.582 2.198,-0.011 4.396,-0.022 6.604,-0.044 0.011,-2.196 0.033,-4.405 0.056,-6.603 z"
           id="path18"
           inkscape:connector-curvature="0" /></g></g></g><g
     id="g20"
     transform="translate(93.655135,93.656135)" /><g
     id="g22"
     transform="translate(93.655135,93.656135)" /><g
     id="g24"
     transform="translate(93.655135,93.656135)" /><g
     id="g26"
     transform="translate(93.655135,93.656135)" /><g
     id="g28"
     transform="translate(93.655135,93.656135)" /><g
     id="g30"
     transform="translate(93.655135,93.656135)" /><g
     id="g32"
     transform="translate(93.655135,93.656135)" /><g
     id="g34"
     transform="translate(93.655135,93.656135)" /><g
     id="g36"
     transform="translate(93.655135,93.656135)" /><g
     id="g38"
     transform="translate(93.655135,93.656135)" /><g
     id="g40"
     transform="translate(93.655135,93.656135)" /><g
     id="g42"
     transform="translate(93.655135,93.656135)" /><g
     id="g44"
     transform="translate(93.655135,93.656135)" /><g
     id="g46"
     transform="translate(93.655135,93.656135)" /><g
     id="g48"
     transform="translate(93.655135,93.656135)" /></svg>