<?xml version="1.0" encoding="UTF-8" standalone="no"?>
<!-- Generator: Adobe Illustrator 18.0.0, SVG Export Plug-In . SVG Version: 6.00 Build 0)  -->

<svg
   xmlns:dc="http://purl.org/dc/elements/1.1/"
   xmlns:cc="http://creativecommons.org/ns#"
   xmlns:rdf="http://www.w3.org/1999/02/22-rdf-syntax-ns#"
   xmlns:svg="http://www.w3.org/2000/svg"
   xmlns="http://www.w3.org/2000/svg"
   xmlns:sodipodi="http://sodipodi.sourceforge.net/DTD/sodipodi-0.dtd"
   xmlns:inkscape="http://www.inkscape.org/namespaces/inkscape"
   version="1.1"
   id="Capa_1"
   x="0px"
   y="0px"
   viewBox="0 0 46.874998 46.874998"
   xml:space="preserve"
   inkscape:version="0.92.0 unknown"
   sodipodi:docname="google-plus.svg"
   width="50"
   height="50"><metadata
     id="metadata54"><rdf:RDF><cc:Work
         rdf:about=""><dc:format>image/svg+xml</dc:format><dc:type
           rdf:resource="http://purl.org/dc/dcmitype/StillImage" /><dc:title /></cc:Work></rdf:RDF></metadata><defs
     id="defs52" /><sodipodi:namedview
     pagecolor="#ffffff"
     bordercolor="#666666"
     borderopacity="1"
     objecttolerance="10"
     gridtolerance="10"
     guidetolerance="10"
     inkscape:pageopacity="0"
     inkscape:pageshadow="2"
     inkscape:window-width="1315"
     inkscape:window-height="744"
     id="namedview50"
     showgrid="false"
     fit-margin-top="0"
     fit-margin-left="0"
     fit-margin-right="0"
     fit-margin-bottom="0"
     inkscape:zoom="2.9747443"
     inkscape:cx="2.7683676"
     inkscape:cy="3.5620918"
     inkscape:window-x="51"
     inkscape:window-y="24"
     inkscape:window-maximized="1"
     inkscape:current-layer="Capa_1" /><g
     id="g6796"
     transform="matrix(0.94828256,0,0,0.94828256,1.2121274,1.2121274)"
     style="stroke-width:0.98862934;stroke-miterlimit:4;stroke-dasharray:none"><g
       transform="matrix(0.41779563,0,0,0.41779563,0,4.1756613e-4)"
       id="g5"
       style="stroke-width:2.3662989;stroke-miterlimit:4;stroke-dasharray:none"><circle
         id="XMLID_30_"
         style="fill:#000000;fill-opacity:0;stroke:#000000;stroke-width:2.3662989;stroke-miterlimit:4;stroke-dasharray:none;stroke-opacity:1"
         cx="56.098"
         cy="56.097"
         r="56.098" /></g><g
       style="fill:#ffffff;stroke-width:2.36619848;stroke-miterlimit:4;stroke-dasharray:none"
       transform="matrix(0.41781336,0,0,0.41781336,-9.9090869e-4,-6.2168067e-4)"
       id="g8"><path
         style="fill:#ffffff;fill-opacity:0;stroke:#000000;stroke-width:2.36619848;stroke-miterlimit:4;stroke-dasharray:none;stroke-opacity:1"
         d="m 13.932618,58.61239 c -0.229617,11.136988 7.441197,21.765127 17.993181,25.231301 9.939289,3.33925 22.159745,0.841158 28.773629,-7.670814 4.828874,-5.964266 5.926188,-13.915466 5.403493,-21.34397 -8.511972,-0.07615 -17.023945,-0.05077 -25.523225,-0.03808 -0.01385,3.032325 0,6.053112 0.01269,9.085437 5.096568,0.14077 10.19429,0.07615 15.290858,0.178847 -1.286546,4.408872 -4.217332,8.511973 -8.665435,10.10429 -8.588127,3.784637 -19.546267,-1.159622 -22.248591,-10.168906 -3.261942,-8.627357 2.078089,-19.038572 10.894679,-21.548202 5.466955,-1.923472 11.098911,0.242309 15.77663,3.084249 2.370014,-2.217705 4.587719,-4.587719 6.766193,-6.983118 -5.314644,-4.446946 -12.144299,-7.1735 -19.165494,-6.57465 C 25.465377,32.132621 13.409922,44.850387 13.932618,58.61239 Z"
         id="path10"
         inkscape:connector-curvature="0" /><path
         style="fill:#ffffff;fill-opacity:0;stroke:#000000;stroke-width:2.36619848;stroke-miterlimit:4;stroke-dasharray:none;stroke-opacity:1"
         d="m 82.668787,47.143093 c -0.02538,2.536168 -0.05192,5.085029 -0.06462,7.620044 -2.548861,0.02538 -5.083876,0.03808 -7.620044,0.05077 0,2.536168 0,5.058491 0,7.594659 2.536168,0.01269 5.085029,0.02538 7.620044,0.05192 0.02538,2.536168 0.02538,5.071183 0.05077,7.620044 2.523477,0 5.059645,-0.01269 7.59466,0 0.01385,-2.548861 0.02538,-5.083876 0.05192,-7.632737 2.535015,-0.01269 5.083876,-0.02538 7.620045,-0.03808 0,-2.536169 0,-5.058491 0,-7.59466 -2.535015,-0.01269 -5.083876,-0.02538 -7.620045,-0.05077 -0.01385,-2.536169 -0.03808,-5.08503 -0.05192,-7.620044 -2.535015,-0.0012 -5.058491,-0.0012 -7.580813,-0.0012 z"
         id="path12"
         inkscape:connector-curvature="0" /><g
         style="fill:#ffffff;stroke-width:2.36619848;stroke-miterlimit:4;stroke-dasharray:none"
         id="g14" /></g></g><g
     id="g20"
     transform="translate(93.655135,-126.64749)" /><g
     id="g22"
     transform="translate(93.655135,-126.64749)" /><g
     id="g24"
     transform="translate(93.655135,-126.64749)" /><g
     id="g26"
     transform="translate(93.655135,-126.64749)" /><g
     id="g28"
     transform="translate(93.655135,-126.64749)" /><g
     id="g30"
     transform="translate(93.655135,-126.64749)" /><g
     id="g32"
     transform="translate(93.655135,-126.64749)" /><g
     id="g34"
     transform="translate(93.655135,-126.64749)" /><g
     id="g36"
     transform="translate(93.655135,-126.64749)" /><g
     id="g38"
     transform="translate(93.655135,-126.64749)" /><g
     id="g40"
     transform="translate(93.655135,-126.64749)" /><g
     id="g42"
     transform="translate(93.655135,-126.64749)" /><g
     id="g44"
     transform="translate(93.655135,-126.64749)" /><g
     id="g46"
     transform="translate(93.655135,-126.64749)" /><g
     id="g48"
     transform="translate(93.655135,-126.64749)" /></svg>