<?xml version="1.0" encoding="UTF-8" standalone="no"?>
<!-- Generator: Adobe Illustrator 18.0.0, SVG Export Plug-In . SVG Version: 6.00 Build 0)  -->

<svg
   xmlns:dc="http://purl.org/dc/elements/1.1/"
   xmlns:cc="http://creativecommons.org/ns#"
   xmlns:rdf="http://www.w3.org/1999/02/22-rdf-syntax-ns#"
   xmlns:svg="http://www.w3.org/2000/svg"
   xmlns="http://www.w3.org/2000/svg"
   xmlns:sodipodi="http://sodipodi.sourceforge.net/DTD/sodipodi-0.dtd"
   xmlns:inkscape="http://www.inkscape.org/namespaces/inkscape"
   version="1.1"
   id="Capa_1"
   x="0px"
   y="0px"
   viewBox="0 0 46.874999 46.874999"
   xml:space="preserve"
   inkscape:version="0.92.0 unknown"
   sodipodi:docname="linkedin.svg"
   width="50"
   height="50"><metadata
     id="metadata45"><rdf:RDF><cc:Work
         rdf:about=""><dc:format>image/svg+xml</dc:format><dc:type
           rdf:resource="http://purl.org/dc/dcmitype/StillImage" /><dc:title /></cc:Work></rdf:RDF></metadata><defs
     id="defs43" /><sodipodi:namedview
     pagecolor="#ffffff"
     bordercolor="#666666"
     borderopacity="1"
     objecttolerance="10"
     gridtolerance="10"
     guidetolerance="10"
     inkscape:pageopacity="0"
     inkscape:pageshadow="2"
     inkscape:window-width="1315"
     inkscape:window-height="744"
     id="namedview41"
     showgrid="false"
     fit-margin-top="0"
     fit-margin-left="0"
     fit-margin-right="0"
     fit-margin-bottom="0"
     inkscape:zoom="8.4138472"
     inkscape:cx="14.879778"
     inkscape:cy="20.12781"
     inkscape:window-x="51"
     inkscape:window-y="24"
     inkscape:window-maximized="1"
     inkscape:current-layer="Capa_1" /><g
     id="g3"
     transform="matrix(0.39618832,0,0,0.39618832,-95.578969,98.003613)"
     style="stroke:#000000;stroke-width:1.00078833;stroke-miterlimit:4;stroke-dasharray:none;stroke-opacity:1"><circle
       style="fill:#000000;fill-opacity:0;stroke:#000000;stroke-width:2.36629889;stroke-miterlimit:4;stroke-dasharray:none;stroke-opacity:1"
       cx="300.40378"
       cy="-188.20877"
       r="56.098"
       id="circle5" /><g
       id="g7"
       style="stroke:#000000;stroke-width:1.00078833;stroke-miterlimit:4;stroke-dasharray:none;stroke-opacity:1"><path
         style="fill:#fbffff;fill-opacity:0;stroke:#000000;stroke-width:2.24392009;stroke-miterlimit:4;stroke-dasharray:none;stroke-opacity:1"
         d="m 331.24355,-181.54559 v 22.80688 h -13.22282 v -21.2784 c 0,-5.34278 -1.90912,-8.9914 -6.6967,-8.9914 -3.65357,0 -5.82402,2.45641 -6.78251,4.83493 -0.34811,0.85003 -0.43785,2.0304 -0.43785,3.22261 v 22.21127 h -13.2238 c 0,0 0.1775,-36.03857 0,-39.76905 h 13.22479 v 5.63566 c -0.0266,0.0444 -0.064,0.0877 -0.0878,0.13015 h 0.0878 v -0.13015 c 1.75726,-2.70394 4.89114,-6.56952 11.91721,-6.56952 8.69952,0 15.22168,5.68398 15.22168,17.89702 z m -54.19691,-36.13325 c -4.52331,0 -7.48264,2.96919 -7.48264,6.87028 0,3.81824 2.87353,6.87322 7.30908,6.87322 h 0.0858 c 4.61206,0 7.47969,-3.05498 7.47969,-6.87322 -0.0878,-3.90109 -2.86763,-6.87028 -7.39193,-6.87028 z m -6.6967,58.94013 h 13.21888 v -39.77004 h -13.21888 z"
         id="path9"
         inkscape:connector-curvature="0" /></g></g><g
     id="g11"
     transform="translate(-40.742415,-40.741423)" /><g
     id="g13"
     transform="translate(-40.742415,-40.741423)" /><g
     id="g15"
     transform="translate(-40.742415,-40.741423)" /><g
     id="g17"
     transform="translate(-40.742415,-40.741423)" /><g
     id="g19"
     transform="translate(-40.742415,-40.741423)" /><g
     id="g21"
     transform="translate(-40.742415,-40.741423)" /><g
     id="g23"
     transform="translate(-40.742415,-40.741423)" /><g
     id="g25"
     transform="translate(-40.742415,-40.741423)" /><g
     id="g27"
     transform="translate(-40.742415,-40.741423)" /><g
     id="g29"
     transform="translate(-40.742415,-40.741423)" /><g
     id="g31"
     transform="translate(-40.742415,-40.741423)" /><g
     id="g33"
     transform="translate(-40.742415,-40.741423)" /><g
     id="g35"
     transform="translate(-40.742415,-40.741423)" /><g
     id="g37"
     transform="translate(-40.742415,-40.741423)" /><g
     id="g39"
     transform="translate(-40.742415,-40.741423)" /></svg>