<?xml version="1.0" encoding="UTF-8" standalone="no"?>
<!-- Generator: Adobe Illustrator 18.0.0, SVG Export Plug-In . SVG Version: 6.00 Build 0)  -->

<svg
   xmlns:dc="http://purl.org/dc/elements/1.1/"
   xmlns:cc="http://creativecommons.org/ns#"
   xmlns:rdf="http://www.w3.org/1999/02/22-rdf-syntax-ns#"
   xmlns:svg="http://www.w3.org/2000/svg"
   xmlns="http://www.w3.org/2000/svg"
   xmlns:sodipodi="http://sodipodi.sourceforge.net/DTD/sodipodi-0.dtd"
   xmlns:inkscape="http://www.inkscape.org/namespaces/inkscape"
   version="1.1"
   id="Capa_1"
   x="0px"
   y="0px"
   viewBox="0 0 251.01479 251.01479"
   xml:space="preserve"
   inkscape:version="0.91 r13725"
   sodipodi:docname="linkedin.svg"
   width="251.01479"
   height="251.01479"><metadata
     id="metadata45"><rdf:RDF><cc:Work
         rdf:about=""><dc:format>image/svg+xml</dc:format><dc:type
           rdf:resource="http://purl.org/dc/dcmitype/StillImage" /><dc:title></dc:title></cc:Work></rdf:RDF></metadata><defs
     id="defs43" /><sodipodi:namedview
     pagecolor="#ffffff"
     bordercolor="#666666"
     borderopacity="1"
     objecttolerance="10"
     gridtolerance="10"
     guidetolerance="10"
     inkscape:pageopacity="0"
     inkscape:pageshadow="2"
     inkscape:window-width="1315"
     inkscape:window-height="744"
     id="namedview41"
     showgrid="false"
     fit-margin-top="0"
     fit-margin-left="0"
     fit-margin-right="0"
     fit-margin-bottom="0"
     inkscape:zoom="2.1034618"
     inkscape:cx="55.622593"
     inkscape:cy="133.58831"
     inkscape:window-x="51"
     inkscape:window-y="24"
     inkscape:window-maximized="1"
     inkscape:current-layer="Capa_1" /><g
     id="g3"
     transform="matrix(2.2372882,0,0,2.2372882,0,0.00223606)"><circle
       style="fill:#007ab9"
       cx="56.098"
       cy="56.097"
       r="56.098"
       id="circle5" /><g
       id="g7"><path
         style="fill:#f1f2f2"
         d="m 89.616,60.611 0,23.128 -13.409,0 0,-21.578 c 0,-5.418 -1.936,-9.118 -6.791,-9.118 -3.705,0 -5.906,2.491 -6.878,4.903 -0.353,0.862 -0.444,2.059 -0.444,3.268 l 0,22.524 -13.41,0 c 0,0 0.18,-36.546 0,-40.329 l 13.411,0 0,5.715 c -0.027,0.045 -0.065,0.089 -0.089,0.132 l 0.089,0 0,-0.132 c 1.782,-2.742 4.96,-6.662 12.085,-6.662 8.822,0 15.436,5.764 15.436,18.149 l 0,0 z M 34.656,23.969 c -4.587,0 -7.588,3.011 -7.588,6.967 0,3.872 2.914,6.97 7.412,6.97 l 0.087,0 c 4.677,0 7.585,-3.098 7.585,-6.97 -0.089,-3.956 -2.908,-6.967 -7.496,-6.967 l 0,0 z m -6.791,59.77 13.405,0 0,-40.33 -13.405,0 0,40.33 z"
         id="path9"
         inkscape:connector-curvature="0" /></g></g><g
     id="g11"
     transform="translate(61.327474,61.328474)" /><g
     id="g13"
     transform="translate(61.327474,61.328474)" /><g
     id="g15"
     transform="translate(61.327474,61.328474)" /><g
     id="g17"
     transform="translate(61.327474,61.328474)" /><g
     id="g19"
     transform="translate(61.327474,61.328474)" /><g
     id="g21"
     transform="translate(61.327474,61.328474)" /><g
     id="g23"
     transform="translate(61.327474,61.328474)" /><g
     id="g25"
     transform="translate(61.327474,61.328474)" /><g
     id="g27"
     transform="translate(61.327474,61.328474)" /><g
     id="g29"
     transform="translate(61.327474,61.328474)" /><g
     id="g31"
     transform="translate(61.327474,61.328474)" /><g
     id="g33"
     transform="translate(61.327474,61.328474)" /><g
     id="g35"
     transform="translate(61.327474,61.328474)" /><g
     id="g37"
     transform="translate(61.327474,61.328474)" /><g
     id="g39"
     transform="translate(61.327474,61.328474)" /></svg>