<?xml version="1.0" encoding="UTF-8" standalone="no"?>
<!-- Generator: Adobe Illustrator 18.0.0, SVG Export Plug-In . SVG Version: 6.00 Build 0)  -->

<svg
   xmlns:dc="http://purl.org/dc/elements/1.1/"
   xmlns:cc="http://creativecommons.org/ns#"
   xmlns:rdf="http://www.w3.org/1999/02/22-rdf-syntax-ns#"
   xmlns:svg="http://www.w3.org/2000/svg"
   xmlns="http://www.w3.org/2000/svg"
   xmlns:sodipodi="http://sodipodi.sourceforge.net/DTD/sodipodi-0.dtd"
   xmlns:inkscape="http://www.inkscape.org/namespaces/inkscape"
   version="1.1"
   id="Capa_1"
   x="0px"
   y="0px"
   viewBox="0 0 46.875001 46.875001"
   xml:space="preserve"
   inkscape:version="0.92.0 unknown"
   sodipodi:docname="twitter.svg"
   width="50"
   height="50"><metadata
     id="metadata45"><rdf:RDF><cc:Work
         rdf:about=""><dc:format>image/svg+xml</dc:format><dc:type
           rdf:resource="http://purl.org/dc/dcmitype/StillImage" /><dc:title /></cc:Work></rdf:RDF></metadata><defs
     id="defs43"><marker
       inkscape:stockid="Arrow1Lend"
       orient="auto"
       refY="0.0"
       refX="0.0"
       id="Arrow1Lend"
       style="overflow:visible;"
       inkscape:isstock="true"><path
         id="path6847"
         d="M 0.0,0.0 L 5.0,-5.0 L -12.5,0.0 L 5.0,5.0 L 0.0,0.0 z "
         style="fill-rule:evenodd;stroke:#000000;stroke-width:1.0pt;"
         transform="scale(0.8) rotate(180) translate(12.5,0)" /></marker><marker
       inkscape:stockid="Arrow1Lstart"
       orient="auto"
       refY="0.0"
       refX="0.0"
       id="Arrow1Lstart"
       style="overflow:visible"
       inkscape:isstock="true"><path
         id="path6844"
         d="M 0.0,0.0 L 5.0,-5.0 L -12.5,0.0 L 5.0,5.0 L 0.0,0.0 z "
         style="fill-rule:evenodd;stroke:#000000;stroke-width:1.0pt"
         transform="scale(0.8) translate(12.5,0)" /></marker></defs><sodipodi:namedview
     pagecolor="#ffffff"
     bordercolor="#666666"
     borderopacity="1"
     objecttolerance="10"
     gridtolerance="10"
     guidetolerance="10"
     inkscape:pageopacity="0"
     inkscape:pageshadow="2"
     inkscape:window-width="1315"
     inkscape:window-height="744"
     id="namedview41"
     showgrid="false"
     fit-margin-top="0"
     fit-margin-left="0"
     fit-margin-right="0"
     fit-margin-bottom="0"
     inkscape:zoom="8.413772"
     inkscape:cx="10.312235"
     inkscape:cy="25.844168"
     inkscape:window-x="51"
     inkscape:window-y="24"
     inkscape:window-maximized="1"
     inkscape:current-layer="Capa_1" /><g
     id="g6830"
     transform="matrix(0.9542874,0,0,0.9542874,1.0713891,1.0713891)"
     style="stroke-width:0.98240847;stroke-miterlimit:4;stroke-dasharray:none"><circle
       style="fill:#000000;fill-opacity:0;stroke:#000000;stroke-width:0.98240847;stroke-miterlimit:4;stroke-dasharray:none;stroke-opacity:1"
       cx="23.4375"
       cy="23.4375"
       r="23.4375"
       id="circle5" /><g
       style="fill:#ffffff;stroke-width:2.33254149;stroke-miterlimit:4;stroke-dasharray:none"
       transform="matrix(0.42117513,0,0,0.42117513,35.684171,21.537271)"
       id="g7"><path
         style="fill:#ffffff;fill-opacity:0;stroke:#000000;stroke-width:2.33254149;stroke-miterlimit:4;stroke-dasharray:none;stroke-opacity:1"
         d="m 4.7035341,-16.441252 c -2.4850613,1.101945 -5.15825942,1.847257 -7.9617067,2.180114 2.8623692,-1.71494 5.0590226,-4.428453 6.0958436,-7.667096 -2.67836653,1.588826 -5.6461752,2.741424 -8.8021206,3.362689 -2.5284771,-2.692839 -6.1309894,-4.375735 -10.1201134,-4.375735 -7.653658,0 -13.861143,6.207486 -13.861143,13.8611436 0,1.0864397 0.123013,2.1439344 0.360769,3.1590466 -11.519769,-0.5778491 -21.73395,-6.0958432 -28.57097,-14.4844762 -1.192912,2.046765 -1.877234,4.429488 -1.877234,6.969337 0,4.8078285 2.44888,9.0522803 6.166136,11.5373416 -2.271082,-0.071325 -4.409848,-0.6946596 -6.277778,-1.7356148 -0.0011,0.058924 -0.0011,0.1178438 -0.0011,0.1757324 0,6.7160743 4.779918,12.3178003 11.119719,13.5903078 -1.161901,0.318386 -2.388926,0.486883 -3.651097,0.486883 -0.895201,0 -1.762492,-0.0858 -2.608074,-0.24706 1.763525,5.50559 6.88147,9.51332 12.948369,9.625995 -4.744772,3.718288 -10.720703,5.933549 -17.216596,5.933549 -1.116417,0 -2.222497,-0.06512 -3.304801,-0.194339 6.130989,3.934336 13.418711,6.22816 21.246034,6.22816 25.495654,0 39.4384619,-21.120955 39.4384619,-39.4394956 0,-0.6005912 -0.013436,-1.1991151 -0.040317,-1.7924694 2.7104121,-1.95373 5.0600558,-4.394341 6.9176496,-7.174013 z"
         id="path9"
         inkscape:connector-curvature="0" /></g></g><g
     id="g11"
     transform="translate(-6.0384791,-35.037554)" /><g
     id="g13"
     transform="translate(-6.0384791,-35.037554)" /><g
     id="g15"
     transform="translate(-6.0384791,-35.037554)" /><g
     id="g17"
     transform="translate(-6.0384791,-35.037554)" /><g
     id="g19"
     transform="translate(-6.0384791,-35.037554)" /><g
     id="g21"
     transform="translate(-6.0384791,-35.037554)" /><g
     id="g23"
     transform="translate(-6.0384791,-35.037554)" /><g
     id="g25"
     transform="translate(-6.0384791,-35.037554)" /><g
     id="g27"
     transform="translate(-6.0384791,-35.037554)" /><g
     id="g29"
     transform="translate(-6.0384791,-35.037554)" /><g
     id="g31"
     transform="translate(-6.0384791,-35.037554)" /><g
     id="g33"
     transform="translate(-6.0384791,-35.037554)" /><g
     id="g35"
     transform="translate(-6.0384791,-35.037554)" /><g
     id="g37"
     transform="translate(-6.0384791,-35.037554)" /><g
     id="g39"
     transform="translate(-6.0384791,-35.037554)" /></svg>