<?xml version="1.0" encoding="UTF-8" standalone="no"?>
<!-- Generator: Adobe Illustrator 18.0.0, SVG Export Plug-In . SVG Version: 6.00 Build 0)  -->

<svg
   xmlns:dc="http://purl.org/dc/elements/1.1/"
   xmlns:cc="http://creativecommons.org/ns#"
   xmlns:rdf="http://www.w3.org/1999/02/22-rdf-syntax-ns#"
   xmlns:svg="http://www.w3.org/2000/svg"
   xmlns="http://www.w3.org/2000/svg"
   xmlns:sodipodi="http://sodipodi.sourceforge.net/DTD/sodipodi-0.dtd"
   xmlns:inkscape="http://www.inkscape.org/namespaces/inkscape"
   version="1.1"
   id="Capa_1"
   x="0px"
   y="0px"
   viewBox="0 0 272.88492 272.88492"
   xml:space="preserve"
   inkscape:version="0.91 r13725"
   sodipodi:docname="twitter.svg"
   width="272.88492"
   height="272.88492"><metadata
     id="metadata45"><rdf:RDF><cc:Work
         rdf:about=""><dc:format>image/svg+xml</dc:format><dc:type
           rdf:resource="http://purl.org/dc/dcmitype/StillImage" /><dc:title></dc:title></cc:Work></rdf:RDF></metadata><defs
     id="defs43" /><sodipodi:namedview
     pagecolor="#ffffff"
     bordercolor="#666666"
     borderopacity="1"
     objecttolerance="10"
     gridtolerance="10"
     guidetolerance="10"
     inkscape:pageopacity="0"
     inkscape:pageshadow="2"
     inkscape:window-width="1315"
     inkscape:window-height="744"
     id="namedview41"
     showgrid="false"
     fit-margin-top="0"
     fit-margin-left="0"
     fit-margin-right="0"
     fit-margin-bottom="0"
     inkscape:zoom="1.0517215"
     inkscape:cx="158.08795"
     inkscape:cy="147.11432"
     inkscape:window-x="51"
     inkscape:window-y="24"
     inkscape:window-maximized="1"
     inkscape:current-layer="Capa_1" /><g
     id="g3"
     transform="matrix(2.4322161,0,0,2.4322161,-0.00243088,0)"><circle
       style="fill:#55acee"
       cx="56.098999"
       cy="56.098"
       r="56.098"
       id="circle5" /><g
       id="g7"><path
         style="fill:#f1f2f2"
         d="m 90.461,40.316 c -2.404,1.066 -4.99,1.787 -7.702,2.109 2.769,-1.659 4.894,-4.284 5.897,-7.417 -2.591,1.537 -5.462,2.652 -8.515,3.253 -2.446,-2.605 -5.931,-4.233 -9.79,-4.233 -7.404,0 -13.409,6.005 -13.409,13.409 0,1.051 0.119,2.074 0.349,3.056 -11.144,-0.559 -21.025,-5.897 -27.639,-14.012 -1.154,1.98 -1.816,4.285 -1.816,6.742 0,4.651 2.369,8.757 5.965,11.161 -2.197,-0.069 -4.266,-0.672 -6.073,-1.679 -0.001,0.057 -0.001,0.114 -0.001,0.17 0,6.497 4.624,11.916 10.757,13.147 -1.124,0.308 -2.311,0.471 -3.532,0.471 -0.866,0 -1.705,-0.083 -2.523,-0.239 1.706,5.326 6.657,9.203 12.526,9.312 -4.59,3.597 -10.371,5.74 -16.655,5.74 -1.08,0 -2.15,-0.063 -3.197,-0.188 5.931,3.806 12.981,6.025 20.553,6.025 24.664,0 38.152,-20.432 38.152,-38.153 0,-0.581 -0.013,-1.16 -0.039,-1.734 2.622,-1.89 4.895,-4.251 6.692,-6.94 l 0,0 z"
         id="path9"
         inkscape:connector-curvature="0" /></g></g><g
     id="g11"
     transform="translate(106.96648,77.967405)" /><g
     id="g13"
     transform="translate(106.96648,77.967405)" /><g
     id="g15"
     transform="translate(106.96648,77.967405)" /><g
     id="g17"
     transform="translate(106.96648,77.967405)" /><g
     id="g19"
     transform="translate(106.96648,77.967405)" /><g
     id="g21"
     transform="translate(106.96648,77.967405)" /><g
     id="g23"
     transform="translate(106.96648,77.967405)" /><g
     id="g25"
     transform="translate(106.96648,77.967405)" /><g
     id="g27"
     transform="translate(106.96648,77.967405)" /><g
     id="g29"
     transform="translate(106.96648,77.967405)" /><g
     id="g31"
     transform="translate(106.96648,77.967405)" /><g
     id="g33"
     transform="translate(106.96648,77.967405)" /><g
     id="g35"
     transform="translate(106.96648,77.967405)" /><g
     id="g37"
     transform="translate(106.96648,77.967405)" /><g
     id="g39"
     transform="translate(106.96648,77.967405)" /></svg>