<?xml version="1.0" encoding="UTF-8" standalone="no"?>
<!-- Generator: Adobe Illustrator 19.1.0, SVG Export Plug-In . SVG Version: 6.00 Build 0)  -->

<svg
   xmlns:dc="http://purl.org/dc/elements/1.1/"
   xmlns:cc="http://creativecommons.org/ns#"
   xmlns:rdf="http://www.w3.org/1999/02/22-rdf-syntax-ns#"
   xmlns:svg="http://www.w3.org/2000/svg"
   xmlns="http://www.w3.org/2000/svg"
   xmlns:sodipodi="http://sodipodi.sourceforge.net/DTD/sodipodi-0.dtd"
   xmlns:inkscape="http://www.inkscape.org/namespaces/inkscape"
   version="1.1"
   id="Capa_1"
   x="0px"
   y="0px"
   viewBox="0 0 46.875 46.874999"
   xml:space="preserve"
   inkscape:version="0.92.0 unknown"
   sodipodi:docname="up-arrow.svg"
   width="50"
   height="50"><metadata
     id="metadata43"><rdf:RDF><cc:Work
         rdf:about=""><dc:format>image/svg+xml</dc:format><dc:type
           rdf:resource="http://purl.org/dc/dcmitype/StillImage" /><dc:title></dc:title></cc:Work></rdf:RDF></metadata><defs
     id="defs41" /><sodipodi:namedview
     pagecolor="#ffffff"
     bordercolor="#666666"
     borderopacity="1"
     objecttolerance="10"
     gridtolerance="10"
     guidetolerance="10"
     inkscape:pageopacity="0"
     inkscape:pageshadow="2"
     inkscape:window-width="1315"
     inkscape:window-height="744"
     id="namedview39"
     showgrid="false"
     inkscape:showpageshadow="false"
     fit-margin-top="0"
     fit-margin-left="0"
     fit-margin-right="0"
     fit-margin-bottom="0"
     inkscape:zoom="6.6288642"
     inkscape:cx="28.997474"
     inkscape:cy="27.425549"
     inkscape:window-x="51"
     inkscape:window-y="24"
     inkscape:window-maximized="1"
     inkscape:current-layer="Capa_1" /><rect
     style="fill:#ffffff;fill-opacity:0;stroke:none;stroke-width:0.13078445;stroke-miterlimit:4;stroke-dasharray:none;stroke-opacity:1"
     id="rect831"
     width="46.875"
     height="46.875"
     x="0"
     y="0"
     ry="0.16514021" /><g
     id="g3"
     style="fill:#000000;fill-opacity:1"
     transform="matrix(0.14964056,0,0,0.14964056,2.1276166,2.127629)"><g
       id="g5"
       style="fill:#000000;fill-opacity:1"><path
         d="m 255.9,228.08 c -7.725,0 -14.987,-3.014 -20.45,-8.471 l -93.048,-93.054 -93.041,93.048 c -5.456,5.463 -12.719,8.471 -20.45,8.471 -7.731,0 -14.994,-3.008 -20.457,-8.471 -11.273,-11.273 -11.273,-29.621 0,-40.894 L 121.952,65.205 c 5.456,-5.463 12.719,-8.471 20.444,-8.471 7.719,0 14.987,3.008 20.45,8.471 l 113.498,113.504 c 5.469,5.463 8.471,12.719 8.471,20.45 0,7.719 -3.008,14.987 -8.471,20.45 -5.456,5.457 -12.718,8.471 -20.444,8.471 z M 142.403,108.381 244.538,210.523 c 6.073,6.073 16.645,6.073 22.719,0 3.04,-3.04 4.704,-7.076 4.704,-11.363 0,-4.287 -1.671,-8.323 -4.704,-11.363 L 153.47,74.016 c -6.073,-5.797 -16.453,-5.701 -22.423,0.276 L 17.542,187.797 c -6.266,6.266 -6.266,16.459 0,22.719 6.073,6.073 16.658,6.073 22.725,0 z"
         id="path7"
         style="fill:#000000;fill-opacity:1"
         inkscape:connector-curvature="0" /></g></g><g
     id="g9"
     transform="translate(97.478465,-140.56881)"
     style="fill:#000000;fill-opacity:1" /><g
     id="g11"
     transform="translate(97.478465,-140.56881)"
     style="fill:#000000;fill-opacity:1" /><g
     id="g13"
     transform="translate(97.478465,-140.56881)"
     style="fill:#000000;fill-opacity:1" /><g
     id="g15"
     transform="translate(97.478465,-140.56881)"
     style="fill:#000000;fill-opacity:1" /><g
     id="g17"
     transform="translate(97.478465,-140.56881)"
     style="fill:#000000;fill-opacity:1" /><g
     id="g19"
     transform="translate(97.478465,-140.56881)"
     style="fill:#000000;fill-opacity:1" /><g
     id="g21"
     transform="translate(97.478465,-140.56881)"
     style="fill:#000000;fill-opacity:1" /><g
     id="g23"
     transform="translate(97.478465,-140.56881)"
     style="fill:#000000;fill-opacity:1" /><g
     id="g25"
     transform="translate(97.478465,-140.56881)"
     style="fill:#000000;fill-opacity:1" /><g
     id="g27"
     transform="translate(97.478465,-140.56881)"
     style="fill:#000000;fill-opacity:1" /><g
     id="g29"
     transform="translate(97.478465,-140.56881)"
     style="fill:#000000;fill-opacity:1" /><g
     id="g31"
     transform="translate(97.478465,-140.56881)"
     style="fill:#000000;fill-opacity:1" /><g
     id="g33"
     transform="translate(97.478465,-140.56881)"
     style="fill:#000000;fill-opacity:1" /><g
     id="g35"
     transform="translate(97.478465,-140.56881)"
     style="fill:#000000;fill-opacity:1" /><g
     id="g37"
     transform="translate(97.478465,-140.56881)"
     style="fill:#000000;fill-opacity:1" /></svg>