<?xml version="1.0" encoding="UTF-8" standalone="no"?>
<!-- Generator: Adobe Illustrator 19.1.0, SVG Export Plug-In . SVG Version: 6.00 Build 0)  -->

<svg
   xmlns:dc="http://purl.org/dc/elements/1.1/"
   xmlns:cc="http://creativecommons.org/ns#"
   xmlns:rdf="http://www.w3.org/1999/02/22-rdf-syntax-ns#"
   xmlns:svg="http://www.w3.org/2000/svg"
   xmlns="http://www.w3.org/2000/svg"
   xmlns:sodipodi="http://sodipodi.sourceforge.net/DTD/sodipodi-0.dtd"
   xmlns:inkscape="http://www.inkscape.org/namespaces/inkscape"
   version="1.1"
   id="Layer_1"
   x="0px"
   y="0px"
   viewBox="0 0 222.37288 222.37288"
   enable-background="new 0 0 64 64"
   xml:space="preserve"
   inkscape:version="0.91 r13725"
   sodipodi:docname="question.svg"
   width="222.37288"
   height="222.37288"><metadata
     id="metadata44"><rdf:RDF><cc:Work
         rdf:about=""><dc:format>image/svg+xml</dc:format><dc:type
           rdf:resource="http://purl.org/dc/dcmitype/StillImage" /><dc:title></dc:title></cc:Work></rdf:RDF></metadata><defs
     id="defs42" /><sodipodi:namedview
     pagecolor="#ffffff"
     bordercolor="#666666"
     borderopacity="1"
     objecttolerance="10"
     gridtolerance="10"
     guidetolerance="10"
     inkscape:pageopacity="0"
     inkscape:pageshadow="2"
     inkscape:window-width="1315"
     inkscape:window-height="744"
     id="namedview40"
     showgrid="false"
     fit-margin-top="0"
     fit-margin-left="0"
     fit-margin-right="0"
     fit-margin-bottom="0"
     inkscape:showpageshadow="false"
     inkscape:zoom="1.84375"
     inkscape:cx="133.56157"
     inkscape:cy="116.23941"
     inkscape:window-x="51"
     inkscape:window-y="24"
     inkscape:window-maximized="1"
     inkscape:current-layer="Layer_1" /><g
     id="Question-mark"
     transform="matrix(2.9661017,0,0,2.9661017,16.271186,16.271186)"
     style="fill:#ffffff;fill-opacity:1"><circle
       cx="31.978113"
       cy="50.362598"
       r="2"
       id="circle4"
       style="fill:#ffffff;fill-opacity:1" /><path
       d="m 31.533199,13.3799 c -6.268598,0 -10.162086,3.8936 -10.162086,10.1621 0,0.5527 0.447187,1 1,1 0.552686,0 1,-0.4473 1,-1 0,-5.1875 2.974586,-8.1621 8.162086,-8.1621 7.876,0 9.051701,5.6719 9.051701,9.0527 0,3.288099 -2.702099,7.029301 -6.285099,8.7012 -4.055689,1.891598 -3.346687,8.528302 -3.314501,8.809601 0.0577,0.5107 0.490299,0.8867 0.992201,0.8867 0.0381,0 0.0762,-0.002 0.1143,-0.0068 0.548797,-0.0625 0.943313,-0.557701 0.879898,-1.106498 -0.0059,-0.0547 -0.547897,-5.501 2.173801,-6.770501 4.310501,-2.011699 7.4394,-6.433601 7.4394,-10.5137 0,-6.9209 -4.131786,-11.0527 -11.051701,-11.0527 z"
       id="path6"
       inkscape:connector-curvature="0"
       style="fill:#ffffff;fill-opacity:1" /><path
       d="M 32,0 C 14.326901,0 0,14.3269 0,32 0,49.673101 14.3269,64 32,64 49.673101,64 64,49.673099 64,32 64,14.326901 49.673111,0 32,0 Z m 0,62 C 15.457901,62 2,48.542099 2,32 2,15.458 15.457899,2 32,2 48.542,2 62,15.458 62,32 62,48.542099 48.542,62 32,62 Z"
       id="path8"
       inkscape:connector-curvature="0"
       style="fill:#ffffff;fill-opacity:1" /></g><g
     id="g10"
     transform="scale(3.4745763,3.4745763)"
     style="fill:#ffffff;fill-opacity:1" /><g
     id="g12"
     transform="scale(3.4745763,3.4745763)"
     style="fill:#ffffff;fill-opacity:1" /><g
     id="g14"
     transform="scale(3.4745763,3.4745763)"
     style="fill:#ffffff;fill-opacity:1" /><g
     id="g16"
     transform="scale(3.4745763,3.4745763)"
     style="fill:#ffffff;fill-opacity:1" /><g
     id="g18"
     transform="scale(3.4745763,3.4745763)"
     style="fill:#ffffff;fill-opacity:1" /><g
     id="g20"
     transform="scale(3.4745763,3.4745763)"
     style="fill:#ffffff;fill-opacity:1" /><g
     id="g22"
     transform="scale(3.4745763,3.4745763)"
     style="fill:#ffffff;fill-opacity:1" /><g
     id="g24"
     transform="scale(3.4745763,3.4745763)"
     style="fill:#ffffff;fill-opacity:1" /><g
     id="g26"
     transform="scale(3.4745763,3.4745763)"
     style="fill:#ffffff;fill-opacity:1" /><g
     id="g28"
     transform="scale(3.4745763,3.4745763)"
     style="fill:#ffffff;fill-opacity:1" /><g
     id="g30"
     transform="scale(3.4745763,3.4745763)"
     style="fill:#ffffff;fill-opacity:1" /><g
     id="g32"
     transform="scale(3.4745763,3.4745763)"
     style="fill:#ffffff;fill-opacity:1" /><g
     id="g34"
     transform="scale(3.4745763,3.4745763)"
     style="fill:#ffffff;fill-opacity:1" /><g
     id="g36"
     transform="scale(3.4745763,3.4745763)"
     style="fill:#ffffff;fill-opacity:1" /><g
     id="g38"
     transform="scale(3.4745763,3.4745763)"
     style="fill:#ffffff;fill-opacity:1" /></svg>