<?xml version="1.0" encoding="utf-8"?>
<!-- Generator: Adobe Illustrator 15.0.0, SVG Export Plug-In . SVG Version: 6.00 Build 0)  -->
<!DOCTYPE svg PUBLIC "-//W3C//DTD SVG 1.1//EN" "http://www.w3.org/Graphics/SVG/1.1/DTD/svg11.dtd">
<svg version="1.1" id="Layer_1" xmlns="http://www.w3.org/2000/svg" xmlns:xlink="http://www.w3.org/1999/xlink" x="0px" y="0px"
	 width="1440px" height="526.255px" viewBox="0 291.245 1440 526.255" enable-background="new 0 291.245 1440 526.255"
	 xml:space="preserve">
<path fill="#F5F5F5" d="M1382.93,400.314c9.647-6.755,11.992-20.052,5.236-29.699c-6.755-9.647-20.051-11.992-29.698-5.237
	s-11.992,20.052-5.237,29.699C1359.986,404.725,1373.282,407.069,1382.93,400.314z"/>
<path fill="#F5F5F5" d="M1370.05,381.361l105.85-74.116l2.19,3.128l-105.85,74.117L1370.05,381.361z"/>
<path fill="#F5F5F5" d="M99.027,759.005C92.166,742.841,73.5,735.3,57.335,742.161s-23.706,25.526-16.844,41.691
	c6.861,16.164,25.527,23.705,41.691,16.844C98.347,793.835,105.888,775.169,99.027,759.005z"/>
<path fill="#F5F5F5" d="M67.389,771.919L-7.893,594.564l5.242-2.226l75.283,177.355L67.389,771.919z"/>
</svg>
