<?xml version="1.0" encoding="utf-8"?>
<!-- Generator: Adobe Illustrator 15.0.0, SVG Export Plug-In . SVG Version: 6.00 Build 0)  -->
<!DOCTYPE svg PUBLIC "-//W3C//DTD SVG 1.1//EN" "http://www.w3.org/Graphics/SVG/1.1/DTD/svg11.dtd">
<svg version="1.1" id="Layer_1" xmlns="http://www.w3.org/2000/svg" xmlns:xlink="http://www.w3.org/1999/xlink" x="0px" y="0px"
	 width="1440px" height="855px" viewBox="0 0 1440 855" enable-background="new 0 0 1440 855" xml:space="preserve">
<g>
	<path fill="#4EC9E0" stroke="#979797" d="M193.5,658c35.07,0,63.5-28.43,63.5-63.5S228.57,531,193.5,531S130,559.43,130,594.5
		S158.43,658,193.5,658z"/>
	<path fill="#4EC9E0" d="M1305.5,188c8.008,0,14.5-6.492,14.5-14.5s-6.492-14.5-14.5-14.5s-14.5,6.492-14.5,14.5
		S1297.492,188,1305.5,188z"/>
	<path fill="#4EC9E0" d="M1257.5,725c18.502,0,33.5-14.998,33.5-33.5s-14.998-33.5-33.5-33.5s-33.5,14.998-33.5,33.5
		S1238.998,725,1257.5,725z"/>
	<path fill="#4EC9E0" d="M1258,689h203v6h-203V689z"/>
	<path fill="#4EC9E0" d="M-4.757,386l175.164,175.164l-4.243,4.242L-9,390.242L-4.757,386z"/>
	<path fill="#4EC9E0" d="M1311.689,174l224.51,104.69l-1.69,3.625L1310,177.625L1311.689,174z"/>
</g>
</svg>
