<?xml version="1.0" encoding="utf-8"?>
<!-- Generator: Adobe Illustrator 15.0.0, SVG Export Plug-In . SVG Version: 6.00 Build 0)  -->
<!DOCTYPE svg PUBLIC "-//W3C//DTD SVG 1.1//EN" "http://www.w3.org/Graphics/SVG/1.1/DTD/svg11.dtd">
<svg version="1.1" id="Layer_1" xmlns="http://www.w3.org/2000/svg" xmlns:xlink="http://www.w3.org/1999/xlink" x="0px" y="0px"
	 width="1440px" height="113.148px" viewBox="0 0 1440 113.148" enable-background="new 0 0 1440 113.148" xml:space="preserve">
<path fill="#FFFFFF" d="M-27.75,60.051c0,0,14.174-22.247,29.639-22.247c15.465,0,16.912,22.247,31.714,22.247
	c14.802,0,13.685-22.247,28.303-22.247c14.618,0,14.987,22.247,29.829,22.247c14.842,0,14.825-22.247,29.594-22.247
	s14.808,22.247,29.504,22.247s14.532-22.247,29.323-22.247c14.79,0,14.998,22.247,29.742,22.247c14.745,0,14.05-22.247,29.33-22.247
	c15.279,0,16.359,22.247,31.312,22.247c14.952,0,14.278-22.247,29.041-22.247c14.762,0,15.008,22.247,29.828,22.247
	c14.821,0,14.521-22.247,29.521-22.247c15.003,0,15.238,22.247,30.305,22.247c15.063,0,15.274-22.247,30.022-22.247
	c14.749,0,14.405,22.247,29.168,22.247c14.766,0,14.646-22.247,29.752-22.247c15.107,0,15.751,22.247,30.5,22.247
	s14.002-22.247,28.876-22.247s15.179,22.247,30.292,22.247c15.115,0,15.547-22.247,30.192-22.247
	c14.645,0,13.781,22.247,28.727,22.247c14.946,0,15.886-22.247,30.619-22.247c14.734,0,13.978,22.247,28.752,22.247
	c14.776,0,15.228-22.247,30.057-22.247c14.827,0,14.416,22.247,29.407,22.247c14.993,0,15.586-22.247,30.345-22.247
	c14.758,0,14.082,22.247,29,22.247c14.919,0,15.391-22.247,30.356-22.247c14.969,0,14.818,22.247,29.674,22.247
	c14.856,0,14.809-22.247,29.736-22.247c14.93,0,15.119,22.247,29.937,22.247c14.813,0,14.566-22.247,29.439-22.247
	c14.872,0,14.938,22.247,29.933,22.247c15,0,15.24-22.247,30.041-22.247s14.479,22.247,29.329,22.247
	c14.841,0,15.15-22.247,29.921-22.247c14.779,0,14.529,22.247,29.311,22.247c14.79,0,14.67-22.247,29.74-22.247
	c15.06,0,15.55,22.247,30.37,22.247c14.818,0,14.31-22.247,29.18-22.247c14.88,0,15.29,22.247,30.1,22.247
	c14.802,0,14.4-22.247,29.312-22.247c14.92,0,15.229,22.247,30.16,22.247c14.938,0,15-22.247,29.688-22.247
	c14.7,0,14.33,22.247,29.21,22.247c14.891,0,15.12-22.247,30.12-22.247c15.01,0,15.23,22.247,29.95,22.247
	s14.079-22.247,29.119-22.247c15.039,0,30.68,22.247,30.68,22.247v55.098H-25.692L-27.75,60.051z"/>
</svg>
