<?xml version="1.0" encoding="UTF-8"?>
<svg width="182px" height="29px" viewBox="0 0 182 29" version="1.1" xmlns="http://www.w3.org/2000/svg" xmlns:xlink="http://www.w3.org/1999/xlink">
    <!-- Generator: Sketch 50 (54983) - http://www.bohemiancoding.com/sketch -->
    <title>Group 24</title>
    <desc>Created with Sketch.</desc>
    <defs></defs>
    <g id="Page-1" stroke="none" stroke-width="1" fill="none" fill-rule="evenodd">
        <g id="1" transform="translate(-629.000000, -320.000000)">
            <g id="CASE-STUDIES" transform="translate(0.000000, 320.000000)">
                <g id="Group-24" transform="translate(629.000000, 0.000000)">
                    <path d="M0.5,16 L59.0341781,16" id="Line-Copy-3" stroke="#FFFFFF" stroke-linecap="square"></path>
                    <path d="M122.5,16 L181.034178,16" id="Line-Copy-4" stroke="#FFFFFF" stroke-linecap="square"></path>
                    <g id="Group" transform="translate(75.000000, 0.000000)" fill="#FFFFFF">
                        <path d="M22,19.5 C22,19.7759051 21.7759051,20 21.5,20 C21.2247191,20 21,19.7759051 21,19.5 C21,19.2247191 21.2247191,19 21.5,19 C21.7759051,19 22,19.2247191 22,19.5 Z" id="Fill-1"></path>
                        <path d="M24,28.5 C24,28.7752809 23.7752809,29 23.5,29 C23.2240949,29 23,28.7752809 23,28.5 C23,28.2240949 23.2240949,28 23.5,28 C23.7752809,28 24,28.2240949 24,28.5 Z" id="Fill-2"></path>
                        <path d="M11,24.4984346 C11,24.7777082 10.7752809,25 10.5,25 C10.2240949,25 10,24.7777082 10,24.4984346 C10,24.2222918 10.2240949,24 10.5,24 C10.7752809,24 11,24.2222918 11,24.4984346 Z" id="Fill-3"></path>
                        <path d="M19,21.5015654 C19,21.7777082 18.7777082,22 18.5015654,22 C18.2222918,22 18,21.7777082 18,21.5015654 C18,21.2222918 18.2222918,21 18.5015654,21 C18.7777082,21 19,21.2222918 19,21.5015654 Z" id="Fill-4"></path>
                        <path d="M27,23.5015654 C27,23.7777082 26.7777082,24 26.5015654,24 C26.2222918,24 26,23.7777082 26,23.5015654 C26,23.2222918 26.2222918,23 26.5015654,23 C26.7777082,23 27,23.2222918 27,23.5015654 Z" id="Fill-5"></path>
                        <path d="M8,28.5 C8,28.7752809 7.7752809,29 7.5,29 C7.2247191,29 7,28.7752809 7,28.5 C7,28.2240949 7.2247191,28 7.5,28 C7.7752809,28 8,28.2240949 8,28.5 Z" id="Fill-6"></path>
                        <path d="M8.37085281,6.43464779 C6.4577427,4.52055807 3.34748295,4.52301046 1.43682476,6.43464779 C0.509999234,7.36103779 0,8.59213714 0,9.90232604 C0,11.2119018 0.509999234,12.4454536 1.43682476,13.3700043 L9.06535898,21 L16,14.0646435 L8.37085281,6.43464779 Z M2.12887901,12.6778175 C1.38901234,11.9353566 0.981993717,10.9513355 0.981993717,9.90232604 C0.981993717,8.85331659 1.38901234,7.86868234 2.12887901,7.12867392 C2.89510382,6.36230232 3.89793886,5.97911651 4.90383879,5.97911651 C5.90973872,5.97911651 6.91257375,6.36230232 7.67879856,7.12867392 L14.6134396,14.0646435 L9.06535898,19.613787 L2.12887901,12.6778175 Z" id="Fill-7"></path>
                        <path d="M28.5631752,1.43682476 C27.6369627,0.509999234 26.4060991,0 25.0961612,0 C23.7862233,0 22.5553597,0.509999234 21.6291472,1.43682476 L14,9.06535898 L20.934641,16 L28.5631752,8.37085281 C29.4900008,7.44464026 30,6.21377672 30,4.90383879 C30,3.59390085 29.4900008,2.36303732 28.5631752,1.43682476 Z M27.871121,7.67879856 L20.934641,14.6134396 L15.3865604,9.06535898 L22.3212014,2.12887901 C23.06352,1.38901234 24.0473527,0.981993717 25.0961612,0.981993717 C26.1449697,0.981993717 27.1288024,1.38901234 27.871121,2.12887901 C28.6109877,2.87119761 29.0180063,3.85503027 29.0180063,4.90383879 C29.0180063,5.95264731 28.6109877,6.93647996 27.871121,7.67879856 Z" id="Fill-8"></path>
                        <path d="M20,18 C20,16.895905 19.1034698,16 18,16 C16.895905,16 16,16.895905 16,18 C16,19.104095 16.895905,20 18,20 C19.1034698,20 20,19.104095 20,18 Z M16.998437,18 C16.998437,17.4479525 17.4479525,16.998437 18,16.998437 C18.5520475,16.998437 18.998437,17.4479525 18.998437,18 C18.998437,18.5520475 18.5520475,19.001563 18,19.001563 C17.4479525,19.001563 16.998437,18.5520475 16.998437,18 Z" id="Fill-9"></path>
                        <path d="M15,20 C13.8965302,20 13,20.8983289 13,21.9984382 C13,23.1016711 13.8965302,24 15,24 C16.104095,24 17,23.1016711 17,21.9984382 C17,20.8983289 16.104095,20 15,20 Z M15,22.9992191 C14.4479525,22.9992191 14.001563,22.5500547 14.001563,21.9984382 C14.001563,21.4499453 14.4479525,21.0007809 15,21.0007809 C15.5520475,21.0007809 16.001563,21.4499453 16.001563,21.9984382 C16.001563,22.5500547 15.5520475,22.9992191 15,22.9992191 Z" id="Fill-10"></path>
                        <path d="M19,23 C17.8965302,23 17,23.8965302 17,25 C17,26.104095 17.8965302,27 19,27 C20.104095,27 21,26.104095 21,25 C21,23.8965302 20.104095,23 19,23 Z M19,26.001563 C18.4479525,26.001563 18.001563,25.5520475 18.001563,25 C18.001563,24.4479525 18.4479525,24.001563 19,24.001563 C19.5520475,24.001563 20.001563,24.4479525 20.001563,25 C20.001563,25.5520475 19.5520475,26.001563 19,26.001563 Z" id="Fill-11"></path>
                        <path d="M15,25 C13.8965302,25 13,25.8965302 13,27 C13,28.104095 13.8965302,29 15,29 C16.104095,29 17,28.104095 17,27 C17,25.8965302 16.104095,25 15,25 Z M15,28.001563 C14.4479525,28.001563 14.001563,27.5520475 14.001563,27 C14.001563,26.4479525 14.4479525,26.001563 15,26.001563 C15.5520475,26.001563 16.001563,26.4479525 16.001563,27 C16.001563,27.5520475 15.5520475,28.001563 15,28.001563 Z" id="Fill-12"></path>
                    </g>
                </g>
            </g>
        </g>
    </g>
</svg>