<svg width="137" height="34" viewBox="0 0 137 34" version="1.1" xmlns="http://www.w3.org/2000/svg" xmlns:xlink="http://www.w3.org/1999/xlink">
<title>Logo</title>
<desc>Created using Figma</desc>
<g id="Canvas" transform="translate(-517 -183)">
<g id="Logo">
<g id="Fill 1">
<use xlink:href="#path0_fill" transform="translate(558.722 193.167)" fill="#3B7DF8"/>
</g>
<g id="Fill 3">
<use xlink:href="#path1_fill" transform="translate(569.115 193.167)" fill="#3B7DF8"/>
</g>
<g id="Fill 5">
<use xlink:href="#path2_fill" transform="translate(541.566 193.025)" fill="#3B7DF8"/>
</g>
<g id="Fill 7">
<use xlink:href="#path3_fill" transform="translate(553.546 193.237)" fill="#3B7DF8"/>
</g>
<g id="Fill 9">
<use xlink:href="#path4_fill" transform="translate(553.076 185.338)" fill="#34D66A"/>
</g>
<g id="Fill 11">
<use xlink:href="#path5_fill" transform="translate(521.985 184.098)" fill="#3B7DF8"/>
</g>
<g id="Fill 13">
<use xlink:href="#path6_fill" transform="translate(575.296 193.025)" fill="#3B7DF8"/>
</g>
<g id="Fill 15">
<use xlink:href="#path7_fill" transform="translate(626.449 193.025)" fill="#3B7DF8"/>
</g>
<g id="Fill 17">
<use xlink:href="#path8_fill" transform="translate(592.237 183)" fill="#3B7DF8"/>
</g>
<g id="Fill 19">
<use xlink:href="#path9_fill" transform="translate(609.818 193.025)" fill="#3B7DF8"/>
</g>
<g id="Fill 21">
<use xlink:href="#path10_fill" transform="translate(640.989 185.303)" fill="#3B7DF8"/>
</g>
<g id="Fill 23">
<use xlink:href="#path11_fill" transform="translate(562.482 197.648)" fill="#3B7DF8"/>
</g>
<g id="Fill 25">
<use xlink:href="#path12_fill" transform="translate(611.854 197.648)" fill="#3B7DF8"/>
</g>
<g id="Group 29">
<mask id="mask0_outline" mask-type="alpha">
<g id="Clip 28">
<use xlink:href="#path13_fill" transform="translate(517 197.648)" fill="#FFFFFF"/>
</g>
</mask>
<g id="Fill 27" mask="url(#mask0_outline)">
<use xlink:href="#path14_fill" transform="translate(517 197.648)" fill="#3B7DF8"/>
</g>
</g>
<g id="Fill 30">
<use xlink:href="#path15_fill" transform="translate(577.362 197.648)" fill="#3B7DF8"/>
</g>
<g id="Fill 32">
<use xlink:href="#path16_fill" transform="translate(524.374 197.648)" fill="#3B7DF8"/>
</g>
</g>
</g>
<defs>
<path id="path0_fill" fill-rule="evenodd" d="M 2.28054 0.53118C 2.13561 0.17706 1.8462 0 1.41141 0C 1.07353 0 0.754161 0.106325 0.452849 0.31853C 0.150656 0.53118 0 0.77942 0 1.0628C 0 1.27501 0.0484566 1.45207 0.144929 1.59398L 1.27044 4.48122L 3.76023 4.48122L 2.28054 0.53118Z"/>
<path id="path1_fill" fill-rule="evenodd" d="M 3.57786 1.59398C 3.67433 1.40536 3.72279 1.21629 3.72279 1.02721C 3.72279 0.767408 3.55363 0.53118 3.2162 0.31853C 2.87788 0.106325 2.56468 0 2.27482 0C 1.91315 0 1.63563 0.224661 1.44224 0.673095L 0 4.48122L 2.45234 4.48122L 3.57786 1.59398Z"/>
<path id="path2_fill" fill-rule="evenodd" d="M 3.80032 3.59236C 4.76504 2.6381 5.87558 2.1612 7.13061 2.1612L 8.39753 2.1612C 8.63805 2.1612 8.85566 2.05309 9.04861 1.83733C 9.24155 1.62112 9.33803 1.36888 9.33803 1.0806C 9.33803 0.792766 9.24155 0.540522 9.04861 0.324313C 8.85566 0.108549 8.63805 0 8.39753 0L 7.13061 0C 6.02007 0 5.04301 0.275377 4.19854 0.824797C 3.35364 1.37511 2.71489 2.0442 2.28054 2.83251L 2.28054 1.07393C 2.28054 0.834584 2.17218 0.631721 1.955 0.464004C 1.73739 0.296731 1.47176 0.21265 1.15855 0.21265C 0.819797 0.21265 0.543154 0.295841 0.32554 0.460445C 0.108807 0.626383 0 0.827021 0 1.0628L 0 4.62313L 3.01488 4.62313C 3.22677 4.24988 3.48535 3.90422 3.80032 3.59236"/>
<path id="path3_fill" fill-rule="evenodd" d="M 2.35279 0.850155C 2.35279 0.614371 2.23781 0.413733 2.00919 0.247795C 1.77924 0.0831915 1.49599 0 1.15855 0C 0.820238 0 0.543595 0.0831915 0.325981 0.247795C 0.108807 0.413733 0 0.614371 0 0.850155L 0 4.41048L 2.35279 4.41048L 2.35279 0.850155Z"/>
<path id="path4_fill" fill-rule="evenodd" d="M 1.62858 2.94017C 2.06249 2.94017 2.43032 2.79292 2.73251 2.49752C 3.03382 2.20213 3.18492 1.85424 3.18492 1.45251C 3.18492 1.05079 3.03382 0.70824 2.73251 0.4253C 2.43032 0.14147 2.06249 0 1.62858 0C 1.16957 0 0.783675 0.14147 0.470029 0.4253C 0.156383 0.70824 0 1.05079 0 1.45251C 0 1.85424 0.156383 2.20213 0.470029 2.49752C 0.783675 2.79292 1.16957 2.94017 1.62858 2.94017"/>
<path id="path5_fill" fill-rule="evenodd" d="M 2.38891 2.16075L 7.49271 2.16075C 9.13319 2.16075 10.4058 2.60963 11.3111 3.5065C 12.2159 4.40426 12.6683 5.75045 12.6683 7.54507L 12.6683 13.5495L 15.0568 13.5495L 15.0568 7.54507C 15.0568 4.94745 14.3691 3.04072 12.9939 1.82443C 11.6186 0.608143 9.78427 0 7.49271 0L 1.08587 0C 0.772222 0 0.512318 0.0827466 0.30792 0.247795C 0.10264 0.413288 0 0.613927 0 0.850155L 0 13.5495L 2.38891 13.5495L 2.38891 2.16075Z"/>
<path id="path6_fill" fill-rule="evenodd" d="M 3.38668 3.216C 4.26726 2.37162 5.33507 1.94855 6.58966 1.94855C 7.8927 1.94855 8.97284 2.39476 9.8292 3.28629C 10.2274 3.70135 10.5292 4.14756 10.7419 4.62313L 13.141 4.62313C 12.8353 3.56834 12.2534 2.64122 11.3855 1.84445C 10.0464 0.615261 8.45964 0 6.62622 0C 4.71967 0 3.09109 0.643733 1.74003 1.93075C 0.896887 2.7342 0.31673 3.63151 0 4.62313L 2.38935 4.62313C 2.60961 4.11242 2.94132 3.64308 3.38668 3.216"/>
<path id="path7_fill" fill-rule="evenodd" d="M 3.03118 2.78135C 3.6338 2.22615 4.53906 1.9481 5.74563 1.9481C 6.5901 1.9481 7.42267 2.11404 8.24291 2.44414C 9.0627 2.77513 9.50983 2.94017 9.58207 2.94017C 9.8477 2.94017 10.0763 2.7987 10.2702 2.51487C 10.4627 2.23193 10.5596 1.97213 10.5596 1.7359C 10.5596 1.3106 10.0464 0.915551 9.0213 0.548975C 7.99534 0.183288 6.89141 0 5.70951 0C 3.80296 0 2.37349 0.47824 1.42066 1.43472C 0.515402 2.34271 0.0458135 3.40685 0 4.62313L 2.12768 4.62313C 2.13738 3.94159 2.43693 3.3281 3.03118 2.78135"/>
<path id="path8_fill" fill-rule="evenodd" d="M 3.67389 13.4227C 4.55448 12.5979 5.5615 12.1856 6.69582 12.1856C 7.90239 12.1856 8.95169 12.6451 9.84506 13.5638C 10.1798 13.9085 10.4521 14.2698 10.6609 14.6475L 13.2463 14.6475C 12.9458 13.6594 12.4111 12.767 11.6366 11.9729C 10.3697 10.6748 8.86756 10.0248 7.13061 10.0248C 6.02007 10.0248 5.04918 10.2882 4.2166 10.814C 3.38447 11.3403 2.76291 11.9862 2.35279 12.7514L 2.35279 0.850155C 2.35279 0.613927 2.23781 0.413288 2.00919 0.247795C 1.77924 0.0827466 1.49599 0 1.15811 0C 0.819797 0 0.543154 0.0827466 0.325981 0.247795C 0.108807 0.412843 0 0.613037 0 0.84882L 0 14.6475L 2.78009 14.6475C 2.99638 14.1915 3.29108 13.7813 3.67389 13.4227"/>
<path id="path9_fill" fill-rule="evenodd" d="M 3.35716 3.53497C 4.23775 2.61897 5.29366 2.16075 6.52402 2.16075C 7.75438 2.16075 8.82262 2.61897 9.72744 3.53497C 10.0688 3.88064 10.3455 4.24366 10.5583 4.62269L 13.1242 4.62269C 12.7978 3.63418 12.215 2.74265 11.3741 1.9481C 9.9988 0.649961 8.38211 0 6.52402 0C 4.66593 0 3.06158 0.6553 1.71052 1.9659C 0.889399 2.76178 0.322016 3.64841 0 4.62269L 2.54838 4.62269C 2.75542 4.24366 3.02457 3.88064 3.35716 3.53497"/>
<path id="path10_fill" fill-rule="evenodd" d="M 2.35279 9.88333L 7.0218 9.88333C 7.26276 9.88333 7.46187 9.78768 7.61914 9.59505C 7.77596 9.40242 7.85393 9.17375 7.85393 8.90905C 7.85393 8.64435 7.77596 8.41658 7.61914 8.22395C 7.46187 8.03132 7.26276 7.93522 7.0218 7.93522L 2.35279 7.93522L 2.35279 0.846151C 2.35279 0.611702 2.23165 0.411509 1.99068 0.246905C 1.74928 0.0823017 1.47176 0 1.15855 0C 0.868694 0 0.603064 0.0831915 0.362103 0.247795C 0.120701 0.412843 0 0.613482 0 0.84882L 0 12.3453L 2.35279 12.3453L 2.35279 9.88333Z"/>
<path id="path11_fill" fill-rule="evenodd" d="M 6.63283 0L 0 0L 3.29769 8.80273L 6.63283 0Z"/>
<path id="path12_fill" fill-rule="evenodd" d="M 0 2.01217L 0 5.85188C 0 7.05037 0.440074 8.11273 1.3211 9.04029C 2.20169 9.9683 3.2576 10.4319 4.48796 10.4319C 5.74255 10.4319 6.81652 9.9683 7.70944 9.04029C 8.60149 8.11273 9.04861 7.05037 9.04861 5.85188L 9.04861 2.01217C 9.04861 1.29592 8.87284 0.625048 8.52219 0L 0.512318 0C 0.17092 0.625048 0 1.29592 0 2.01217"/>
<path id="path13_fill" fill-rule="evenodd" d="M 136.829 19.3204L 0 19.3204L 0 0L 136.829 3.16102e-15L 136.829 19.3204Z"/>
<path id="path14_fill" fill-rule="evenodd" d="M 126.342 0L 126.342 7.09308C 126.342 8.24085 126.589 9.04296 127.084 9.49985C 127.579 9.95629 128.453 10.1845 129.709 10.1845L 130.721 10.1845C 131.035 10.1845 131.294 10.2882 131.499 10.4955C 131.71 10.7077 131.821 11.0093 131.805 11.3087C 131.792 11.5761 131.69 11.8119 131.5 12.0156C 131.294 12.2354 131.035 12.3453 130.721 12.3453L 129.709 12.3453C 125.895 12.3453 123.989 10.612 123.989 7.14513L 123.989 0L 111.577 0C 111.576 0.000444874 111.576 0.000889749 111.576 0.00133462C 111.566 0.733153 111.879 1.3106 112.513 1.73279C 113.139 2.14919 113.888 2.48373 114.758 2.73598C 115.628 2.98822 116.509 3.24358 117.403 3.5025C 118.297 3.76141 119.045 4.2748 119.648 5.04265C 120.25 5.81095 120.551 6.80435 120.551 8.02331C 120.551 9.44023 120.038 10.5564 119.013 11.371C 117.987 12.186 116.557 12.5931 114.724 12.5931C 113.132 12.5931 111.786 12.3159 110.689 11.7607C 109.59 11.2059 109.042 10.6329 109.042 10.0426C 109.042 9.80681 109.126 9.57058 109.295 9.33391C 109.464 9.09857 109.657 8.97979 109.874 8.97979C 110.043 8.97979 110.309 9.11592 110.67 9.38729C 111.032 9.65911 111.551 9.93627 112.227 10.2197C 112.902 10.503 113.71 10.645 114.652 10.645C 115.93 10.645 116.872 10.4087 117.475 9.93627C 118.078 9.46426 118.38 8.8619 118.38 8.12963C 118.38 7.27948 118.072 6.60015 117.457 6.09211C 116.842 5.58451 116.099 5.20147 115.23 4.94389C 114.362 4.68586 113.487 4.42561 112.606 4.16447C 111.725 3.90288 110.978 3.44822 110.363 2.7987C 109.748 2.14919 109.44 1.28124 109.44 0.19441C 109.44 0.129014 109.447 0.0649516 109.449 0L 105.942 0C 106.15 0.628163 106.255 1.29503 106.255 2.00149L 106.255 5.86255C 106.255 7.6336 105.561 9.19867 104.174 10.5564C 102.786 11.9146 101.176 12.5931 99.3422 12.5931C 97.5325 12.5931 95.9396 11.9146 94.5644 10.5564C 93.1891 9.19867 92.5014 7.6336 92.5014 5.86255L 92.5014 2.00149C 92.5014 1.29636 92.6098 0.630387 92.8177 0L 88.4839 0C 88.6751 0.628163 88.7738 1.29458 88.7738 2.00149L 88.7738 11.4239C 88.7738 11.6646 88.6751 11.8995 88.4905 12.0508C 88.2817 12.2216 88.0249 12.3181 87.7192 12.3404C 87.4818 12.3573 87.2404 12.3181 87.021 12.2251C 86.621 12.0561 86.4214 11.7901 86.4214 11.4262L 86.4214 2.0264C 86.4214 1.30482 86.2466 0.629497 85.8981 0L 78.0173 0C 77.7358 0.593462 77.59 1.267 77.59 2.0264L 77.59 11.4262C 77.59 11.6619 77.4693 11.8741 77.2284 12.0623C 76.9865 12.2509 76.709 12.3453 76.3953 12.3453C 76.0817 12.3453 75.8103 12.2509 75.5813 12.0623C 75.3518 11.8732 75.2372 11.661 75.2372 11.4253L 75.2372 0L 71.4369 0C 71.603 0.572998 71.6911 1.18203 71.6911 1.83155C 71.6911 2.4913 71.6122 3.02114 71.4554 3.42153C 71.2986 3.82236 71.0449 4.10485 70.6955 4.26946C 70.3453 4.43451 70.0255 4.54083 69.7361 4.58799C 69.4471 4.6347 69.0484 4.65828 68.5418 4.65828L 60.3624 4.65828L 60.3624 5.96888C 60.3624 7.36267 60.8747 8.47841 61.9002 9.31611C 62.9257 10.1551 64.2468 10.5738 65.8635 10.5738C 66.6833 10.5738 67.4018 10.4559 68.0172 10.2197C 68.6322 9.98387 69.1031 9.74764 69.4286 9.51097C 69.7541 9.27563 70.0136 9.15685 70.2066 9.15685C 70.4722 9.15685 70.7074 9.28097 70.9127 9.52876C 71.1175 9.777 71.2202 10.0195 71.2202 10.2552C 71.2202 10.7513 70.7008 11.2647 69.6638 11.7963C 68.626 12.3275 67.3353 12.5931 65.7913 12.5931C 63.4984 12.5931 61.6289 11.9733 60.1813 10.733C 58.7329 9.49362 58.0096 7.86983 58.0096 5.86255L 58.0096 1.89516C 58.0096 1.22919 58.1052 0.597466 58.2959 0L 54.5674 0L 49.8658 12.0614C 49.7209 12.4391 49.3592 12.6286 48.7799 12.6286C 48.2007 12.6286 47.839 12.4391 47.6945 12.0614L 42.9925 0L 38.8992 0L 38.8992 11.4239C 38.8992 11.6602 38.7785 11.8728 38.5375 12.0614C 38.2961 12.2509 38.0182 12.3453 37.705 12.3453C 37.3909 12.3453 37.1195 12.2509 36.8904 12.0614C 36.6609 11.8728 36.5464 11.6602 36.5464 11.4239L 36.5464 0L 27.5815 0C 27.1436 0.769188 26.9194 1.66694 26.9194 2.69772L 26.9194 11.4262C 26.9194 11.6619 26.8044 11.8741 26.5754 12.0623C 26.3458 12.2509 26.0622 12.3453 25.7252 12.3453C 25.4111 12.3453 25.1397 12.2509 24.9107 12.0614C 24.6811 11.8728 24.5666 11.6602 24.5666 11.4239L 24.5666 0L 20.0421 0L 20.0421 4.76416C 20.0421 7.3858 19.3549 9.30499 17.9796 10.5208C 16.6043 11.7376 14.77 12.3453 12.4785 12.3453L 6.07161 12.3453C 5.75796 12.3453 5.49806 12.2567 5.29366 12.0792C 5.08794 11.9022 4.98574 11.6957 4.98574 11.4595L 4.98574 0L 2.91709 0C 1.30613 0 0 1.31905 0 2.94596L 0 15.3019C 0 17.5209 1.78188 19.3204 3.97961 19.3204L 132.849 19.3204C 135.048 19.3204 136.829 17.5209 136.829 15.3019L 136.829 2.94596C 136.829 1.31905 135.523 0 133.912 0L 126.342 0Z"/>
<path id="path15_fill" fill-rule="evenodd" d="M 0 1.62023L 0 2.95797L 7.23853 2.95797C 7.9623 2.95797 8.4451 2.8819 8.6865 2.7293C 8.92747 2.57627 9.04817 2.25373 9.04817 1.76126C 9.04817 1.13354 8.92174 0.547195 8.67593 0L 0.323338 0C 0.108367 0.500039 0 1.03967 0 1.62023"/>
<path id="path16_fill" fill-rule="evenodd" d="M 0 10.1845L 5.1038 10.1845C 6.74428 10.1845 8.01692 9.73029 8.92218 8.82052C 9.827 7.91164 10.2794 6.55967 10.2794 4.7646L 10.2794 0L 0 0L 0 10.1845Z"/>
</defs>
</svg>
