<svg xmlns="http://www.w3.org/2000/svg" viewBox="0 0 447.25 214.41"><defs><style>.cls-1,.cls-6{fill:#d4eaff;}.cls-1{opacity:0.16;}.cls-2{fill:#abc4ff;}.cls-3{fill:#69a0fa;}.cls-10,.cls-18,.cls-4,.cls-5{fill:none;stroke-miterlimit:10;stroke-width:2px;}.cls-10,.cls-4,.cls-5{stroke:#4488f9;}.cls-5{stroke-dasharray:2;}.cls-17,.cls-7{fill:#414042;}.cls-7{opacity:0.3;}.cls-16,.cls-8{fill:#fff;}.cls-11,.cls-9{fill:#4488f9;}.cls-10{stroke-dasharray:1.99 1.99;}.cls-11{opacity:0.5;}.cls-12{fill:#fffffe;}.cls-13{fill:#dae7fe;}.cls-14{fill:#eef7ff;}.cls-15{fill:#f6fbff;}.cls-16,.cls-17{opacity:0.2;}.cls-18{stroke:#fff;}</style></defs><title>line</title><g id="Layer_2" data-name="Layer 2"><g id="Graphics"><g id="line"><path class="cls-1" d="M344.33,212.86a124.87,124.87,0,0,0-249.73,0Z"/><circle class="cls-1" cx="398.95" cy="147.25" r="9.79"/><circle class="cls-1" cx="257.01" cy="25.14" r="15.08" transform="translate(9.66 99.33) rotate(-22.28)"/><path class="cls-1" d="M119.29,62a6.46,6.46,0,1,1-6.46-6.46A6.46,6.46,0,0,1,119.29,62Z"/><circle class="cls-1" cx="316.3" cy="50.15" r="6.46"/><path class="cls-1" d="M180.3,6.46A6.46,6.46,0,1,1,173.84,0,6.46,6.46,0,0,1,180.3,6.46Z"/><circle class="cls-1" cx="395.41" cy="170.93" r="2.65"/><path class="cls-1" d="M315.24,4.47a2,2,0,1,1-2-2A2,2,0,0,1,315.24,4.47Z"/><circle class="cls-1" cx="115.39" cy="14.39" r="2.59"/><circle class="cls-1" cx="6.81" cy="72.25" r="3.45"/><path class="cls-1" d="M425.15,97.5a3.45,3.45,0,1,1-3.45-3.44A3.44,3.44,0,0,1,425.15,97.5Z"/><circle class="cls-1" cx="62.18" cy="58.31" r="14.61" transform="translate(-5.4 110.25) rotate(-80.7)"/><circle class="cls-1" cx="19.16" cy="164.87" r="3.45"/><circle class="cls-1" cx="389.16" cy="61.99" r="14.17"/><circle class="cls-1" cx="19.16" cy="126" r="13.92"/><path class="cls-1" d="M391.36,212.86A171.22,171.22,0,0,0,376.56,143a54.21,54.21,0,0,0-64.91-75.25A171.07,171.07,0,0,0,219.47,41q-6.34,0-12.57.46a44.26,44.26,0,0,0-68,19.56A172.24,172.24,0,0,0,103.07,86.4a49.07,49.07,0,0,0-48.84,78.95,172,172,0,0,0-6.65,47.51Z"/><g id="_Group_" data-name="&lt;Group&gt;"><circle id="_Path_" data-name="&lt;Path&gt;" class="cls-2" cx="131.13" cy="95.95" r="11.44"/><rect id="_Rectangle_" data-name="&lt;Rectangle&gt;" class="cls-3" x="129.63" y="117.91" width="4.62" height="30.34" rx="0.18" ry="0.18"/><line id="_Path_2" data-name="&lt;Path&gt;" class="cls-4" x1="131.94" y1="114.26" x2="131.94" y2="117.91"/><circle id="_Path_3" data-name="&lt;Path&gt;" class="cls-4" cx="131.25" cy="96.15" r="18.58" transform="translate(-26.99 58.3) rotate(-22.77)"/><path id="_Path_4" data-name="&lt;Path&gt;" class="cls-5" d="M114.67,112.94a24.42,24.42,0,1,1,34.54,0"/><g id="_Group_2" data-name="&lt;Group&gt;"><path id="_Path_5" data-name="&lt;Path&gt;" class="cls-4" d="M145.29,96.15a14,14,0,1,1-14-14A14,14,0,0,1,145.29,96.15Z"/><path id="_Path_6" data-name="&lt;Path&gt;" class="cls-4" d="M136.18,83a26.81,26.81,0,0,1-.06,26.31"/><path id="_Path_7" data-name="&lt;Path&gt;" class="cls-4" d="M126.68,83a26.74,26.74,0,0,0,.06,26.31"/><line id="_Path_8" data-name="&lt;Path&gt;" class="cls-4" x1="131.25" y1="82.12" x2="131.25" y2="110.19"/><line id="_Path_9" data-name="&lt;Path&gt;" class="cls-4" x1="117.21" y1="96.15" x2="145.29" y2="96.15"/><line id="_Path_10" data-name="&lt;Path&gt;" class="cls-4" x1="119.37" y1="89.48" x2="143.61" y2="89.48"/><line id="_Path_11" data-name="&lt;Path&gt;" class="cls-4" x1="118.9" y1="102.82" x2="143.36" y2="102.82"/></g></g><g id="_Group_3" data-name="&lt;Group&gt;"><g id="_Group_4" data-name="&lt;Group&gt;"><path id="_Path_12" data-name="&lt;Path&gt;" class="cls-3" d="M325,91.23V86.79l-3.72-1a13.89,13.89,0,0,0-1.73-4.18L321.76,78l-3.14-3.14L315,77a14.28,14.28,0,0,0-4.18-1.74l-1-4h-4.43l-1,4A14.06,14.06,0,0,0,300.16,77l-3.52-2.1L293.49,78l2.08,3.54A14,14,0,0,0,294,85.15a14,14,0,0,1,4.32-.69,14.41,14.41,0,0,1,2.64.26,7.77,7.77,0,1,1,11,10.65,13.8,13.8,0,0,1-.22,7.09A13.83,13.83,0,0,0,315,101l3.67,2.15,3.14-3.13-2.23-3.6a13.8,13.8,0,0,0,1.74-4.18Z"/></g><line id="_Path_13" data-name="&lt;Path&gt;" class="cls-4" x1="298.13" y1="112.76" x2="298.13" y2="115.62"/><circle id="_Path_14" data-name="&lt;Path&gt;" class="cls-4" cx="298.13" cy="98.23" r="14.02" transform="translate(37.64 273.38) rotate(-52.15)"/><path id="_Path_15" data-name="&lt;Path&gt;" class="cls-4" d="M288.85,94.49a10.28,10.28,0,0,1,9.47-6.28"/><g id="_Group_5" data-name="&lt;Group&gt;"><rect id="_Rectangle_2" data-name="&lt;Rectangle&gt;" class="cls-6" x="301.96" y="93.45" width="5.31" height="9.94" rx="1.02" ry="1.02"/><line id="_Path_16" data-name="&lt;Path&gt;" class="cls-4" x1="286.28" y1="98.42" x2="301.96" y2="98.42"/><line id="_Path_17" data-name="&lt;Path&gt;" class="cls-4" x1="289.23" y1="98.42" x2="289.23" y2="103.51"/><line id="_Path_18" data-name="&lt;Path&gt;" class="cls-4" x1="292.96" y1="98.42" x2="292.96" y2="102.46"/><path id="_Path_19" data-name="&lt;Path&gt;" class="cls-4" d="M307.27,95.88a2.55,2.55,0,1,1,0,5.09"/><line id="_Path_20" data-name="&lt;Path&gt;" class="cls-4" x1="303.73" y1="98.42" x2="305.51" y2="98.42"/></g><path class="cls-3" d="M299.94,163.3h-3.61l.06-48.08H300Z"/></g><g id="_Group_6" data-name="&lt;Group&gt;"><path id="_Compound_Path_" data-name="&lt;Compound Path&gt;" class="cls-2" d="M410.87,143.41l3.85-3.84-2.35-4.1a17.18,17.18,0,0,0,2.13-5.14l5.06-1.21v-5.45l-5.07-1.28a17,17,0,0,0-2.12-5.14l2.61-4.38L411.14,109l-4.38,2.61a17,17,0,0,0-5.09-2.11l-1.24-4.88H395l-1.26,4.87a17.28,17.28,0,0,0-5.14,2.11l-4.24-2.21-3.86,3.84,2.47,4a17.41,17.41,0,0,0-2.14,5.13l-4.9,1v5.44l4.9,1.47a17.09,17.09,0,0,0,2.12,5.13L380.12,140,384,143.9l4.58-2.84a17,17,0,0,0,5.13,2.13l1.32,5.06h5.44l1.19-5.05a17.09,17.09,0,0,0,5.13-2.12Zm-21.95-8.58a12.07,12.07,0,1,1,17.07,0A12.08,12.08,0,0,1,388.92,134.83Z"/><path id="_Path_21" data-name="&lt;Path&gt;" class="cls-7" d="M399.12,147.51l.09-9.29a12.06,12.06,0,0,1-6.28-.74l-.06,5.49c.27.08.53.16.8.22l1.16,4.45Z"/><g id="_Group_7" data-name="&lt;Group&gt;"><path id="_Path_22" data-name="&lt;Path&gt;" class="cls-6" d="M394.24,213.63h6.29l.17-81.43,4.3-2.11.06-.09v-6.69l-.3-.52-3.42-2.71a.17.17,0,0,0-.24.15v5.32l-3.67,1.73-3.67-1.73v-5.32a.16.16,0,0,0-.23-.15l-3.4,2.45-.31.51-.1,7,.06.09,4.63,2.29Z"/></g><path id="_Path_23" data-name="&lt;Path&gt;" class="cls-4" d="M391.71,137a12,12,0,1,1,14.23-2,12.14,12.14,0,0,1-2.56,2"/><path id="_Path_24" data-name="&lt;Path&gt;" class="cls-4" d="M400.53,213.63l.05-81.51L404.9,130a.13.13,0,0,0,.06-.1v-6.78a.08.08,0,0,0,0-.07l-3.6-3a.17.17,0,0,0-.23.16l-.1,5.1L397.3,127l-3.69-1.73.1-5.1a.18.18,0,0,0-.24-.16l-3.87,3a.08.08,0,0,0-.05.07v6.78a.13.13,0,0,0,.06.1l4.65,2.3v81.32"/><line id="_Path_25" data-name="&lt;Path&gt;" class="cls-4" x1="408.71" y1="113.91" x2="410.1" y2="115.3"/><line id="_Path_26" data-name="&lt;Path&gt;" class="cls-4" x1="414.29" y1="125.51" x2="414.29" y2="127.48"/><line id="_Path_27" data-name="&lt;Path&gt;" class="cls-4" x1="410.04" y1="137.66" x2="408.65" y2="139.06"/><line id="_Path_28" data-name="&lt;Path&gt;" class="cls-4" x1="386.29" y1="139.04" x2="384.89" y2="137.65"/><line id="_Path_29" data-name="&lt;Path&gt;" class="cls-4" x1="380.67" y1="127.46" x2="380.66" y2="125.49"/><line id="_Path_30" data-name="&lt;Path&gt;" class="cls-4" x1="384.86" y1="115.29" x2="386.25" y2="113.89"/><line id="_Path_31" data-name="&lt;Path&gt;" class="cls-4" x1="396.43" y1="109.64" x2="398.4" y2="109.63"/></g><g id="_Group_8" data-name="&lt;Group&gt;"><path id="_Path_32" data-name="&lt;Path&gt;" class="cls-8" d="M374.31,213.41H306.05V137.8a.35.35,0,0,1,.35-.35H374a.35.35,0,0,1,.35.35Z"/><rect id="_Rectangle_3" data-name="&lt;Rectangle&gt;" class="cls-2" x="306.76" y="137.45" width="66.88" height="13.1" rx="0.2" ry="0.2"/><path id="_Path_33" data-name="&lt;Path&gt;" class="cls-4" d="M329.39,150.55H306.76V137.8a.35.35,0,0,1,.35-.35h66.18a.35.35,0,0,1,.35.35v12.75H358.2"/><line id="_Path_34" data-name="&lt;Path&gt;" class="cls-4" x1="331.89" y1="150.55" x2="339.56" y2="150.55"/><line id="_Path_35" data-name="&lt;Path&gt;" class="cls-4" x1="309.78" y1="143.52" x2="312.64" y2="143.52"/><line id="_Path_36" data-name="&lt;Path&gt;" class="cls-4" x1="315.7" y1="143.52" x2="318.56" y2="143.52"/><line id="_Path_37" data-name="&lt;Path&gt;" class="cls-4" x1="321.61" y1="143.52" x2="324.48" y2="143.52"/><path id="_Path_38" data-name="&lt;Path&gt;" class="cls-9" d="M348.66,174.47l-14.11,8.15a.39.39,0,0,1-.59-.34V166a.39.39,0,0,1,.59-.33l14.11,8.15a.38.38,0,0,1,0,.67l-14.11,8.15a.39.39,0,0,1-.59-.34V166a.39.39,0,0,1,.59-.33l14.11,8.15A.38.38,0,0,1,348.66,174.47Z"/><line id="_Path_39" data-name="&lt;Path&gt;" class="cls-10" x1="335.81" y1="200.63" x2="370.29" y2="200.63"/><line id="_Path_40" data-name="&lt;Path&gt;" class="cls-4" x1="310.82" y1="200.63" x2="332.05" y2="200.63"/><line id="_Path_41" data-name="&lt;Path&gt;" class="cls-4" x1="331.19" y1="204.45" x2="331.19" y2="196.81"/></g><g id="_Group_9" data-name="&lt;Group&gt;"><path id="_Compound_Path_2" data-name="&lt;Compound Path&gt;" class="cls-3" d="M64.37,142.45l3.76-3.75-2.29-4a16.87,16.87,0,0,0,2.07-5l4.94-1.19V123.2L67.91,122a16.56,16.56,0,0,0-2.07-5l2.55-4.28-3.75-3.75-4.28,2.55a16.77,16.77,0,0,0-5-2.06l-1.21-4.76H48.88l-1.23,4.75a16.79,16.79,0,0,0-5,2.06l-4.13-2.16L34.74,113l2.41,3.88a16.63,16.63,0,0,0-2.08,5l-4.79,1v5.31l4.79,1.43a16.53,16.53,0,0,0,2.06,5l-2.74,4.49,3.75,3.76,4.46-2.76a16.63,16.63,0,0,0,5,2.08h7.76a16.87,16.87,0,0,0,5-2.07Zm-21.47-8.3a11.87,11.87,0,1,1,16.78,0A11.87,11.87,0,0,1,42.9,134.15Z"/><path id="_Path_42" data-name="&lt;Path&gt;" class="cls-4" d="M59.48,134a11.45,11.45,0,1,1,0-16.19A11.45,11.45,0,0,1,59.48,134Z"/><line id="_Path_43" data-name="&lt;Path&gt;" class="cls-4" x1="51.36" y1="137.62" x2="51.36" y2="145.13"/><polyline id="_Path_44" data-name="&lt;Path&gt;" class="cls-4" points="44.55 126.36 48.76 130.57 58.13 121.2"/><path class="cls-2" d="M54.27,213.41H48.46V144.26c0-1,.12-1.82.28-1.82H54c.15,0,.28.82.28,1.82Z"/></g><g id="_Group_10" data-name="&lt;Group&gt;"><rect id="_Rectangle_4" data-name="&lt;Rectangle&gt;" class="cls-3" x="93.31" y="154.57" width="81.83" height="54.9" rx="0.23" ry="0.23"/><rect id="_Rectangle_5" data-name="&lt;Rectangle&gt;" class="cls-8" x="97.72" y="157.8" width="72.36" height="44.74"/><path id="_Path_45" data-name="&lt;Path&gt;" class="cls-8" d="M175.73,213.41h-83a2.17,2.17,0,0,1-2.14-1.82l-.81-4.91h36.9l1.41,2h10.2l1.52-2h38.87l-.8,4.91A2.17,2.17,0,0,1,175.73,213.41Z"/><path id="_Path_46" data-name="&lt;Path&gt;" class="cls-4" d="M175.73,213.41h-83a2.17,2.17,0,0,1-2.14-1.82l-.81-4.91h36.9l1.41,2h10.2l1.52-2h38.87l-.8,4.91A2.17,2.17,0,0,1,175.73,213.41Z"/><polygon id="_Path_47" data-name="&lt;Path&gt;" class="cls-11" points="99.95 154.8 102.82 202.22 165.46 202.22 168.32 154.8 99.95 154.8"/><path id="_Path_48" data-name="&lt;Path&gt;" class="cls-12" d="M165.12,135.62h-62a.34.34,0,0,0-.34.33v66.27h62.63V136A.33.33,0,0,0,165.12,135.62Z"/><path id="_Path_49" data-name="&lt;Path&gt;" class="cls-13" d="M165.09,135.62h-8a.35.35,0,0,1,.36.33v66.27h8V136A.35.35,0,0,0,165.09,135.62Z"/><path id="_Path_50" data-name="&lt;Path&gt;" class="cls-2" d="M164.26,135.62H104a.33.33,0,0,0-.33.33V147.2h60.88V136A.33.33,0,0,0,164.26,135.62Z"/><path id="_Path_51" data-name="&lt;Path&gt;" class="cls-4" d="M126.23,147.2H103.71V136a.33.33,0,0,1,.33-.33h60.22a.33.33,0,0,1,.33.33V147.2H153"/><line id="_Path_52" data-name="&lt;Path&gt;" class="cls-4" x1="128.88" y1="147.04" x2="135.31" y2="147.04"/><line id="_Path_53" data-name="&lt;Path&gt;" class="cls-4" x1="109.36" y1="141.03" x2="112.31" y2="141.03"/><line id="_Path_54" data-name="&lt;Path&gt;" class="cls-4" x1="114.67" y1="141.03" x2="117.62" y2="141.03"/><line id="_Path_55" data-name="&lt;Path&gt;" class="cls-4" x1="119.97" y1="141.03" x2="122.92" y2="141.03"/><polyline id="_Path_56" data-name="&lt;Path&gt;" class="cls-4" points="111.06 152.23 111.06 164.33 157.26 164.33"/><path id="_Path_57" data-name="&lt;Path&gt;" class="cls-8" d="M134.15,172.48a29.07,29.07,0,0,0-29.07,29.07h58.14A29.06,29.06,0,0,0,134.15,172.48Z"/><path id="_Path_58" data-name="&lt;Path&gt;" class="cls-2" d="M134.15,195.22a6.33,6.33,0,0,0-6.33,6.33h12.66A6.32,6.32,0,0,0,134.15,195.22Z"/><path id="_Path_59" data-name="&lt;Path&gt;" class="cls-4" d="M127.82,201.55a6.33,6.33,0,1,1,12.66,0"/><path id="_Path_60" data-name="&lt;Path&gt;" class="cls-4" d="M105.08,201.55a29.07,29.07,0,1,1,58.14,0"/><path id="_Path_61" data-name="&lt;Path&gt;" class="cls-4" d="M114.32,193.17a21.57,21.57,0,0,1,11.45-11.45,21.51,21.51,0,0,1,23.6,4.61,21.77,21.77,0,0,1,4.61,6.84"/><line id="_Path_62" data-name="&lt;Path&gt;" class="cls-4" x1="138.42" y1="196.88" x2="145.65" y2="187.94"/><line id="_Path_63" data-name="&lt;Path&gt;" class="cls-4" x1="134.15" y1="183.73" x2="134.15" y2="186.6"/><line id="_Path_64" data-name="&lt;Path&gt;" class="cls-4" x1="140.24" y1="184.8" x2="139.26" y2="187.5"/><line id="_Path_65" data-name="&lt;Path&gt;" class="cls-4" x1="118.7" y1="192.69" x2="121.19" y2="194.12"/><line id="_Path_66" data-name="&lt;Path&gt;" class="cls-4" x1="122.66" y1="187.94" x2="124.51" y2="190.13"/><line id="_Path_67" data-name="&lt;Path&gt;" class="cls-4" x1="128" y1="184.83" x2="128.99" y2="187.52"/><line id="_Path_68" data-name="&lt;Path&gt;" class="cls-4" x1="97.72" y1="202.54" x2="170.08" y2="202.54"/></g><path class="cls-11" d="M115.31,213.14V177.8l5.81-7.26.4-.53-.57-1.16H106.77l-3.89,4.33v-2.28L99,169.84a14.86,14.86,0,0,0-1.83-4.42l2.34-3.82-3.31-3.31L93.31,160v45.7H88.6l1,6.08a3.16,3.16,0,0,0,3.13,2.65H114A1.27,1.27,0,0,0,115.31,213.14Z"/><g id="_Group_11" data-name="&lt;Group&gt;"><path id="_Compound_Path_3" data-name="&lt;Compound Path&gt;" class="cls-2" d="M99.88,175.59v-4.68L96,169.84a14.86,14.86,0,0,0-1.83-4.42l2.34-3.82-3.31-3.31-3.86,2.3a14.88,14.88,0,0,0-4.42-1.84l-1.08-4.26H79.12L78,158.75a15,15,0,0,0-4.38,1.81l-3.72-2.21-3.32,3.31,2.19,3.73A15,15,0,0,0,67,169.8L63.05,171v4.69l3.92.92a14.94,14.94,0,0,0,1.82,4.42l-2.35,3.61L69.74,188l3.87-2.09A14.82,14.82,0,0,0,78,187.74l1.1,4.51H83.8l1.06-4.51a14.86,14.86,0,0,0,4.42-1.83l3.88,2.27,3.31-3.3-2.35-3.8A14.8,14.8,0,0,0,96,176.68ZM81.3,180a6.62,6.62,0,1,1,6.62-6.62A6.62,6.62,0,0,1,81.3,180Z"/><path id="_Path_69" data-name="&lt;Path&gt;" class="cls-14" d="M57.65,167.1a.09.09,0,0,0-.07,0H48.33a.09.09,0,0,0-.07.14l4.8,7.2H63Z"/><path id="_Path_70" data-name="&lt;Path&gt;" class="cls-4" d="M53.06,174.41l-4.8-7.2a.09.09,0,0,1,.07-.14h9.25a.09.09,0,0,1,.07,0L63,174.41"/><path id="_Path_71" data-name="&lt;Path&gt;" class="cls-11" d="M68.78,181.06l-2.35,3.61L69.74,188l3.87-2.09A14.82,14.82,0,0,0,78,187.74l1.1,4.51H83.8l1.06-4.51a14.86,14.86,0,0,0,4.42-1.83l3.88,2.27,3.31-3.3-2.35-3.8A14.8,14.8,0,0,0,96,176.68l3.93-1.09v-4.16H87.61a6.69,6.69,0,0,1,.31,1.9,6.62,6.62,0,0,1-13.24,0,6.69,6.69,0,0,1,.31-1.9H63v4.29l3.92.92A14.94,14.94,0,0,0,68.78,181.06Z"/><path id="_Path_72" data-name="&lt;Path&gt;" class="cls-12" d="M66,174.41H53.06v38.73a.28.28,0,0,0,.28.27H111a.27.27,0,0,0,.27-.27V177.45l6-7.54s0-.06,0-.06H104.21l-4.08,4.55H66Z"/><path id="_Path_73" data-name="&lt;Path&gt;" class="cls-14" d="M117.32,169.85H104.21l0,0s0,0,0,0l-4.07,4.5-.08,38.73a.28.28,0,0,1-.28.27H111a.27.27,0,0,0,.27-.27V177.45l6-7.54S117.35,169.85,117.32,169.85Z"/><path id="_Path_74" data-name="&lt;Path&gt;" class="cls-4" d="M66,174.41H53.06v38.73a.28.28,0,0,0,.28.27H111a.27.27,0,0,0,.27-.27V177.45l6-7.54s0-.06,0-.06H104.21l-4.08,4.55H66Z"/><line id="_Path_75" data-name="&lt;Path&gt;" class="cls-4" x1="100.13" y1="213.41" x2="100.13" y2="177.93"/><line id="_Path_76" data-name="&lt;Path&gt;" class="cls-4" x1="108.53" y1="177.93" x2="103.49" y2="177.93"/><polyline id="_Path_77" data-name="&lt;Path&gt;" class="cls-4" points="71.46 193.4 74.8 196.74 82.23 189.3"/><path id="_Path_78" data-name="&lt;Path&gt;" class="cls-5" d="M86.25,193a9.41,9.41,0,1,1-9.4-9.41"/><path id="_Path_79" data-name="&lt;Path&gt;" class="cls-4" d="M76.85,183.61a9.4,9.4,0,0,1,9.4,9.41"/></g><g id="_Group_12" data-name="&lt;Group&gt;"><path id="_Path_80" data-name="&lt;Path&gt;" class="cls-8" d="M270.21,90H170.11a.64.64,0,0,0-.64.64V213.41H270.85V90.63A.64.64,0,0,0,270.21,90Z"/><path id="_Path_81" data-name="&lt;Path&gt;" class="cls-15" d="M270.21,90H259.46a.64.64,0,0,1,.64.64V213.41h10.75V90.63A.64.64,0,0,0,270.21,90Z"/><polygon id="_Path_82" data-name="&lt;Path&gt;" class="cls-6" points="169.47 213.41 169.47 201.53 171.18 201.53 205.34 167.01 225.25 186.89 270.68 142.14 270.89 213.35 169.47 213.41"/><path id="_Path_83" data-name="&lt;Path&gt;" class="cls-2" d="M270.21,90H170.11a.76.76,0,0,0-.64.83V107H270.85V90.82A.76.76,0,0,0,270.21,90Z"/><path id="_Path_84" data-name="&lt;Path&gt;" class="cls-4" d="M270,107.11v-16a.63.63,0,0,0-.63-.63H171.09a.63.63,0,0,0-.63.63v16h66"/><line id="_Path_85" data-name="&lt;Path&gt;" class="cls-4" x1="179.46" y1="99.29" x2="182.82" y2="99.29"/><line id="_Path_86" data-name="&lt;Path&gt;" class="cls-4" x1="187.52" y1="99.29" x2="190.88" y2="99.29"/><line id="_Path_87" data-name="&lt;Path&gt;" class="cls-4" x1="195.58" y1="99.29" x2="198.94" y2="99.29"/><polyline id="_Path_88" data-name="&lt;Path&gt;" class="cls-4" points="257.7 139.7 182.15 139.7 182.15 113.88"/><line id="_Path_89" data-name="&lt;Path&gt;" class="cls-4" x1="240.86" y1="107.11" x2="246.32" y2="107.11"/><polyline id="_Path_90" data-name="&lt;Path&gt;" class="cls-4" points="286.48 126.12 225.25 186.89 205.34 167.01 171.18 201.53 169.47 201.53"/><polyline id="_Path_91" data-name="&lt;Path&gt;" class="cls-4" points="277.58 125.15 287.28 125.15 287.28 134.86"/><line id="_Path_92" data-name="&lt;Path&gt;" class="cls-4" x1="270.83" y1="141.65" x2="270.83" y2="213.35"/><line id="_Path_93" data-name="&lt;Path&gt;" class="cls-4" x1="181.68" y1="213.35" x2="181.68" y2="190.92"/><line id="_Path_94" data-name="&lt;Path&gt;" class="cls-4" x1="194.5" y1="213.35" x2="194.5" y2="177.96"/><line id="_Path_95" data-name="&lt;Path&gt;" class="cls-4" x1="207.33" y1="213.35" x2="207.33" y2="169.64"/><line id="_Path_96" data-name="&lt;Path&gt;" class="cls-4" x1="220.15" y1="213.35" x2="220.15" y2="182.44"/><line id="_Path_97" data-name="&lt;Path&gt;" class="cls-4" x1="232.97" y1="213.35" x2="232.97" y2="179.61"/><line id="_Path_98" data-name="&lt;Path&gt;" class="cls-4" x1="245.8" y1="213.35" x2="245.8" y2="166.5"/><line id="_Path_99" data-name="&lt;Path&gt;" class="cls-4" x1="258.62" y1="213.35" x2="258.62" y2="154.17"/></g><path class="cls-11" d="M374.31,155.63H362.4a3.84,3.84,0,0,0-3.84,3.84v50.86a3.82,3.82,0,0,0,1.58,3.08h14.17Z"/><g id="_Group_13" data-name="&lt;Group&gt;"><rect id="_Path_100" data-name="&lt;Path&gt;" class="cls-8" x="362.56" y="156.63" width="33.61" height="56.54" rx="2.84" ry="2.84"/><rect id="_Rectangle_6" data-name="&lt;Rectangle&gt;" class="cls-3" x="362.56" y="165.2" width="33.61" height="39.51"/><line id="_Path_101" data-name="&lt;Path&gt;" class="cls-4" x1="376.07" y1="161.11" x2="383.14" y2="161.11"/><line id="_Path_102" data-name="&lt;Path&gt;" class="cls-4" x1="383.97" y1="161.11" x2="386.1" y2="161.11"/><path id="_Path_103" data-name="&lt;Path&gt;" class="cls-16" d="M393.33,156.63h-2.68a2.84,2.84,0,0,1,2.84,2.84v50.86a2.84,2.84,0,0,1-2.84,2.84h2.68a2.84,2.84,0,0,0,2.84-2.84V159.47A2.84,2.84,0,0,0,393.33,156.63Z"/><path id="_Path_104" data-name="&lt;Path&gt;" class="cls-17" d="M365.4,156.63h2.68a2.84,2.84,0,0,0-2.84,2.84v50.86a2.84,2.84,0,0,0,2.84,2.84H365.4a2.84,2.84,0,0,1-2.84-2.84V159.47A2.84,2.84,0,0,1,365.4,156.63Z"/><rect id="_Path_105" data-name="&lt;Path&gt;" class="cls-4" x="362.56" y="156.63" width="33.61" height="56.54" rx="2.84" ry="2.84"/><g id="_Group_14" data-name="&lt;Group&gt;"><path id="_Path_106" data-name="&lt;Path&gt;" class="cls-18" d="M392,186.25v-2.69l-4.27-.62a8.47,8.47,0,0,0-1.05-2.54l2.59-3.45L387.32,175l-3.46,2.59a8.31,8.31,0,0,0-2.53-1l-.62-4.28H378l-.62,4.28a8.28,8.28,0,0,0-2.51,1l-3.45-2.6-1.91,1.9,2.58,3.46a8.76,8.76,0,0,0-1.06,2.54l-4.27.61v2.69l4.27.62a8.37,8.37,0,0,0,1,2.54l-2.59,3.45,1.9,1.91,3.46-2.58a8.59,8.59,0,0,0,2.53,1.06l.61,4.27h2.69l.63-4.27a8.31,8.31,0,0,0,2.53-1.05l3.46,2.59,1.9-1.9-2.58-3.46a8.59,8.59,0,0,0,1.06-2.53Z"/><path id="_Path_107" data-name="&lt;Path&gt;" class="cls-18" d="M383.2,184.9a3.84,3.84,0,1,1-3.83-3.84A3.83,3.83,0,0,1,383.2,184.9Z"/></g></g><path class="cls-11" d="M270.89,213.35h.94V153.69H259.52a1.27,1.27,0,0,0-1.27,1.27v11h.44v47.28a.2.2,0,0,0,.2.2h12v-.06Z"/><path class="cls-11" d="M311.7,213.35h-.95V153.69h12.31a1.27,1.27,0,0,1,1.27,1.27v58.25c0,.11-.53.2-.64.2h-12v-.06Z"/><g id="_Group_15" data-name="&lt;Group&gt;"><rect id="_Rectangle_7" data-name="&lt;Rectangle&gt;" class="cls-8" x="261.69" y="154.69" width="59.56" height="58.72" rx="0.2" ry="0.2"/><path id="_Compound_Path_4" data-name="&lt;Compound Path&gt;" class="cls-3" d="M307.06,190.79v-3.33l-5.29-.77a10.12,10.12,0,0,0-1.3-3.14l3.21-4.29-2.36-2.35-4.28,3.2a10.5,10.5,0,0,0-3.14-1.31l-.77-5.29H289.8L289,178.8a10.88,10.88,0,0,0-3.12,1.29l-4.27-3.21-2.36,2.35,3.19,4.29a10.25,10.25,0,0,0-1.31,3.14l-5.3.75v3.33l5.29.78a10.45,10.45,0,0,0,1.29,3.14l-3.21,4.28,2.36,2.36,4.29-3.19a10.42,10.42,0,0,0,3.13,1.3l.76,5.3h3.33l.77-5.29a10.37,10.37,0,0,0,3.14-1.3l4.29,3.21,2.35-2.36-3.19-4.28a10.48,10.48,0,0,0,1.3-3.14Zm-15.59,3a4.71,4.71,0,1,1,4.7-4.71A4.71,4.71,0,0,1,291.47,193.82Z"/><rect id="_Rectangle_8" data-name="&lt;Rectangle&gt;" class="cls-2" x="262.25" y="154.69" width="58.47" height="10.25" rx="0.2" ry="0.2"/><path id="_Path_108" data-name="&lt;Path&gt;" class="cls-4" d="M283,164.93H262.25V155a.27.27,0,0,1,.27-.27h57.93a.27.27,0,0,1,.27.27v10H305.56"/><line id="_Path_109" data-name="&lt;Path&gt;" class="cls-4" x1="284.99" y1="164.93" x2="290.98" y2="164.93"/><line id="_Path_110" data-name="&lt;Path&gt;" class="cls-4" x1="267.69" y1="159.44" x2="269.93" y2="159.44"/><line id="_Path_111" data-name="&lt;Path&gt;" class="cls-4" x1="272.32" y1="159.44" x2="274.56" y2="159.44"/><line id="_Path_112" data-name="&lt;Path&gt;" class="cls-4" x1="276.95" y1="159.44" x2="279.19" y2="159.44"/><line id="_Path_113" data-name="&lt;Path&gt;" class="cls-4" x1="269.5" y1="175.68" x2="275.49" y2="175.68"/><line id="_Path_114" data-name="&lt;Path&gt;" class="cls-4" x1="314.06" y1="175.68" x2="306.75" y2="175.68"/><line id="_Path_115" data-name="&lt;Path&gt;" class="cls-4" x1="269.5" y1="182.93" x2="276.01" y2="182.93"/><line id="_Path_116" data-name="&lt;Path&gt;" class="cls-4" x1="317.48" y1="182.93" x2="310.64" y2="182.93"/><line id="_Path_117" data-name="&lt;Path&gt;" class="cls-4" x1="269.5" y1="190.17" x2="273.1" y2="190.17"/><line id="_Path_118" data-name="&lt;Path&gt;" class="cls-4" x1="315.49" y1="190.17" x2="310.4" y2="190.17"/><line id="_Path_119" data-name="&lt;Path&gt;" class="cls-4" x1="269.5" y1="197.42" x2="276.01" y2="197.42"/><line id="_Path_120" data-name="&lt;Path&gt;" class="cls-4" x1="316.51" y1="197.42" x2="307.81" y2="197.42"/><line id="_Path_121" data-name="&lt;Path&gt;" class="cls-4" x1="269.5" y1="204.67" x2="273.1" y2="204.67"/><line id="_Path_122" data-name="&lt;Path&gt;" class="cls-4" x1="277.8" y1="204.67" x2="284" y2="204.67"/><line id="_Path_123" data-name="&lt;Path&gt;" class="cls-4" x1="312.95" y1="204.67" x2="304.41" y2="204.67"/><g id="_Group_16" data-name="&lt;Group&gt;"><path id="_Path_124" data-name="&lt;Path&gt;" class="cls-4" d="M307.22,190.74v-3.33l-5.3-.77a10.37,10.37,0,0,0-1.3-3.14l3.21-4.29-2.36-2.36-4.29,3.21a10.39,10.39,0,0,0-3.14-1.31l-.76-5.29H290l-.76,5.29a10.34,10.34,0,0,0-3.12,1.29l-4.27-3.21-2.37,2.35,3.2,4.29a10.25,10.25,0,0,0-1.31,3.14l-5.3.75v3.34l5.3.77a10.35,10.35,0,0,0,1.29,3.14l-3.21,4.29,2.36,2.36,4.29-3.2a10.44,10.44,0,0,0,3.13,1.31l.76,5.29h3.34l.77-5.29a10.74,10.74,0,0,0,3.14-1.3l4.28,3.2,2.36-2.35-3.2-4.29a10.5,10.5,0,0,0,1.31-3.14Z"/><path id="_Path_125" data-name="&lt;Path&gt;" class="cls-4" d="M296.37,189.06a4.75,4.75,0,1,1-4.75-4.75"/></g></g><g id="_Group_17" data-name="&lt;Group&gt;"><path id="_Path_126" data-name="&lt;Path&gt;" class="cls-2" d="M418.77,203.28v-5a2.73,2.73,0,0,0,1.45-2.21l.56-7a5.84,5.84,0,1,0-11.67,0l.56,7a2.72,2.72,0,0,0,1.46,2.22l.37.25v4.67l-8.22,3v7l23.7.33v-7.28Z"/><g id="_Group_18" data-name="&lt;Group&gt;"><line id="_Path_127" data-name="&lt;Path&gt;" class="cls-4" x1="409.18" y1="170.43" x2="409.18" y2="172.97"/><line id="_Path_128" data-name="&lt;Path&gt;" class="cls-4" x1="413.87" y1="173.13" x2="411.67" y2="174.4"/><line id="_Path_129" data-name="&lt;Path&gt;" class="cls-4" x1="413.88" y1="178.55" x2="411.68" y2="177.28"/><line id="_Path_130" data-name="&lt;Path&gt;" class="cls-4" x1="409.2" y1="181.27" x2="409.19" y2="178.73"/><line id="_Path_131" data-name="&lt;Path&gt;" class="cls-4" x1="404.5" y1="178.59" x2="406.69" y2="177.31"/><line id="_Path_132" data-name="&lt;Path&gt;" class="cls-4" x1="404.47" y1="173.17" x2="406.67" y2="174.43"/></g><path id="_Path_133" data-name="&lt;Path&gt;" class="cls-6" d="M446.34,183.55H427.48l-4.61,3.95s-.09,0-.09,0V169.54a.13.13,0,0,1,.13-.13h23.43a.13.13,0,0,1,.13.13v13.88A.13.13,0,0,1,446.34,183.55Z"/><g id="_Group_19" data-name="&lt;Group&gt;"><g id="_Group_20" data-name="&lt;Group&gt;"><path id="_Path_134" data-name="&lt;Path&gt;" class="cls-4" d="M402.84,213.41v-6.29a1.39,1.39,0,0,1,1-1.32l7.71-2.63v-4.32"/><path id="_Path_135" data-name="&lt;Path&gt;" class="cls-4" d="M427,213.41v-6.29a1.39,1.39,0,0,0-.94-1.32l-7.71-2.63v-4.32"/><path id="_Path_136" data-name="&lt;Path&gt;" class="cls-4" d="M420.78,189a5.84,5.84,0,1,0-11.67,0l.56,7a2.72,2.72,0,0,0,1.46,2.22l2.82,1.86h1.87l2.93-1.86a2.73,2.73,0,0,0,1.47-2.22Z"/><polyline id="_Path_137" data-name="&lt;Path&gt;" class="cls-4" points="411.5 203.17 413.69 205.66 416.27 205.66 418.46 203.17"/></g><line id="_Path_138" data-name="&lt;Path&gt;" class="cls-4" x1="399.97" y1="213.41" x2="429.84" y2="213.41"/></g><line id="_Path_139" data-name="&lt;Path&gt;" class="cls-18" x1="425.97" y1="172.73" x2="442.97" y2="172.73"/><line id="_Path_140" data-name="&lt;Path&gt;" class="cls-18" x1="426.12" y1="176.5" x2="443.12" y2="176.5"/><line id="_Path_141" data-name="&lt;Path&gt;" class="cls-18" x1="426.28" y1="180.27" x2="436.53" y2="180.27"/></g><g id="_Group_21" data-name="&lt;Group&gt;"><path id="_Compound_Path_5" data-name="&lt;Compound Path&gt;" class="cls-6" d="M36.54,175.78a10.06,10.06,0,0,0-10,10c-.05,7.19,8.85,15.44,9.92,16.41a.16.16,0,0,0,.22,0c1.07-1,10-9.22,9.91-16.41A10,10,0,0,0,36.54,175.78Zm0,15.57a5.55,5.55,0,1,1,5.54-5.55A5.56,5.56,0,0,1,36.54,191.35Z"/><path id="_Path_142" data-name="&lt;Path&gt;" class="cls-4" d="M43.31,197.94a16.9,16.9,0,0,1,10.11,15.47"/><path id="_Path_143" data-name="&lt;Path&gt;" class="cls-4" d="M19.65,213.41a16.87,16.87,0,0,1,10-15.41"/><path id="_Path_144" data-name="&lt;Path&gt;" class="cls-4" d="M42.47,199.86a31.53,31.53,0,0,1,2.9,13.55"/><path id="_Path_145" data-name="&lt;Path&gt;" class="cls-4" d="M29.65,200.25a31.73,31.73,0,0,0-2.73,13.16"/><line id="_Path_146" data-name="&lt;Path&gt;" class="cls-4" x1="36.54" y1="202.99" x2="36.54" y2="213.41"/><line id="_Path_147" data-name="&lt;Path&gt;" class="cls-4" x1="22.25" y1="205.24" x2="51.41" y2="205.24"/><path id="_Path_148" data-name="&lt;Path&gt;" class="cls-4" d="M42.08,185.8a5.55,5.55,0,1,1-5.54-5.54A5.55,5.55,0,0,1,42.08,185.8Z"/></g><line class="cls-4" x1="15.48" y1="213.41" x2="437.18" y2="213.41"/><line class="cls-4" x1="441.07" y1="213.41" x2="447.25" y2="213.41"/><line class="cls-4" x1="10.48" y1="213.41" y2="213.41"/></g></g></g></svg>