<svg width="228" height="149" viewBox="0 0 228 149" version="1.1" xmlns="http://www.w3.org/2000/svg" xmlns:xlink="http://www.w3.org/1999/xlink">
<title>Page 1</title>
<desc>Created using Figma</desc>
<g id="Canvas" transform="translate(-871 -2221)">
<g id="Page 1">
<g id="Group 3">
<mask id="mask0_outline" mask-type="alpha">
<g id="Clip 2">
<use xlink:href="#path0_fill" transform="translate(871 2221.3)" fill="#FFFFFF"/>
</g>
</mask>
<g id="Fill 1" mask="url(#mask0_outline)">
<use xlink:href="#path1_fill" transform="translate(871 2221.3)" fill="#E03366"/>
</g>
</g>
<g id="Fill 4">
<use xlink:href="#path2_fill" transform="translate(946 2313)" fill="#E03366"/>
</g>
<g id="Fill 6">
<use xlink:href="#path3_fill" transform="translate(962 2318)" fill="#E03366"/>
</g>
<mask id="mask1_outline" mask-type="alpha">
<g id="Clip 9">
<use xlink:href="#path4_fill" transform="translate(871 2221)" fill="#FFFFFF"/>
</g>
</mask>
<g id="Fill 8" mask="url(#mask1_outline)">
<use xlink:href="#path5_fill" transform="translate(976 2310)" fill="#E03366"/>
</g>
<g id="Fill 10" mask="url(#mask1_outline)">
<use xlink:href="#path6_fill" transform="translate(986 2318)" fill="#E03366"/>
</g>
<g id="Fill 11" mask="url(#mask1_outline)">
<use xlink:href="#path7_fill" transform="translate(1008 2318)" fill="#E03366"/>
</g>
<g id="Fill 12" mask="url(#mask1_outline)">
<use xlink:href="#path8_fill" transform="translate(1021 2318)" fill="#E03366"/>
</g>
<g id="Fill 13" mask="url(#mask1_outline)">
<use xlink:href="#path9_fill" transform="translate(1044 2318)" fill="#E03366"/>
</g>
<g id="Fill 14" mask="url(#mask1_outline)">
<use xlink:href="#path2_fill" transform="translate(1065 2313)" fill="#E03366"/>
</g>
<g id="Fill 15" mask="url(#mask1_outline)">
<use xlink:href="#path10_fill" transform="translate(1079 2318)" fill="#E03366"/>
</g>
</g>
</g>
<defs>
<path id="path0_fill" fill-rule="evenodd" d="M 0 0L 97.8515 0L 97.8515 147.839L 0 147.839L 0 0Z"/>
<path id="path1_fill" fill-rule="evenodd" d="M 92.541 10.6101C 91.7018 13.0965 89.3401 14.9621 88.0635 15.3889L 88.0617 15.3889C 83.7407 17.3722 73.4895 20.5493 73.4895 20.5493L 47.426 29.3722L 36.7879 32.8805C 36.6243 32.8767 36.4589 32.891 36.2938 32.9245L 17.5199 30.4964L 11.6765 23.4831C 12.5134 22.674 13.6093 22.2499 14.7193 22.2499C 15.3692 22.2499 16.0235 22.3954 16.6338 22.6935L 26.407 27.4674L 26.4931 27.4381L 41.565 22.2972L 41.565 22.2946L 29.189 7.34801C 30.4336 5.99258 32.1577 5.26392 33.9187 5.26392C 34.7139 5.26392 35.5165 5.41243 36.2853 5.71924L 61.1292 15.6231L 76.7466 10.2961C 76.7466 10.2961 82.3926 8.34738 84.9246 7.66722L 84.9268 7.66722C 85.6243 7.50856 86.3018 7.45817 86.8816 7.45817C 87.8977 7.45817 88.615 7.61308 88.615 7.61308C 90.8839 8.04171 93.1152 8.90798 92.541 10.6101ZM 96.9506 6.74934C 95.6799 4.5547 93.2814 3.14701 89.6192 2.4473C 89.2332 2.36947 88.2174 2.19426 86.8816 2.19426C 86.0391 2.19426 85.2137 2.26419 84.4207 2.40331L 84.2445 2.40331L 83.5827 2.5804C 80.9367 3.29101 75.4241 5.18937 75.0683 5.31194L 61.2689 10.0189L 38.202 0.823411C 36.8315 0.277102 35.3906 0 33.9191 0C 30.681 0 27.5621 1.37423 25.3621 3.77077L 22.2429 7.16856L 25.1855 10.7228L 32.6782 19.7716L 26.7584 21.7911L 18.9072 17.9556C 17.6086 17.3213 16.1609 16.9859 14.7193 16.9859C 12.2283 16.9859 9.86585 17.9436 8.06757 19.6821L 4.5377 23.095L 7.68376 26.8703L 13.5269 33.8832L 14.8374 35.4559L 16.8566 35.7172L 25.8939 36.8862C 14.8001 41.4788 -2.10319 52.6757 0.215642 76.796C 2.30233 98.5044 26.0593 135.081 33.7764 146.102C 34.5425 147.195 35.7777 147.839 37.0994 147.839C 37.1371 147.839 37.1751 147.839 37.2127 147.838C 38.5754 147.8 39.8214 147.081 40.5454 145.916C 47.9044 134.075 72.0828 94.1128 74.2425 77.0502C 75.3362 68.4085 72.9749 60.0285 67.7641 54.059C 62.6919 48.2477 55.2425 45.0518 46.8096 45.0533C 38.8962 45.0567 31.7918 48.1139 26.8053 53.6616C 22.3361 58.634 20.0135 65.1822 20.5926 71.1784C 20.9928 75.3206 22.5179 79.1749 24.8867 82.0316C 27.7976 85.5411 31.9293 87.5613 36.8356 87.8726C 40.9363 88.1339 44.9472 86.5976 48.1201 83.5491C 51.4719 80.328 53.4363 75.7557 53.3749 71.3168C 53.2918 65.3698 50.6849 60.3316 46.4008 57.8391C 45.1533 57.1131 43.5581 57.5455 42.8382 58.8043C 42.119 60.0639 42.5472 61.6731 43.7955 62.3991C 46.4307 63.9324 48.1026 67.3779 48.1589 71.3908C 48.2002 74.3893 46.8409 77.5096 44.5228 79.7374C 42.4149 81.7632 39.8021 82.7862 37.1631 82.6189C 27.6184 82.0136 26.0407 73.3181 25.7847 70.6678C 25.3461 66.1248 27.172 61.0892 30.6694 57.1981C 34.655 52.7637 40.3878 50.3202 46.8118 50.3172L 46.8249 50.3172C 53.8388 50.3172 59.7259 52.8141 63.8493 57.5384C 68.0696 62.3728 69.9719 69.2421 69.0679 76.3836C 67.0941 91.9731 43.7727 130.717 37.0435 141.636C 30.0065 131.449 6.039 96.5962 5.43014 76.6381C 4.59695 49.3531 26.2117 41.9631 38.1748 37.9611C 40.889 37.0531 49.0465 34.3753 49.0465 34.3753L 49.0658 34.3689L 49.0852 34.3625L 75.0869 25.5603C 76.0509 25.2607 85.4842 22.3107 90.0097 20.2762C 92.785 19.2189 96.1603 16.2167 97.4793 12.3064C 98.118 10.4145 97.9302 8.4409 96.9506 6.74934Z"/>
<path id="path2_fill" fill-rule="evenodd" d="M 3.23076 17.0746L 3.23076 9.34352L 0 9.34352L 0 5.56945L 3.23076 5.56945L 3.23076 0.769449L 7.77734 0L 7.77734 5.56945L 13 5.56945L 13 9.34352L 7.77734 9.34352L 7.77734 17.8911C 7.77734 18.3902 7.91133 18.8927 8.22143 19.2903C 9.33204 20.712 11.6505 20.1068 13 19.3829L 13 23.157C 12.1735 23.633 10.6708 24 9.24245 24C 7.62688 24 5.89875 23.5232 4.73378 22.2412C 3.79468 21.2515 3.23076 19.7496 3.23076 17.0746Z"/>
<path id="path3_fill" fill-rule="evenodd" d="M 0 0.180823L 4.42926 0.180823L 4.42926 2.6795L 4.50373 2.71603C 5.75838 0.977551 7.64073 0 9.78183 0C 10.1876 0 10.5938 0.0357956 11 0.144658L 11 4.34602C 10.557 4.23716 10.1143 4.16483 9.52345 4.16483C 7.41958 4.16483 5.72152 5.07042 4.46649 6.80891L 4.46649 18L 0 18L 0 0.180823Z"/>
<path id="path4_fill" fill-rule="evenodd" d="M 0 147L 228 147L 228 0L 0 0L 0 147Z"/>
<path id="path5_fill" fill-rule="evenodd" d="M 0.496582 27L 4.50357 27L 4.50357 8.80273L 0.496582 8.80273L 0.496582 27ZM 2.87288 0.0272909C 3.85574 0.177656 4.68035 1.00749 4.92226 2.08229C 5.35886 4.01895 3.89217 5.78791 2.1306 5.5211C 1.14775 5.37224 0.323135 4.54391 0.0788562 3.46987C -0.361791 1.53095 1.10928 -0.242538 2.87288 0.0272909Z"/>
<path id="path6_fill" fill-rule="evenodd" d="M 8.22561 15.4233C 11.4716 15.4233 13.5003 12.9957 13.5003 9.74693C 13.5003 6.49821 11.508 3.88379 8.33648 3.88379C 6.93429 3.88379 5.53322 4.36931 4.46326 5.2281L 4.46326 14.4153C 5.38552 14.9377 6.75013 15.4233 8.22561 15.4233ZM 4.46326 27L 0 27L 0 0.410942L 4.42643 0.410942L 4.42643 1.45656L 4.50047 1.49385C 5.71738 0.635057 7.34056 0 9.33204 0C 14.0903 0 18 3.77191 18 9.4859C 18 15.3856 13.7953 19.1952 8.52064 19.1952C 6.89784 19.1952 5.53323 18.8215 4.5373 18.336L 4.46326 18.3733L 4.46326 27Z"/>
<path id="path7_fill" fill-rule="evenodd" d="M 0 0.180823L 4.42956 0.180823L 4.42956 2.6795L 4.50328 2.71603C 5.75877 0.977551 7.64087 0 9.78212 0C 10.1883 0 10.5942 0.0357956 11 0.144658L 11 4.34602C 10.5569 4.23716 10.1142 4.16483 9.52335 4.16483C 7.41972 4.16483 5.72153 5.07042 4.46642 6.80891L 4.46642 18L 0 18L 0 0.180823Z"/>
<path id="path8_fill" fill-rule="evenodd" d="M 10 15.0815C 13.146 15.0815 15.4681 12.642 15.4681 9.50016C 15.4681 6.35791 13.146 3.91846 10 3.91846C 6.85406 3.91846 4.53198 6.35791 4.53198 9.50016C 4.53198 12.642 6.85406 15.0815 10 15.0815ZM 10 0C 15.7302 0 20 4.13995 20 9.50019C 20 14.8601 15.7302 19 10 19C 4.2698 19 0 14.8601 0 9.50019C 0 4.13995 4.2698 0 10 0Z"/>
<path id="path9_fill" fill-rule="evenodd" d="M 0 0.393785L 4.21039 0.393785L 4.21039 2.29015L 4.28047 2.32625C 5.71909 1.00196 7.68396 0 9.96487 0C 11.8243 0 13.4384 0.644276 14.526 1.86064C 15.5438 2.97016 16 4.43738 16 7.04985L 16 18L 11.7542 18L 11.7542 7.80132C 11.7542 6.22691 11.5436 5.36824 11.0524 4.79543C 10.5262 4.15115 9.75394 3.8292 8.77151 3.8292C 7.08728 3.8292 5.33333 4.83116 4.24543 6.04789L 4.24543 18L 0 18L 0 0.393785Z"/>
<path id="path10_fill" fill-rule="evenodd" d="M 9.99999 15.0815C 13.1461 15.0815 15.4682 12.642 15.4682 9.50016C 15.4682 6.35791 13.1461 3.91846 9.99999 3.91846C 6.8539 3.91846 4.53174 6.35791 4.53174 9.50016C 4.53174 12.642 6.8539 15.0815 9.99999 15.0815ZM 10 0C 15.7308 0 20 4.13995 20 9.50019C 20 14.8601 15.7308 19 10 19C 4.2692 19 0 14.8601 0 9.50019C 0 4.13995 4.2692 0 10 0Z"/>
</defs>
</svg>
