<?xml version="1.0" encoding="UTF-8" standalone="no"?>
<!-- Created with Inkscape (http://www.inkscape.org/) -->

<svg
   xmlns:dc="http://purl.org/dc/elements/1.1/"
   xmlns:cc="http://creativecommons.org/ns#"
   xmlns:rdf="http://www.w3.org/1999/02/22-rdf-syntax-ns#"
   xmlns:svg="http://www.w3.org/2000/svg"
   xmlns="http://www.w3.org/2000/svg"
   xmlns:sodipodi="http://sodipodi.sourceforge.net/DTD/sodipodi-0.dtd"
   xmlns:inkscape="http://www.inkscape.org/namespaces/inkscape"
   width="141.11111mm"
   height="141.11111mm"
   viewBox="0 0 500.00001 500.00001"
   id="svg2"
   version="1.1"
   inkscape:version="0.91 r13725"
   sodipodi:docname="icon.svg">
  <defs
     id="defs4" />
  <sodipodi:namedview
     id="base"
     pagecolor="#ffffff"
     bordercolor="#666666"
     borderopacity="1.0"
     inkscape:pageopacity="0.0"
     inkscape:pageshadow="2"
     inkscape:zoom="0.7"
     inkscape:cx="191.15724"
     inkscape:cy="194.14087"
     inkscape:document-units="px"
     inkscape:current-layer="layer1"
     showgrid="false"
     inkscape:showpageshadow="false"
     fit-margin-top="0"
     fit-margin-left="0"
     fit-margin-right="0"
     fit-margin-bottom="0"
     inkscape:window-width="1315"
     inkscape:window-height="744"
     inkscape:window-x="51"
     inkscape:window-y="24"
     inkscape:window-maximized="1" />
  <metadata
     id="metadata7">
    <rdf:RDF>
      <cc:Work
         rdf:about="">
        <dc:format>image/svg+xml</dc:format>
        <dc:type
           rdf:resource="http://purl.org/dc/dcmitype/StillImage" />
        <dc:title />
      </cc:Work>
    </rdf:RDF>
  </metadata>
  <g
     inkscape:label="Layer 1"
     inkscape:groupmode="layer"
     id="layer1"
     transform="translate(-77.142858,-172.36222)">
    <rect
       style="opacity:1;fill:#1e1e1e;fill-opacity:1;stroke:none;stroke-width:30;stroke-miterlimit:4;stroke-dasharray:none;stroke-opacity:1"
       id="rect4138"
       width="500"
       height="500"
       x="77.14286"
       y="172.36221"
       ry="250" />
    <circle
       style="opacity:1;fill:#1e1e46;fill-opacity:1;stroke:#ffffff;stroke-width:5.71956062;stroke-miterlimit:4;stroke-dasharray:none;stroke-opacity:0.2871795"
       id="path4140"
       cx="327.14285"
       cy="422.36221"
       r="205.90419" />
    <g
       transform="matrix(-0.2,-0.34641016,0.34641016,-0.2,322.32358,476.61128)"
       id="layer1-6"
       inkscape:label="Layer 1">
      <circle
         r="250"
         cy="443.79077"
         cx="111.42857"
         id="path4167"
         style="opacity:1;fill:#000000;fill-opacity:1;stroke:none;stroke-width:30;stroke-miterlimit:4;stroke-dasharray:none;stroke-opacity:1" />
      <path
         inkscape:connector-curvature="0"
         style="fill:#ffffff;fill-opacity:1;stroke:#ffffff;stroke-width:0.93023258;stroke-opacity:1"
         id="path3"
         d="m 211.1351,389.16692 -14.1246,0 0,-47.46946 c 0,-16.14129 -13.1323,-29.27292 -29.2736,-29.27292 -9.1303,0 -17.2957,4.20388 -22.6676,10.77458 -4.1843,-11.0581 -14.8785,-18.94322 -27.3842,-18.94322 -12.5934,0 -23.352999,7.99356 -27.475799,19.17253 -5.3733,-6.50669 -13.4994,-10.66026 -22.5775,-10.66026 -16.1413,0 -29.2729,13.13163 -29.2729,29.27293 l 0,0.36779 c -5.308,-5.35561 -12.6625,-8.67886 -20.7808,-8.67886 -16.1413996,0 -29.273,13.13164 -29.273,29.27294 l 0,91.23412 c 0,36.22189 12.39020043,71.6742 34.9205,100.00902 l 0,24.83322 c 0,2.34528 1.9011,4.24633 4.2464,4.24633 2.3452,0 4.2463,-1.90105 4.2463,-4.24633 l 0,-26.32728 c 0,-0.97404 -0.3351,-1.91804 -0.9479,-2.67454 C 8.8632014,523.05842 -3.2021986,489.02175 -3.2021986,454.23643 l 0,-22.02084 c 5.3079,5.35562 12.6618,8.67886 20.7802996,8.67886 10.9162,0 20.4497,-6.0102 25.4818,-14.89156 5.221,8.05104 14.2814,13.39228 24.5712,13.39228 10.5911,0 19.886,-5.6535 25.0261,-14.10109 5.1406,8.44627 14.434799,14.09848 25.025199,14.09848 3.0613,0 6.0382,-0.47233 8.8977,-1.38758 5.6286,8.15166 15.0313,13.50727 25.6654,13.50727 l 9.1408,0 0,1.34446 -8.4926,0 c -30.9793,0 -56.182299,25.20363 -56.182299,56.18226 0,2.34528 1.9011,4.24634 4.246299,4.24634 2.3452,0 4.2464,-1.90106 4.2464,-4.24634 0,-26.29591 21.3936,-47.6896 47.6896,-47.6896 l 12.7389,0 c 2.3454,0 4.2464,-1.90105 4.2464,-4.24632 l 0,-5.5908 25.6909,0 c 2.3453,0 4.2463,-1.90105 4.2463,-4.24633 0,-2.34529 -1.901,-4.24634 -4.2463,-4.24634 l -43.3244,0 c -12.5063,0 -22.6813,-10.17488 -22.6813,-22.68066 0,-12.50577 10.175,-22.68065 22.6813,-22.68065 l 58.8889,0 c 8.23,0 14.9249,6.69549 14.9249,14.92489 l 0,59.35787 c 0,23.81346 -11.5852,46.27133 -30.991,60.07454 l -0.1901,0.13523 c -14.1175,10.04225 -22.5461,26.37954 -22.5461,43.70392 0,2.34529 1.901,4.24634 4.2463,4.24634 2.3454,0 4.2464,-1.90105 4.2464,-4.24634 0,-14.5806 7.0932,-28.33154 18.9759,-36.78371 l 0.19,-0.13522 c 21.6413,-15.3933 34.5613,-40.43753 34.5613,-66.99475 l 0,-59.35788 c 7e-4,-12.91147 -10.5042,-23.41624 -23.4169,-23.41624 z M 38.359601,411.62284 c 0,11.45856 -9.3224,20.78025 -20.7809,20.78025 -11.4579996,0 -20.7802996,-9.32234 -20.7802996,-20.78025 l 0,-48.61923 c 0,-11.45857 9.3223,-20.78025 20.7802996,-20.78025 11.4585,0 20.7809,9.32168 20.7809,20.78025 l 0,48.61923 z m 29.2722,19.28096 c -11.4578,0 -20.7803,-9.32167 -20.7803,-20.78025 l 0,-68.08181 c 0,-11.45857 9.3225,-20.78026 20.7803,-20.78026 11.458,0 20.7803,9.32169 20.7803,20.78026 l 0,6.6e-4 0,0 0,68.07854 c 0,0.0176 0,0.0346 0,0.0516 -0.027,11.4357 -9.3374,20.73125 -20.779,20.73125 z M 121.073,420.34023 c 0,3.47677 0.5807,6.81896 1.6357,9.94427 -1.6293,0.40504 -3.3082,0.61734 -5.0256,0.61734 -11.441,0 -20.751599,-9.29424 -20.780299,-20.72929 0,-0.0164 0,-0.0327 0,-0.049 l 0,-76.59472 c 0,-11.45858 9.322299,-20.78026 20.780299,-20.78026 11.4579,0 20.7803,9.32168 20.7803,20.78026 l 0,58.85941 c -10.2938,5.09626 -17.3917,15.70883 -17.3917,27.95199 z m 25.8843,-30.71537 0,-47.9274 c 0,-11.45857 9.3223,-20.78025 20.7809,-20.78025 11.4579,0 20.7802,9.32168 20.7802,20.78025 l 0,47.46946 -36.2709,0 c -1.8043,0 -3.5694,0.16201 -5.2902,0.45794 z" />
    </g>
    <g
       id="g4272"
       transform="matrix(1.3333333,0,0,1.3333333,-358.71956,-214.7658)">
      <g
         transform="translate(70,44.285714)"
         id="g4250">
        <g
           id="g4229"
           transform="translate(11.428571,7.1428572)">
          <g
             transform="matrix(0.3,0,0,0.3,327.53968,399.35164)"
             id="g4196"
             style="stroke:none;stroke-width:1;stroke-miterlimit:4;stroke-dasharray:none;stroke-opacity:1">
            <circle
               style="opacity:1;fill:#000000;fill-opacity:1;stroke:none;stroke-width:1;stroke-miterlimit:4;stroke-dasharray:none;stroke-opacity:1"
               id="path4167-6"
               cx="351.42859"
               cy="455.21936"
               r="250" />
            <g
               id="g4289"
               transform="matrix(0.82424063,0,0,0.82424063,176.42946,280.21958)"
               style="fill:#00ff00;fill-opacity:1;stroke:none;stroke-width:1.21323788;stroke-miterlimit:4;stroke-dasharray:none;stroke-opacity:1">
              <path
                 id="path4251"
                 d="m 349.569,236.768 c -6.449,-8.88 -16.411,-14.604 -27.33,-15.705 l -5.217,-0.526 21.698,-144.846 c 1.364,-9.102 -0.898,-18.19 -6.37,-25.59 -5.472,-7.4 -13.498,-12.227 -22.6,-13.59 -9.104,-1.364 -18.19,0.899 -25.59,6.371 -7.399,5.472 -12.226,13.498 -13.59,22.6 L 250.166,201.69 228.431,30.128 C 226.043,11.28 208.764,-2.115 189.918,0.276 c -9.13,1.156 -17.264,5.8 -22.902,13.074 -5.638,7.274 -8.106,16.308 -6.949,25.438 l 14.767,116.561 c -5.685,-3.446 -12.251,-5.175 -19.043,-4.935 -9.198,0.329 -17.717,4.22 -23.988,10.956 -6.271,6.736 -9.543,15.511 -9.215,24.709 l 0.049,1.376 c -6.057,-4.491 -13.61,-7.045 -21.71,-6.754 -18.986,0.679 -33.881,16.678 -33.202,35.665 l 3.795,93.476 c 1.493,41.378 17.299,81.352 44.508,112.562 1.285,1.474 3.089,2.229 4.902,2.229 1.515,0 3.037,-0.527 4.269,-1.601 2.706,-2.359 2.987,-6.465 0.628,-9.171 -25.27,-28.985 -39.944,-66.111 -41.317,-104.542 -0.001,-0.038 -0.003,-0.077 -0.005,-0.115 l -3.788,-93.302 c -0.422,-11.823 8.853,-21.786 20.675,-22.209 11.796,-0.415 21.78,8.848 22.208,20.667 l 1.36,38.049 c 0.125,3.508 3.009,6.268 6.492,6.268 0.079,0 0.158,-0.001 0.237,-0.004 3.587,-0.128 6.392,-3.141 6.264,-6.729 l -2.372,-66.329 c -0.205,-5.727 1.833,-11.191 5.738,-15.386 3.905,-4.195 9.209,-6.617 14.937,-6.822 5.727,-0.202 11.191,1.833 15.386,5.738 3.324,3.094 5.513,7.074 6.39,11.441 l 8.537,67.388 c 0.451,3.562 3.707,6.086 7.265,5.631 3.562,-0.451 6.083,-3.704 5.631,-7.265 L 172.963,37.155 c -0.72,-5.686 0.817,-11.311 4.328,-15.841 3.511,-4.529 8.575,-7.42 14.261,-8.141 11.734,-1.485 22.495,6.852 23.982,18.589 l 24.174,190.814 c 0.655,5.168 4.911,8.961 10.12,9.02 5.182,0.097 9.549,-3.637 10.319,-8.789 l 23.28,-155.4 c 0.849,-5.667 3.854,-10.665 8.462,-14.072 4.608,-3.407 10.268,-4.814 15.935,-3.967 5.668,0.849 10.665,3.854 14.072,8.462 3.408,4.608 4.816,10.267 3.967,15.935 l -36.245,241.952 c -0.531,3.55 1.915,6.859 5.466,7.391 0.326,0.049 0.65,0.073 0.971,0.073 3.164,0 5.938,-2.314 6.421,-5.538 l 12.618,-84.234 5.842,0.589 c 7.237,0.729 13.841,4.523 18.115,10.409 4.276,5.889 5.842,13.347 4.295,20.461 l -15.74,72.29 c -0.019,0.087 -0.036,0.175 -0.052,0.264 -5.609,32.1 -26.837,58.947 -56.783,71.817 -3.298,1.417 -4.823,5.24 -3.405,8.538 1.058,2.461 3.455,3.935 5.975,3.935 0.856,0 1.727,-0.17 2.563,-0.53 33.951,-14.591 58.03,-45.009 64.433,-81.388 l 15.713,-72.163 c 2.332,-10.731 -0.029,-21.98 -6.481,-30.863 z"
                 inkscape:connector-curvature="0"
                 style="fill:#00ff00;fill-opacity:1;stroke:none;stroke-width:1.21323788;stroke-miterlimit:4;stroke-dasharray:none;stroke-opacity:1" />
              <g
                 id="g4253"
                 style="fill:#00ff00;fill-opacity:1;stroke:none;stroke-width:1.21323788;stroke-miterlimit:4;stroke-dasharray:none;stroke-opacity:1" />
              <g
                 id="g4255"
                 style="fill:#00ff00;fill-opacity:1;stroke:none;stroke-width:1.21323788;stroke-miterlimit:4;stroke-dasharray:none;stroke-opacity:1" />
              <g
                 id="g4257"
                 style="fill:#00ff00;fill-opacity:1;stroke:none;stroke-width:1.21323788;stroke-miterlimit:4;stroke-dasharray:none;stroke-opacity:1" />
              <g
                 id="g4259"
                 style="fill:#00ff00;fill-opacity:1;stroke:none;stroke-width:1.21323788;stroke-miterlimit:4;stroke-dasharray:none;stroke-opacity:1" />
              <g
                 id="g4261"
                 style="fill:#00ff00;fill-opacity:1;stroke:none;stroke-width:1.21323788;stroke-miterlimit:4;stroke-dasharray:none;stroke-opacity:1" />
              <g
                 id="g4263"
                 style="fill:#00ff00;fill-opacity:1;stroke:none;stroke-width:1.21323788;stroke-miterlimit:4;stroke-dasharray:none;stroke-opacity:1" />
              <g
                 id="g4265"
                 style="fill:#00ff00;fill-opacity:1;stroke:none;stroke-width:1.21323788;stroke-miterlimit:4;stroke-dasharray:none;stroke-opacity:1" />
              <g
                 id="g4267"
                 style="fill:#00ff00;fill-opacity:1;stroke:none;stroke-width:1.21323788;stroke-miterlimit:4;stroke-dasharray:none;stroke-opacity:1" />
              <g
                 id="g4269"
                 style="fill:#00ff00;fill-opacity:1;stroke:none;stroke-width:1.21323788;stroke-miterlimit:4;stroke-dasharray:none;stroke-opacity:1" />
              <g
                 id="g4271"
                 style="fill:#00ff00;fill-opacity:1;stroke:none;stroke-width:1.21323788;stroke-miterlimit:4;stroke-dasharray:none;stroke-opacity:1" />
              <g
                 id="g4273"
                 style="fill:#00ff00;fill-opacity:1;stroke:none;stroke-width:1.21323788;stroke-miterlimit:4;stroke-dasharray:none;stroke-opacity:1" />
              <g
                 id="g4275"
                 style="fill:#00ff00;fill-opacity:1;stroke:none;stroke-width:1.21323788;stroke-miterlimit:4;stroke-dasharray:none;stroke-opacity:1" />
              <g
                 id="g4277"
                 style="fill:#00ff00;fill-opacity:1;stroke:none;stroke-width:1.21323788;stroke-miterlimit:4;stroke-dasharray:none;stroke-opacity:1" />
              <g
                 id="g4279"
                 style="fill:#00ff00;fill-opacity:1;stroke:none;stroke-width:1.21323788;stroke-miterlimit:4;stroke-dasharray:none;stroke-opacity:1" />
              <g
                 id="g4281"
                 style="fill:#00ff00;fill-opacity:1;stroke:none;stroke-width:1.21323788;stroke-miterlimit:4;stroke-dasharray:none;stroke-opacity:1" />
            </g>
          </g>
        </g>
      </g>
    </g>
    <g
       transform="matrix(-0.2,0.34641016,-0.34641016,-0.2,415.31966,316.23184)"
       id="layer1-56"
       inkscape:label="Layer 1">
      <g
         id="g6909">
        <circle
           style="opacity:1;fill:#000000;fill-opacity:1;stroke:none;stroke-width:30;stroke-miterlimit:4;stroke-dasharray:none;stroke-opacity:1"
           id="path4167-7"
           cx="340"
           cy="423.79077"
           r="250" />
        <g
           id="g4175"
           transform="matrix(0.74468085,0,0,0.74468085,164.99968,248.79078)"
           style="fill:#ff0000;fill-opacity:1">
          <path
             id="path4177"
             d="m 382.526,321.423 c 0.158,-43.563 -0.004,-183.417 -0.006,-184.805 0.08,-19.952 -15.117,-35.643 -34.598,-35.721 l -0.146,0 c -7.668,0 -14.787,2.445 -20.612,6.594 l 0,-31.905 C 327.202,66.085 323.601,57.148 317.023,50.423 310.4,43.652 301.518,39.902 292.012,39.864 l -0.146,0 c -7.59,0 -14.638,2.421 -20.416,6.535 l 0,-10.679 C 271.488,26.217 267.824,17.268 261.132,10.521 254.439,3.775 245.52,0.039 236.017,0 l -0.146,0 c -19.703,0 -35.797,15.896 -35.875,35.464 l 0,10.5 c -5.748,-4.098 -12.751,-6.522 -20.294,-6.552 l -0.145,0 c -19.817,0 -36.003,15.896 -36.082,35.465 l 0,78.801 c -5.785,-4.126 -12.844,-6.568 -20.447,-6.599 l -0.146,0 c -19.537,0 -35.496,15.896 -35.575,35.479 0.001,0.977 0.167,98.213 0,139.768 -0.001,0.418 0.034,0.832 0.104,1.239 C 88.064,404.422 154.333,470 235.696,470 c 39.438,0 76.399,-15.242 104.077,-42.917 27.678,-27.676 42.921,-64.637 42.921,-104.074 0,-0.545 -0.057,-1.075 -0.168,-1.586 z M 291.951,54.864 c 5.459,0.022 10.555,2.17 14.349,6.048 3.804,3.889 5.887,9.079 5.864,14.644 l 0,150.955 -40.714,-0.13 0,-151.021 c 0.046,-11.301 9.205,-20.496 20.501,-20.496 z M 235.696,455 c -73.496,0 -133.29,-59.504 -133.29,-132.644 0,-0.4 -0.032,-0.792 -0.094,-1.175 0.16,-42.238 -0.003,-137.68 -0.004,-138.606 0.045,-11.301 9.275,-20.496 20.66,-20.496 11.263,0.045 20.463,9.237 20.508,20.461 l 0,115.851 c 0,4.13 3.339,7.483 7.47,7.5 20.854,0.084 40.343,8.297 54.877,23.127 14.512,14.808 22.458,34.517 22.374,55.497 -0.017,4.142 3.328,7.514 7.47,7.53 4.159,0 7.514,-3.338 7.53,-7.47 0.101,-24.953 -9.368,-48.412 -26.661,-66.057 -15.613,-15.93 -36.007,-25.47 -58.06,-27.303 l 0,-216.308 c 0.045,-11.11 9.699,-20.496 21.166,-20.496 11.178,0.045 20.309,9.236 20.354,20.458 l 0,98.76 c 0,4.142 3.358,7.5 7.5,7.5 4.142,0 7.5,-3.358 7.5,-7.5 l 0,-138.135 C 215.041,24.193 224.406,15 235.956,15 c 5.497,0.022 10.655,2.183 14.526,6.085 3.871,3.902 5.99,9.078 5.968,14.604 l 0,190.643 -41.455,-0.132 0,-22.57 c 0,-4.142 -3.358,-7.5 -7.5,-7.5 -4.142,0 -7.5,3.358 -7.5,7.5 l 0,22.524 -7.476,-0.024 c -4.155,0 -7.511,3.342 -7.524,7.476 -0.013,4.142 3.334,7.511 7.476,7.524 l 126.35,0.402 c 0.277,0.031 0.558,0.05 0.843,0.05 0.273,0 0.543,-0.017 0.809,-0.045 l 14.167,0.045 c 4.155,0 7.511,-3.342 7.524,-7.476 0.013,-4.142 -3.334,-7.511 -7.476,-7.524 l -7.524,-0.024 0,-90.167 c 0.045,-11.301 9.292,-20.495 20.697,-20.495 11.07,0.044 19.705,9.12 19.659,20.7 0.001,1.443 0.167,144.824 0,186.381 -0.002,0.54 0.054,1.074 0.165,1.594 C 366.847,396.637 307.96,455 235.696,455 Z"
             inkscape:connector-curvature="0"
             style="fill:#ff0000;fill-opacity:1" />
        </g>
      </g>
    </g>
  </g>
</svg>
