<?xml version="1.0" encoding="UTF-8" standalone="no"?>
<!-- Created with Inkscape (http://www.inkscape.org/) -->

<svg
   xmlns:dc="http://purl.org/dc/elements/1.1/"
   xmlns:cc="http://creativecommons.org/ns#"
   xmlns:rdf="http://www.w3.org/1999/02/22-rdf-syntax-ns#"
   xmlns:svg="http://www.w3.org/2000/svg"
   xmlns="http://www.w3.org/2000/svg"
   xmlns:sodipodi="http://sodipodi.sourceforge.net/DTD/sodipodi-0.dtd"
   xmlns:inkscape="http://www.inkscape.org/namespaces/inkscape"
   width="141.11111mm"
   height="141.11111mm"
   viewBox="0 0 500.00001 500.00001"
   id="svg4349"
   version="1.1"
   inkscape:version="0.91 r13725"
   sodipodi:docname="paper.svg">
  <defs
     id="defs4351" />
  <sodipodi:namedview
     id="base"
     pagecolor="#ffffff"
     bordercolor="#666666"
     borderopacity="1.0"
     inkscape:pageopacity="0.0"
     inkscape:pageshadow="2"
     inkscape:zoom="0.35"
     inkscape:cx="219.28572"
     inkscape:cy="235.71426"
     inkscape:document-units="px"
     inkscape:current-layer="layer1"
     showgrid="false"
     inkscape:showpageshadow="false"
     fit-margin-top="0"
     fit-margin-left="0"
     fit-margin-right="0"
     fit-margin-bottom="0"
     inkscape:window-width="1315"
     inkscape:window-height="744"
     inkscape:window-x="51"
     inkscape:window-y="24"
     inkscape:window-maximized="1" />
  <metadata
     id="metadata4354">
    <rdf:RDF>
      <cc:Work
         rdf:about="">
        <dc:format>image/svg+xml</dc:format>
        <dc:type
           rdf:resource="http://purl.org/dc/dcmitype/StillImage" />
        <dc:title />
      </cc:Work>
    </rdf:RDF>
  </metadata>
  <g
     inkscape:label="Layer 1"
     inkscape:groupmode="layer"
     id="layer1"
     transform="translate(-350,-399.50507)">
    <circle
       style="opacity:1;fill:#000000;fill-opacity:1;stroke:none;stroke-width:30;stroke-miterlimit:4;stroke-dasharray:none;stroke-opacity:1"
       id="path4167-7"
       cx="600"
       cy="649.50507"
       r="250" />
    <g
       id="g4175"
       transform="matrix(0.74468085,0,0,0.74468085,424.99968,474.50507)"
       style="fill:#ffffff;fill-opacity:1">
      <path
         id="path4177"
         d="m 382.526,321.423 c 0.158,-43.563 -0.004,-183.417 -0.006,-184.805 0.08,-19.952 -15.117,-35.643 -34.598,-35.721 l -0.146,0 c -7.668,0 -14.787,2.445 -20.612,6.594 l 0,-31.905 C 327.202,66.085 323.601,57.148 317.023,50.423 310.4,43.652 301.518,39.902 292.012,39.864 l -0.146,0 c -7.59,0 -14.638,2.421 -20.416,6.535 l 0,-10.679 C 271.488,26.217 267.824,17.268 261.132,10.521 254.439,3.775 245.52,0.039 236.017,0 l -0.146,0 c -19.703,0 -35.797,15.896 -35.875,35.464 l 0,10.5 c -5.748,-4.098 -12.751,-6.522 -20.294,-6.552 l -0.145,0 c -19.817,0 -36.003,15.896 -36.082,35.465 l 0,78.801 c -5.785,-4.126 -12.844,-6.568 -20.447,-6.599 l -0.146,0 c -19.537,0 -35.496,15.896 -35.575,35.479 0.001,0.977 0.167,98.213 0,139.768 -0.001,0.418 0.034,0.832 0.104,1.239 C 88.064,404.422 154.333,470 235.696,470 c 39.438,0 76.399,-15.242 104.077,-42.917 27.678,-27.676 42.921,-64.637 42.921,-104.074 0,-0.545 -0.057,-1.075 -0.168,-1.586 z M 291.951,54.864 c 5.459,0.022 10.555,2.17 14.349,6.048 3.804,3.889 5.887,9.079 5.864,14.644 l 0,150.955 -40.714,-0.13 0,-151.021 c 0.046,-11.301 9.205,-20.496 20.501,-20.496 z M 235.696,455 c -73.496,0 -133.29,-59.504 -133.29,-132.644 0,-0.4 -0.032,-0.792 -0.094,-1.175 0.16,-42.238 -0.003,-137.68 -0.004,-138.606 0.045,-11.301 9.275,-20.496 20.66,-20.496 11.263,0.045 20.463,9.237 20.508,20.461 l 0,115.851 c 0,4.13 3.339,7.483 7.47,7.5 20.854,0.084 40.343,8.297 54.877,23.127 14.512,14.808 22.458,34.517 22.374,55.497 -0.017,4.142 3.328,7.514 7.47,7.53 4.159,0 7.514,-3.338 7.53,-7.47 0.101,-24.953 -9.368,-48.412 -26.661,-66.057 -15.613,-15.93 -36.007,-25.47 -58.06,-27.303 l 0,-216.308 c 0.045,-11.11 9.699,-20.496 21.166,-20.496 11.178,0.045 20.309,9.236 20.354,20.458 l 0,98.76 c 0,4.142 3.358,7.5 7.5,7.5 4.142,0 7.5,-3.358 7.5,-7.5 l 0,-138.135 C 215.041,24.193 224.406,15 235.956,15 c 5.497,0.022 10.655,2.183 14.526,6.085 3.871,3.902 5.99,9.078 5.968,14.604 l 0,190.643 -41.455,-0.132 0,-22.57 c 0,-4.142 -3.358,-7.5 -7.5,-7.5 -4.142,0 -7.5,3.358 -7.5,7.5 l 0,22.524 -7.476,-0.024 c -4.155,0 -7.511,3.342 -7.524,7.476 -0.013,4.142 3.334,7.511 7.476,7.524 l 126.35,0.402 c 0.277,0.031 0.558,0.05 0.843,0.05 0.273,0 0.543,-0.017 0.809,-0.045 l 14.167,0.045 c 4.155,0 7.511,-3.342 7.524,-7.476 0.013,-4.142 -3.334,-7.511 -7.476,-7.524 l -7.524,-0.024 0,-90.167 c 0.045,-11.301 9.292,-20.495 20.697,-20.495 11.07,0.044 19.705,9.12 19.659,20.7 0.001,1.443 0.167,144.824 0,186.381 -0.002,0.54 0.054,1.074 0.165,1.594 C 366.847,396.637 307.96,455 235.696,455 Z"
         inkscape:connector-curvature="0"
         style="fill:#ffffff;fill-opacity:1" />
    </g>
  </g>
</svg>
