<?xml version="1.0" encoding="UTF-8" standalone="no"?>
<!-- Created with Inkscape (http://www.inkscape.org/) -->

<svg
   xmlns:dc="http://purl.org/dc/elements/1.1/"
   xmlns:cc="http://creativecommons.org/ns#"
   xmlns:rdf="http://www.w3.org/1999/02/22-rdf-syntax-ns#"
   xmlns:svg="http://www.w3.org/2000/svg"
   xmlns="http://www.w3.org/2000/svg"
   xmlns:sodipodi="http://sodipodi.sourceforge.net/DTD/sodipodi-0.dtd"
   xmlns:inkscape="http://www.inkscape.org/namespaces/inkscape"
   width="141.11111mm"
   height="141.11111mm"
   viewBox="0 0 500.00001 500.00001"
   id="svg2"
   version="1.1"
   inkscape:version="0.91 r13725"
   sodipodi:docname="rock_won.svg">
  <defs
     id="defs4" />
  <sodipodi:namedview
     id="base"
     pagecolor="#ffffff"
     bordercolor="#666666"
     borderopacity="1.0"
     inkscape:pageopacity="0.0"
     inkscape:pageshadow="2"
     inkscape:zoom="0.7"
     inkscape:cx="373.67656"
     inkscape:cy="232.51343"
     inkscape:document-units="px"
     inkscape:current-layer="layer1"
     showgrid="false"
     fit-margin-top="0"
     fit-margin-left="0"
     fit-margin-right="0"
     fit-margin-bottom="0"
     inkscape:showpageshadow="false"
     inkscape:window-width="1315"
     inkscape:window-height="744"
     inkscape:window-x="51"
     inkscape:window-y="24"
     inkscape:window-maximized="1" />
  <metadata
     id="metadata7">
    <rdf:RDF>
      <cc:Work
         rdf:about="">
        <dc:format>image/svg+xml</dc:format>
        <dc:type
           rdf:resource="http://purl.org/dc/dcmitype/StillImage" />
        <dc:title></dc:title>
      </cc:Work>
    </rdf:RDF>
  </metadata>
  <g
     inkscape:label="Layer 1"
     inkscape:groupmode="layer"
     id="layer1"
     transform="translate(-87.142853,-188.07648)">
    <g
       id="g4148">
      <circle
         r="250"
         cy="438.07648"
         cx="337.14285"
         id="path4167"
         style="opacity:1;fill:#000000;fill-opacity:1;stroke:none;stroke-width:30;stroke-miterlimit:4;stroke-dasharray:none;stroke-opacity:1" />
      <path
         inkscape:connector-curvature="0"
         style="fill:#00ff00;fill-opacity:1;stroke:#00ff00;stroke-width:0.93023258;stroke-opacity:1"
         id="path3"
         d="m 436.84938,383.45264 -14.1246,0 0,-47.46946 c 0,-16.14129 -13.1323,-29.27292 -29.2736,-29.27292 -9.1303,0 -17.2957,4.20388 -22.6676,10.77458 -4.1843,-11.0581 -14.8785,-18.94322 -27.3842,-18.94322 -12.5934,0 -23.353,7.99356 -27.4758,19.17253 -5.3733,-6.50669 -13.4994,-10.66026 -22.5775,-10.66026 -16.1413,0 -29.2729,13.13163 -29.2729,29.27293 l 0,0.36779 c -5.308,-5.35561 -12.6625,-8.67886 -20.7808,-8.67886 -16.1414,0 -29.273,13.13164 -29.273,29.27294 l 0,91.23412 c 0,36.22189 12.3902,71.6742 34.9205,100.00902 l 0,24.83322 c 0,2.34528 1.9011,4.24633 4.2464,4.24633 2.3452,0 4.2463,-1.90105 4.2463,-4.24633 l 0,-26.32728 c 0,-0.97404 -0.3351,-1.91804 -0.9479,-2.67454 -21.9072,-27.01909 -33.9726,-61.05576 -33.9726,-95.84108 l 0,-22.02084 c 5.3079,5.35562 12.6618,8.67886 20.7803,8.67886 10.9162,0 20.4497,-6.0102 25.4818,-14.89156 5.221,8.05104 14.2814,13.39228 24.5712,13.39228 10.5911,0 19.886,-5.6535 25.0261,-14.10109 5.1406,8.44627 14.4348,14.09848 25.0252,14.09848 3.0613,0 6.0382,-0.47233 8.8977,-1.38758 5.6286,8.15166 15.0313,13.50727 25.6654,13.50727 l 9.1408,0 0,1.34446 -8.4926,0 c -30.9793,0 -56.1823,25.20363 -56.1823,56.18226 0,2.34528 1.9011,4.24634 4.2463,4.24634 2.3452,0 4.2464,-1.90106 4.2464,-4.24634 0,-26.29591 21.3936,-47.6896 47.6896,-47.6896 l 12.7389,0 c 2.3454,0 4.2464,-1.90105 4.2464,-4.24632 l 0,-5.5908 25.6909,0 c 2.3453,0 4.2463,-1.90105 4.2463,-4.24633 0,-2.34529 -1.901,-4.24634 -4.2463,-4.24634 l -43.3244,0 c -12.5063,0 -22.6813,-10.17488 -22.6813,-22.68066 0,-12.50577 10.175,-22.68065 22.6813,-22.68065 l 58.8889,0 c 8.23,0 14.9249,6.69549 14.9249,14.92489 l 0,59.35787 c 0,23.81346 -11.5852,46.27133 -30.991,60.07454 l -0.1901,0.13523 c -14.1175,10.04225 -22.5461,26.37954 -22.5461,43.70392 0,2.34529 1.901,4.24634 4.2463,4.24634 2.3454,0 4.2464,-1.90105 4.2464,-4.24634 0,-14.5806 7.0932,-28.33154 18.9759,-36.78371 l 0.19,-0.13522 c 21.6413,-15.3933 34.5613,-40.43753 34.5613,-66.99475 l 0,-59.35788 c 7e-4,-12.91147 -10.5042,-23.41624 -23.4169,-23.41624 z m -172.7755,22.45592 c 0,11.45856 -9.3224,20.78025 -20.7809,20.78025 -11.458,0 -20.7803,-9.32234 -20.7803,-20.78025 l 0,-48.61923 c 0,-11.45857 9.3223,-20.78025 20.7803,-20.78025 11.4585,0 20.7809,9.32168 20.7809,20.78025 l 0,48.61923 z m 29.2722,19.28096 c -11.4578,0 -20.7803,-9.32167 -20.7803,-20.78025 l 0,-68.08181 c 0,-11.45857 9.3225,-20.78026 20.7803,-20.78026 11.458,0 20.7803,9.32169 20.7803,20.78026 l 0,6.6e-4 0,0 0,68.07854 c 0,0.0176 0,0.0346 0,0.0516 -0.027,11.4357 -9.3374,20.73125 -20.779,20.73125 z m 53.4412,-10.56357 c 0,3.47677 0.5807,6.81896 1.6357,9.94427 -1.6293,0.40504 -3.3082,0.61734 -5.0256,0.61734 -11.441,0 -20.7516,-9.29424 -20.7803,-20.72929 0,-0.0164 0,-0.0327 0,-0.049 l 0,-76.59472 c 0,-11.45858 9.3223,-20.78026 20.7803,-20.78026 11.4579,0 20.7803,9.32168 20.7803,20.78026 l 0,58.85941 c -10.2938,5.09626 -17.3917,15.70883 -17.3917,27.95199 z m 25.8843,-30.71537 0,-47.9274 c 0,-11.45857 9.3223,-20.78025 20.7809,-20.78025 11.4579,0 20.7802,9.32168 20.7802,20.78025 l 0,47.46946 -36.2709,0 c -1.8043,0 -3.5694,0.16201 -5.2902,0.45794 z" />
    </g>
  </g>
</svg>
