<?xml version="1.0" encoding="UTF-8" standalone="no"?>
<!-- Created with Inkscape (http://www.inkscape.org/) -->

<svg
   xmlns:dc="http://purl.org/dc/elements/1.1/"
   xmlns:cc="http://creativecommons.org/ns#"
   xmlns:rdf="http://www.w3.org/1999/02/22-rdf-syntax-ns#"
   xmlns:svg="http://www.w3.org/2000/svg"
   xmlns="http://www.w3.org/2000/svg"
   xmlns:sodipodi="http://sodipodi.sourceforge.net/DTD/sodipodi-0.dtd"
   xmlns:inkscape="http://www.inkscape.org/namespaces/inkscape"
   width="141.11111mm"
   height="141.11111mm"
   viewBox="0 0 500.00001 500.00001"
   id="svg4273"
   version="1.1"
   inkscape:version="0.91 r13725"
   sodipodi:docname="scissor_won.svg">
  <defs
     id="defs4275" />
  <sodipodi:namedview
     id="base"
     pagecolor="#ffffff"
     bordercolor="#666666"
     borderopacity="1.0"
     inkscape:pageopacity="0.0"
     inkscape:pageshadow="2"
     inkscape:zoom="0.35"
     inkscape:cx="256.42857"
     inkscape:cy="172.85714"
     inkscape:document-units="px"
     inkscape:current-layer="layer1"
     showgrid="false"
     fit-margin-top="0"
     fit-margin-left="0"
     fit-margin-right="0"
     fit-margin-bottom="0"
     inkscape:showpageshadow="false"
     inkscape:window-width="1315"
     inkscape:window-height="744"
     inkscape:window-x="51"
     inkscape:window-y="24"
     inkscape:window-maximized="1" />
  <metadata
     id="metadata4278">
    <rdf:RDF>
      <cc:Work
         rdf:about="">
        <dc:format>image/svg+xml</dc:format>
        <dc:type
           rdf:resource="http://purl.org/dc/dcmitype/StillImage" />
        <dc:title></dc:title>
      </cc:Work>
    </rdf:RDF>
  </metadata>
  <g
     inkscape:label="Layer 1"
     inkscape:groupmode="layer"
     id="layer1"
     transform="translate(-118.57143,-205.21935)">
    <g
       id="g4196"
       transform="translate(17.142844,-1.2742857e-5)">
      <circle
         r="250"
         cy="455.21936"
         cx="351.42859"
         id="path4167-6"
         style="opacity:1;fill:#000000;fill-opacity:1;stroke:none;stroke-width:30;stroke-miterlimit:4;stroke-dasharray:none;stroke-opacity:1" />
      <g
         style="fill:#00ff00;fill-opacity:1"
         transform="matrix(0.82424063,0,0,0.82424063,176.42946,280.21958)"
         id="g4289">
        <path
           style="fill:#00ff00;fill-opacity:1"
           inkscape:connector-curvature="0"
           d="m 349.569,236.768 c -6.449,-8.88 -16.411,-14.604 -27.33,-15.705 l -5.217,-0.526 21.698,-144.846 c 1.364,-9.102 -0.898,-18.19 -6.37,-25.59 -5.472,-7.4 -13.498,-12.227 -22.6,-13.59 -9.104,-1.364 -18.19,0.899 -25.59,6.371 -7.399,5.472 -12.226,13.498 -13.59,22.6 L 250.166,201.69 228.431,30.128 C 226.043,11.28 208.764,-2.115 189.918,0.276 c -9.13,1.156 -17.264,5.8 -22.902,13.074 -5.638,7.274 -8.106,16.308 -6.949,25.438 l 14.767,116.561 c -5.685,-3.446 -12.251,-5.175 -19.043,-4.935 -9.198,0.329 -17.717,4.22 -23.988,10.956 -6.271,6.736 -9.543,15.511 -9.215,24.709 l 0.049,1.376 c -6.057,-4.491 -13.61,-7.045 -21.71,-6.754 -18.986,0.679 -33.881,16.678 -33.202,35.665 l 3.795,93.476 c 1.493,41.378 17.299,81.352 44.508,112.562 1.285,1.474 3.089,2.229 4.902,2.229 1.515,0 3.037,-0.527 4.269,-1.601 2.706,-2.359 2.987,-6.465 0.628,-9.171 -25.27,-28.985 -39.944,-66.111 -41.317,-104.542 -0.001,-0.038 -0.003,-0.077 -0.005,-0.115 l -3.788,-93.302 c -0.422,-11.823 8.853,-21.786 20.675,-22.209 11.796,-0.415 21.78,8.848 22.208,20.667 l 1.36,38.049 c 0.125,3.508 3.009,6.268 6.492,6.268 0.079,0 0.158,-0.001 0.237,-0.004 3.587,-0.128 6.392,-3.141 6.264,-6.729 l -2.372,-66.329 c -0.205,-5.727 1.833,-11.191 5.738,-15.386 3.905,-4.195 9.209,-6.617 14.937,-6.822 5.727,-0.202 11.191,1.833 15.386,5.738 3.324,3.094 5.513,7.074 6.39,11.441 l 8.537,67.388 c 0.451,3.562 3.707,6.086 7.265,5.631 3.562,-0.451 6.083,-3.704 5.631,-7.265 L 172.963,37.155 c -0.72,-5.686 0.817,-11.311 4.328,-15.841 3.511,-4.529 8.575,-7.42 14.261,-8.141 11.734,-1.485 22.495,6.852 23.982,18.589 l 24.174,190.814 c 0.655,5.168 4.911,8.961 10.12,9.02 5.182,0.097 9.549,-3.637 10.319,-8.789 l 23.28,-155.4 c 0.849,-5.667 3.854,-10.665 8.462,-14.072 4.608,-3.407 10.268,-4.814 15.935,-3.967 5.668,0.849 10.665,3.854 14.072,8.462 3.408,4.608 4.816,10.267 3.967,15.935 l -36.245,241.952 c -0.531,3.55 1.915,6.859 5.466,7.391 0.326,0.049 0.65,0.073 0.971,0.073 3.164,0 5.938,-2.314 6.421,-5.538 l 12.618,-84.234 5.842,0.589 c 7.237,0.729 13.841,4.523 18.115,10.409 4.276,5.889 5.842,13.347 4.295,20.461 l -15.74,72.29 c -0.019,0.087 -0.036,0.175 -0.052,0.264 -5.609,32.1 -26.837,58.947 -56.783,71.817 -3.298,1.417 -4.823,5.24 -3.405,8.538 1.058,2.461 3.455,3.935 5.975,3.935 0.856,0 1.727,-0.17 2.563,-0.53 33.951,-14.591 58.03,-45.009 64.433,-81.388 l 15.713,-72.163 c 2.332,-10.731 -0.029,-21.98 -6.481,-30.863 z"
           id="path4251" />
        <g
           style="fill:#00ff00;fill-opacity:1"
           id="g4253" />
        <g
           style="fill:#00ff00;fill-opacity:1"
           id="g4255" />
        <g
           style="fill:#00ff00;fill-opacity:1"
           id="g4257" />
        <g
           style="fill:#00ff00;fill-opacity:1"
           id="g4259" />
        <g
           style="fill:#00ff00;fill-opacity:1"
           id="g4261" />
        <g
           style="fill:#00ff00;fill-opacity:1"
           id="g4263" />
        <g
           style="fill:#00ff00;fill-opacity:1"
           id="g4265" />
        <g
           style="fill:#00ff00;fill-opacity:1"
           id="g4267" />
        <g
           style="fill:#00ff00;fill-opacity:1"
           id="g4269" />
        <g
           style="fill:#00ff00;fill-opacity:1"
           id="g4271" />
        <g
           style="fill:#00ff00;fill-opacity:1"
           id="g4273" />
        <g
           style="fill:#00ff00;fill-opacity:1"
           id="g4275" />
        <g
           style="fill:#00ff00;fill-opacity:1"
           id="g4277" />
        <g
           style="fill:#00ff00;fill-opacity:1"
           id="g4279" />
        <g
           style="fill:#00ff00;fill-opacity:1"
           id="g4281" />
      </g>
    </g>
  </g>
</svg>
