<svg xmlns="http://www.w3.org/2000/svg" width="85" height="89" viewBox="0 0 85 89">
  <g fill="none" fill-rule="evenodd">
    <path fill="#A0EA56" d="M41.0262033,72.8372093 C25.6275785,72.8372093 13.1503438,60.3423256 13.1503438,44.9302326 C13.1503438,29.5181395 25.6275785,17.0232558 41.0262033,17.0232558 C56.4248281,17.0232558 68.9020628,29.5181395 68.9020628,44.9302326 C68.9020628,60.3423256 56.4248281,72.8372093 41.0262033,72.8372093 Z M77.78517,22.292093 L82,15.9590698 L80.7511615,13.3023256 L74.8823639,13.2427907 L72.6188441,10.9767442 L72.6188441,4 L64.7392678,7.40093023 L61.1116893,11.4269767 L61.1079725,11.4753488 C55.2354581,7.93674419 48.3817134,5.86046512 41.0262033,5.86046512 C19.4725887,5.86046512 2,23.3525581 2,44.9302326 C2,66.507907 19.4725887,84 41.0262033,84 C62.5798179,84 80.0524066,66.507907 80.0524066,44.9302326 C80.0524066,37.332093 77.8520721,30.2660465 74.1018398,24.267907 L77.78517,22.292093 Z" opacity=".3"/>
    <path fill="#16D2FF" d="M40.6518924,81.5833071 C20.2742074,81.5833071 3.69562658,64.9476651 3.69562658,44.4998429 C3.69562658,24.0520207 20.2742074,7.41637861 40.6518924,7.41637861 C47.0379351,7.41637861 53.2687615,9.11480128 58.7900276,12.2446457 L57.8809035,20.4400913 C53.0248502,16.9282872 47.0822826,14.8330715 40.6518924,14.8330715 C24.3504835,14.8330715 11.0868797,28.1423268 11.0868797,44.4998429 C11.0868797,60.857359 24.3504835,74.1666143 40.6518924,74.1666143 C56.9533012,74.1666143 70.216905,60.857359 70.216905,44.4998429 C70.216905,38.0473201 68.1325716,32.084299 64.6291176,27.2115318 L72.7964524,26.2992786 C75.9155612,31.8358398 77.6081582,38.0881119 77.6081582,44.4998429 C77.6081582,64.9476651 61.0295774,81.5833071 40.6518924,81.5833071 Z M70.216905,5.31745454 L70.216905,12.2112705 L61.5469651,20.9073429 L62.7221743,10.3348473 L70.216905,5.31745454 Z M44.3844752,38.1326121 C43.2831785,37.4836514 42.0192742,37.08315 40.6518924,37.08315 C36.5756163,37.08315 33.2606392,40.4095368 33.2606392,44.4998429 C33.2606392,48.590149 36.5756163,51.9165357 40.6518924,51.9165357 C44.7281685,51.9165357 48.0431456,48.590149 48.0431456,44.4998429 C48.0431456,43.1277547 47.6477135,41.8595002 46.9972832,40.754413 L52.2783336,35.4514776 C54.2296244,37.9657365 55.4343987,41.0807475 55.4343987,44.4998429 C55.4343987,52.6804551 48.8044446,59.3332286 40.6518924,59.3332286 C32.4993402,59.3332286 25.8693861,52.6804551 25.8693861,44.4998429 C25.8693861,36.3192307 32.4993402,29.6664572 40.6518924,29.6664572 C44.0629557,29.6664572 47.1672821,30.8790865 49.6655256,32.8296767 L44.3844752,38.1326121 Z M44.347519,44.4998429 C44.347519,46.5431418 42.6918783,48.2081893 40.6518924,48.2081893 C38.6119065,48.2081893 36.9562658,46.5431418 36.9562658,44.4998429 C36.9562658,42.456544 38.6119065,40.7914965 40.6518924,40.7914965 C40.9697163,40.7914965 41.2579751,40.8990385 41.5536253,40.9732054 L39.3436406,43.1870882 C38.6229934,43.9139241 38.6229934,45.0857616 39.3436406,45.8125975 C39.705812,46.1723071 40.1788522,46.3540161 40.6518924,46.3540161 C41.1249326,46.3540161 41.5979728,46.1723071 41.9601442,45.8125975 L44.1664333,43.5950064 C44.2440414,43.8916741 44.347519,44.1809251 44.347519,44.4998429 Z M57.3635158,25.1088994 L52.2783336,30.2078758 C49.0927035,27.5934915 45.079253,25.9581107 40.6518924,25.9581107 C30.4630499,25.9581107 22.1737595,34.2759318 22.1737595,44.4998429 C22.1737595,54.723754 30.4630499,63.041575 40.6518924,63.041575 C50.8407349,63.041575 59.1300253,54.723754 59.1300253,44.4998429 C59.1300253,40.0572439 57.500254,36.0299796 54.8948372,32.833385 L59.9763238,27.7307003 L60.3274083,27.6899085 C64.1819468,32.2252162 66.5212785,38.0881119 66.5212785,44.4998429 C66.5212785,58.8140601 54.9133154,70.4582679 40.6518924,70.4582679 C26.3904694,70.4582679 14.7825063,58.8140601 14.7825063,44.4998429 C14.7825063,30.1856257 26.3904694,18.5414179 40.6518924,18.5414179 C47.0416307,18.5414179 52.888112,20.8888012 57.4041677,24.7566065 L57.3635158,25.1088994 Z M79.6961872,14.8330715 L74.6997001,22.3573064 L64.1597731,23.5328522 L72.829713,14.8330715 L79.6961872,14.8330715 Z M84.6889787,14.0061102 C85.0696283,13.4387332 85.1028889,12.708189 84.7776738,12.1037285 C84.4598499,11.5029764 83.835289,11.124725 83.1515981,11.124725 L73.9125316,11.124725 L73.9125316,1.85385897 C73.9125316,1.16781489 73.5355777,0.54110434 72.9368862,0.2184782 C72.3381947,-0.100439592 71.6101563,-0.0707728208 71.0410298,0.311186861 L59.95415,7.72787971 C59.6991518,7.8947553 59.5143705,8.12838113 59.370241,8.38796538 C53.6013679,5.37307973 47.2042383,3.70803219 40.6518924,3.70803219 C18.2379172,3.70803219 0,22.0087218 0,44.4998429 C0,57.1119291 5.73930808,68.4001356 14.7233763,75.887287 L11.1792704,86.5599081 C10.8577509,87.5314948 11.3825299,88.5809569 12.350784,88.903583 C12.5466522,88.9703332 12.7388248,89 12.934693,89 C13.707079,89 14.4277262,88.5104983 14.6901157,87.7317455 L17.8424851,78.242087 C24.3504835,82.6883944 32.20369,85.2916536 40.6518924,85.2916536 C49.1000948,85.2916536 56.9533012,82.6883944 63.4612996,78.242087 L66.6136691,87.7317455 C66.8760586,88.5104983 67.5967058,89 68.3690917,89 C68.56496,89 68.7571325,88.9703332 68.9530007,88.903583 C69.9212549,88.5809569 70.4460339,87.5314948 70.1245144,86.5599081 L66.5804085,75.887287 C75.5644767,68.4001356 81.3037848,57.1119291 81.3037848,44.4998429 C81.3037848,37.917528 79.6444484,31.5020887 76.639904,25.7170682 C76.9022935,25.5724427 77.1314224,25.3870254 77.2977256,25.1311495 L84.6889787,14.0061102 Z"/>
    <path fill="#A0EA56" d="M40.5,50 C37.464,50 35,47.5396667 35,44.5 C35,41.4603333 37.464,39 40.5,39 C43.536,39 46,41.4603333 46,44.5 C46,47.5396667 43.536,50 40.5,50 M40.5,28 C31.3883333,28 24,35.3883333 24,44.5 C24,53.6116667 31.3883333,61 40.5,61 C49.6116667,61 57,53.6116667 57,44.5 C57,35.3883333 49.6116667,28 40.5,28" opacity=".3"/>
  </g>
</svg>
