<?xml version="1.0" encoding="utf-8"?>
<!-- Generator: Adobe Illustrator 22.0.0, SVG Export Plug-In . SVG Version: 6.00 Build 0)  -->
<svg version="1.1" id="Layer_1" xmlns="http://www.w3.org/2000/svg" xmlns:xlink="http://www.w3.org/1999/xlink" x="0px" y="0px"
	 viewBox="0 0 86 86" style="enable-background:new 0 0 86 86;" xml:space="preserve">
<style type="text/css">
	.st0{opacity:0.3;fill:#A0EA56;enable-background:new    ;}
	.st1{fill:#16D2FF;}
</style>
<g id="Layer_16">
	<g id="Layer_10">
		<polygon class="st0" points="42.9,73.1 57.2,32 42.9,32 28.6,32 		"/>
	</g>
</g>
<g id="Layer_15">
	<g id="Layer_9">
		<polygon class="st0" points="42.9,73.1 79.4,32 67.2,32 57.2,32 		"/>
	</g>
</g>
<g id="Layer_14">
	<g id="Layer_8">
		<polygon class="st0" points="42.9,73.1 28.6,31.9 18.6,31.9 6.5,31.9 		"/>
	</g>
</g>
<g id="Layer_13">
	<g id="Layer_7">
		<polygon class="st0" points="57.2,32 67.9,13 55,13 42.9,13 		"/>
	</g>
</g>
<g id="Layer_12">
	<g id="Layer_5">
		<polygon class="st0" points="28.6,32 42.9,13 30.8,13 18,13 		"/>
	</g>
</g>
<g id="Layer_11">
	<g id="Layer_4">
		<path class="st1" d="M47.3,67.7l12-34.8h18.7L47.3,67.7z M7.8,32.9h18.7l12,34.8L7.8,32.9z M16.2,14.2l8.6,15.2H7.1L16.2,14.2z
			 M39.5,12.6L27.9,28.2l-8.7-15.5H39.5z M57.9,28.2L46.3,12.6h20.3L57.9,28.2z M61.1,29.6l8.5-15.2l9.3,15.2H61.1z M55.8,32.9
			L42.9,70.1L30,32.9H55.8z M31.1,29.6l11.8-15.8l11.8,15.8H31.1z M83.5,31.4c0-0.2,0-0.4-0.1-0.6c0-0.1,0-0.2,0-0.3l-0.1-0.1v-0.1
			L71,10.1l0,0c0,0-0.1,0-0.1-0.1c-0.3-0.5-0.9-0.8-1.4-0.8H42.9H16.3l0,0c-0.3,0-0.6,0.1-0.9,0.2c-0.1,0.1-0.2,0.2-0.2,0.2
			C15.2,9.7,15,9.8,14.9,10l0,0L2.6,30.2v0.1c0,0-0.1,0-0.1,0.1s0,0.2,0,0.3c0,0.2-0.1,0.4-0.1,0.6c0,0.1,0.1,0.3,0.1,0.4
			s0,0.2,0.1,0.4c0,0.1,0.1,0.1,0.1,0.1c0,0.1,0,0.1,0.1,0.2l38.9,43.9l0,0l0,0c0,0,0.1,0,0.1,0.1c0.1,0.1,0.1,0.1,0.2,0.2l0.1,0.1
			l0.1,0.1h0.1c0.2,0.1,0.5,0.2,0.8,0.2l0,0c0.3,0,0.6-0.1,0.8-0.2h0.1c0,0,0.1,0,0.1-0.1l0.1-0.1l0.1-0.1c0,0,0.1,0,0.1-0.1
			l38.9-44c0,0,0-0.1,0.1-0.2c0-0.1,0.1-0.1,0.1-0.1c0.1-0.1,0.1-0.2,0.1-0.4C83.4,31.6,83.5,31.5,83.5,31.4z"/>
	</g>
</g>
</svg>
