<?xml version="1.0" encoding="utf-8"?>
<!-- Generator: Adobe Illustrator 22.0.0, SVG Export Plug-In . SVG Version: 6.00 Build 0)  -->
<svg version="1.1" id="Layer_1" xmlns="http://www.w3.org/2000/svg" xmlns:xlink="http://www.w3.org/1999/xlink" x="0px" y="0px"
	 viewBox="0 0 86 86" style="enable-background:new 0 0 86 86;" xml:space="preserve">
<style type="text/css">
	.st0{opacity:0.3;fill:#A0EA56;enable-background:new    ;}
	.st1{filter:url(#Adobe_OpacityMaskFilter);}
	.st2{fill:#FFFFFF;}
	.st3{mask:url(#icon_rocket-b_1_);fill:#16D2FF;}
	.st4{fill:#16D2FF;}
</style>
<g transform="translate(0 -1)">
	<path class="st0" d="M42.3,19.8c-2.9,0.1-5.2,2.4-5.1,5.3c0.1,2.9,2.4,5.2,5.3,5.1c2.9-0.1,5.2-2.4,5.1-5.3
		C47.5,22.1,45.1,19.8,42.3,19.8 M35,57.9l-3.1-18.8l-10.5,11c-1.7,1.8-2.4,5.6-1.2,7.8l3.3,6.5l4.4-4.6
		C29.8,57.9,32.7,56.5,35,57.9 M58.3,59.2l4.6,4.4L66,57c1.1-2.2,0.2-6-1.6-7.7l-11-10.5l-2.3,18.9C53.4,56,56.4,57.3,58.3,59.2
		 M39.6,64.1c-3.1,4.3-3.1,10.2,0.1,14.5l3.9,5.2l3.6-5.3c3-4.4,2.8-10.3-0.5-14.5L43.2,64L39.6,64.1z"/>
	<g transform="translate(0 .957)">
		<defs>
			<filter id="Adobe_OpacityMaskFilter" filterUnits="userSpaceOnUse" x="18.3" y="2" width="49.4" height="82.1">
				<feColorMatrix  type="matrix" values="1 0 0 0 0  0 1 0 0 0  0 0 1 0 0  0 0 0 1 0"/>
			</filter>
		</defs>
		<mask maskUnits="userSpaceOnUse" x="18.3" y="2" width="49.4" height="82.1" id="icon_rocket-b_1_">
			<g class="st1">
				<polygon id="icon_rocket-a_1_" class="st2" points="18.3,2 67.7,2 67.7,84.1 18.3,84.1 				"/>
			</g>
		</mask>
		<path class="st3" d="M52.3,37.3c0,0.1-0.1,0.2-0.1,0.3l-1.7,14.1c-0.5,3.3-1.1,6.8-1.8,10.2l-1.3,0c-0.2-0.1-0.4-0.1-0.6-0.1
			l-7.2,0.2c-0.2,0-0.4,0.1-0.6,0.2l-1.3,0c-0.8-3.4-1.6-6.8-2.2-10.1l-2.3-14c0-0.1-0.1-0.2-0.1-0.3c-0.6-4.5-1-8.3-1.1-10.7
			c-0.3-12.5,4.1-22.3,10-22.4c5.9-0.1,10.7,9.5,10.9,22C52.9,28.9,52.7,32.7,52.3,37.3z M63.5,49.2c1.4,1.4,2.1,4.6,1.3,6.3l-2.3,5
			l-3.3-3.2c-1.7-1.6-4.2-3-6.6-2.7l0.4-3c0.6-3.8,1.1-7.7,1.5-11.2L63.5,49.2z M46.2,76.8l-2.6,3.9l-2.8-3.8
			c-2.7-3.6-2.9-8.5-0.6-12.3l6-0.1C48.8,68.2,48.8,73,46.2,76.8z M33.4,55.1c-2.4-0.2-4.9,1.3-6.5,2.9l-3.2,3.3l-2.5-4.9
			c-0.9-1.6-0.3-4.9,1-6.3l8.7-9c0.5,3.5,1.2,7.3,2,11.1L33.4,55.1z M41.9,2c-7.5,0.2-12.8,10.7-12.5,25c0.1,2.7,0.4,6.5,1.1,10.9
			l-10,10.5c-2.1,2.2-2.8,6.7-1.5,9.3l3.3,6.5c0.2,0.4,0.5,0.6,0.9,0.7c0.4,0.1,0.8-0.1,1.1-0.4l4.4-4.6c1.5-1.6,3.7-2.7,5.4-1.8
			c0.4,1.9,0.9,3.9,1.3,5.7c0.1,0.6,0.7,1,1.3,1l0.6,0c-2.1,4.4-1.6,9.7,1.4,13.8l3.9,5.2c0.2,0.3,0.6,0.5,1,0.5
			c0.3,0,0.7-0.1,0.9-0.4c0-0.1,0.1-0.1,0.1-0.2l3.6-5.3c2.8-4.2,3.1-9.4,0.8-13.8l0.6,0c0.3,0,0.7-0.2,0.9-0.4
			c0.2-0.2,0.3-0.4,0.3-0.6c0.4-1.9,0.7-3.8,1.1-5.8c1.6-0.9,3.9,0.1,5.4,1.6l4.6,4.4c0.3,0.3,0.7,0.4,1.1,0.3
			c0.3,0,0.5-0.2,0.7-0.4c0.1-0.1,0.2-0.2,0.2-0.3l3.1-6.6c1.3-2.7,0.4-7.1-1.9-9.2l-10.5-10c0.4-4.4,0.6-8.2,0.6-10.9
			C55.1,12.1,49.4,1.8,41.9,2z"/>
	</g>
	<path class="st4" d="M46.3,25c0,2.2-1.7,4-3.9,4c-2.2,0-4-1.7-4-3.9c0-1.1,0.4-2.1,1.1-2.8c0.7-0.8,1.7-1.2,2.8-1.2
		c1.1,0,2.1,0.4,2.8,1.1C45.9,22.9,46.3,23.9,46.3,25 M35.9,25.2c0.1,3.6,3,6.4,6.6,6.3c1.8,0,3.4-0.8,4.5-2
		c1.1-1.2,1.8-2.8,1.8-4.6c0-1.7-0.7-3.3-2-4.5c-1.3-1.2-2.9-1.8-4.6-1.8C38.8,18.7,35.8,21.7,35.9,25.2"/>
</g>
</svg>
