<svg xmlns="http://www.w3.org/2000/svg" width="22" height="20" viewBox="0 0 22 20">
  <path fill="none" stroke="#A0EA56" stroke-linecap="round" stroke-linejoin="round" stroke-width="2" d="M20,13.428 L20,16.128 C20.0022858,16.6348306 19.767048,17.1190425 19.3520779,17.4616784 C18.9371078,17.8043143 18.3808639,17.9736193 17.82,17.928 C14.7428339,17.6270767 11.7869992,16.6807301 9.19,15.165 C6.77382812,13.7831975 4.72533615,11.9395547 3.19,9.765 C1.49997806,7.41708358 0.448243002,4.7438951 0.12,1.962 C0.0694732103,1.4587851 0.256272008,0.959627181 0.63476578,0.58645895 C1.01325955,0.213290719 1.54859424,0.000475821215 2.11,3.3473292e-14 L5.11,3.3473292e-14 C6.11386406,-0.00889214144 6.96950085,0.653370734 7.11,1.548 C7.23662301,2.41205981 7.47144946,3.26045419 7.81,4.077 C8.084735,4.73478753 7.90901507,5.47632564 7.36,5.976 L6.09,7.119 C7.51355547,9.37219125 9.58645417,11.2378001 12.09,12.519 L13.36,11.376 C13.9151937,10.8818864 14.739125,10.7237385 15.47,10.971 C16.3772731,11.2756955 17.3199335,11.4870393 18.28,11.601 C19.2855627,11.7286743 20.02519,12.5143133 20,13.428 Z" transform="translate(1 1)"/>
</svg>
