<svg xmlns="http://www.w3.org/2000/svg" width="38" height="38" viewBox="0 0 38 38">
  <g fill="#FFF" fill-rule="evenodd">
    <path d="M31.6666667,3.16666667 L31.6666667,15.181 L19.0015833,27.8445 L6.33333333,15.1778333 L6.33333333,3.16666667 L31.6666667,3.16666667 Z M26.7805,24.5416667 L34.8333333,16.4888333 L34.8333333,32.5945 L26.7805,24.5416667 Z M13.45675,26.7773333 L16.7611667,30.0833333 C17.99775,31.3199167 20.00225,31.3199167 21.2388333,30.0833333 L24.5416667,26.7805 L32.5945,34.8333333 L5.40233333,34.8333333 L13.45675,26.7773333 Z M11.2195,24.5416667 L3.16666667,32.5945 L3.16666667,16.4888333 L11.2195,24.5416667 Z M34.8333333,11.0833333 L34.8333333,0 L3.16666667,0 L3.16666667,11.0833333 C1.425,11.0833333 0,12.5083333 0,14.25 L0,34.8333333 C0,36.575 1.425,38 3.16666667,38 L34.8333333,38 C36.575,38 38,36.575 38,34.8333333 L38,14.25 C38,12.5083333 36.575,11.0833333 34.8333333,11.0833333 Z"/>
    <polygon points="18.903 18.513 28.256 9.05 26.052 6.821 18.903 14.053 14.871 9.975 12.667 12.205"/>
  </g>
</svg>
