<?xml version="1.0" encoding="utf-8"?>
<!-- Generator: Adobe Illustrator 22.0.0, SVG Export Plug-In . SVG Version: 6.00 Build 0)  -->
<svg version="1.1" id="Layer_1" xmlns="http://www.w3.org/2000/svg" xmlns:xlink="http://www.w3.org/1999/xlink" x="0px" y="0px"
	 viewBox="0 0 86 86" style="enable-background:new 0 0 86 86;" xml:space="preserve">
<style type="text/css">
	.st0{opacity:0.3;fill:#A0EA56;enable-background:new    ;}
	.st1{filter:url(#Adobe_OpacityMaskFilter);}
	.st2{fill:#FFFFFF;}
	.st3{mask:url(#icon_peoples-b_1_);fill:#16D2FF;}
	.st4{fill:#16D2FF;}
</style>
<g>
	<path class="st0" d="M54,6c-6.1,0-11,4.9-11,11s4.9,11,11,11s11-4.9,11-11S60.1,6,54,6 M54.5,28c-4.5,0-8.7,1.2-12.3,3.4l-2.3,5.4
		l-5.6,10.3l17.2,9.7h27.1V52C78.5,38.8,67.8,28,54.5,28"/>
	<polyline class="st0" points="54.8,63.5 65,63.5 61.6,73.7 54.8,73.7 	"/>
	<defs>
		<filter id="Adobe_OpacityMaskFilter" filterUnits="userSpaceOnUse" x="2.4" y="4.3" width="81.2" height="77.8">
			<feColorMatrix  type="matrix" values="1 0 0 0 0  0 1 0 0 0  0 0 1 0 0  0 0 0 1 0"/>
		</filter>
	</defs>
	<mask maskUnits="userSpaceOnUse" x="2.4" y="4.3" width="81.2" height="77.8" id="icon_peoples-b_1_">
		<g class="st1">
			<polygon id="icon_peoples-a_1_" class="st2" points="2.4,4.3 83.6,4.3 83.6,82.1 2.4,82.1 			"/>
		</g>
	</mask>
	<path class="st3" d="M36.4,45.9c3.5-2.5,5.8-6.5,5.8-11.1c0-0.6-0.1-1.2-0.2-1.8c0.3,0,0.7,0,1-0.2c2.2-1.3,4.7-2.2,7.3-2.7l1,3.1
		l-1.6,13.2c-0.1,0.5,0.1,1,0.5,1.4l2.9,2.9v4.4h-2.6C47,50.6,42.1,47.4,36.4,45.9z M53.2,78.7H5.8l0-6.8
		c0-13.1,10.6-23.7,23.7-23.7c13.1,0,23.7,10.6,23.7,23.7V78.7z M62.6,65.2L60.4,72h-3.9v0c0-2.3-0.3-4.6-0.9-6.8H62.6z M18.6,34.8
		c0-5.6,4.6-10.2,10.2-10.2c5.6,0,10.2,4.6,10.2,10.2c0,5.6-4.6,10.2-10.2,10.2C23.1,44.9,18.6,40.4,18.6,34.8z M44.7,17
		c0-5.1,4.2-9.3,9.3-9.3c5.1,0,9.3,4.2,9.3,9.3c0,5.1-4.2,9.3-9.3,9.3C48.9,26.3,44.7,22.1,44.7,17z M54.5,29.7c0.5,0,0.9,0,1.4,0.1
		l-0.5,1.6h-0.9l-0.6-1.6C54,29.7,54.3,29.7,54.5,29.7z M56.4,46l-1.6,1.6L53.2,46l1.4-11.2H55L56.4,46z M76.8,52v3H56.5v-4.4
		l2.9-2.9c0.4-0.4,0.5-0.9,0.5-1.4l-1.6-13.2l1-3C69.3,32.4,76.8,41.3,76.8,52z M81.9,55.1h-1.7v-3c0-11.8-8-21.7-18.8-24.8
		c3.2-2.3,5.3-6,5.3-10.3C66.7,10,61,4.3,54,4.3C47,4.3,41.3,10,41.3,17c0,4.4,2.2,8.2,5.6,10.5c-1.9,0.6-3.8,1.4-5.5,2.4
		c0,0,0,0,0,0c-2-5.1-6.8-8.7-12.6-8.7c-7.5,0-13.5,6.1-13.5,13.5c0,4.8,2.5,9,6.2,11.4c-5.2,1.6-9.7,4.8-13.1,8.9H4.1
		c-0.9,0-1.7,0.8-1.7,1.7c0,0.9,0.8,1.7,1.7,1.7h2C3.8,62.4,2.4,67,2.4,72l0,8.5c0,0,0,0,0,0v0c0,0.9,0.8,1.7,1.7,1.7h50.8
		c0.9,0,1.7-0.8,1.7-1.7v-5.1h5.1c0.7,0,1.4-0.5,1.6-1.2l3.4-10.2c0.2-0.5,0.1-1.1-0.2-1.5c-0.3-0.4-0.8-0.7-1.4-0.7H54.8
		c-0.1,0-0.2,0-0.3,0.1c-0.5-1.2-1-2.3-1.7-3.4h29c0.9,0,1.7-0.8,1.7-1.7C83.6,55.8,82.9,55.1,81.9,55.1z"/>
	<path class="st4" d="M72.3,61.9c-0.9-0.3-1.8,0.2-2.1,1.1l-3.4,10.2C66.5,74,67,75,67.8,75.3c0.2,0.1,0.4,0.1,0.5,0.1
		c0.7,0,1.4-0.4,1.6-1.2l3.4-10.2C73.7,63.2,73.2,62.2,72.3,61.9"/>
</g>
</svg>
