<?xml version="1.0" encoding="UTF-8" standalone="no"?>
<!-- Created with Inkscape (http://www.inkscape.org/) -->

<svg
   xmlns:dc="http://purl.org/dc/elements/1.1/"
   xmlns:cc="http://creativecommons.org/ns#"
   xmlns:rdf="http://www.w3.org/1999/02/22-rdf-syntax-ns#"
   xmlns:svg="http://www.w3.org/2000/svg"
   xmlns="http://www.w3.org/2000/svg"
   xmlns:sodipodi="http://sodipodi.sourceforge.net/DTD/sodipodi-0.dtd"
   xmlns:inkscape="http://www.inkscape.org/namespaces/inkscape"
   width="259.65585"
   height="259.65585"
   viewBox="0 0 259.65586 259.65586"
   id="svg4288"
   version="1.1"
   inkscape:version="0.91 r13725"
   sodipodi:docname="TowkirVector.svg">
  <defs
     id="defs4290" />
  <sodipodi:namedview
     id="base"
     pagecolor="#ffffff"
     bordercolor="#666666"
     borderopacity="1.0"
     inkscape:pageopacity="0.0"
     inkscape:pageshadow="2"
     inkscape:zoom="1.4"
     inkscape:cx="106.60312"
     inkscape:cy="143.60728"
     inkscape:document-units="px"
     inkscape:current-layer="layer1"
     showgrid="false"
     inkscape:showpageshadow="false"
     fit-margin-top="0"
     fit-margin-left="0"
     fit-margin-right="0"
     fit-margin-bottom="0"
     units="px"
     inkscape:window-width="1315"
     inkscape:window-height="744"
     inkscape:window-x="51"
     inkscape:window-y="24"
     inkscape:window-maximized="1" />
  <metadata
     id="metadata4293">
    <rdf:RDF>
      <cc:Work
         rdf:about="">
        <dc:format>image/svg+xml</dc:format>
        <dc:type
           rdf:resource="http://purl.org/dc/dcmitype/StillImage" />
        <dc:title></dc:title>
      </cc:Work>
    </rdf:RDF>
  </metadata>
  <g
     inkscape:label="Layer 1"
     inkscape:groupmode="layer"
     id="layer1"
     transform="translate(-267.04247,-314.13619)">
    <g
       id="g4257"
       transform="matrix(1.25,0,0,-1.25,256.99071,1491.3228)">
      <g
         transform="translate(167.27542,909.99076)"
         id="g30">
        <path
           inkscape:connector-curvature="0"
           id="path32"
           style="fill:#000000;fill-opacity:1;fill-rule:nonzero;stroke:none"
           d="m 0,0 c 0.495,-0.383 0.98,-0.776 1.453,-1.165 0.457,-0.265 0.906,-0.516 1.367,-0.79 0.012,0.015 0.029,0.027 0.042,0.042 4.445,-2.93 9.284,-7.316 12.805,-11.244 2.369,-2.646 4.575,-5.71 6.493,-8.925 -2.57,-1.467 -7.226,0.383 -9.753,0.772 -0.132,0.019 -0.262,0.036 -0.394,0.054 0.143,-0.174 0.291,-0.353 0.427,-0.515 2.048,-2.413 3.849,-5.143 5.013,-8.09 0.508,-2.785 0.858,-6.644 1.15,-7.699 1.39,-5.047 1.135,-9.561 -0.02,-14.082 -1.936,1.31 -3.845,4.443 -4.886,5.568 -0.731,0.791 -1.426,1.608 -2.136,2.408 0.388,-1.75 0.606,-3.566 0.909,-5.081 0.387,-1.941 0.423,-4.005 0.377,-6.068 -1.034,-2.651 -0.664,-6.435 -1.05,-9.091 -0.759,-5.245 -1.105,-10.088 -2.99,-15.108 -1.834,-4.882 -4.248,-10.593 -6.86,-15.086 -0.66,-1.137 -1.489,-2.183 -2.344,-3.211 -0.021,2.623 -0.114,5.351 -0.515,7.859 -0.029,1.16 -0.072,2.314 -0.171,3.453 -0.149,1.728 -0.22,3.467 -0.25,5.209 -0.431,2.44 -0.706,4.888 -1.489,7.281 -0.059,0.179 -0.125,0.352 -0.193,0.524 -0.259,-1.962 -0.681,-3.811 -1.161,-5.328 -0.51,-1.615 -2.744,-10.919 -5.512,-11.871 -0.053,-0.037 -0.1,-0.087 -0.156,-0.117 -0.108,-0.061 -0.233,-0.092 -0.36,-0.108 0.262,2.366 0.308,4.775 0.197,7.197 -0.157,3.472 -0.298,7.799 -1.214,11.671 -0.098,1.767 -0.423,3.52 -1.174,5.267 -1.971,4.58 -5.301,9.473 -8.447,13.348 -1.375,1.694 -2.589,3.365 -4.092,4.884 -1.323,-2.571 -2.446,-4.727 -3.013,-7.71 -0.09,-0.471 -0.158,-0.934 -0.219,-1.394 -0.836,-2.203 -1.488,-4.473 -1.843,-6.794 -0.307,-2.005 -0.255,-4.039 -0.076,-6.077 -0.044,0.032 -0.09,0.057 -0.13,0.1 -1.14,1.211 -1.798,2.813 -2.443,4.406 -1.713,2.559 -2.82,5.394 -3.449,8.361 -0.246,0.881 -0.466,1.776 -0.672,2.689 -0.742,3.275 -1.637,6.517 -2.217,9.84 -0.072,0.417 -0.175,0.911 -0.283,1.429 -1.927,0.207 -3.882,0.807 -5.606,1.28 -3.529,0.967 -6.974,1.992 -10.451,3.131 -1.916,0.627 -3.975,1.302 -5.955,2.14 0.13,-0.399 0.213,-0.803 0.27,-1.211 0.602,-0.807 1.208,-1.61 1.843,-2.389 2.721,-3.341 6.764,-5.063 9.463,-8.363 0.266,-0.325 0.362,-0.691 0.338,-1.035 -2.915,-0.501 -6.021,-0.365 -8.848,-0.22 -3.993,0.205 -8.373,0.546 -12.386,1.6 -3.208,1.446 -6.295,3.185 -9.201,4.988 -2.414,1.498 -4.761,3.404 -6.901,5.478 1.458,-1.776 2.863,-3.531 4.086,-5.54 1.936,-3.182 3.758,-6.246 6.198,-9.093 1.913,-2.228 4.037,-5.671 7.215,-5.946 0.321,-0.028 0.326,-0.53 0,-0.505 -3.167,0.249 -5.34,3.073 -7.347,5.246 -2.798,3.034 -4.712,6.349 -6.908,9.806 -1.821,2.868 -4.118,5.326 -6.085,8.059 -0.446,-0.467 -0.879,-0.904 -1.242,-1.252 -3.759,-3.606 -3.615,-10.571 -4.346,-15.324 -0.466,-3.033 -0.482,-6.149 -0.668,-9.235 -0.935,-4.444 -2.273,-8.886 -2.876,-13.322 -0.495,-3.647 -0.682,-7.224 -0.542,-10.787 -0.24,0.018 -0.462,0.145 -0.506,0.421 -0.205,1.285 -0.703,2.575 -1.327,3.851 -0.053,0.016 -0.104,0.037 -0.15,0.074 -1.284,1.057 -1.87,2.481 -2.129,4.021 -0.403,0.701 -0.795,1.393 -1.132,2.065 -1.326,2.65 -2.382,5.372 -3.139,8.238 -0.047,0.181 -0.079,0.366 -0.121,0.548 -0.112,0.397 -0.224,0.794 -0.35,1.213 -0.615,2.026 -1.615,3.898 -2.357,5.884 -0.096,0.01 -0.189,0.038 -0.275,0.079 -0.214,-0.866 -0.514,-1.741 -0.696,-2.523 -0.287,-1.238 -0.322,-2.54 -0.325,-3.829 -0.053,-0.128 -0.097,-0.267 -0.122,-0.427 -0.49,-3.075 -1.173,-6.556 -1.072,-9.859 -1.378,0.929 -3.022,2.362 -3.795,3.744 -0.174,0.312 -0.427,0.469 -0.695,0.513 -1.211,1.72 -2.41,3.447 -3.583,5.189 0.547,-2.237 1.105,-4.471 1.633,-6.717 0.789,-3.354 2.26,-7.065 3.648,-10.226 0.733,-1.668 1.808,-3.288 2.056,-5.056 -1.114,0.551 -2.204,1.155 -3.253,1.845 -3.175,2.09 -5.668,5.139 -8.419,7.719 -0.145,0.138 -0.281,0.286 -0.423,0.429 -0.169,0.279 -0.343,0.555 -0.502,0.841 -1.421,1.923 -2.848,3.846 -3.909,6.099 -0.944,2.008 -1.724,4.015 -2.374,6.068 -0.417,-0.636 -0.875,-1.261 -1.373,-1.897 -0.002,-0.078 -0.002,-0.152 -0.005,-0.23 -0.008,-0.259 -0.157,-0.449 -0.349,-0.551 -1.322,3.782 -2.324,7.664 -2.744,11.599 0.022,0.141 0.034,0.295 0.062,0.43 0.894,4.414 0.562,9.078 1.474,13.544 0.094,0.468 0.207,0.99 0.331,1.541 -0.044,0.113 -0.081,0.229 -0.123,0.342 -0.115,0.131 -0.214,0.277 -0.266,0.471 -0.087,0.324 -0.158,0.674 -0.222,1.04 -0.386,1.384 -0.652,2.85 -0.818,4.562 -0.443,4.543 -0.137,8.648 1.626,12.846 0.794,1.889 1.628,3.503 2.625,5.002 -0.233,1.72 1.194,3.483 2.158,4.78 0.331,0.445 0.724,0.837 1.087,1.235 0.02,0.085 0.031,0.17 0.048,0.256 -0.967,0.388 -1.997,0.841 -2.944,1.353 -1.144,0.382 -2.252,0.856 -3.257,1.405 -0.472,0.257 -1.934,1.438 -2.14,2.365 -0.214,0.18 -0.401,0.382 -0.543,0.617 -0.024,0.04 -0.017,0.098 0.018,0.133 3.642,0.735 7.031,2.273 10.259,4.096 6.041,3.411 11.5,7.884 17.49,11.424 5.627,3.324 11.495,5.957 17.715,7.948 3.952,1.266 7.819,2.797 11.718,4.219 3.24,0.714 6.738,1.304 9.872,1.359 2.825,0.05 5.946,0.6 8.973,0.824 -0.394,0.225 -0.773,0.477 -1.12,0.805 -0.435,0.145 -0.527,0.826 -0.142,1.042 0.098,0.146 0.238,0.262 0.425,0.309 0.167,0.041 0.338,0.059 0.507,0.089 0.49,0.477 1.119,0.804 1.823,1.029 2.427,0.113 4.88,0.087 7.301,0.133 0.355,-0.041 0.692,-0.079 0.994,-0.109 5.18,-0.505 9.936,-1.535 14.818,-3.338 3.521,-1.3 6.959,-2.519 10.291,-4.154 -0.433,0.992 -0.888,1.975 -1.405,2.928 -1.323,2.441 -2.061,4.308 -1.848,7.1 0.019,0.258 0.378,0.258 0.399,0 0.153,-2.01 0.477,-3.661 1.515,-5.427 0.604,-1.031 1.235,-2.043 1.751,-3.122 0.348,-0.727 0.676,-1.46 0.999,-2.198 0.444,-0.238 0.888,-0.479 1.33,-0.737 0.098,-0.057 0.186,-0.121 0.282,-0.181 -0.042,1.204 -0.096,2.406 -0.111,3.604 -0.015,1.244 0.107,2.411 0.034,3.653 -0.28,0.136 -0.21,0.519 0.024,0.704 0.1,0.621 0.456,1.107 1.021,1.451 0.265,0.162 0.602,0.149 0.868,0 0.145,-0.081 0.275,-0.176 0.398,-0.279 4.376,-0.127 7.154,-3.564 9.612,-6.948 0.45,-0.616 1.006,-1.481 1.566,-2.481 0.007,1.23 -0.033,2.452 -0.225,3.664 -0.035,0.026 -0.059,0.065 -0.096,0.088 -0.136,0.081 -0.08,0.237 0.032,0.277 -0.144,0.788 -0.351,1.573 -0.664,2.354 -0.284,0.707 0.73,1.177 1.212,0.706 1.352,-1.326 2.321,-2.746 2.907,-4.392 0.155,0.328 0.343,0.655 0.547,0.981 0.144,1.063 0.311,2.12 0.437,3.185 0.073,0.595 0.582,0.908 1.139,0.654 2.467,-1.13 2.339,-4.973 2.449,-7.249 0.017,-0.341 -0.029,-0.706 -0.102,-1.077 2.934,1.01 5.927,1.987 9.028,1.452 1.176,-0.203 0.877,-1.739 0,-2.088 -2.131,-0.849 -4.163,-1.894 -6.241,-2.846 5.091,0.186 10.366,-0.008 14.593,-2.564 1.375,-0.165 2.471,-0.931 3.533,-1.763 0.256,-0.108 0.514,-0.218 0.765,-0.328 2.057,-0.902 5.046,-2.01 6.568,-3.94 0.103,-0.049 0.212,-0.09 0.315,-0.142 C 25.674,6.067 25.684,6.054 25.701,6.044 23.976,6.125 22.246,6.083 20.578,6.004 14.39,5.707 7.315,5.256 1.906,1.967 1.716,1.853 1.572,1.714 1.457,1.566 1.431,1.555 1.406,1.547 1.38,1.537 1.073,1.244 0.78,0.898 0.504,0.447 0.364,0.219 0.188,0.082 0,0" />
      </g>
      <g
         transform="translate(167.27542,909.99076)"
         id="g34">
        <path
           inkscape:connector-curvature="0"
           id="path36"
           style="fill:none;stroke:#000000;stroke-width:1;stroke-linecap:butt;stroke-linejoin:miter;stroke-miterlimit:10;stroke-dasharray:none;stroke-opacity:1"
           d="m 0,0 c 0.495,-0.383 0.98,-0.776 1.453,-1.165 0.457,-0.265 0.906,-0.516 1.367,-0.79 0.012,0.015 0.029,0.027 0.042,0.042 4.445,-2.93 9.284,-7.316 12.805,-11.244 2.369,-2.646 4.575,-5.71 6.493,-8.925 -2.57,-1.467 -7.226,0.383 -9.753,0.772 -0.132,0.019 -0.262,0.036 -0.394,0.054 0.143,-0.174 0.291,-0.353 0.427,-0.515 2.048,-2.413 3.849,-5.143 5.013,-8.09 0.508,-2.785 0.858,-6.644 1.15,-7.699 1.39,-5.047 1.135,-9.561 -0.02,-14.082 -1.936,1.31 -3.845,4.443 -4.886,5.568 -0.731,0.791 -1.426,1.608 -2.136,2.408 0.388,-1.75 0.606,-3.566 0.909,-5.081 0.387,-1.941 0.423,-4.005 0.377,-6.068 -1.034,-2.651 -0.664,-6.435 -1.05,-9.091 -0.759,-5.245 -1.105,-10.088 -2.99,-15.108 -1.834,-4.882 -4.248,-10.593 -6.86,-15.086 -0.66,-1.137 -1.489,-2.183 -2.344,-3.211 -0.021,2.623 -0.114,5.351 -0.515,7.859 -0.029,1.16 -0.072,2.314 -0.171,3.453 -0.149,1.728 -0.22,3.467 -0.25,5.209 -0.431,2.44 -0.706,4.888 -1.489,7.281 -0.059,0.179 -0.125,0.352 -0.193,0.524 -0.259,-1.962 -0.681,-3.811 -1.161,-5.328 -0.51,-1.615 -2.744,-10.919 -5.512,-11.871 -0.053,-0.037 -0.1,-0.087 -0.156,-0.117 -0.108,-0.061 -0.233,-0.092 -0.36,-0.108 0.262,2.366 0.308,4.775 0.197,7.197 -0.157,3.472 -0.298,7.799 -1.214,11.671 -0.098,1.767 -0.423,3.52 -1.174,5.267 -1.971,4.58 -5.301,9.473 -8.447,13.348 -1.375,1.694 -2.589,3.365 -4.092,4.884 -1.323,-2.571 -2.446,-4.727 -3.013,-7.71 -0.09,-0.471 -0.158,-0.934 -0.219,-1.394 -0.836,-2.203 -1.488,-4.473 -1.843,-6.794 -0.307,-2.005 -0.255,-4.039 -0.076,-6.077 -0.044,0.032 -0.09,0.057 -0.13,0.1 -1.14,1.211 -1.798,2.813 -2.443,4.406 -1.713,2.559 -2.82,5.394 -3.449,8.361 -0.246,0.881 -0.466,1.776 -0.672,2.689 -0.742,3.275 -1.637,6.517 -2.217,9.84 -0.072,0.417 -0.175,0.911 -0.283,1.429 -1.927,0.207 -3.882,0.807 -5.606,1.28 -3.529,0.967 -6.974,1.992 -10.451,3.131 -1.916,0.627 -3.975,1.302 -5.955,2.14 0.13,-0.399 0.213,-0.803 0.27,-1.211 0.602,-0.807 1.208,-1.61 1.843,-2.389 2.721,-3.341 6.764,-5.063 9.463,-8.363 0.266,-0.325 0.362,-0.691 0.338,-1.035 -2.915,-0.501 -6.021,-0.365 -8.848,-0.22 -3.993,0.205 -8.373,0.546 -12.386,1.6 -3.208,1.446 -6.295,3.185 -9.201,4.988 -2.414,1.498 -4.761,3.404 -6.901,5.478 1.458,-1.776 2.863,-3.531 4.086,-5.54 1.936,-3.182 3.758,-6.246 6.198,-9.093 1.913,-2.228 4.037,-5.671 7.215,-5.946 0.321,-0.028 0.326,-0.53 0,-0.505 -3.167,0.249 -5.34,3.073 -7.347,5.246 -2.798,3.034 -4.712,6.349 -6.908,9.806 -1.821,2.868 -4.118,5.326 -6.085,8.059 -0.446,-0.467 -0.879,-0.904 -1.242,-1.252 -3.759,-3.606 -3.615,-10.571 -4.346,-15.324 -0.466,-3.033 -0.482,-6.149 -0.668,-9.235 -0.935,-4.444 -2.273,-8.886 -2.876,-13.322 -0.495,-3.647 -0.682,-7.224 -0.542,-10.787 -0.24,0.018 -0.462,0.145 -0.506,0.421 -0.205,1.285 -0.703,2.575 -1.327,3.851 -0.053,0.016 -0.104,0.037 -0.15,0.074 -1.284,1.057 -1.87,2.481 -2.129,4.021 -0.403,0.701 -0.795,1.393 -1.132,2.065 -1.326,2.65 -2.382,5.372 -3.139,8.238 -0.047,0.181 -0.079,0.366 -0.121,0.548 -0.112,0.397 -0.224,0.794 -0.35,1.213 -0.615,2.026 -1.615,3.898 -2.357,5.884 -0.096,0.01 -0.189,0.038 -0.275,0.079 -0.214,-0.866 -0.514,-1.741 -0.696,-2.523 -0.287,-1.238 -0.322,-2.54 -0.325,-3.829 -0.053,-0.128 -0.097,-0.267 -0.122,-0.427 -0.49,-3.075 -1.173,-6.556 -1.072,-9.859 -1.378,0.929 -3.022,2.362 -3.795,3.744 -0.174,0.312 -0.427,0.469 -0.695,0.513 -1.211,1.72 -2.41,3.447 -3.583,5.189 0.547,-2.237 1.105,-4.471 1.633,-6.717 0.789,-3.354 2.26,-7.065 3.648,-10.226 0.733,-1.668 1.808,-3.288 2.056,-5.056 -1.114,0.551 -2.204,1.155 -3.253,1.845 -3.175,2.09 -5.668,5.139 -8.419,7.719 -0.145,0.138 -0.281,0.286 -0.423,0.429 -0.169,0.279 -0.343,0.555 -0.502,0.841 -1.421,1.923 -2.848,3.846 -3.909,6.099 -0.944,2.008 -1.724,4.015 -2.374,6.068 -0.417,-0.636 -0.875,-1.261 -1.373,-1.897 -0.002,-0.078 -0.002,-0.152 -0.005,-0.23 -0.008,-0.259 -0.157,-0.449 -0.349,-0.551 -1.322,3.782 -2.324,7.664 -2.744,11.599 0.022,0.141 0.034,0.295 0.062,0.43 0.894,4.414 0.562,9.078 1.474,13.544 0.094,0.468 0.207,0.99 0.331,1.541 -0.044,0.113 -0.081,0.229 -0.123,0.342 -0.115,0.131 -0.214,0.277 -0.266,0.471 -0.087,0.324 -0.158,0.674 -0.222,1.04 -0.386,1.384 -0.652,2.85 -0.818,4.562 -0.443,4.543 -0.137,8.648 1.626,12.846 0.794,1.889 1.628,3.503 2.625,5.002 -0.233,1.72 1.194,3.483 2.158,4.78 0.331,0.445 0.724,0.837 1.087,1.235 0.02,0.085 0.031,0.17 0.048,0.256 -0.967,0.388 -1.997,0.841 -2.944,1.353 -1.144,0.382 -2.252,0.856 -3.257,1.405 -0.472,0.257 -1.934,1.438 -2.14,2.365 -0.214,0.18 -0.401,0.382 -0.543,0.617 -0.024,0.04 -0.017,0.098 0.018,0.133 3.642,0.735 7.031,2.273 10.259,4.096 6.041,3.411 11.5,7.884 17.49,11.424 5.627,3.324 11.495,5.957 17.715,7.948 3.952,1.266 7.819,2.797 11.718,4.219 3.24,0.714 6.738,1.304 9.872,1.359 2.825,0.05 5.946,0.6 8.973,0.824 -0.394,0.225 -0.773,0.477 -1.12,0.805 -0.435,0.145 -0.527,0.826 -0.142,1.042 0.098,0.146 0.238,0.262 0.425,0.309 0.167,0.041 0.338,0.059 0.507,0.089 0.49,0.477 1.119,0.804 1.823,1.029 2.427,0.113 4.88,0.087 7.301,0.133 0.355,-0.041 0.692,-0.079 0.994,-0.109 5.18,-0.505 9.936,-1.535 14.818,-3.338 3.521,-1.3 6.959,-2.519 10.291,-4.154 -0.433,0.992 -0.888,1.975 -1.405,2.928 -1.323,2.441 -2.061,4.308 -1.848,7.1 0.019,0.258 0.378,0.258 0.399,0 0.153,-2.01 0.477,-3.661 1.515,-5.427 0.604,-1.031 1.235,-2.043 1.751,-3.122 0.348,-0.727 0.676,-1.46 0.999,-2.198 0.444,-0.238 0.888,-0.479 1.33,-0.737 0.098,-0.057 0.186,-0.121 0.282,-0.181 -0.042,1.204 -0.096,2.406 -0.111,3.604 -0.015,1.244 0.107,2.411 0.034,3.653 -0.28,0.136 -0.21,0.519 0.024,0.704 0.1,0.621 0.456,1.107 1.021,1.451 0.265,0.162 0.602,0.149 0.868,0 0.145,-0.081 0.275,-0.176 0.398,-0.279 4.376,-0.127 7.154,-3.564 9.612,-6.948 0.45,-0.616 1.006,-1.481 1.566,-2.481 0.007,1.23 -0.033,2.452 -0.225,3.664 -0.035,0.026 -0.059,0.065 -0.096,0.088 -0.136,0.081 -0.08,0.237 0.032,0.277 -0.144,0.788 -0.351,1.573 -0.664,2.354 -0.284,0.707 0.73,1.177 1.212,0.706 1.352,-1.326 2.321,-2.746 2.907,-4.392 0.155,0.328 0.343,0.655 0.547,0.981 0.144,1.063 0.311,2.12 0.437,3.185 0.073,0.595 0.582,0.908 1.139,0.654 2.467,-1.13 2.339,-4.973 2.449,-7.249 0.017,-0.341 -0.029,-0.706 -0.102,-1.077 2.934,1.01 5.927,1.987 9.028,1.452 1.176,-0.203 0.877,-1.739 0,-2.088 -2.131,-0.849 -4.163,-1.894 -6.241,-2.846 5.091,0.186 10.366,-0.008 14.593,-2.564 1.375,-0.165 2.471,-0.931 3.533,-1.763 0.256,-0.108 0.514,-0.218 0.765,-0.328 2.057,-0.902 5.046,-2.01 6.568,-3.94 0.103,-0.049 0.212,-0.09 0.315,-0.142 C 25.674,6.067 25.684,6.054 25.701,6.044 23.976,6.125 22.246,6.083 20.578,6.004 14.39,5.707 7.315,5.256 1.906,1.967 1.716,1.853 1.572,1.714 1.457,1.566 1.431,1.555 1.406,1.547 1.38,1.537 1.073,1.244 0.78,0.898 0.504,0.447 0.364,0.219 0.188,0.082 0,0 Z" />
      </g>
      <g
         transform="translate(144.01202,774.80556)"
         id="g38">
        <path
           inkscape:connector-curvature="0"
           id="path40"
           style="fill:#000000;fill-opacity:1;fill-rule:nonzero;stroke:none"
           d="m 0,0 c -0.732,-1.539 -1.633,-8.989 -6.062,-13.097 -7.575,-7.03 -20.088,-9.563 -20.749,5.785 -1.97,-0.071 -4.088,0.14 -6.04,-0.049 -1.955,0.189 -4.073,-0.022 -6.04,0.049 -0.617,-14.229 -10.734,-12.722 -17.992,-6.534 -5.145,4.386 -7.999,12.116 -8.823,13.846 -1.945,4.084 -7.173,-27.101 9.257,-36.354 0.353,-0.2 0.045,0.783 0.418,0.603 3.946,-1.891 10.899,-4.121 12.689,-4.062 1.794,0.057 -0.549,0.949 -0.74,1.283 -0.184,0.324 5.078,-1.917 11.095,-2.237 l 0,-0.014 c 0.045,0.003 0.088,0.006 0.136,0.006 0.042,0 0.088,-0.003 0.134,-0.006 l 0,0.014 c 6.016,0.32 11.278,2.561 11.092,2.237 -0.189,-0.334 -2.531,-1.226 -0.741,-1.283 1.791,-0.059 8.743,2.171 12.693,4.062 0.371,0.18 0.063,-0.803 0.415,-0.603 C 7.175,-27.101 1.948,4.084 0,0" />
      </g>
      <g
         transform="translate(110.66812,792.54386)"
         id="g42">
        <path
           inkscape:connector-curvature="0"
           id="path44"
           style="fill:#000000;fill-opacity:1;fill-rule:nonzero;stroke:none"
           d="M 0,0 C 0.039,0.048 0.078,0.096 0.116,0.146 0.194,0.042 0.276,-0.055 0.359,-0.148 0.243,-0.095 0.121,-0.048 0,0 m 35.148,-9.279 c -2.169,0.649 -3.918,1.814 -5.544,2.972 -0.887,0.632 -1.767,1.277 -2.655,1.908 0.677,0.193 1.33,0.479 1.931,0.876 -1.801,0.739 -3.253,2.064 -4.602,3.382 C 20.902,3.154 17.655,6.806 13.183,7.488 9.591,8.091 3.487,8.982 0.116,6.802 c -3.373,2.18 -9.476,1.289 -13.067,0.686 -4.474,-0.682 -7.723,-4.334 -11.097,-7.629 -1.35,-1.318 -2.802,-2.643 -4.6,-3.382 0.763,-0.505 1.608,-0.836 2.487,-1.014 -0.823,-0.587 -1.639,-1.184 -2.461,-1.77 -1.626,-1.158 -3.375,-2.323 -5.542,-2.972 3.58,-1.729 8.645,-1.175 11.803,0.862 -0.546,-0.367 -1.069,-0.984 -1.609,-1.414 2.359,-0.094 4.052,1.714 5.953,2.564 -0.208,-0.441 -0.138,-1.19 -0.346,-1.631 2.768,-0.502 6.931,1.324 9,3.043 -0.186,-0.655 -0.098,-1.618 -0.532,-2.285 2.378,-0.308 4.886,0.681 6.626,1.953 0.019,-0.214 0.049,-0.535 0.078,-0.856 1.548,-0.385 2.761,0.105 3.683,0.988 0.919,-0.883 2.131,-1.373 3.681,-0.988 0.029,0.321 0.058,0.642 0.078,0.856 1.741,-1.272 4.248,-2.261 6.627,-1.953 -0.435,0.667 -0.347,1.63 -0.534,2.285 2.071,-1.719 6.233,-3.545 9.001,-3.043 -0.208,0.441 -0.138,1.19 -0.346,1.631 1.902,-0.85 3.593,-2.658 5.952,-2.564 -0.539,0.43 -1.061,1.047 -1.607,1.414 3.159,-2.037 8.222,-2.591 11.804,-0.862" />
      </g>
      <g
         transform="translate(127.12742,843.41776)"
         id="g46">
        <path
           inkscape:connector-curvature="0"
           id="path48"
           style="fill:#000000;fill-opacity:1;fill-rule:evenodd;stroke:none"
           d="m 0,0 c -3.977,-1.744 -6.007,-6.065 -6.026,-8.134 -0.041,-4.697 2.031,-13.626 6.93,-18.077 5.615,-5.102 14.16,-5.423 14.16,-5.423 l 4.218,0 c 0,0 2.88,0.312 5.724,1.506 2.202,0.925 4.188,2.404 6.025,4.519 4.313,4.966 5.295,13.653 4.821,17.776 -0.426,3.702 -2.819,7.2 -6.93,8.737 C 23.213,3.038 6.202,2.72 0,0 m -31.935,0 c 3.977,-1.744 6.007,-6.065 6.025,-8.134 0.042,-4.697 -2.03,-13.626 -6.929,-18.077 -5.615,-5.102 -14.16,-5.423 -14.16,-5.423 l -4.218,0 c 0,0 -2.88,0.312 -5.724,1.506 -2.202,0.925 -4.188,2.404 -6.026,4.519 -4.312,4.966 -5.294,13.653 -4.82,17.776 0.426,3.702 2.818,7.2 6.929,8.737 5.71,2.134 22.721,1.816 28.923,-0.904 M -70.8,0.904 c 1.741,0.15 3.164,-0.104 3.314,-0.603 0.144,-0.478 -1.416,-1.054 -3.013,-1.205 -1.739,-0.164 -3.163,0.028 -3.314,0.603 -0.126,0.483 1.266,1.054 3.013,1.205 M 38.712,0.916 c 1.742,-0.133 3.105,-0.614 3.173,-1.131 0.065,-0.495 -1.568,-0.811 -3.168,-0.702 -1.743,0.12 -3.117,0.54 -3.173,1.132 -0.047,0.497 1.42,0.835 3.168,0.701 m -114.634,-4.531 -0.602,6.929 c 0,0 15.184,3.512 33.14,2.109 14.719,-1.15 21.036,-5.861 27.115,-5.724 5.97,0.133 15.868,5.187 27.115,5.724 18.526,0.884 33.743,-2.109 33.743,-2.109 l -0.904,-7.231 c 0,0 -2.634,-0.174 -3.615,-4.217 -0.739,-3.046 -1.038,-7.335 -2.109,-11.449 -0.742,-2.849 -1.913,-5.61 -3.616,-7.833 -3.499,-4.57 -9.14,-6.327 -14.16,-6.628 -4.562,-0.274 -17.258,0.803 -22.896,6.929 -2.191,2.38 -4.192,5.252 -5.423,8.134 -1.88,4.398 -2.773,9.272 -4.821,11.449 -0.844,0.897 -1.985,0.886 -3.314,0.904 -0.968,0.013 -1.812,0.154 -2.41,-0.302 -1.637,-1.246 -2.644,-5.603 -4.218,-9.64 -1.38,-3.54 -3.317,-7.228 -5.724,-9.942 -6.343,-7.151 -17.808,-7.821 -22.897,-7.532 -5.214,0.295 -10.318,1.569 -15.365,7.532 -4.32,5.103 -3.91,13.788 -5.122,18.679 -0.872,3.519 -3.917,4.218 -3.917,4.218" />
      </g>
    </g>
  </g>
</svg>
