<?xml version="1.0" encoding="UTF-8"?>
<svg width="193px" height="79px" viewBox="0 0 193 79" version="1.1" xmlns="http://www.w3.org/2000/svg" xmlns:xlink="http://www.w3.org/1999/xlink">
    <!-- Generator: Sketch 50.2 (55047) - http://www.bohemiancoding.com/sketch -->
    <title>Footer_logo</title>
    <desc>Created with Sketch.</desc>
    <defs></defs>
    <g id="Page-1" stroke="none" stroke-width="1" fill="none" fill-rule="evenodd">
        <g id="About-Us" transform="translate(-219.000000, -4655.000000)">
            <g id="Group-10-Copy" transform="translate(220.000000, 4655.000000)">
                <g id="Footer_logo">
                    <path d="M48.0019531,68 L44.515625,68 L20.2871094,31.3203125 L20.1113281,31.3496094 L20.1113281,68 L16.5957031,68 L16.5957031,25.34375 L20.1113281,25.34375 L44.3398438,61.9648438 L44.515625,61.9355469 L44.515625,25.34375 L48.0019531,25.34375 L48.0019531,68 Z M93.6692705,50.1582031 C93.6692705,55.6660432 92.1604965,60.1191236 89.1429033,63.5175781 C86.1253101,66.9160326 82.077499,68.6152344 76.9993486,68.6152344 C71.9993236,68.6152344 68.0101057,66.9160326 65.0315752,63.5175781 C62.0530447,60.1191236 60.5638018,55.6660432 60.5638018,50.1582031 L60.5638018,43.2148438 C60.5638018,37.7265351 62.0481619,33.2734546 65.0169268,29.8554688 C67.9856916,26.4374829 71.9700268,24.7285156 76.9700518,24.7285156 C82.0482021,24.7285156 86.100896,26.4374829 89.1282549,29.8554688 C92.1556138,33.2734546 93.6692705,37.7265351 93.6692705,43.2148438 L93.6692705,50.1582031 Z M90.1829424,43.15625 C90.1829424,38.546852 89.0159619,34.8359516 86.6819658,32.0234375 C84.3479698,29.2109234 81.1106975,27.8046875 76.9700518,27.8046875 C72.9075314,27.8046875 69.7435006,29.2109234 67.4778643,32.0234375 C65.2122279,34.8359516 64.0794268,38.546852 64.0794268,43.15625 L64.0794268,50.1582031 C64.0794268,54.8066639 65.2171107,58.5370953 67.4925127,61.3496094 C69.7679147,64.1621234 72.9368283,65.5683594 76.9993486,65.5683594 C81.1595257,65.5683594 84.396798,64.1670062 86.7112627,61.3642578 C89.0257274,58.5615094 90.1829424,54.8261952 90.1829424,50.1582031 L90.1829424,43.15625 Z" id="No" fill="#C2C8CF"></path>
                    <path d="M111.249023,29.8427734 C111.249023,29.2913384 111.053876,28.8616552 110.663574,28.5537109 C110.273273,28.2457667 109.58757,27.927085 108.606445,27.5976562 C107.625321,27.2682275 106.823245,26.9495458 106.200195,26.6416016 C104.173492,25.6461539 103.160156,24.278329 103.160156,22.5380859 C103.160156,21.6715451 103.412595,20.9070671 103.91748,20.2446289 C104.422366,19.5821907 105.136714,19.0665709 106.060547,18.6977539 C106.98438,18.328937 108.022781,18.1445312 109.175781,18.1445312 C110.300136,18.1445312 111.308101,18.3450501 112.199707,18.7460938 C113.091313,19.1471374 113.784177,19.718258 114.27832,20.4594727 C114.772463,21.2006873 115.019531,22.0475213 115.019531,23 L111.259766,23 C111.259766,22.362627 111.064618,21.8684913 110.674316,21.5175781 C110.284015,21.1666649 109.755863,20.9912109 109.089844,20.9912109 C108.416663,20.9912109 107.88493,21.1398097 107.494629,21.4370117 C107.104327,21.7342137 106.90918,22.1119769 106.90918,22.5703125 C106.90918,22.9713562 107.124021,23.3347965 107.553711,23.6606445 C107.983401,23.9864925 108.738927,24.3230777 109.820312,24.6704102 C110.901698,25.0177426 111.78971,25.3919251 112.484375,25.7929688 C114.174488,26.766932 115.019531,28.109692 115.019531,29.8212891 C115.019531,31.1891344 114.503911,32.2633425 113.472656,33.0439453 C112.441401,33.8245482 111.027027,34.2148438 109.229492,34.2148438 C107.961908,34.2148438 106.814296,33.9874697 105.786621,33.5327148 C104.758947,33.07796 103.985517,32.4549193 103.466309,31.6635742 C102.9471,30.8722291 102.6875,29.9609427 102.6875,28.9296875 L106.46875,28.9296875 C106.46875,29.7675823 106.685382,30.3852519 107.118652,30.7827148 C107.551923,31.1801778 108.255529,31.3789062 109.229492,31.3789062 C109.852542,31.3789062 110.344888,31.2446302 110.706543,30.9760742 C111.068198,30.7075182 111.249023,30.329755 111.249023,29.8427734 Z M130.829644,28.7041016 C130.779513,29.7926487 130.485897,30.7540648 129.948784,31.5883789 C129.411672,32.422693 128.657936,33.0690081 127.687554,33.5273438 C126.717172,33.9856794 125.608947,34.2148438 124.362847,34.2148438 C122.307498,34.2148438 120.689025,33.5452541 119.507378,32.2060547 C118.325732,30.8668553 117.734917,28.9762492 117.734917,26.5341797 L117.734917,25.7607422 C117.734917,24.2281824 118.001679,22.8872128 118.53521,21.737793 C119.068742,20.5883732 119.8368,19.7003612 120.83941,19.0737305 C121.842019,18.4470997 123.002163,18.1337891 124.319878,18.1337891 C126.217674,18.1337891 127.74305,18.6332958 128.89605,19.6323242 C130.049051,20.6313527 130.704318,22.0081292 130.86187,23.7626953 L127.102105,23.7626953 C127.073459,22.8102166 126.833552,22.1263042 126.382378,21.7109375 C125.931204,21.2955708 125.243711,21.0878906 124.319878,21.0878906 C123.381723,21.0878906 122.694229,21.4387986 122.257378,22.140625 C121.820527,22.8424514 121.591363,23.9632084 121.569878,25.5029297 L121.569878,26.609375 C121.569878,28.2780031 121.779349,29.470374 122.198296,30.1865234 C122.617244,30.9026729 123.338753,31.2607422 124.362847,31.2607422 C125.229388,31.2607422 125.891816,31.0566427 126.350152,30.6484375 C126.808487,30.2402323 127.051974,29.5921268 127.08062,28.7041016 L130.829644,28.7041016 Z M147.080186,26.5019531 C147.080186,28.0273514 146.797311,29.3772728 146.231553,30.5517578 C145.665795,31.7262429 144.86193,32.6303679 143.819932,33.2641602 C142.777935,33.8979524 141.590935,34.2148438 140.258897,34.2148438 C138.926859,34.2148438 137.74523,33.9086945 136.713975,33.2963867 C135.68272,32.684079 134.878854,31.8085994 134.302354,30.6699219 C133.725854,29.5312443 133.423285,28.2242912 133.394639,26.7490234 L133.394639,25.8681641 C133.394639,24.3356043 133.675724,22.9838926 134.237901,21.8129883 C134.800078,20.642084 135.605734,19.7379589 136.654893,19.1005859 C137.704052,18.463213 138.898213,18.1445312 140.237413,18.1445312 C141.562289,18.1445312 142.743918,18.4596323 143.782335,19.0898438 C144.820751,19.7200552 145.628198,20.6170189 146.204698,21.7807617 C146.781198,22.9445045 147.073025,24.2783128 147.080186,25.7822266 L147.080186,26.5019531 Z M143.245225,25.8466797 C143.245225,24.2926355 142.985625,23.112797 142.466417,22.3071289 C141.947208,21.5014608 141.204214,21.0986328 140.237413,21.0986328 C138.346778,21.0986328 137.347765,22.5165874 137.240342,25.3525391 L137.2296,26.5019531 C137.2296,28.0345129 137.483829,29.212561 137.992296,30.0361328 C138.500762,30.8597046 139.256288,31.2714844 140.258897,31.2714844 C141.211376,31.2714844 141.945418,30.866866 142.461046,30.0576172 C142.976673,29.2483683 143.238064,28.084643 143.245225,26.5664062 L143.245225,25.8466797 Z M156.058268,28.4785156 L154.017252,28.4785156 L154.017252,34 L150.246744,34 L150.246744,18.359375 L156.402018,18.359375 C158.256845,18.359375 159.707025,18.7711547 160.752603,19.5947266 C161.798182,20.4182984 162.320963,21.5820237 162.320963,23.0859375 C162.320963,24.1744846 162.10075,25.0768193 161.660318,25.7929688 C161.219886,26.5091182 160.530603,27.0891905 159.592447,27.5332031 L162.858072,33.8388672 L162.858072,34 L158.81901,34 L156.058268,28.4785156 Z M154.017252,25.5673828 L156.402018,25.5673828 C157.118167,25.5673828 157.657061,25.3793964 158.018717,25.003418 C158.380372,24.6274395 158.561197,24.1028679 158.561197,23.4296875 C158.561197,22.7565071 158.378582,22.2283548 158.013346,21.8452148 C157.648109,21.4620749 157.111005,21.2705078 156.402018,21.2705078 L154.017252,21.2705078 L154.017252,25.5673828 Z M175.520724,27.3720703 L169.591036,27.3720703 L169.591036,31.0996094 L176.594943,31.0996094 L176.594943,34 L165.820529,34 L165.820529,18.359375 L176.616427,18.359375 L176.616427,21.2705078 L169.591036,21.2705078 L169.591036,24.5683594 L175.520724,24.5683594 L175.520724,27.3720703 Z" id="Score" fill="#C2C8CF"></path>
                    <path d="M108.970215,44.2265625 L112.9375,56.5922852 L116.892578,44.2265625 L122.532227,44.2265625 L122.532227,62 L118.235352,62 L118.235352,57.8496094 L118.650391,49.3535156 L114.353516,62 L111.521484,62 L107.212402,49.3413086 L107.627441,57.8496094 L107.627441,62 L103.342773,62 L103.342773,44.2265625 L108.970215,44.2265625 Z M141.694553,53.4794922 C141.694553,55.2128993 141.373104,56.7469009 140.730198,58.081543 C140.087291,59.4161851 139.173807,60.4435999 137.989719,61.1638184 C136.805631,61.8840368 135.456768,62.2441406 133.943088,62.2441406 C132.429409,62.2441406 131.086649,61.8962437 129.914768,61.2004395 C128.742887,60.5046352 127.829403,59.5097721 127.174289,58.2158203 C126.519175,56.9218685 126.175347,55.4366946 126.142795,53.7602539 L126.142795,52.7592773 C126.142795,51.0177322 126.462209,49.4816961 127.101047,48.151123 C127.739885,46.82055 128.655403,45.7931351 129.847629,45.0688477 C131.039855,44.3445602 132.396857,43.9824219 133.918674,43.9824219 C135.424216,43.9824219 136.766976,44.3404912 137.946994,45.0566406 C139.127013,45.77279 140.044566,46.792067 140.69968,48.114502 C141.354794,49.436937 141.686415,50.9526282 141.694553,52.6616211 L141.694553,53.4794922 Z M137.336643,52.7348633 C137.336643,50.9689039 137.041643,49.6281784 136.451633,48.7126465 C135.861624,47.7971146 135.017312,47.3393555 133.918674,47.3393555 C131.770226,47.3393555 130.634983,48.9506675 130.512912,52.1733398 L130.500705,53.4794922 C130.500705,55.2210374 130.789602,56.5597284 131.367405,57.4956055 C131.945207,58.4314825 132.80376,58.8994141 133.943088,58.8994141 C135.02545,58.8994141 135.859589,58.4396205 136.44553,57.5200195 C137.03147,56.6004186 137.328505,55.2780034 137.336643,53.5527344 L137.336643,52.7348633 Z M151.896919,55.7255859 L149.577583,55.7255859 L149.577583,62 L145.292915,62 L145.292915,44.2265625 L152.287544,44.2265625 C154.395302,44.2265625 156.043234,44.694494 157.231391,45.6303711 C158.419548,46.5662482 159.013618,47.8886633 159.013618,49.5976562 C159.013618,50.8346416 158.763376,51.860022 158.262885,52.6738281 C157.762395,53.4876343 156.979118,54.1468074 155.913032,54.6513672 L159.623969,61.8168945 L159.623969,62 L155.034126,62 L151.896919,55.7255859 Z M149.577583,52.4174805 L152.287544,52.4174805 C153.10135,52.4174805 153.71373,52.2038596 154.124702,51.7766113 C154.535674,51.3493631 154.741157,50.753259 154.741157,49.9882812 C154.741157,49.2233035 154.533639,48.6231304 154.118598,48.1877441 C153.703557,47.7523578 153.093212,47.534668 152.287544,47.534668 L149.577583,47.534668 L149.577583,52.4174805 Z M174.013347,54.4682617 L167.275065,54.4682617 L167.275065,58.7041016 L175.23405,58.7041016 L175.23405,62 L162.990397,62 L162.990397,44.2265625 L175.258464,44.2265625 L175.258464,47.534668 L167.275065,47.534668 L167.275065,51.2822266 L174.013347,51.2822266 L174.013347,54.4682617 Z" id="More" fill="#C2C8CF"></path>
                    <path d="M107.600561,3 L4,3 C1.790861,3 -2.705415e-16,4.790861 0,7 L0,74.0428114 C2.705415e-16,76.2519504 1.790861,78.0428114 4,78.0428114 L184.321014,78.0428114 C186.530153,78.0428114 188.321014,76.2519504 188.321014,74.0428114 L188.321014,36.6561953" id="Path-2" stroke="#C2C8CF"></path>
                    <circle id="Oval-2" fill="#C2C8CF" cx="111" cy="3" r="3"></circle>
                    <circle id="Oval-2-Copy" fill="#C2C8CF" cx="189" cy="36" r="3"></circle>
                </g>
            </g>
        </g>
    </g>
</svg>