<svg width="221" height="106" viewBox="0 0 221 106" fill="none" xmlns="http://www.w3.org/2000/svg">
<g filter="url(#filter0_d)">
<path d="M37.1484 56H33.5449L9.02344 19.4961V56H5.39062V13.3438H9.02344L33.5742 49.877V13.3438H37.1484V56ZM82.8451 36.9863C82.8451 40.9121 82.1615 44.3594 80.7943 47.3281C79.4466 50.2969 77.513 52.582 74.9935 54.1836C72.474 55.7852 69.5638 56.5859 66.263 56.5859C61.2826 56.5859 57.2591 54.8086 54.1927 51.2539C51.1263 47.6797 49.5931 42.8652 49.5931 36.8105V32.416C49.5931 28.5293 50.2767 25.0918 51.6439 22.1035C53.0306 19.0957 54.9837 16.791 57.5033 15.1895C60.0228 13.5684 62.9232 12.7578 66.2044 12.7578C69.4857 12.7578 72.3763 13.5488 74.8763 15.1309C77.3958 16.7129 79.3392 18.9492 80.7064 21.8398C82.0736 24.7305 82.7865 28.0801 82.8451 31.8887V36.9863ZM79.2415 32.3574C79.2415 27.2207 78.0794 23.1973 75.7552 20.2871C73.431 17.377 70.2474 15.9219 66.2044 15.9219C62.2396 15.9219 59.0755 17.3867 56.7122 20.3164C54.3685 23.2266 53.1966 27.2988 53.1966 32.5332V36.9863C53.1966 42.0449 54.3685 46.0586 56.7122 49.0273C59.056 51.9766 62.2396 53.4512 66.263 53.4512C70.3451 53.4512 73.5286 51.9961 75.8138 49.0859C78.099 46.1562 79.2415 42.084 79.2415 36.8691V32.3574Z" transform="translate(24.6914 17)" fill="white"/>
</g>
<g filter="url(#filter1_d)">
<path d="M9.24902 15.8428C9.24902 15.2913 9.05208 14.8617 8.6582 14.5537C8.27148 14.2458 7.58757 13.9271 6.60645 13.5977C5.62533 13.2682 4.82324 12.9495 4.2002 12.6416C2.1735 11.6462 1.16016 10.2783 1.16016 8.53809C1.16016 7.67155 1.41081 6.90885 1.91211 6.25C2.42057 5.58398 3.13672 5.06836 4.06055 4.70312C4.98438 4.33073 6.02279 4.14453 7.17578 4.14453C8.30013 4.14453 9.30632 4.34505 10.1943 4.74609C11.0895 5.14714 11.7842 5.72005 12.2783 6.46484C12.7725 7.20247 13.0195 8.04753 13.0195 9H9.25977C9.25977 8.36263 9.06283 7.86849 8.66895 7.51758C8.28223 7.16667 7.75586 6.99121 7.08984 6.99121C6.41667 6.99121 5.88314 7.1416 5.48926 7.44238C5.10254 7.736 4.90918 8.11198 4.90918 8.57031C4.90918 8.97135 5.12402 9.33659 5.55371 9.66602C5.9834 9.98828 6.73893 10.3249 7.82031 10.6758C8.90169 11.0195 9.78971 11.3919 10.4844 11.793C12.1745 12.7669 13.0195 14.1097 13.0195 15.8213C13.0195 17.1891 12.5039 18.2633 11.4727 19.0439C10.4414 19.8245 9.02702 20.2148 7.22949 20.2148C5.96191 20.2148 4.8125 19.9893 3.78125 19.5381C2.75716 19.0798 1.98372 18.4567 1.46094 17.6689C0.945312 16.874 0.6875 15.9609 0.6875 14.9297H4.46875C4.46875 15.7676 4.68359 16.387 5.11328 16.7881C5.55013 17.182 6.25553 17.3789 7.22949 17.3789C7.85254 17.3789 8.3431 17.2464 8.70117 16.9814C9.06641 16.7093 9.24902 16.3298 9.24902 15.8428ZM28.8296 14.7041C28.7795 15.7926 28.4859 16.7559 27.9488 17.5938C27.4117 18.4245 26.6561 19.069 25.6822 19.5273C24.7154 19.9857 23.6089 20.2148 22.3628 20.2148C20.3075 20.2148 18.689 19.5452 17.5074 18.2061C16.3257 16.8669 15.7349 14.9762 15.7349 12.5342V11.7607C15.7349 10.2282 15.9999 8.889 16.5298 7.74316C17.0669 6.59017 17.8368 5.70215 18.8394 5.0791C19.842 4.44889 21.0022 4.13379 22.3199 4.13379C24.2177 4.13379 25.7431 4.63509 26.8961 5.6377C28.049 6.63314 28.7043 8.00814 28.8619 9.7627H25.1021C25.0735 8.81022 24.8336 8.1263 24.3824 7.71094C23.9312 7.29557 23.2437 7.08789 22.3199 7.08789C21.3817 7.08789 20.6942 7.4388 20.2574 8.14062C19.8205 8.84245 19.5914 9.96322 19.5699 11.5029V12.6094C19.5699 14.278 19.7776 15.4704 20.1929 16.1865C20.6155 16.9027 21.3388 17.2607 22.3628 17.2607C23.2294 17.2607 23.8918 17.0566 24.3502 16.6484C24.8085 16.2402 25.052 15.5921 25.0806 14.7041H28.8296ZM45.0802 12.502C45.0802 14.0273 44.7973 15.3773 44.2316 16.5518C43.6658 17.7262 42.8601 18.6322 41.8146 19.2695C40.7762 19.8997 39.5909 20.2148 38.2589 20.2148C36.9269 20.2148 35.7452 19.9105 34.714 19.3018C33.6827 18.6859 32.8771 17.8086 32.297 16.6699C31.7241 15.5312 31.4233 14.2243 31.3946 12.749V11.8682C31.3946 10.3356 31.6739 8.98568 32.2325 7.81836C32.7983 6.64388 33.6039 5.73796 34.6495 5.10059C35.7023 4.46322 36.8982 4.14453 38.2374 4.14453C39.5623 4.14453 40.7439 4.45964 41.7823 5.08984C42.8207 5.72005 43.6264 6.61882 44.1993 7.78613C44.7794 8.94629 45.073 10.2783 45.0802 11.7822V12.502ZM41.2452 11.8467C41.2452 10.2926 40.9838 9.11458 40.461 8.3125C39.9454 7.50326 39.2042 7.09863 38.2374 7.09863C36.3468 7.09863 35.3478 8.5166 35.2403 11.3525L35.2296 12.502C35.2296 14.0345 35.4838 15.2126 35.9923 16.0361C36.5008 16.8597 37.2563 17.2715 38.2589 17.2715C39.2114 17.2715 39.9454 16.8669 40.461 16.0576C40.9767 15.2484 41.2381 14.0846 41.2452 12.5664V11.8467ZM54.0583 14.4785H52.0173V20H48.2467V4.35938H54.402C56.2568 4.35938 57.707 4.77116 58.7526 5.59473C59.7982 6.41829 60.321 7.58203 60.321 9.08594C60.321 10.1745 60.099 11.0768 59.6549 11.793C59.2181 12.5091 58.5306 13.0892 57.5924 13.5332L60.8581 19.8389V20H56.819L54.0583 14.4785ZM52.0173 11.5674H54.402C55.1182 11.5674 55.6553 11.3812 56.0133 11.0088C56.3786 10.6292 56.5612 10.1029 56.5612 9.42969C56.5612 8.75651 56.3786 8.23014 56.0133 7.85059C55.6481 7.46387 55.111 7.27051 54.402 7.27051H52.0173V11.5674ZM73.5207 13.3721H67.591V17.0996H74.5949V20H63.8205V4.35938H74.6164V7.27051H67.591V10.5684H73.5207V13.3721Z" transform="translate(115.691 26)" fill="white"/>
</g>
<g filter="url(#filter2_d)">
<path d="M6.97021 5.22656L10.9375 17.5923L14.8926 5.22656H20.5322V23H16.2354V18.8496L16.6504 10.3535L12.3535 23H9.52148L5.2124 10.3413L5.62744 18.8496V23H1.34277V5.22656H6.97021ZM39.7068 14.4795C39.7068 16.2129 39.3853 17.7469 38.7424 19.0815C38.0995 20.4162 37.184 21.4456 35.9958 22.1699C34.8158 22.8861 33.469 23.2441 31.9553 23.2441C30.4416 23.2441 29.0989 22.8983 27.927 22.2065C26.7551 21.5067 25.8396 20.5098 25.1804 19.2158C24.5294 17.9219 24.1876 16.4367 24.155 14.7603V13.7593C24.155 12.0177 24.4724 10.4837 25.1072 9.15723C25.7501 7.82259 26.6656 6.79313 27.8537 6.06885C29.05 5.34456 30.4091 4.98242 31.9309 4.98242C33.4364 4.98242 34.7792 5.34049 35.9592 6.05664C37.1392 6.77279 38.0547 7.79411 38.7058 9.12061C39.365 10.439 39.6986 11.9526 39.7068 13.6616V14.4795ZM35.3489 13.7349C35.3489 11.9689 35.0518 10.6302 34.4577 9.71875C33.8718 8.79915 33.0295 8.33936 31.9309 8.33936C29.7824 8.33936 28.6472 9.95068 28.5251 13.1733L28.5129 14.4795C28.5129 16.221 28.8018 17.5597 29.3796 18.4956C29.9574 19.4315 30.816 19.8994 31.9553 19.8994C33.0377 19.8994 33.8718 19.4396 34.4577 18.52C35.0437 17.6004 35.3407 16.278 35.3489 14.5527V13.7349ZM49.9091 16.7256H47.5898V23H43.3051V5.22656H50.2998C52.4075 5.22656 54.0554 5.6945 55.2436 6.63037C56.4317 7.56624 57.0258 8.88867 57.0258 10.5977C57.0258 11.8346 56.7735 12.86 56.269 13.6738C55.7726 14.4876 54.9913 15.1468 53.9252 15.6514L57.6362 22.8169V23H53.0463L49.9091 16.7256ZM47.5898 13.4175H50.2998C51.1136 13.4175 51.7239 13.2059 52.1308 12.7827C52.5458 12.3514 52.7534 11.7533 52.7534 10.9883C52.7534 10.2233 52.5458 9.62516 52.1308 9.19385C51.7158 8.75439 51.1054 8.53467 50.2998 8.53467H47.5898V13.4175ZM72.0256 15.4683H65.2873V19.7041H73.2463V23H61.0026V5.22656H73.2707V8.53467H65.2873V12.2822H72.0256V15.4683Z" transform="translate(115.691 51)" fill="white"/>
</g>
<path d="M107.601 0L4 0C1.79086 0 0 1.79086 0 4L0 71.0428C0 73.2519 1.79086 75.0428 4 75.0428H184.321C186.53 75.0428 188.321 73.2519 188.321 71.0428V33.6562" transform="translate(14 14.8884)" stroke="white"/>
<path fill-rule="evenodd" clip-rule="evenodd" d="M3 6C4.65685 6 6 4.65685 6 3C6 1.34315 4.65685 0 3 0C1.34315 0 0 1.34315 0 3C0 4.65685 1.34315 6 3 6Z" transform="translate(121.691 12)" fill="#1E88F5"/>
<path fill-rule="evenodd" clip-rule="evenodd" d="M3 6C4.65685 6 6 4.65685 6 3C6 1.34315 4.65685 0 3 0C1.34315 0 0 1.34315 0 3C0 4.65685 1.34315 6 3 6Z" transform="translate(199.691 45)" fill="#FAC802"/>
<defs>
<filter id="filter0_d" x="0.0820312" y="0.757812" width="137.454" height="103.828" filterUnits="userSpaceOnUse" color-interpolation-filters="sRGB">
<feFlood flood-opacity="0" result="BackgroundImageFix"/>
<feColorMatrix in="SourceAlpha" type="matrix" values="0 0 0 0 0 0 0 0 0 0 0 0 0 0 0 0 0 0 255 0"/>
<feOffset dy="1"/>
<feGaussianBlur stdDeviation="15"/>
<feColorMatrix type="matrix" values="0 0 0 0 0.0313726 0 0 0 0 0.137255 0 0 0 0 0.247059 0 0 0 0.5 0"/>
<feBlend mode="normal" in2="BackgroundImageFix" result="effect1_dropShadow"/>
<feBlend mode="normal" in="SourceGraphic" in2="effect1_dropShadow" result="shape"/>
</filter>
<filter id="filter1_d" x="86.3789" y="1.13379" width="133.929" height="76.0811" filterUnits="userSpaceOnUse" color-interpolation-filters="sRGB">
<feFlood flood-opacity="0" result="BackgroundImageFix"/>
<feColorMatrix in="SourceAlpha" type="matrix" values="0 0 0 0 0 0 0 0 0 0 0 0 0 0 0 0 0 0 255 0"/>
<feOffset dy="1"/>
<feGaussianBlur stdDeviation="15"/>
<feColorMatrix type="matrix" values="0 0 0 0 0.0313726 0 0 0 0 0.137255 0 0 0 0 0.247059 0 0 0 0.5 0"/>
<feBlend mode="normal" in2="BackgroundImageFix" result="effect1_dropShadow"/>
<feBlend mode="normal" in="SourceGraphic" in2="effect1_dropShadow" result="shape"/>
</filter>
<filter id="filter2_d" x="87.0342" y="26.9824" width="131.928" height="78.2617" filterUnits="userSpaceOnUse" color-interpolation-filters="sRGB">
<feFlood flood-opacity="0" result="BackgroundImageFix"/>
<feColorMatrix in="SourceAlpha" type="matrix" values="0 0 0 0 0 0 0 0 0 0 0 0 0 0 0 0 0 0 255 0"/>
<feOffset dy="1"/>
<feGaussianBlur stdDeviation="15"/>
<feColorMatrix type="matrix" values="0 0 0 0 0.0313726 0 0 0 0 0.137255 0 0 0 0 0.247059 0 0 0 0.5 0"/>
<feBlend mode="normal" in2="BackgroundImageFix" result="effect1_dropShadow"/>
<feBlend mode="normal" in="SourceGraphic" in2="effect1_dropShadow" result="shape"/>
</filter>
</defs>
</svg>
