<?xml version="1.0" encoding="utf-8"?>
<!-- Generator: Adobe Illustrator 22.0.0, SVG Export Plug-In . SVG Version: 6.00 Build 0)  -->
<svg version="1.1" id="Layer_1" xmlns="http://www.w3.org/2000/svg" xmlns:xlink="http://www.w3.org/1999/xlink" x="0px" y="0px"
	 viewBox="0 0 64 64" style="enable-background:new 0 0 64 64;" xml:space="preserve">
<style type="text/css">
	.st0{opacity:0.3;fill:#7A5ADB;}
	.st1{fill:#7A5ADB;}
</style>
<title>Page 1</title>
<desc>Created using Figma</desc>
<path id="path2_fill" class="st0" d="M43.5,40.5c-0.9,0.2-21,0.3-21.9,0.3c-7.6,0-13.7-6.1-13.7-13.6S14,13.6,21.6,13.6
	c0.3,0,0.6,0,0.9,0c2-5.1,6.9-8.8,12.8-8.8c5.8,0,10.8,3.7,12.8,8.8c0.3,0,0.6,0,0.9,0c7.5,0,13.7,6.1,13.7,13.6S56.6,40.8,49,40.8
	c-0.9,0-1.9-0.1-2.7-0.3H43.5"/>
<path class="st1" d="M34.1,57.4L34.1,57.4l0.7,0.1c0.1-1.7-1.1-3.2-2.8-3.4V38.4h-1.4v15.8c-1.3,0.4-2.2,1.5-2.3,2.9
	c-0.1,1.8,1.2,3.3,3,3.4l0,0l0,0l0,0l0,0c1.8,0.1,3.3-1.2,3.5-3l0,0L34.1,57.4z M31.4,59.1L31.4,59.1v0.7V60V59.1
	c-1-0.1-1.8-1-1.7-2c0.1-0.8,0.6-1.5,1.4-1.7h1l0,0c0.9,0.2,1.5,1,1.4,1.9l0,0C33.3,58.4,32.4,59.2,31.4,59.1z"/>
<path class="st1" d="M59.7,45.2h-0.2h0.7c0.1-1.8-1.2-3.3-3-3.4l0,0c-1.6-0.1-3,1-3.4,2.5H43.2v-3.7c0.7,0.1,1.3,0.2,2.1,0.2
	c7.9,0,14.4-6.4,14.4-14.3c0-7.9-6.4-14.3-14.4-14.3c-0.2,0-0.3,0-0.5,0c-2.2-5.1-7.3-8.8-13.2-8.8c-6,0-11,3.6-13.2,8.8
	c-0.1,0-0.3,0-0.5,0c-7.9,0-14.4,6.4-14.4,14.3c0,7.9,6.4,14.3,14.4,14.3c0.7,0,1.4-0.1,2.1-0.2v3.7H9.2c-0.3-1.4-1.5-2.4-2.9-2.5
	l0,0c-1.8-0.1-3.3,1.2-3.5,3c-0.1,1.8,1.2,3.3,3,3.4c1.6,0.1,3-1,3.4-2.5h11.5h0.7V45v-5.2V39l-0.8,0.2c-0.9,0.2-1.7,0.3-2.6,0.3
	c-7.2,0-13-5.8-13-12.9c0-7.1,5.8-12.9,13-12.9c0.3,0,0.5,0,0.9,0h0.5l0.2-0.5L19,13l0,0l0.6,0.2c1.9-4.9,6.6-8.4,12.1-8.4
	c5.6,0,10.3,3.5,12.1,8.4l0.2,0.5h0.5c0.3,0,0.6,0,0.9,0c7.2,0,13,5.8,13,12.9c0,7.1-5.8,12.9-13,12.9c-0.9,0-1.7-0.1-2.6-0.3L42,39
	v0.8V45v0.7h0.7H54c0.3,1.4,1.5,2.4,2.9,2.5c1.8,0.1,3.1-1.2,3.3-3l0,0H59.7z M5.8,46.9c-1-0.1-1.8-1-1.7-2c0.1-1,1-1.8,2-1.7
	s1.8,1,1.8,2C7.7,46.2,6.8,47,5.8,46.9z M56.8,46.9c-0.8-0.1-1.5-0.6-1.7-1.4v-1c0.2-0.8,1-1.4,1.9-1.3c1,0.1,1.8,1,1.8,2l0,0
	C58.7,46.2,57.8,47,56.8,46.9z"/>
</svg>
