<?xml version="1.0" encoding="utf-8"?>
<!-- Generator: Adobe Illustrator 22.0.0, SVG Export Plug-In . SVG Version: 6.00 Build 0)  -->
<svg version="1.1" id="Layer_1" xmlns="http://www.w3.org/2000/svg" xmlns:xlink="http://www.w3.org/1999/xlink" x="0px" y="0px"
	 viewBox="0 0 64 64" style="enable-background:new 0 0 64 64;" xml:space="preserve">
<style type="text/css">
	.st0{opacity:0.2;}
	.st1{fill:#34D66A;}
</style>
<g id="Fill_1" class="st0">
	<g transform="translate(1051.9 1776.34)">
		<path id="path0_fill" class="st1" d="M-995.6-1768h-45.7c-2.2,0-4,1.8-4,4v15.8v16.5c0,2.2,1.8,4,4,4h45.7c2.2,0,4-1.8,4-4v-16.6
			v-15.8C-991.6-1766.2-993.4-1768-995.6-1768"/>
	</g>
</g>
<title>Drive</title>
<desc>Created using Figma</desc>
<g>
	<path class="st1" d="M46.2,12.5c-1.5,0-2.8,1.2-2.8,2.8c0,1.5,1.2,2.8,2.8,2.8s2.8-1.2,2.8-2.8C48.9,13.7,47.7,12.5,46.2,12.5z"/>
	<path class="st1" d="M53.1,4.2H7.4c-2.6,0-4.7,2.1-4.7,4.7v15.8l0,0v0.7l0,0v15.8c0,2.6,2.1,4.7,4.7,4.7h45.7
		c2.6,0,4.7-2.1,4.7-4.7V25.3l0,0v-0.7l0,0V8.8C57.8,6.3,55.7,4.2,53.1,4.2z M56.4,41.1c0,1.8-1.5,3.3-3.3,3.3H7.4
		c-1.8,0-3.3-1.5-3.3-3.3V26h52.3V41.1z M56.4,23.9H4.1V8.8c0-1.8,1.5-3.3,3.3-3.3h45.7c1.8,0,3.3,1.5,3.3,3.3
		C56.4,8.8,56.4,23.9,56.4,23.9z"/>
	<path class="st1" d="M30.7,53.4v-7.6h-1.4v7.6c-0.9,0.2-1.6,0.8-2.1,1.6H14.4v1.4h12.4c-0.1,1.8,1.3,3.4,3.1,3.5
		c1.8,0.1,3.4-1.2,3.5-3.1l0,0h-0.3h-0.2h0.5c0-0.1,0-0.3,0-0.4h12.2V55H32.9C32.5,54.1,31.7,53.5,30.7,53.4z M29.9,58.9
		c-1.3-0.1-2.3-1.2-2.2-2.5c0.1-1.3,1.2-2.3,2.5-2.2s2.3,1.2,2.2,2.5C32.3,58,31.2,59,29.9,58.9z"/>
	<rect x="11.6" y="12" class="st1" width="1.4" height="6.4"/>
	<path class="st1" d="M46.2,37.8c1.5,0,2.8-1.2,2.8-2.8c0-1.5-1.2-2.8-2.8-2.8s-2.8,1.2-2.8,2.8C43.4,36.5,44.6,37.8,46.2,37.8z"/>
	<rect x="11.6" y="31.8" class="st1" width="1.4" height="6.4"/>
</g>
</svg>
