<?xml version="1.0" encoding="utf-8"?>
<!-- Generator: Adobe Illustrator 22.0.0, SVG Export Plug-In . SVG Version: 6.00 Build 0)  -->
<svg version="1.1" id="Layer_1" xmlns="http://www.w3.org/2000/svg" xmlns:xlink="http://www.w3.org/1999/xlink" x="0px" y="0px"
	 viewBox="0 0 64 64" style="enable-background:new 0 0 64 64;" xml:space="preserve">
<style type="text/css">
	.st0{opacity:0.2;}
	.st1{fill:#34D66A;}
</style>
<g id="Fill_1" class="st0">
	<g transform="translate(1061.36 1549.56)">
		<path id="path0_fill" class="st1" d="M-1007.4-1517.7c0,10.7-8.6,19.3-19.2,19.3c-10.6,0-19.2-8.6-19.2-19.3
			c0-10.7,8.6-19.3,19.2-19.3C-1016-1537-1007.4-1528.3-1007.4-1517.7"/>
	</g>
</g>
<g>
	<path class="st1" d="M51.4,31.7c0-10.7-8.7-19.4-19.4-19.4S12.6,21,12.6,31.7S21.3,51.1,32,51.1C42.7,51.2,51.4,42.5,51.4,31.7z
		 M13.7,32.2h7.2c0.1,2.5,0.5,5,1.4,7.3c-2.9-1-5.7-2.4-8.2-4.2C13.9,34.3,13.8,33.3,13.7,32.2z M14.1,28.2c2.6-1.9,5.3-3.3,8.2-4.2
		c-0.8,2.3-1.3,4.8-1.4,7.2h-7.2C13.8,30.1,13.9,29.1,14.1,28.2z M50.3,31.1h-7.4c-0.1-2.5-0.6-5-1.6-7.4c3,1,6,2.4,8.6,4.4
		C50.1,29.1,50.2,30.1,50.3,31.1z M49.9,35.3c-2.7,2-5.6,3.4-8.6,4.4c1-2.4,1.5-4.9,1.6-7.5h7.4C50.2,33.3,50.1,34.3,49.9,35.3z
		 M32.1,42.2c2.4,0,4.8-0.3,7.2-0.9c-1.6,3-4,5.7-7.2,7.8V42.2z M32.1,41.2v-8.9h9.6c-0.1,2.7-0.7,5.3-1.8,7.9
		C37.4,40.8,34.8,41.2,32.1,41.2z M41.8,31.1h-9.6v-8.8c2.6,0,5.3,0.4,7.8,1.1C41.1,25.9,41.7,28.5,41.8,31.1z M32.1,21.2v-6.6
		c3.2,2,5.5,4.6,7.1,7.5C36.9,21.5,34.5,21.2,32.1,21.2z M31.1,21.3c-2.3,0.1-4.6,0.4-6.9,1c1.5-3.1,3.8-5.9,6.9-8.1V21.3z
		 M31.1,22.4v8.8h-9c0.1-2.6,0.6-5.2,1.6-7.6C26,22.8,28.5,22.4,31.1,22.4z M22,32.2h9v8.9c-2.5-0.1-5-0.5-7.4-1.2
		C22.6,37.5,22.1,34.9,22,32.2z M31.1,42.2v7.1c-3.1-2.2-5.4-5-6.9-8.1C26.4,41.8,28.8,42.1,31.1,42.2z M32.8,50.1
		c3.6-2.4,6.3-5.6,8-9.1c3.1-0.9,6.1-2.3,8.8-4.1C47.4,44.3,40.7,49.7,32.8,50.1z M49.6,26.6c-2.8-1.9-5.8-3.2-8.8-4.1
		c-1.7-3.5-4.5-6.7-8.4-9.1l-0.1,0.2v-0.2l0,0C40.4,13.5,47.3,19,49.6,26.6z M30.1,13.5c-3.4,2.5-5.8,5.6-7.3,9.1
		c-2.9,0.9-5.7,2.2-8.4,4C16.5,19.6,22.6,14.2,30.1,13.5z M14.5,36.9c2.6,1.8,5.4,3.1,8.4,4c1.5,3.5,4,6.7,7.3,9.1
		C22.7,49.2,16.5,43.9,14.5,36.9z"/>
	<path class="st1" d="M30.7,6.3l-2.1,2.2l0.8,0.8l3.1-3.2L32,5.7l0.3-0.4l-4.1-3.2L27.6,3l2.9,2.2C16.9,6,6.1,17.3,6.1,31.1h1.1
		C7.2,17.8,17.6,7,30.7,6.3z"/>
	<path class="st1" d="M57.9,32.6h-1.1C56.8,46,46.2,57,32.9,57.5l2.5-1.9l-0.7-0.9l-3.5,2.7l-0.5,0.4l0.4,0.4l3.6,3.7l0.8-0.8
		L33,58.6C46.9,58,57.9,46.6,57.9,32.6z"/>
	<polygon class="st1" points="32.4,6.1 32.8,5.6 32.3,5.3 32,5.7 	"/>
</g>
</svg>
