<?xml version="1.0" encoding="utf-8"?>
<!-- Generator: Adobe Illustrator 22.0.0, SVG Export Plug-In . SVG Version: 6.00 Build 0)  -->
<svg version="1.1" id="Layer_1" xmlns="http://www.w3.org/2000/svg" xmlns:xlink="http://www.w3.org/1999/xlink" x="0px" y="0px"
	 viewBox="0 0 64 64" style="enable-background:new 0 0 64 64;" xml:space="preserve">
<style type="text/css">
	.st0{fill:#5ABBDB;fill-opacity:0.2;}
	.st1{fill:#5ABBDB;}
</style>
<g id="Group_3">
	<g id="Fill_1">
		<g transform="translate(1430.29 870.148)">
			<path id="path1_fill" class="st0" d="M-1396.7-864.7c-11.6,0-24.2,2.5-24.2,8v40c0,5.5,12.5,8,24.2,8c11.6,0,24.2-2.5,24.2-8v-40
				C-1372.5-862.2-1385-864.7-1396.7-864.7"/>
		</g>
	</g>
</g>
<g>
	<path class="st1" d="M55,29.9L55,29.9V10c0,0,0,0,0-0.1c0-1.3-1-2.3-2.2-3.1c-1.3-0.8-3.2-1.5-5.4-2.1c-4.5-1.2-10.5-1.9-17.2-1.9
		S17.4,3.5,13,4.7C10.7,5.3,8.8,6,7.5,6.8S5.3,8.6,5.3,9.9v40c0,1.3,1,2.3,2.2,3.1c1.3,0.8,3.1,1.5,5.4,2.1
		c4.4,1.2,10.5,1.9,17.2,1.9s12.8-0.7,17.2-1.9c2.2-0.6,4.1-1.3,5.4-2.1c1.3-0.8,2.2-1.8,2.2-3.1l0,0L55,29.9C55,30,55,29.9,55,29.9
		z M8.3,8.1c1.1-0.7,2.8-1.4,5-1.9C17.6,5,23.5,4.3,30.1,4.3C36.8,4.3,42.7,5,47,6.1c2.2,0.6,3.8,1.2,5,1.9s1.5,1.4,1.5,1.9l0,0V10
		c0,0.5-0.4,1.1-1.5,1.8s-2.8,1.4-5,1.9c-4.3,1.1-10.2,1.9-16.9,1.9c-6.6,0-12.6-0.7-16.9-1.9c-2.1-0.6-3.8-1.2-5-1.9
		c-1-0.8-1.4-1.4-1.4-1.9S7.2,8.8,8.3,8.1z M6.8,12.5C7,12.7,7.3,12.9,7.6,13c1.3,0.8,3.1,1.5,5.4,2.1c4.4,1.2,10.5,1.9,17.2,1.9
		s12.8-0.7,17.2-1.9c2.2-0.6,4.1-1.3,5.4-2.1c0.3-0.2,0.5-0.3,0.7-0.5V30c0,0.5-0.4,1.1-1.5,1.8c-1.1,0.7-2.8,1.4-5,1.9
		c-4.3,1.1-10.2,1.8-16.9,1.8c-6.6,0-12.6-0.7-16.9-1.8c-2.1-0.6-3.8-1.2-5-1.9c-1.2-0.7-1.5-1.4-1.5-1.9L6.8,12.5L6.8,12.5z
		 M52,51.8c-1.1,0.7-2.8,1.4-5,2c-4.3,1.1-10.2,1.8-16.9,1.8c-6.6,0-12.6-0.7-16.9-1.8c-2.1-0.6-3.8-1.2-5-2C7,51.1,6.7,50.4,6.7,50
		V32.5C7,32.7,7.3,32.9,7.5,33c1.3,0.8,3.1,1.5,5.4,2.1c4.4,1.2,10.5,1.9,17.2,1.9s12.8-0.7,17.2-1.9c2.2-0.6,4.1-1.3,5.4-2.1
		c0.3-0.2,0.5-0.3,0.7-0.5v17.4l0,0C53.5,50.4,53.1,51,52,51.8z"/>
</g>
</svg>
