<?xml version="1.0" encoding="utf-8"?>
<!-- Generator: Adobe Illustrator 22.0.0, SVG Export Plug-In . SVG Version: 6.00 Build 0)  -->
<svg version="1.1" id="Layer_1" xmlns="http://www.w3.org/2000/svg" xmlns:xlink="http://www.w3.org/1999/xlink" x="0px" y="0px"
	 viewBox="0 0 64 64" style="enable-background:new 0 0 64 64;" xml:space="preserve">
<style type="text/css">
	.st0{fill:#34D66A;}
	.st1{opacity:0.3;fill:#34D66A;}
</style>
<title>Moeny</title>
<desc>Created using Figma</desc>
<g>
	<path class="st0" d="M55.5,15.1c-8.7-4.4-17.3-2.2-25.7,0c-8.5,2.2-16.7,4.2-24.9,0l-0.8-0.4v0.9v28.7v0.3l0.3,0.2l0.3-0.5l0,0
		l-0.3,0.5c8.7,4.4,17.3,2.2,25.7,0c8.5-2.2,16.7-4.2,24.9,0l0.8,0.4v-0.9V15.6v-0.3L55.5,15.1z M29.8,43.8
		C21.4,45.9,13.3,48,5.2,44V16.5c8.4,3.9,16.8,1.7,24.9-0.3c8.4-2.1,16.5-4.2,24.6-0.2v27.5C46.3,39.6,37.9,41.7,29.8,43.8z"/>
	<path id="path1_fill" class="st1" d="M59.9,48.7c-17.7-9.2-35.4,9.2-53.1,0V18.1c17.7,9.2,35.4-9.2,53.1,0V48.7z"/>
	<path id="path2_fill" class="st0" d="M30.2,36c1.8-0.1,2.7-1,2.7-2.7c0-0.4-0.1-0.8-0.2-1.1c-0.1-0.3-0.3-0.6-0.6-0.8
		c-0.2-0.2-0.5-0.4-0.9-0.6c-0.3-0.2-0.7-0.4-1.1-0.5L30.2,36L30.2,36z M29.5,23.5c-1.6,0.1-2.4,0.8-2.4,2.1c0,0.6,0.2,1.1,0.6,1.5
		s1,0.7,1.8,1L29.5,23.5L29.5,23.5z M29.5,37c-2.7-0.2-4.1-1.2-4.1-3.1c0-1.1,0.3-1.7,0.9-1.7c0.5,0,0.7,0.3,0.7,0.8
		c0,0.2,0,0.4-0.1,0.6s-0.1,0.5-0.1,0.8c0.2,1,1.1,1.5,2.6,1.6v-6c-0.1,0-0.2,0-0.2-0.1c-0.4-0.2-0.9-0.4-1.3-0.6
		c-0.4-0.2-0.8-0.4-1.2-0.7c-0.3-0.3-0.6-0.6-0.8-0.9c-0.2-0.4-0.3-0.8-0.3-1.3c0-2.3,1.3-3.5,3.9-3.6v-1.7c0-0.2,0.1-0.2,0.3-0.2
		c0.3,0,0.4,0.1,0.4,0.2v1.7c2.4,0.1,3.6,1,3.6,2.7c0,0.8-0.3,1.1-0.8,1.1s-0.8-0.2-0.8-0.7c0-0.1,0-0.2,0.1-0.3
		c0.1-0.1,0.1-0.3,0.1-0.5c0-0.9-0.7-1.5-2.1-1.5v4.9c0.1,0.1,0.3,0.2,0.5,0.2c0.4,0.2,0.9,0.4,1.3,0.6c0.4,0.2,0.8,0.5,1.2,0.8
		c0.3,0.3,0.6,0.6,0.8,1s0.3,0.9,0.3,1.4c0,2.9-1.4,4.4-4.2,4.4v1.9c0,0.2-0.1,0.3-0.3,0.3c-0.3,0-0.4-0.1-0.4-0.3L29.5,37L29.5,37z
		"/>
</g>
</svg>
