<?xml version="1.0" encoding="utf-8"?>
<!-- Generator: Adobe Illustrator 22.0.0, SVG Export Plug-In . SVG Version: 6.00 Build 0)  -->
<svg version="1.1" id="Layer_1" xmlns="http://www.w3.org/2000/svg" xmlns:xlink="http://www.w3.org/1999/xlink" x="0px" y="0px"
	 viewBox="0 0 64 64" style="enable-background:new 0 0 64 64;" xml:space="preserve">
<style type="text/css">
	.st0{opacity:0.2;}
	.st1{fill:#34D66A;}
</style>
<title>Locker</title>
<desc>Created using Figma</desc>
<g id="Fill_1" class="st0">
	<g transform="translate(720.249 1796.25)">
		<path id="path0_fill" class="st1" d="M-671.3-1735.8h-32c-2.4,0-4.3-1.9-4.3-4.3v-22.7c0-2.4,1.9-4.3,4.3-4.3h32
			c2.4,0,4.3,1.9,4.3,4.3v22.6C-667-1737.8-669-1735.8-671.3-1735.8"/>
	</g>
</g>
<path class="st1" d="M46.4,25h-1.6v-7c0-7.9-6.5-14.4-14.4-14.4C22.5,3.6,16,10.1,16,18v7h-1.6c-2.8,0-5,2.3-5,5v22.6
	c0,2.8,2.2,5,5,5h32c2.8,0,5-2.3,5-5V30C51.4,27.2,49.2,25,46.4,25z M17.5,18c0-7.2,5.8-13,13-13c7.1,0,13,5.9,13,13v7h-26V18z
	 M50,52.6c0,2-1.6,3.6-3.6,3.6h-32c-2,0-3.6-1.6-3.6-3.6V30c0-2,1.6-3.6,3.6-3.6h32c2,0,3.6,1.6,3.6,3.6V52.6z"/>
<path class="st1" d="M34.9,40.6c0-2.5-2-4.5-4.4-4.5v1.4c1.7,0,3,1.4,3,3.1c0,1.2-0.7,2.2-1.6,2.7l0.3,0.6h-0.1l-0.3-0.6l-0.4,0.2
	v0.4v3.6c0,0.6-0.5,1-1,1c-0.6,0-1-0.5-1-1v-3.6v-0.4L29,43.3l0,0c-1-0.5-1.6-1.5-1.6-2.7h-0.1c0-1.7,1.4-3.1,3-3.1v-1.4
	c-2.5,0-4.4,2-4.4,4.5c0,1.5,0.8,2.9,2,3.7v3.2c0,1.3,1.1,2.4,2.4,2.4s2.4-1.1,2.4-2.4v-3.2C34,43.6,34.9,42.2,34.9,40.6z"/>
</svg>
