<?xml version="1.0" encoding="utf-8"?>
<!-- Generator: Adobe Illustrator 22.0.0, SVG Export Plug-In . SVG Version: 6.00 Build 0)  -->
<svg version="1.1" id="Layer_1" xmlns="http://www.w3.org/2000/svg" xmlns:xlink="http://www.w3.org/1999/xlink" x="0px" y="0px"
	 viewBox="0 0 64 64" style="enable-background:new 0 0 64 64;" xml:space="preserve">
<style type="text/css">
	.st0{opacity:0.2;}
	.st1{fill:#34D66A;}
</style>
<title>Support</title>
<desc>Created using Figma</desc>
<g id="Fill_1" class="st0">
	<g transform="translate(1403.89 1544.42)">
		<path id="path0_fill" class="st1" d="M-1357.1-1518.3c0,6.8-6.6,12.2-14.8,12.2s-14.8-5.5-14.8-12.2c0-6.8,6.6-12.2,14.8-12.2
			C-1363.8-1530.5-1357.1-1525-1357.1-1518.3"/>
	</g>
</g>
<g id="Fill_7" class="st0">
	<g transform="translate(1388.37 1567.97)">
		<path id="path3_fill" class="st1" d="M-1371.9-1532.1c0,3.1-2.6,5.7-5.7,5.7c-3.2,0-5.7-2.5-5.7-5.7c0-3.1,2.6-5.7,5.7-5.7
			C-1374.4-1537.8-1371.9-1535.2-1371.9-1532.1"/>
	</g>
</g>
<g id="Group_13">
	<g id="Fill_11" class="st0">
		<g transform="translate(1449.25 1567.97)">
			<path id="path3_fill_1_" class="st1" d="M-1387.7-1532.1c0,3.1-2.6,5.7-5.7,5.7c-3.2,0-5.7-2.5-5.7-5.7c0-3.1,2.6-5.7,5.7-5.7
				S-1387.7-1535.2-1387.7-1532.1"/>
		</g>
	</g>
</g>
<g id="Fill_16" class="st0">
	<g transform="translate(1428.42 1599.83)">
		<path id="path7_fill" class="st1" d="M-1388.3-1542.7c0,1.6-1.3,2.8-2.9,2.8c-1.6,0-2.9-1.3-2.9-2.8s1.3-2.8,2.9-2.8
			C-1389.6-1545.5-1388.3-1544.3-1388.3-1542.7"/>
	</g>
</g>
<g>
	<path class="st1" d="M54.2,28.7C54,16.3,43.9,6.3,31.4,6.3S8.7,16.3,8.6,28.7c-3.2,0.3-5.7,2.9-5.7,6.2c0,3.4,2.8,6.2,6.3,6.2
		s6.3-2.8,6.3-6.2c0-3.3-2.5-5.9-5.7-6.2c0-11.8,9.6-21.3,21.6-21.3c11.9,0,21.6,9.5,21.7,21.3c-3.2,0.3-5.7,2.9-5.7,6.2
		c0,3.1,2.2,5.6,5.2,6.1c-0.5,7.2-6.3,13.5-13.4,14.5c-0.3-1.2-1.4-2.1-2.8-2.1c-1.6,0-2.9,1.3-2.9,2.8c0,1.6,1.3,2.8,2.9,2.8
		c1.4,0,2.6-1.1,2.8-2.4c7.7-1,13.9-7.8,14.4-15.5c3.4,0,6.2-2.8,6.2-6.2C59.9,31.6,57.4,29,54.2,28.7z M14.3,34.9
		c0,2.8-2.3,5.1-5.2,5.1s-5.2-2.3-5.2-5.1s2.3-5.1,5.2-5.1C11.9,29.8,14.3,32.1,14.3,34.9z M53.6,40.1c-2.9,0-5.2-2.3-5.2-5.1
		s2.3-5.1,5.2-5.1s5.2,2.3,5.2,5.1C58.8,37.7,56.5,40.1,53.6,40.1z"/>
	<path class="st1" d="M25.3,28.9c-0.1,0.1-0.2,0.2-0.3,0.3c-0.1,0.1-0.3,0.1-0.4,0.1c-0.2,0-0.3,0-0.6,0h-2.2c0.7-0.5,1.2-1,1.7-1.4
		s0.9-0.9,1.2-1.3c0.3-0.4,0.5-0.8,0.7-1.3c0.1-0.4,0.2-0.9,0.2-1.3c0-1.4-0.8-2.1-2.3-2.1c-0.8,0-1.5,0.2-1.9,0.5s-0.6,0.8-0.6,1.4
		c0,0.5,0.2,0.8,0.5,0.8c0.4,0,0.5-0.2,0.5-0.6c0-0.2-0.1-0.4-0.4-0.5c0-0.3,0.1-0.5,0.4-0.7c0.2-0.2,0.6-0.3,1.1-0.3
		s0.9,0.1,1.2,0.4c0.3,0.2,0.4,0.6,0.4,1.1s-0.1,0.9-0.3,1.4c-0.2,0.5-0.5,1-0.8,1.4c-0.3,0.5-0.8,1-1.2,1.5c-0.5,0.5-1,1-1.5,1.6
		v0.3c0.1,0,0.3,0,0.4,0c0.2,0,0.3,0,0.5,0h3.9l0.5-2l-0.3-0.1C25.4,28.6,25.3,28.7,25.3,28.9z"/>
	<path class="st1" d="M31.5,27.2H31c-0.1,0-0.2-0.1-0.2-0.2v-4c0-0.3,0-0.7,0.1-1l-0.4-0.1l-4,5.6V28h3c0.2,0,0.3,0.1,0.3,0.2v1.2
		c0,0.3-0.2,0.5-0.6,0.5v0.4h2.2V30c-0.4,0-0.6-0.2-0.6-0.5v-1.2c0-0.2,0.1-0.2,0.2-0.2h1.1v-0.9c-0.1,0-0.2,0-0.3,0.1
		C31.7,27.2,31.6,27.2,31.5,27.2z M29.8,27c0,0.2-0.1,0.2-0.3,0.2h-2.2l2.5-3.5V27z"/>
	<polygon class="st1" points="36.1,21.9 32.5,31 33.1,31 36.7,21.9 	"/>
	<path class="st1" d="M40.7,24.5c-0.1,0.3-0.3,0.6-0.5,0.9s-0.3,0.6-0.4,0.9c-0.1,0.2-0.2,0.5-0.4,0.8c-0.1,0.3-0.3,0.6-0.4,1
		c-0.1,0.3-0.2,0.7-0.3,1s-0.1,0.6-0.1,0.8c0,0.5,0.2,0.7,0.7,0.7s0.7-0.3,0.7-0.8s0.1-1.1,0.2-1.7c0.1-0.6,0.2-1.1,0.4-1.6
		c0.1-0.3,0.2-0.6,0.3-0.9s0.2-0.7,0.4-1c0.1-0.3,0.3-0.7,0.4-1c0.1-0.3,0.3-0.6,0.4-0.9v-0.5h-3.4c-0.3,0-0.5,0-0.7,0s-0.4,0-0.5,0
		l-0.3,2l0.3,0.1c0.2-0.8,0.5-1.1,0.9-1.1h2.9c0.1,0,0.1,0,0.1,0.1c-0.1,0.1-0.1,0.3-0.2,0.5C41,23.9,40.9,24.2,40.7,24.5z"/>
</g>
</svg>
