<?xml version="1.0" encoding="utf-8"?>
<!-- Generator: Adobe Illustrator 22.0.0, SVG Export Plug-In . SVG Version: 6.00 Build 0)  -->
<svg version="1.1" id="Layer_1" xmlns="http://www.w3.org/2000/svg" xmlns:xlink="http://www.w3.org/1999/xlink" x="0px" y="0px"
	 viewBox="0 0 64 64" style="enable-background:new 0 0 64 64;" xml:space="preserve">
<style type="text/css">
	.st0{opacity:0.3;fill:#34D66A;}
	.st1{fill:#34D66A;}
</style>
<title>Transfar</title>
<desc>Created using Figma</desc>
<path id="path0_fill" class="st0" d="M59.2,7.2H35.9c-1.1,0-2,0.9-2,2v8v8.4c0,1.1,0.9,2,2,2h23.3c1.1,0,2-0.9,2-2v-8.4v-8
	C61.2,8.1,60.3,7.2,59.2,7.2"/>
<path class="st1" d="M55.1,4.4H34.2c-1.9,0-3.5,1.6-3.5,3.5v14.2c0,2,1.6,3.5,3.5,3.5h8.7v3.3h-1.5v1.5h6.5v-1.5h-1.5v-3.3h8.7
	c1.9,0,3.5-1.6,3.5-3.5V7.9C58.6,6,57,4.4,55.1,4.4z M44.9,28.9h-0.5v-3.3h0.5V28.9z M55.1,25H34.2c-1.6,0-2.9-1.3-2.9-2.9V7.9
	c0-1.6,1.3-2.9,2.9-2.9h20.9C56.7,5,58,6.3,58,7.9v14.2C58,23.7,56.7,25,55.1,25z"/>
<path id="path5_fill" class="st0" d="M32,35.6H8.6c-1.1,0-2,0.9-2,2v8V54c0,1.1,0.9,2,2,2H32c1.1,0,2-0.9,2-2v-8.4v-8
	C34,36.5,33,35.6,32,35.6"/>
<path class="st1" d="M27.8,32.9H6.9c-1.9,0-3.5,1.6-3.5,3.5v14.2c0,2,1.6,3.5,3.5,3.5h8.2v4h-1.4v0.6h6.5v-0.6h-1.4v-4h9
	c1.9,0,3.5-1.6,3.5-3.5V36.4C31.3,34.5,29.7,32.9,27.8,32.9z M17.3,58.2h-0.6v-4h0.6V58.2z M27.8,53.6H6.9c-1.6,0-2.9-1.3-2.9-2.9
	V36.5c0-1.6,1.3-2.9,2.9-2.9h20.9c1.6,0,2.9,1.3,2.9,2.9v14.2C30.7,52.3,29.4,53.6,27.8,53.6z"/>
<polygon class="st1" points="27.2,10.3 26.6,10.7 26.6,10.7 27.2,10.3 24,6.3 22.8,7.2 25,10 13.7,10 13,10 13,10.7 13,21 14.5,21 
	14.5,11.5 25,11.5 22.8,14.3 24,15.2 27.2,11.2 27.6,10.7 "/>
<polygon class="st1" points="15.8,29.6 16.2,30 16.7,29.6 16.2,29.1 "/>
<polygon class="st1" points="17,27.5 17,15.3 20,15.3 20,13.8 16.2,13.8 15.5,13.8 15.5,14.5 15.5,27.5 12.7,25.2 11.8,26.4 
	15.8,29.6 16.2,29.1 16.7,29.6 20.7,26.4 19.8,25.2 "/>
</svg>
