<?xml version="1.0" encoding="utf-8"?>
<!-- Generator: Adobe Illustrator 22.0.0, SVG Export Plug-In . SVG Version: 6.00 Build 0)  -->
<svg version="1.1" id="Layer_1" xmlns="http://www.w3.org/2000/svg" xmlns:xlink="http://www.w3.org/1999/xlink" x="0px" y="0px"
	 viewBox="0 0 64 64" style="enable-background:new 0 0 64 64;" xml:space="preserve">
<style type="text/css">
	.st0{opacity:0.3;fill:#5A7ADB;}
	.st1{fill:#5A7ADB;}
</style>
<path id="path0_fill" class="st0" d="M56.9,10H11.2c-2.2,0-4,1.8-4,3.9v15.6v16.3c0,2.2,1.8,3.9,4,3.9h45.7c2.2,0,4-1.8,4-3.9V29.5
	V13.9C60.9,11.8,59.1,10,56.9,10"/>
<title>web_icons</title>
<desc>Created using Figma</desc>
<path id="path3_fill" class="st1" d="M21.7,16.1c0,1.5-1.2,2.7-2.7,2.7c-1.5,0-2.7-1.2-2.7-2.7s1.2-2.7,2.7-2.7
	C20.4,13.4,21.7,14.6,21.7,16.1"/>
<path id="path3_fill_1_" class="st1" d="M52.1,16c0,1.5-1.2,2.7-2.7,2.7s-2.7-1.2-2.7-2.7s1.2-2.7,2.7-2.7
	C50.9,13.3,52.1,14.5,52.1,16"/>
<path id="path4_fill" class="st1" d="M21.7,36.4c0,1.5-1.2,2.7-2.7,2.7c-1.5,0-2.7-1.2-2.7-2.7s1.2-2.7,2.7-2.7
	C20.4,33.7,21.7,34.9,21.7,36.4"/>
<path id="path4_fill_1_" class="st1" d="M52.1,36.2c0,1.5-1.2,2.7-2.7,2.7s-2.7-1.2-2.7-2.7s1.2-2.7,2.7-2.7S52.1,34.7,52.1,36.2"/>
<polygon class="st1" points="40.6,34 41.1,34.4 41.6,34 41.1,33.4 "/>
<path class="st1" d="M53.1,5.7H7.4c-2.5,0-4.6,2-4.6,4.6v15.6V26v0.5v0.1v15.6c0,2.5,2.1,4.6,4.6,4.6h33v11.1h1.3V46.8h11.4
	c2.5,0,4.6-2,4.6-4.6V26.6v-0.1V26v-0.1V10.3C57.7,7.8,55.6,5.7,53.1,5.7z M56.4,42.2c0,1.8-1.5,3.3-3.3,3.3H41.6v-9.4l4.8,5.9
	l1-0.8L41.6,34l-0.5,0.4L40.6,34l-5.8,7.2l1,0.8l4.5-5.6v9.1h-33C5.5,45.5,4,44,4,42.2V27.3h52.3v14.9H56.4z M56.4,25.3H4.1v-15
	C4.1,8.5,5.5,7,7.4,7h45.7c1.8,0,3.3,1.5,3.3,3.3V25.3z"/>
</svg>
